<svg xmlns="http://www.w3.org/2000/svg" xmlns:xlink="http://www.w3.org/1999/xlink" width="108" height="108" viewBox="0 0 108 108">
  <defs>
    <filter id="Trazado_904820" x="0" y="0" width="108" height="108" filterUnits="userSpaceOnUse">
      <feOffset dy="3" input="SourceAlpha"/>
      <feGaussianBlur stdDeviation="3" result="blur"/>
      <feFlood flood-opacity="0.161"/>
      <feComposite operator="in" in2="blur"/>
      <feComposite in="SourceGraphic"/>
    </filter>
  </defs>
  <g id="Grupo_1226074" data-name="Grupo 1226074" transform="translate(-199 -2161)">
    <g id="Grupo_1225662" data-name="Grupo 1225662" transform="translate(0 -4850.766)">
      <g id="Grupo_1224817" data-name="Grupo 1224817" transform="translate(208 7017.766)">
        <g id="Grupo_1221443" data-name="Grupo 1221443" transform="translate(0 0)">
          <g id="Grupo_1220569" data-name="Grupo 1220569">
            <g id="Grupo_1219977" data-name="Grupo 1219977">
              <g id="Grupo_1219603" data-name="Grupo 1219603">
                <g id="Grupo_1202655" data-name="Grupo 1202655">
                  <g id="Grupo_1173585" data-name="Grupo 1173585">
                    <g id="Grupo_1173428" data-name="Grupo 1173428">
                      <g id="Grupo_1171958" data-name="Grupo 1171958">
                        <g id="Grupo_1167341" data-name="Grupo 1167341">
                          <g id="Grupo_1166792" data-name="Grupo 1166792">
                            <g transform="matrix(1, 0, 0, 1, -9, -6)" filter="url(#Trazado_904820)">
                              <g id="Trazado_904820-2" data-name="Trazado 904820" transform="translate(9 6)" fill="#f7f4ed">
                                <path d="M 44.99999618530273 88.49990081787109 C 39.12687301635742 88.49990081787109 33.43022155761719 87.3499755859375 28.06829643249512 85.08207702636719 C 22.88852119445801 82.89122009277344 18.23629570007324 79.75450134277344 14.24084663391113 75.75906372070312 C 10.24540901184082 71.76361846923828 7.108683586120605 67.11140441894531 4.917821407318115 61.931640625 C 2.649921178817749 56.56971740722656 1.499996185302734 50.87306594848633 1.499996185302734 44.99995422363281 C 1.499996185302734 39.1268424987793 2.649921178817749 33.43019104003906 4.917821407318115 28.06826591491699 C 7.108683586120605 22.88850402832031 10.24540901184082 18.23629188537598 14.24084663391113 14.24084186553955 C 18.23629570007324 10.24540424346924 22.88852119445801 7.108691692352295 28.06829643249512 4.917829036712646 C 33.43022155761719 2.649929285049438 39.12687301635742 1.500004172325134 44.99999618530273 1.500004172325134 C 50.87311935424805 1.500004172325134 56.56977081298828 2.649929285049438 61.93169784545898 4.917829036712646 C 67.11147308349609 7.108691692352295 71.76369476318359 10.24540424346924 75.75914764404297 14.24084186553955 C 79.75458526611328 18.23629188537598 82.89131164550781 22.88850402832031 85.08216857910156 28.06826591491699 C 87.35007476806641 33.43019104003906 88.5 39.1268424987793 88.5 44.99995422363281 C 88.5 50.87306594848633 87.35007476806641 56.56971740722656 85.08216857910156 61.931640625 C 82.89131164550781 67.11140441894531 79.75458526611328 71.76361846923828 75.75914764404297 75.75906372070312 C 71.76369476318359 79.75450134277344 67.11147308349609 82.89122009277344 61.93169784545898 85.08207702636719 C 56.56977081298828 87.3499755859375 50.87311935424805 88.49990081787109 44.99999618530273 88.49990081787109 Z" stroke="none"/>
                                <path d="M 44.99999618530273 3 C 39.32870864868164 3 33.82865142822266 4.110054016113281 28.65262603759766 6.299324035644531 C 23.65165710449219 8.414566040039062 19.15968322753906 11.44332885742188 15.301513671875 15.30149841308594 C 11.44333648681641 19.15966796875 8.414566040039062 23.65162658691406 6.299339294433594 28.65259552001953 C 4.110054016113281 33.8286247253418 2.999992370605469 39.32866668701172 2.999992370605469 44.99995422363281 C 2.999992370605469 50.67124176025391 4.110054016113281 56.17128372192383 6.299339294433594 61.34731292724609 C 8.414566040039062 66.34828186035156 11.44333648681641 70.84024047851562 15.301513671875 74.69841003417969 C 19.15968322753906 78.55657958984375 23.65165710449219 81.58534240722656 28.65262603759766 83.70058441162109 C 33.82865142822266 85.88985443115234 39.32870864868164 86.99990844726562 44.99999618530273 86.99990844726562 C 50.67128372192383 86.99990844726562 56.17134094238281 85.88985443115234 61.34736633300781 83.70058441162109 C 66.34834289550781 81.58534240722656 70.84030914306641 78.55657958984375 74.69847869873047 74.69841003417969 C 78.55665588378906 70.84024047851562 81.58542633056641 66.34828186035156 83.70065307617188 61.34731292724609 C 85.88993835449219 56.17128372192383 87 50.67124176025391 87 44.99995422363281 C 87 39.32866668701172 85.88993835449219 33.8286247253418 83.70065307617188 28.65259552001953 C 81.58542633056641 23.65162658691406 78.55665588378906 19.15966796875 74.69847869873047 15.30149841308594 C 70.84030914306641 11.44332885742188 66.34834289550781 8.414566040039062 61.34736633300781 6.299324035644531 C 56.17134094238281 4.110054016113281 50.67128372192383 3 44.99999618530273 3 M 44.99999618530273 0 C 69.85281372070312 0 90 20.14717102050781 90 44.99995422363281 C 90 69.85273742675781 69.85281372070312 89.99990844726562 44.99999618530273 89.99990844726562 C 20.14717864990234 89.99990844726562 -7.62939453125e-06 69.85273742675781 -7.62939453125e-06 44.99995422363281 C -7.62939453125e-06 20.14717102050781 20.14717864990234 0 44.99999618530273 0 Z" stroke="none" fill="#ba9c5a"/>
                              </g>
                            </g>
                          </g>
                        </g>
                      </g>
                    </g>
                  </g>
                </g>
              </g>
            </g>
          </g>
        </g>
      </g>
    </g>
    <g id="abogado_3_" data-name="abogado (3)" transform="translate(222.654 2178.474)">
      <path id="Trazado_1179051" data-name="Trazado 1179051" d="M30.173,16.817v4.251L25,24.788l-5.183-3.72V17.057A6.877,6.877,0,0,0,24.9,19.818a7,7,0,0,0,5.271-3Z" transform="translate(5.151 4.389)" fill="#ffe1c3"/>
      <path id="Trazado_1179052" data-name="Trazado 1179052" d="M24.9,19.822A6.877,6.877,0,0,1,19.82,17.06v2.049A6.877,6.877,0,0,0,24.9,21.871a7,7,0,0,0,5.271-3V16.817a7,7,0,0,1-5.271,3Z" transform="translate(5.151 4.389)" fill="#ffd1ac"/>
      <path id="Trazado_1179053" data-name="Trazado 1179053" d="M34.719,1a3.35,3.35,0,0,1-2.749,1.16C30.1,1.8,28.692.75,25,.75a14.037,14.037,0,0,0-5.51,1.034c-.24.113-.467.227-.681.353a5.534,5.534,0,0,0-2.749,3.329,9.348,9.348,0,0,0,.214,5.864,7.44,7.44,0,0,0,.769,1.6,19.176,19.176,0,0,0,3.19,7.932c.214.29.429.567.668.832a6.877,6.877,0,0,0,5.082,2.762,7,7,0,0,0,5.271-3,18.628,18.628,0,0,0,3.669-8.512,8.116,8.116,0,0,0,.845-1.627,6.1,6.1,0,0,0,.277-.769c.113-.4.2-.794.277-1.16A11.5,11.5,0,0,0,36.522,8a9.761,9.761,0,0,0-1.8-7Z" transform="translate(4.072 0.196)" fill="#ffe1c3"/>
      <path id="Trazado_1179054" data-name="Trazado 1179054" d="M25.259,23.7,20.081,19.99,19.146,21.2l-.327.276,6.408,14.671L31.8,21.575l-.439-.376-.923-1.209Z" transform="translate(4.89 5.217)" fill="#d9f0fb"/>
      <path id="Trazado_1179055" data-name="Trazado 1179055" d="M36.522,8a11.5,11.5,0,0,1-.2,1.387c-.076.366-.164.757-.277,1.16a6.1,6.1,0,0,1-.277.769,8.115,8.115,0,0,1-.845,1.627l-.013-.05a12.357,12.357,0,0,0-.605-1.664c-.454-1-1.16-1.98-1.992-1.564a10.248,10.248,0,0,1-6.9,1.311,16.365,16.365,0,0,1-5.12-1.286,10.129,10.129,0,0,1-1.765,2.169,5.413,5.413,0,0,1-1.488,1.072,7.44,7.44,0,0,1-.769-1.6,9.348,9.348,0,0,1-.214-5.864,5.534,5.534,0,0,1,2.749-3.329c.214-.126.441-.24.681-.353A14.037,14.037,0,0,1,25,.75C28.692.75,30.1,1.8,31.97,2.163A3.35,3.35,0,0,0,34.719,1a9.761,9.761,0,0,1,1.8,7Z" transform="translate(4.072 0.196)" fill="#2f373f"/>
      <path id="Trazado_1179056" data-name="Trazado 1179056" d="M35.868,8a11.5,11.5,0,0,1-.2,1.387,4.07,4.07,0,0,0-3.19-2.068c-1.664-.126-2.358.378-5.41.883s-6.444-.265-8.121-2.219a3.531,3.531,0,0,1-.113-4.2A14.037,14.037,0,0,1,24.342.75c3.695,0,5.107,1.047,6.973,1.412A3.35,3.35,0,0,0,34.064,1a9.761,9.761,0,0,1,1.8,7Z" transform="translate(4.727 0.196)" fill="#384149"/>
      <path id="Trazado_1179057" data-name="Trazado 1179057" d="M28.238,26.5l-3.613,8.109-3.5-7.874,3.537-3.8Z" transform="translate(5.491 5.987)" fill="#c1ecfb"/>
      <path id="Trazado_1179058" data-name="Trazado 1179058" d="M52.127,29.7a3.439,3.439,0,0,0-2.358-2.812L37.575,22.943l-2.33-1.994-6.131,13.8-6.08-13.8-2.368,1.994L8.472,26.889A3.439,3.439,0,0,0,6.114,29.7L3.92,46.585h50.5Z" transform="translate(1.001 5.467)" fill="#4e6078"/>
      <path id="Trazado_1179059" data-name="Trazado 1179059" d="M.75,41.16H59.385v7.679H.75Z" transform="translate(0.174 10.742)" fill="#daa158"/>
      <path id="Trazado_1179060" data-name="Trazado 1179060" d="M58.333,41.16V47.2H10.127A5.349,5.349,0,0,1,4.78,41.854V41.16Z" transform="translate(1.226 10.742)" fill="#ffb963"/>
      <path id="Trazado_1179061" data-name="Trazado 1179061" d="M19.568,20.949,17.2,22.943l.315,4.237,2.421,1.3L18.321,33.52h6.788Z" transform="translate(4.467 5.467)" fill="#5e738e"/>
      <path id="Trazado_1179062" data-name="Trazado 1179062" d="M29.512,28.478l2.421-1.3.315-4.237-2.33-1.994L24.332,33.52h6.925Z" transform="translate(6.328 5.467)" fill="#5e738e"/>
      <path id="Trazado_1179063" data-name="Trazado 1179063" d="M24.556,30.918H23.472l.541,1.226Z" transform="translate(6.104 8.069)" fill="#dff8ff"/>
      <path id="Trazado_1179064" data-name="Trazado 1179064" d="M13.92,30.82H39.139V44.008H13.92Z" transform="translate(3.611 8.043)" fill="#dff8ff"/>
      <path id="Trazado_1179065" data-name="Trazado 1179065" d="M4.33,50.259a.843.843,0,0,0,.126.009.947.947,0,0,0,.933-.822L7.264,35.3a2.5,2.5,0,0,1,1.7-2.043l11.055-3.575.218,3.034a.946.946,0,0,0,.5.767l1.715.917-.334.967a.946.946,0,0,0,.584,1.2.958.958,0,0,0,.31.052.946.946,0,0,0,.894-.63l.6-1.73a.947.947,0,0,0-.448-1.144l-1.967-1.05-.232-3.237,1.029-.869L25.1,32.973l1.238,2.809a.946.946,0,0,0,1.731-.757l-.987-2.258,2.308-2.485,2.291,2.282L30.6,35.017a.946.946,0,0,0,1.731.757l3.451-7.821,1.029.869-.232,3.237-1.967,1.05a.946.946,0,0,0-.448,1.144l.6,1.73a.946.946,0,1,0,1.788-.618l-.335-.967,1.715-.917a.95.95,0,0,0,.5-.767l.218-3.034L49.7,33.255a2.5,2.5,0,0,1,1.7,2.044L53.28,49.445a.947.947,0,0,0,.937.822.86.86,0,0,0,.126-.009.946.946,0,0,0,.813-1.062L53.27,35.055a4.4,4.4,0,0,0-2.99-3.6L38.251,27.566,36.21,25.843l-.724-.948v-2.9a19.8,19.8,0,0,0,3.6-8.491,9.143,9.143,0,0,0,.849-1.662c.1-.252.208-.542.291-.836C42.071,4.565,38.85.738,38.712.578a.942.942,0,0,0-1.421,0c-.009.01-.939,1.035-1.855.86a12.54,12.54,0,0,1-1.6-.463c-.286-.1-.578-.2-.9-.293A15.069,15.069,0,0,0,28.271,0c-2.492,0-8.436.526-9.843,5.4a10.247,10.247,0,0,0,.228,6.452,8.9,8.9,0,0,0,.769,1.639,19.617,19.617,0,0,0,3.808,8.77v2.617l-.68.89L20.41,27.575,8.385,31.455a4.4,4.4,0,0,0-3,3.6L3.517,49.2a.944.944,0,0,0,.813,1.062ZM29.253,25.6a6.921,6.921,0,0,0,4.335-1.639v.748l-4.234,3.054-4.229-3.045V24.1a6.827,6.827,0,0,0,4.128,1.5Zm-3.01,5.289-1.91-4.336.037-.047,3.564,2.564Zm4.568-1.846L34.327,26.5l.011.015-1.847,4.194ZM21.245,12.953a1.044,1.044,0,0,0-.063-.164.909.909,0,0,0-.076-.179.021.021,0,0,0-.009-.02,6.663,6.663,0,0,1-.665-1.387,8.379,8.379,0,0,1-.188-5.276c1.052-3.642,5.963-4.035,8.026-4.035a13.114,13.114,0,0,1,4.11.594c.3.092.578.187.849.277a14.036,14.036,0,0,0,1.839.527A3.63,3.63,0,0,0,37.8,2.605a10.186,10.186,0,0,1,.6,7.887c-.026.095-.058.189-.09.281a3.378,3.378,0,0,0-1.743-1.857,1.757,1.757,0,0,0-1.41.1,9.417,9.417,0,0,1-6.378,1.212,15.871,15.871,0,0,1-4.808-1.2.957.957,0,0,0-1.251.416,7.474,7.474,0,0,1-.968,1.29A.946.946,0,1,0,23.166,12c.323-.362.574-.681.763-.939a18.879,18.879,0,0,0,4.666,1.057A10.915,10.915,0,0,0,35.949,10.7s.323.142.769,1.118a9.926,9.926,0,0,1,.5,1.363c-.9,5.1-4.161,10.518-7.967,10.518-3.854,0-7.153-5.567-8-10.726A.184.184,0,0,1,21.245,12.953Z" transform="translate(0.894)"/>
      <path id="Trazado_1179066" data-name="Trazado 1179066" d="M59.664,44.28H12.9V30.951l2.036-1.059a2.4,2.4,0,0,0,1.513.547,2.427,2.427,0,1,0-2.426-2.427c0,.071.015.14.021.21l-2.526,1.313a.946.946,0,0,0-.5.84V44.28H1.029a.946.946,0,0,0-.946.946V52.9a.946.946,0,1,0,1.891,0V46.172H58.718V52.9a.946.946,0,0,0,1.891,0V45.226a.946.946,0,0,0-.946-.946ZM16.455,27.48a.535.535,0,1,1-.379.157.536.536,0,0,1,.379-.157Z" transform="translate(0 6.677)"/>
      <path id="Trazado_1179067" data-name="Trazado 1179067" d="M39.415,42.419a.946.946,0,0,0,.946-.946V31.018a.946.946,0,0,0-.946-.946H14.2a.946.946,0,0,0-.946.946V41.474a.946.946,0,0,0,1.891,0v-9.51H38.469v9.51A.946.946,0,0,0,39.415,42.419Z" transform="translate(3.436 7.848)"/>
    </g>
  </g>
</svg>
