<svg xmlns="http://www.w3.org/2000/svg" xmlns:xlink="http://www.w3.org/1999/xlink" width="108" height="108" viewBox="0 0 108 108">
  <defs>
    <filter id="Trazado_904820" x="0" y="0" width="108" height="108" filterUnits="userSpaceOnUse">
      <feOffset dy="3" input="SourceAlpha"/>
      <feGaussianBlur stdDeviation="3" result="blur"/>
      <feFlood flood-opacity="0.161"/>
      <feComposite operator="in" in2="blur"/>
      <feComposite in="SourceGraphic"/>
    </filter>
  </defs>
  <g id="Grupo_1226088" data-name="Grupo 1226088" transform="translate(-616.827 -696)">
    <g id="Grupo_1221423" data-name="Grupo 1221423" transform="translate(0 -67.791)">
      <g id="Grupo_1220964" data-name="Grupo 1220964" transform="translate(625.827 769.791)">
        <g id="Grupo_1219977" data-name="Grupo 1219977" transform="translate(0 0)">
          <g id="Grupo_1219603" data-name="Grupo 1219603">
            <g id="Grupo_1202655" data-name="Grupo 1202655" transform="translate(0)">
              <g id="Grupo_1173585" data-name="Grupo 1173585">
                <g id="Grupo_1173428" data-name="Grupo 1173428">
                  <g id="Grupo_1171958" data-name="Grupo 1171958">
                    <g id="Grupo_1167341" data-name="Grupo 1167341">
                      <g id="Grupo_1166792" data-name="Grupo 1166792">
                        <g transform="matrix(1, 0, 0, 1, -9, -6)" filter="url(#Trazado_904820)">
                          <g id="Trazado_904820-2" data-name="Trazado 904820" transform="translate(9 6)" fill="#fdfaeb">
                            <path d="M 44.99999618530273 88.49999237060547 C 39.12687301635742 88.49999237060547 33.43022155761719 87.35006713867188 28.06829643249512 85.08216857910156 C 22.88852119445801 82.89130401611328 18.23629570007324 79.75457763671875 14.24084663391113 75.75914001464844 C 10.24540901184082 71.76369476318359 7.108683586120605 67.11146545410156 4.917821407318115 61.93169403076172 C 2.649921178817749 56.56976699829102 1.499996185302734 50.87311553955078 1.499996185302734 44.99999237060547 C 1.499996185302734 39.12686920166016 2.649921178817749 33.43021774291992 4.917821407318115 28.06829261779785 C 7.108683586120605 22.88851737976074 10.24540901184082 18.23630523681641 14.24084663391113 14.24085521697998 C 18.23629570007324 10.24540519714355 22.88852119445801 7.108692169189453 28.06829643249512 4.917829990386963 C 33.43022155761719 2.649929761886597 39.12687301635742 1.500004887580872 44.99999618530273 1.500004887580872 C 50.87311935424805 1.500004887580872 56.56977081298828 2.649929761886597 61.93169784545898 4.917829990386963 C 67.11147308349609 7.108692169189453 71.76369476318359 10.24540519714355 75.75914764404297 14.24085521697998 C 79.75458526611328 18.23630523681641 82.89131164550781 22.88851737976074 85.08216857910156 28.06829261779785 C 87.35007476806641 33.43021774291992 88.5 39.12686920166016 88.5 44.99999237060547 C 88.5 50.87311553955078 87.35007476806641 56.56976699829102 85.08216857910156 61.93169403076172 C 82.89131164550781 67.11146545410156 79.75458526611328 71.76369476318359 75.75914764404297 75.75914001464844 C 71.76369476318359 79.75457763671875 67.11147308349609 82.89130401611328 61.93169784545898 85.08216857910156 C 56.56977081298828 87.35006713867188 50.87311935424805 88.49999237060547 44.99999618530273 88.49999237060547 Z" stroke="none"/>
                            <path d="M 44.99999618530273 2.999992370605469 C 39.32870864868164 2.999992370605469 33.82865142822266 4.11004638671875 28.65262603759766 6.299331665039062 C 23.65165710449219 8.414566040039062 19.15968322753906 11.44333648681641 15.301513671875 15.30150604248047 C 11.44333648681641 19.15967559814453 8.414566040039062 23.65164947509766 6.299339294433594 28.65262222290039 C 4.110054016113281 33.82864761352539 2.999992370605469 39.32870483398438 2.999992370605469 44.99999237060547 C 2.999992370605469 50.67127990722656 4.110054016113281 56.17132186889648 6.299339294433594 61.34736633300781 C 8.414566040039062 66.34833526611328 11.44333648681641 70.84029388427734 15.301513671875 74.69846343994141 C 19.15968322753906 78.55663299560547 23.65165710449219 81.58540344238281 28.65262603759766 83.70063781738281 C 33.82865142822266 85.88992309570312 39.32870864868164 86.99997711181641 44.99999618530273 86.99997711181641 C 50.67128372192383 86.99997711181641 56.17134094238281 85.88992309570312 61.34736633300781 83.70063781738281 C 66.34834289550781 81.58540344238281 70.84030914306641 78.55663299560547 74.69847869873047 74.69846343994141 C 78.55665588378906 70.84029388427734 81.58542633056641 66.34833526611328 83.70065307617188 61.34736633300781 C 85.88993835449219 56.17132186889648 87 50.67127990722656 87 44.99999237060547 C 87 39.32870483398438 85.88993835449219 33.82864761352539 83.70065307617188 28.65262222290039 C 81.58542633056641 23.65164947509766 78.55665588378906 19.15967559814453 74.69847869873047 15.30150604248047 C 70.84030914306641 11.44333648681641 66.34834289550781 8.414566040039062 61.34736633300781 6.299331665039062 C 56.17134094238281 4.11004638671875 50.67128372192383 2.999992370605469 44.99999618530273 2.999992370605469 M 44.99999618530273 -7.62939453125e-06 C 69.85281372070312 -7.62939453125e-06 90 20.14717864990234 90 44.99999237060547 C 90 69.85279083251953 69.85281372070312 89.99997711181641 44.99999618530273 89.99997711181641 C 20.14717864990234 89.99997711181641 -7.62939453125e-06 69.85279083251953 -7.62939453125e-06 44.99999237060547 C -7.62939453125e-06 20.14717864990234 20.14717864990234 -7.62939453125e-06 44.99999618530273 -7.62939453125e-06 Z" stroke="none" fill="#847625"/>
                          </g>
                        </g>
                      </g>
                    </g>
                  </g>
                </g>
              </g>
            </g>
          </g>
        </g>
      </g>
    </g>
    <g id="citacion_1_" data-name="citacion (1)" transform="translate(642.774 718.947)">
      <g id="Grupo_1226086" data-name="Grupo 1226086" transform="translate(0.905 0.903)">
        <g id="Grupo_1226075" data-name="Grupo 1226075" transform="translate(0 3.62)">
          <path id="Trazado_1179073" data-name="Trazado 1179073" d="M35.849,12.238A17.413,17.413,0,0,0,42.1,21.984a5.244,5.244,0,0,0,3.24,1.113,5.024,5.024,0,0,0,.9-.081V55.675H1V5H35.388V8.256a17.173,17.173,0,0,0,.462,3.982Z" transform="translate(-1 -4.998)" fill="#ffeaa7"/>
        </g>
        <g id="Grupo_1226076" data-name="Grupo 1226076" transform="translate(3.62 7.24)">
          <path id="Trazado_1179074" data-name="Trazado 1179074" d="M11.335,9A6.335,6.335,0,1,1,5,15.333,6.33,6.33,0,0,1,11.335,9Z" transform="translate(-5 -8.998)" fill="#aab2bd"/>
        </g>
        <g id="Grupo_1226077" data-name="Grupo 1226077" transform="translate(7.24 10.859)">
          <ellipse id="Elipse_14686" data-name="Elipse 14686" cx="3" cy="2.5" rx="3" ry="2.5" transform="translate(-0.145 0.344)" fill="#ccd1d9"/>
        </g>
        <g id="Grupo_1226078" data-name="Grupo 1226078" transform="translate(34.388)">
          <path id="Trazado_1179075" data-name="Trazado 1179075" d="M58.909,4.618V7.876A17.444,17.444,0,0,1,52.194,21.6a5.185,5.185,0,0,1-2.335,1.032,5.024,5.024,0,0,1-.9.081,5.244,5.244,0,0,1-3.24-1.113,17.413,17.413,0,0,1-6.253-9.746A17.173,17.173,0,0,1,39,7.876V4.618l8.208-3.285a4.723,4.723,0,0,1,3.493,0Z" transform="translate(-39 -0.998)" fill="#aab2bd"/>
        </g>
        <g id="Grupo_1226079" data-name="Grupo 1226079" transform="translate(38.008 3.62)">
          <path id="Trazado_1179076" data-name="Trazado 1179076" d="M49.335,5a1.011,1.011,0,0,1,.4.081L55.669,7.45v.805a13.661,13.661,0,0,1-5.321,10.868,1.7,1.7,0,0,1-2.027,0A13.661,13.661,0,0,1,43,8.256V7.45l5.936-2.371a1.011,1.011,0,0,1,.4-.081Z" transform="translate(-43 -4.998)" fill="#ccd1d9"/>
        </g>
        <g id="Grupo_1226080" data-name="Grupo 1226080" transform="translate(20.814 30.768)">
          <path id="Trazado_1179077" data-name="Trazado 1179077" d="M24,35h3.62V51.287H24Z" transform="translate(-24 -34.998)" fill="#cf9e76"/>
        </g>
        <g id="Grupo_1226081" data-name="Grupo 1226081" transform="translate(20.814 21.719)">
          <path id="Trazado_1179078" data-name="Trazado 1179078" d="M27.62,25.9v4.525H24V25.9a.908.908,0,0,1,.9-.9h1.81A.908.908,0,0,1,27.62,25.9Z" transform="translate(-24 -24.998)" fill="#cf9e76"/>
        </g>
        <g id="Grupo_1226082" data-name="Grupo 1226082" transform="translate(7.24 27.148)">
          <path id="Trazado_1179079" data-name="Trazado 1179079" d="M39.768,31.9v1.81a.908.908,0,0,1-.9.9H9.9a.908.908,0,0,1-.9-.9V31.9a.908.908,0,0,1,.9-.9H38.863a.908.908,0,0,1,.9.9Z" transform="translate(-9 -30.998)" fill="#cf9e76"/>
        </g>
        <g id="Grupo_1226083" data-name="Grupo 1226083" transform="translate(13.574 47.057)">
          <path id="Trazado_1179080" data-name="Trazado 1179080" d="M34.1,53.9v1.81a.908.908,0,0,1-.9.9H16.9a.908.908,0,0,1-.9-.9V53.9a.908.908,0,0,1,.9-.9H33.194A.908.908,0,0,1,34.1,53.9Z" transform="translate(-16 -52.998)" fill="#b27946"/>
        </g>
        <g id="Grupo_1226084" data-name="Grupo 1226084" transform="translate(28.053 39.817)">
          <path id="Trazado_1179081" data-name="Trazado 1179081" d="M32,45h9.049a3.615,3.615,0,0,1-3.62,3.62H35.62A3.619,3.619,0,0,1,32,45Z" transform="translate(-32 -44.998)" fill="#d3a06c"/>
        </g>
        <g id="Grupo_1226085" data-name="Grupo 1226085" transform="translate(8.144 39.817)">
          <path id="Trazado_1179082" data-name="Trazado 1179082" d="M17.991,47.559a3.642,3.642,0,0,1-2.561,1.059H13.62A3.619,3.619,0,0,1,10,45h9.049a3.642,3.642,0,0,1-1.059,2.561Z" transform="translate(-10 -44.998)" fill="#d3a06c"/>
        </g>
      </g>
      <g id="Grupo_1226087" data-name="Grupo 1226087" transform="translate(0 0.001)">
        <path id="Trazado_1179083" data-name="Trazado 1179083" d="M38.768,29.428H27v-3.62A1.812,1.812,0,0,0,25.194,24h-1.81a1.812,1.812,0,0,0-1.81,1.81v3.62H9.81A1.812,1.812,0,0,0,8,31.238v1.81a1.812,1.812,0,0,0,1.81,1.81h2.283L8.9,42.828V43a4.53,4.53,0,0,0,4.525,4.525h1.81A4.53,4.53,0,0,0,19.764,43v-.174l-3.188-7.971h5V49.336h-5.43a1.812,1.812,0,0,0-1.81,1.81v1.81a1.812,1.812,0,0,0,1.81,1.81H32.433a1.812,1.812,0,0,0,1.81-1.81v-1.81a1.812,1.812,0,0,0-1.81-1.81H27V34.857h5l-3.188,7.971V43a4.53,4.53,0,0,0,4.525,4.525h1.81A4.53,4.53,0,0,0,39.673,43v-.174l-3.188-7.971h2.283a1.812,1.812,0,0,0,1.81-1.81v-1.81A1.812,1.812,0,0,0,38.768,29.428Zm-15.384-3.62h1.81v3.62h-1.81ZM15.24,45.717H13.43a2.711,2.711,0,0,1-2.547-1.81h6.9a2.709,2.709,0,0,1-2.547,1.81Zm2.283-3.62H11.146l2.9-7.24h.584ZM32.434,52.956H16.144v-1.81H32.433Zm-7.24-3.62h-1.81V34.857h1.81Zm9.954-3.62h-1.81a2.711,2.711,0,0,1-2.547-1.81h6.9a2.709,2.709,0,0,1-2.547,1.81Zm2.283-3.62H31.055l2.9-7.24h.584ZM9.81,33.047v-1.81H38.768v1.81Z" transform="translate(-0.76 -2.282)"/>
        <path id="Trazado_1179084" data-name="Trazado 1179084" d="M18.479,15.238a7.24,7.24,0,1,0-7.24,7.24,7.248,7.248,0,0,0,7.24-7.24Zm-12.669,0a5.43,5.43,0,1,1,5.43,5.43,5.435,5.435,0,0,1-5.43-5.43Z" transform="translate(-0.38 -0.761)"/>
        <path id="Trazado_1179085" data-name="Trazado 1179085" d="M15.24,15.618a3.62,3.62,0,1,0-3.62,3.62,3.623,3.623,0,0,0,3.62-3.62Zm-5.43,0a1.81,1.81,0,1,1,1.81,1.81,1.812,1.812,0,0,1-1.81-1.81Z" transform="translate(-0.76 -1.141)"/>
        <path id="Trazado_1179086" data-name="Trazado 1179086" d="M22,8h3.62v1.81H22Z" transform="translate(-2.091 -0.761)"/>
        <path id="Trazado_1179087" data-name="Trazado 1179087" d="M22,16h5.43v1.81H22Z" transform="translate(-2.091 -1.521)"/>
        <path id="Trazado_1179088" data-name="Trazado 1179088" d="M30,16h1.81v1.81H30Z" transform="translate(-2.852 -1.521)"/>
        <path id="Trazado_1179089" data-name="Trazado 1179089" d="M22,20H38.289v1.81H22Z" transform="translate(-2.091 -1.902)"/>
        <path id="Trazado_1179090" data-name="Trazado 1179090" d="M47.329.4a5.623,5.623,0,0,0-4.163,0L35.118,3.619H0V56.106H47.057V23.241a6.156,6.156,0,0,0,1.984-1.015A18.184,18.184,0,0,0,56.106,7.779V3.91ZM45.247,54.295H1.81V5.428H34.388v1.81H25.338v1.81h9.1c.042.61.109,1.214.21,1.81H19.909v1.81H35.049a18.126,18.126,0,0,0,.6,1.81H30.768v1.81h5.711a18.285,18.285,0,0,0,4.974,5.937,6.209,6.209,0,0,0,3.794,1.3ZM54.3,7.779A16.383,16.383,0,0,1,47.929,20.8a4.486,4.486,0,0,1-5.365,0A16.384,16.384,0,0,1,36.2,7.779V5.136l7.64-3.056a3.814,3.814,0,0,1,2.818,0L54.3,5.136Z" transform="translate(0 -0.001)"/>
        <path id="Trazado_1179091" data-name="Trazado 1179091" d="M48.5,4.14,42,6.741V8.159a14.584,14.584,0,0,0,5.668,11.588,2.59,2.59,0,0,0,3.144,0A14.586,14.586,0,0,0,56.479,8.159V6.741l-6.5-2.6A1.975,1.975,0,0,0,48.5,4.14Zm6.166,4.019a12.767,12.767,0,0,1-4.525,9.772V12.142h-1.81V17.93A12.765,12.765,0,0,1,43.81,8.158V7.966l4.525-1.81v4.176h1.81V6.157l4.525,1.81Z" transform="translate(-3.992 -0.381)"/>
      </g>
    </g>
  </g>
</svg>
