<svg xmlns="http://www.w3.org/2000/svg" xmlns:xlink="http://www.w3.org/1999/xlink" width="93.934" height="93.934" viewBox="0 0 93.934 93.934">
  <defs>
    <filter id="Trazado_982547" x="0" y="0" width="93.934" height="93.934" filterUnits="userSpaceOnUse">
      <feOffset dy="3" input="SourceAlpha"/>
      <feGaussianBlur stdDeviation="3" result="blur"/>
      <feFlood flood-opacity="0.161"/>
      <feComposite operator="in" in2="blur"/>
      <feComposite in="SourceGraphic"/>
    </filter>
  </defs>
  <g id="Grupo_1226048" data-name="Grupo 1226048" transform="translate(-191 -969)">
    <g id="Grupo_1224689" data-name="Grupo 1224689" transform="translate(200 975)">
      <g id="Grupo_1220441" data-name="Grupo 1220441">
        <g id="Grupo_1219553" data-name="Grupo 1219553">
          <g id="Grupo_1214711" data-name="Grupo 1214711">
            <g id="Grupo_1214432" data-name="Grupo 1214432">
              <g id="Grupo_1183196" data-name="Grupo 1183196">
                <g id="Grupo_1179610" data-name="Grupo 1179610">
                  <g id="Grupo_1175227" data-name="Grupo 1175227">
                    <g id="Grupo_1167337" data-name="Grupo 1167337">
                      <g id="Grupo_1166720" data-name="Grupo 1166720">
                        <g id="Grupo_1164305" data-name="Grupo 1164305">
                          <g id="Grupo_1163948" data-name="Grupo 1163948">
                            <g id="Grupo_1158168" data-name="Grupo 1158168">
                              <g id="Grupo_1152576" data-name="Grupo 1152576">
                                <g id="Grupo_1148633" data-name="Grupo 1148633">
                                  <g id="Grupo_1148525" data-name="Grupo 1148525">
                                    <g transform="matrix(1, 0, 0, 1, -9, -6)" filter="url(#Trazado_982547)">
                                      <g id="Trazado_982547-2" data-name="Trazado 982547" transform="translate(9 6)" fill="#f7f4ed">
                                        <path d="M 37.966796875 74.43359375 C 33.04315185546875 74.43359375 28.26757431030273 73.46962738037109 23.77274131774902 71.56847381591797 C 19.43047523498535 69.73184967041016 15.53040790557861 67.10224914550781 12.18087482452393 63.75271987915039 C 8.831341743469238 60.4031867980957 6.201741218566895 56.50312042236328 4.365118980407715 52.16086196899414 C 2.463963508605957 47.66601943969727 1.499996900558472 42.89044189453125 1.499996900558472 37.966796875 C 1.499996900558472 33.04315185546875 2.463963508605957 28.26757431030273 4.365118980407715 23.77274131774902 C 6.201741218566895 19.43047523498535 8.831341743469238 15.53040790557861 12.18087482452393 12.18087482452393 C 15.53040790557861 8.831341743469238 19.43047523498535 6.201741218566895 23.77274131774902 4.365118980407715 C 28.26757431030273 2.463963508605957 33.04315185546875 1.499996900558472 37.966796875 1.499996900558472 C 42.89044189453125 1.499996900558472 47.66601943969727 2.463963508605957 52.16086196899414 4.365118980407715 C 56.50312042236328 6.201741218566895 60.4031867980957 8.831341743469238 63.75271987915039 12.18087482452393 C 67.10224914550781 15.53040790557861 69.73184967041016 19.43047523498535 71.56847381591797 23.77274131774902 C 73.46962738037109 28.26757431030273 74.43359375 33.04315185546875 74.43359375 37.966796875 C 74.43359375 42.89044189453125 73.46962738037109 47.66601943969727 71.56847381591797 52.16086196899414 C 69.73184967041016 56.50313186645508 67.10224914550781 60.4031867980957 63.75271987915039 63.75271987915039 C 60.4031867980957 67.10224914550781 56.50313186645508 69.73184967041016 52.16086196899414 71.56847381591797 C 47.66601943969727 73.46962738037109 42.89044189453125 74.43359375 37.966796875 74.43359375 Z" stroke="none"/>
                                        <path d="M 37.966796875 3 C 33.2449836730957 3 28.66600799560547 3.924095153808594 24.35705947875977 5.746635437011719 C 20.19359588623047 7.507637023925781 16.45379638671875 10.02928161621094 13.24153518676758 13.24153518676758 C 10.02927398681641 16.45379638671875 7.507621765136719 20.19359588623047 5.746635437011719 24.35705947875977 C 3.924095153808594 28.66600799560547 3 33.2449836730957 3 37.966796875 C 3 42.6886100769043 3.924095153808594 47.26758575439453 5.746635437011719 51.57653427124023 C 7.507621765136719 55.73999786376953 10.02927398681641 59.47979736328125 13.24153518676758 62.69205856323242 C 16.45379638671875 65.90431976318359 20.19359588623047 68.42597198486328 24.35705947875977 70.18695831298828 C 28.66600799560547 72.00949859619141 33.2449836730957 72.93359375 37.966796875 72.93359375 C 42.6886100769043 72.93359375 47.26758575439453 72.00949859619141 51.57653427124023 70.18695831298828 C 55.73999786376953 68.42597198486328 59.47979736328125 65.90431976318359 62.69205856323242 62.69205856323242 C 65.90431976318359 59.47979736328125 68.42597198486328 55.73999786376953 70.18695831298828 51.57653427124023 C 72.00949859619141 47.26758575439453 72.93359375 42.6886100769043 72.93359375 37.966796875 C 72.93359375 33.2449836730957 72.00949859619141 28.66600799560547 70.18695831298828 24.35705947875977 C 68.42597198486328 20.19359588623047 65.90431976318359 16.45379638671875 62.69205856323242 13.24153518676758 C 59.47979736328125 10.02928161621094 55.73999786376953 7.507637023925781 51.57653427124023 5.746635437011719 C 47.26758575439453 3.924095153808594 42.6886100769043 3 37.966796875 3 M 37.966796875 0 C 58.93528366088867 0 75.93359375 16.99832153320312 75.93359375 37.966796875 C 75.93359375 58.93528366088867 58.93528366088867 75.93359375 37.966796875 75.93359375 C 16.99831008911133 75.93359375 0 58.93528366088867 0 37.966796875 C 0 16.99832153320312 16.99831008911133 0 37.966796875 0 Z" stroke="none" fill="#655531"/>
                                      </g>
                                    </g>
                                  </g>
                                </g>
                              </g>
                            </g>
                          </g>
                        </g>
                      </g>
                    </g>
                  </g>
                </g>
              </g>
            </g>
          </g>
        </g>
      </g>
    </g>
    <g id="recopilacion-de-datos" transform="translate(196.466 973.395)">
      <path id="Trazado_1178973" data-name="Trazado 1178973" d="M41.927,33.71v4.408H55.374a1.209,1.209,0,0,0,1.206-1.206v-3.2H51.6A1.517,1.517,0,0,1,50.083,32.2V20.034h0c0-.009,0-.018,0-.027h0v-.013h0V19.98h0l0-.012h0l0-.011h0v0l0-.01h0v0l0-.01h0v0l0-.006h0v0l0-.01h0v0l0-.01h0v0l0-.006v-.005h0l0-.006h0l0-.005h0l0-.006,0-.006h0l0-.006h0l0,0h0l0-.006v0l0,0,0-.006,0-.005h0l0-.006h0l0,0v0l0-.006h0l0-.005,0-.006.01-.017,0-.005.01-.016v0l.006-.009h0l.006-.009,0,0,.006-.008h0l0-.005,0,0h0l0,0,0,0,0,0,.017-.018,0,0h0l0,0,3.5-3.5a.527.527,0,0,1,.045-.041l.005,0,.005,0,.021-.016.005,0,.005,0h0l.033-.02h0a.527.527,0,0,1,.257-.067h8.5a1.517,1.517,0,0,1,1.514,1.514V32.2a1.517,1.517,0,0,1-1.514,1.514H57.638v3.2a2.268,2.268,0,0,1-2.264,2.264H41.927v3.353h1.561a7.38,7.38,0,0,1,.517-.577,7.321,7.321,0,0,1,11.314,9.174l1.167,1.161a.529.529,0,0,1,.437.136l6.762,6.087c.017.016.041.039.072.069a2.021,2.021,0,0,1,.588,1.452,2.193,2.193,0,0,1-.559,1.453c-.017.019-.042.045-.074.078s-.057.056-.078.075a2.195,2.195,0,0,1-1.45.566,2.018,2.018,0,0,1-1.454-.58c-.029-.029-.052-.053-.069-.072L54.535,54.81a.527.527,0,0,1-.132-.429l-1.167-1.162a7.281,7.281,0,0,1-1.184.636L49.525,59.9A2.685,2.685,0,0,1,48.6,61.02a2.413,2.413,0,0,1-1.352.468h-18.1a1.53,1.53,0,0,1-.593-.114,1.237,1.237,0,0,1-.577-.48,1.319,1.319,0,0,1-.2-.715c0-.028,0-.056,0-.085l.008-18.088a2.233,2.233,0,0,1,2.229-2.231h4.593a.527.527,0,0,1,.334.118l3.622,2.635h2.306V39.176H27.422a2.268,2.268,0,0,1-2.264-2.264v-3.2H20.171A1.517,1.517,0,0,1,18.657,32.2V20.034h0c0-.009,0-.018,0-.027h0v-.013h0V19.98h0l0-.012h0l0-.011h0v0l0-.011h0v0l0-.01h0v0l0-.006h0v0l0-.01h0v0l0-.01h0v0l0-.006v-.005h0l0-.006h0l0-.005h0l0-.006,0-.006h0l0-.006h0l0,0h0l0-.006v0l0,0,0-.006,0,0h0l0-.006h0l0,0v0l0-.006h0l0-.005,0-.006.01-.016h0l0-.005.01-.015v0l.006-.009h0l0-.005,0,0h0l0-.005,0,0h0l0-.005,0,0h0l0,0,0,0h0l0,0,0,0h0l.009-.009,0,0h0l0,0,3.5-3.5a.528.528,0,0,1,.045-.041l.005,0,.005,0L22.4,16.1l.005,0,.005,0h0l.033-.02h0a.527.527,0,0,1,.257-.067h8.5a1.517,1.517,0,0,1,1.514,1.514V32.2A1.517,1.517,0,0,1,31.2,33.71H26.216v3.2a1.209,1.209,0,0,0,1.206,1.206H40.869V33.71H35.884A1.517,1.517,0,0,1,34.37,32.2V20.034h0c0-.009,0-.018,0-.027h0v-.013h0V19.98h0l0-.012h0l0-.011h0v0l0-.01h0v0l0-.01h0v0l0-.006h0v0l0-.01h0v0l0-.01h0v0l0-.006v-.005h0l0-.006h0l0-.005h0l0-.006,0-.006h0l0-.006h0l0,0h0l0-.006v0l0,0,0-.006,0-.005h0l0-.006h0l0,0v0l0-.006h0l0-.005,0-.006.01-.017,0-.005.01-.016v0l.006-.009h0l.006-.009,0,0,.006-.008h0l0-.005,0,0h0l0,0,0,0,0,0,.017-.018,0,0h0l0,0,3.5-3.5a.529.529,0,0,1,.045-.041l.005,0,.005,0,.021-.016.005,0,.005,0h0l.033-.02h0a.527.527,0,0,1,.257-.067h8.5a1.517,1.517,0,0,1,1.514,1.514V32.2a1.517,1.517,0,0,1-1.514,1.514H41.927Z" transform="translate(0)" fill-rule="evenodd"/>
      <path id="Trazado_1178974" data-name="Trazado 1178974" d="M270.971,278.9a6.267,6.267,0,0,0,9.579,6.618,1.028,1.028,0,0,1,1.3.126l.9.9a2.675,2.675,0,0,1,.6-.6l-.9-.9a1.028,1.028,0,0,1-.133-1.3,6.266,6.266,0,1,0-11.342-4.846Zm2.521-2.17a5.061,5.061,0,1,1,.016,7.157,5.065,5.065,0,0,1-.016-7.157Z" transform="translate(-227.887 -233.194)" fill="#258b9b" fill-rule="evenodd"/>
      <path id="Trazado_1178975" data-name="Trazado 1178975" d="M137.436,329.364h-6.384a1.629,1.629,0,0,0-1.3.937L124.4,343.093c-.121.29-.1.532.248.532h18.1a1.629,1.629,0,0,0,1.3-.937l2.183-5.221A7.325,7.325,0,0,1,137.436,329.364Z" transform="translate(-95.503 -283.198)" fill="#fabc57" fill-rule="evenodd"/>
      <path id="Trazado_1178976" data-name="Trazado 1178976" d="M363.91,36.449h1.249a.458.458,0,0,0,.456-.456V34.744l-1.706,1.705Z" transform="translate(-312.024 -16.934)" fill="#e5bfbd" fill-rule="evenodd"/>
      <path id="Trazado_1178977" data-name="Trazado 1178977" d="M359.65,26.972v2a1.516,1.516,0,0,1-1.514,1.514h-2V42.1a.458.458,0,0,0,.456.456h11.027a.458.458,0,0,0,.456-.456V27.428a.458.458,0,0,0-.456-.456H359.65Zm4.532,9.651,2.842,2.273a1.773,1.773,0,0,1-1.234,3.069,1.545,1.545,0,0,1-1.256-.578l-2.273-2.842a3.97,3.97,0,1,1,1.921-1.921Z" transform="translate(-305 -9.91)" fill="#f1f1f3" fill-rule="evenodd"/>
      <path id="Trazado_1178978" data-name="Trazado 1178978" d="M37.4,36.449h1.249a.458.458,0,0,0,.456-.456V34.744L37.4,36.449Z" transform="translate(-16.938 -16.934)" fill="#e5bfbd" fill-rule="evenodd"/>
      <path id="Trazado_1178979" data-name="Trazado 1178979" d="M33.138,26.972v2a1.516,1.516,0,0,1-1.514,1.514h-2V42.1a.458.458,0,0,0,.456.456H41.111a.458.458,0,0,0,.456-.456V27.428a.458.458,0,0,0-.456-.456H33.138Zm3.47,4.845a.528.528,0,0,1,.273-1.021l1.776.476a.528.528,0,0,1,.374.647l-.476,1.776a.528.528,0,0,1-1.021-.273l.146-.545-5.718,3.3a.528.528,0,1,1-.529-.913l5.72-3.3Zm2.359,2.311a.529.529,0,0,1,1.058,0v7.634a.529.529,0,1,1-1.058,0Zm-2.6,1.5a.529.529,0,0,1,1.058,0v6.13a.529.529,0,1,1-1.058,0Zm-2.6,1.5a.529.529,0,0,1,1.058,0v4.629a.529.529,0,1,1-1.058,0Zm-2.6,1.5a.529.529,0,0,1,1.058,0v3.128a.529.529,0,1,1-1.058,0Z" transform="translate(-9.914 -9.91)" fill="#f1f1f3" fill-rule="evenodd"/>
      <path id="Trazado_1178980" data-name="Trazado 1178980" d="M200.655,36.449H201.9a.458.458,0,0,0,.456-.456V34.744l-1.705,1.705Z" transform="translate(-164.481 -16.934)" fill="#e5bfbd" fill-rule="evenodd"/>
      <path id="Trazado_1178981" data-name="Trazado 1178981" d="M196.394,26.972v2a1.516,1.516,0,0,1-1.514,1.514h-2V42.1a.458.458,0,0,0,.456.456h11.027a.458.458,0,0,0,.456-.456V27.428a.458.458,0,0,0-.456-.456h-7.972Zm1.323,2.774a.529.529,0,1,1,0-1.058h5a.529.529,0,1,1,0,1.058Zm1.926,2.774a.529.529,0,1,1,0-1.058h3.079a.529.529,0,1,1,0,1.058Zm-4.66,0a.529.529,0,0,1,0-1.058h2.454a.529.529,0,1,1,0,1.058Zm0,2.774a.529.529,0,0,1,0-1.058h7.738a.529.529,0,1,1,0,1.058Zm6.2,2.774a.529.529,0,1,1,0-1.058h1.538a.529.529,0,1,1,0,1.058Zm-6.2,0a.529.529,0,0,1,0-1.058h3.994a.529.529,0,1,1,0,1.058Zm0,2.774a.529.529,0,0,1,0-1.058h5.955a.529.529,0,1,1,0,1.058Z" transform="translate(-157.457 -9.91)" fill="#f1f1f3" fill-rule="evenodd"/>
      <path id="Trazado_1178982" data-name="Trazado 1178982" d="M298.274,297.562a4.006,4.006,0,1,0,2.837,1.167A3.981,3.981,0,0,0,298.274,297.562Z" transform="translate(-249.093 -254.456)" fill="#a5eeff" fill-rule="evenodd"/>
      <path id="Trazado_1178983" data-name="Trazado 1178983" d="M403.1,405.054l-.468-.421a1.667,1.667,0,0,0-.917.918l.428.471a2.035,2.035,0,0,0,.958-.967Z" transform="translate(-346.186 -351.222)" fill="#afb6bb" fill-rule="evenodd"/>
      <path id="Trazado_1178984" data-name="Trazado 1178984" d="M420.018,421.285l-5.26-4.735a3.063,3.063,0,0,1-1.035,1.043l4.758,5.237a1.1,1.1,0,0,0,1.85-.813.96.96,0,0,0-.312-.732Z" transform="translate(-357.042 -361.992)" fill="#5c5b61" fill-rule="evenodd"/>
      <path id="Trazado_1178985" data-name="Trazado 1178985" d="M138.312,276.681h-4.386a.526.526,0,0,1-.31-.1l-3.646-2.652h-4.422a1.181,1.181,0,0,0-1.175,1.173l-.007,15.309L128.8,279.8a2.679,2.679,0,0,1,2.28-1.59h6.6a7.271,7.271,0,0,1,.626-1.524Z" transform="translate(-95.536 -233.096)" fill="#e79a4c" fill-rule="evenodd"/>
      <path id="Trazado_1178986" data-name="Trazado 1178986" d="M372.911,80.4a2.912,2.912,0,1,0,4.118,0A2.912,2.912,0,0,0,372.911,80.4Zm1.551,1.182a.528.528,0,1,1-.529-.913,2.072,2.072,0,0,1,3.078,1.454.528.528,0,1,1-1.041.169,1.016,1.016,0,0,0-1.508-.71Z" transform="translate(-319.387 -57.426)" fill="#258b9b" fill-rule="evenodd"/>
      <path id="Trazado_1178987" data-name="Trazado 1178987" d="M428.993,136.952l2.241,2.793a.737.737,0,0,0,1.156-.622.538.538,0,0,0-.144-.39l-2.794-2.24Z" transform="translate(-370.843 -108.89)" fill="#5c5b61" fill-rule="evenodd"/>
    </g>
  </g>
</svg>
