<svg xmlns="http://www.w3.org/2000/svg" xmlns:xlink="http://www.w3.org/1999/xlink" width="93.934" height="93.934" viewBox="0 0 93.934 93.934">
  <defs>
    <filter id="Trazado_982547" x="0" y="0" width="93.934" height="93.934" filterUnits="userSpaceOnUse">
      <feOffset dy="3" input="SourceAlpha"/>
      <feGaussianBlur stdDeviation="3" result="blur"/>
      <feFlood flood-opacity="0.161"/>
      <feComposite operator="in" in2="blur"/>
      <feComposite in="SourceGraphic"/>
    </filter>
  </defs>
  <g id="Grupo_1226047" data-name="Grupo 1226047" transform="translate(-611.067 -968.533)">
    <g id="Grupo_1224714" data-name="Grupo 1224714" transform="translate(620.067 974.533)">
      <g id="Grupo_1220443" data-name="Grupo 1220443">
        <g id="Grupo_1219555" data-name="Grupo 1219555">
          <g id="Grupo_1214712" data-name="Grupo 1214712">
            <g id="Grupo_1214433" data-name="Grupo 1214433">
              <g id="Grupo_1183190" data-name="Grupo 1183190">
                <g id="Grupo_1179611" data-name="Grupo 1179611">
                  <g id="Grupo_1175227" data-name="Grupo 1175227">
                    <g id="Grupo_1167337" data-name="Grupo 1167337">
                      <g id="Grupo_1166720" data-name="Grupo 1166720">
                        <g id="Grupo_1164305" data-name="Grupo 1164305">
                          <g id="Grupo_1163948" data-name="Grupo 1163948">
                            <g id="Grupo_1158168" data-name="Grupo 1158168">
                              <g id="Grupo_1152576" data-name="Grupo 1152576">
                                <g id="Grupo_1148633" data-name="Grupo 1148633">
                                  <g id="Grupo_1148525" data-name="Grupo 1148525">
                                    <g transform="matrix(1, 0, 0, 1, -9, -6)" filter="url(#Trazado_982547)">
                                      <g id="Trazado_982547-2" data-name="Trazado 982547" transform="translate(9 6)" fill="#f7f4ed">
                                        <path d="M 37.966796875 74.43359375 C 33.04315185546875 74.43359375 28.26757431030273 73.46962738037109 23.77274131774902 71.56847381591797 C 19.43047523498535 69.73184967041016 15.53040790557861 67.10224914550781 12.18087482452393 63.75271987915039 C 8.831341743469238 60.4031867980957 6.201741218566895 56.50312042236328 4.365118980407715 52.16086196899414 C 2.463963508605957 47.66601943969727 1.499996900558472 42.89044189453125 1.499996900558472 37.966796875 C 1.499996900558472 33.04315185546875 2.463963508605957 28.26757431030273 4.365118980407715 23.77274131774902 C 6.201741218566895 19.43047523498535 8.831341743469238 15.53040790557861 12.18087482452393 12.18087482452393 C 15.53040790557861 8.831341743469238 19.43047523498535 6.201741218566895 23.77274131774902 4.365118980407715 C 28.26757431030273 2.463963508605957 33.04315185546875 1.499996900558472 37.966796875 1.499996900558472 C 42.89044189453125 1.499996900558472 47.66601943969727 2.463963508605957 52.16086196899414 4.365118980407715 C 56.50312042236328 6.201741218566895 60.4031867980957 8.831341743469238 63.75271987915039 12.18087482452393 C 67.10224914550781 15.53040790557861 69.73184967041016 19.43047523498535 71.56847381591797 23.77274131774902 C 73.46962738037109 28.26757431030273 74.43359375 33.04315185546875 74.43359375 37.966796875 C 74.43359375 42.89044189453125 73.46962738037109 47.66601943969727 71.56847381591797 52.16086196899414 C 69.73184967041016 56.50313186645508 67.10224914550781 60.4031867980957 63.75271987915039 63.75271987915039 C 60.4031867980957 67.10224914550781 56.50313186645508 69.73184967041016 52.16086196899414 71.56847381591797 C 47.66601943969727 73.46962738037109 42.89044189453125 74.43359375 37.966796875 74.43359375 Z" stroke="none"/>
                                        <path d="M 37.966796875 3 C 33.2449836730957 3 28.66600799560547 3.924095153808594 24.35705947875977 5.746635437011719 C 20.19359588623047 7.507637023925781 16.45379638671875 10.02928161621094 13.24153518676758 13.24153518676758 C 10.02927398681641 16.45379638671875 7.507621765136719 20.19359588623047 5.746635437011719 24.35705947875977 C 3.924095153808594 28.66600799560547 3 33.2449836730957 3 37.966796875 C 3 42.6886100769043 3.924095153808594 47.26758575439453 5.746635437011719 51.57653427124023 C 7.507621765136719 55.73999786376953 10.02927398681641 59.47979736328125 13.24153518676758 62.69205856323242 C 16.45379638671875 65.90431976318359 20.19359588623047 68.42597198486328 24.35705947875977 70.18695831298828 C 28.66600799560547 72.00949859619141 33.2449836730957 72.93359375 37.966796875 72.93359375 C 42.6886100769043 72.93359375 47.26758575439453 72.00949859619141 51.57653427124023 70.18695831298828 C 55.73999786376953 68.42597198486328 59.47979736328125 65.90431976318359 62.69205856323242 62.69205856323242 C 65.90431976318359 59.47979736328125 68.42597198486328 55.73999786376953 70.18695831298828 51.57653427124023 C 72.00949859619141 47.26758575439453 72.93359375 42.6886100769043 72.93359375 37.966796875 C 72.93359375 33.2449836730957 72.00949859619141 28.66600799560547 70.18695831298828 24.35705947875977 C 68.42597198486328 20.19359588623047 65.90431976318359 16.45379638671875 62.69205856323242 13.24153518676758 C 59.47979736328125 10.02928161621094 55.73999786376953 7.507637023925781 51.57653427124023 5.746635437011719 C 47.26758575439453 3.924095153808594 42.6886100769043 3 37.966796875 3 M 37.966796875 0 C 58.93528366088867 0 75.93359375 16.99832153320312 75.93359375 37.966796875 C 75.93359375 58.93528366088867 58.93528366088867 75.93359375 37.966796875 75.93359375 C 16.99831008911133 75.93359375 0 58.93528366088867 0 37.966796875 C 0 16.99832153320312 16.99831008911133 0 37.966796875 0 Z" stroke="none" fill="#655531"/>
                                      </g>
                                    </g>
                                  </g>
                                </g>
                              </g>
                            </g>
                          </g>
                        </g>
                      </g>
                    </g>
                  </g>
                </g>
              </g>
            </g>
          </g>
        </g>
      </g>
    </g>
    <g id="liquidacion" transform="translate(607.834 985.971)">
      <g id="Grupo_1226046" data-name="Grupo 1226046" transform="translate(30.144 1.794)">
        <g id="Grupo_1226043" data-name="Grupo 1226043" transform="translate(0 0)">
          <path id="Trazado_1178955" data-name="Trazado 1178955" d="M39,9h29.7a1.622,1.622,0,0,1,1.619,1.619V45.306a1.564,1.564,0,0,1-.474,1.145L62.393,53.9a1.564,1.564,0,0,1-1.145.474H39a1.622,1.622,0,0,1-1.619-1.619V10.617A1.623,1.623,0,0,1,39,9Z" transform="translate(-37.379 -8.998)" fill="#eff4f7" fill-rule="evenodd"/>
          <g id="Grupo_1226042" data-name="Grupo 1226042" transform="translate(0)">
            <path id="Trazado_1178956" data-name="Trazado 1178956" d="M39,9h2.048a1.623,1.623,0,0,0-1.619,1.619V52.753a1.622,1.622,0,0,0,1.619,1.619H39a1.622,1.622,0,0,1-1.619-1.619V10.617A1.623,1.623,0,0,1,39,9Z" transform="translate(-37.38 -8.998)" fill="#e2e3e3" fill-rule="evenodd"/>
            <path id="Trazado_1178957" data-name="Trazado 1178957" d="M282.9,386.181l7.446-7.446a1.623,1.623,0,0,0,.334-.474h-6.793a1.465,1.465,0,0,0-1.462,1.462v6.793A1.622,1.622,0,0,0,282.9,386.181Z" transform="translate(-257.883 -341.281)" fill="#e2e3e3" fill-rule="evenodd"/>
          </g>
        </g>
        <g id="Grupo_1226044" data-name="Grupo 1226044" transform="translate(24.399 30.077)">
          <path id="Trazado_1178958" data-name="Trazado 1178958" d="M287.119,309.334h2.442v1.225a6.18,6.18,0,0,1,2.223.921l.867-.867,1.727,1.727-.867.867a6.177,6.177,0,0,1,.921,2.223h1.225v2.442h-1.225a6.18,6.18,0,0,1-.921,2.223l.867.867-1.727,1.727-.867-.867a6.177,6.177,0,0,1-2.223.921v1.225h-2.442v-1.225a6.18,6.18,0,0,1-2.223-.921l-.867.867-1.727-1.727.867-.867a6.181,6.181,0,0,1-.921-2.223h-1.225v-2.442h1.225a6.178,6.178,0,0,1,.921-2.223l-.867-.867,1.727-1.727.867.867a6.179,6.179,0,0,1,2.223-.921Z" transform="translate(-281.022 -309.334)" fill="#ffda2d" fill-rule="evenodd"/>
          <path id="Trazado_1178959" data-name="Trazado 1178959" d="M358.005,310.559a6.189,6.189,0,0,1,2.7,1.274l.352-.352a6.179,6.179,0,0,0-2.223-.921v-1.225h-.83Zm3.95,2.649a6.178,6.178,0,0,1,.922,2.223h.829a6.178,6.178,0,0,0-.921-2.223l.867-.867-1.727-1.727-.433.434,1.331,1.294Zm.922,4.666a6.179,6.179,0,0,1-.922,2.223l.866.866-1.312,1.312.415.415,1.727-1.727-.867-.867a6.176,6.176,0,0,0,.921-2.223Zm-2.171,3.6a6.189,6.189,0,0,1-2.7,1.274v1.225h.83v-1.225a6.177,6.177,0,0,0,2.223-.921Zm3.4-3.6h.83v-2.442h-.83Z" transform="translate(-350.296 -309.334)" fill="#ffc700" fill-rule="evenodd"/>
          <path id="Trazado_1178960" data-name="Trazado 1178960" d="M321.486,353.427a3.629,3.629,0,1,0-3.629-3.629A3.636,3.636,0,0,0,321.486,353.427Z" transform="translate(-314.168 -342.48)" fill="#eff4f7" fill-rule="evenodd"/>
          <path id="Trazado_1178961" data-name="Trazado 1178961" d="M321.486,346.169a3.614,3.614,0,0,1,2.355.868,3.629,3.629,0,0,0-4.07,5.96,3.63,3.63,0,0,1,1.715-6.828Z" transform="translate(-314.168 -342.48)" fill="#e2e3e3" fill-rule="evenodd"/>
        </g>
        <g id="Grupo_1226045" data-name="Grupo 1226045" transform="translate(2.218 4.013)">
          <circle id="Elipse_14683" data-name="Elipse 14683" cx="1.854" cy="1.854" r="1.854" transform="translate(2.848 1.103)" fill="#ffda2d"/>
          <path id="Trazado_1178962" data-name="Trazado 1178962" d="M96.88,61.286a1.854,1.854,0,1,1-1.8,3.2,1.854,1.854,0,0,0,1.8-3.2Z" transform="translate(-91.521 -60.063)" fill="#ffc700" fill-rule="evenodd"/>
          <path id="Trazado_1178963" data-name="Trazado 1178963" d="M68.932,145.872a4.7,4.7,0,0,1-9.4,0,.16.16,0,0,1,.16-.166h9.084a.16.16,0,0,1,.16.166Z" transform="translate(-59.528 -136.029)" fill="#64b5f6" fill-rule="evenodd"/>
          <path id="Trazado_1178964" data-name="Trazado 1178964" d="M88.359,145.871a4.705,4.705,0,0,1-7.242,3.795,4.707,4.707,0,0,0,6.552-3.961h.53a.16.16,0,0,1,.16.166Z" transform="translate(-78.955 -136.028)" fill="#42a5f5" fill-rule="evenodd"/>
          <path id="Trazado_1178965" data-name="Trazado 1178965" d="M184.7,52.883a1.9,1.9,0,1,0-1.9-1.9A1.908,1.908,0,0,0,184.7,52.883Z" transform="translate(-170.453 -49.075)" fill="#64b5f6" fill-rule="evenodd"/>
          <path id="Trazado_1178966" data-name="Trazado 1178966" d="M189.522,52.364a1.9,1.9,0,1,1-2.558,2.764,1.9,1.9,0,0,0,2.558-2.764Z" transform="translate(-174.202 -52.035)" fill="#42a5f5" fill-rule="evenodd"/>
          <circle id="Elipse_14684" data-name="Elipse 14684" cx="1.854" cy="1.854" r="1.854" transform="translate(21.911 1.138) rotate(-1.203)" fill="#ffda2d"/>
          <path id="Trazado_1178967" data-name="Trazado 1178967" d="M287.544,61.286a1.854,1.854,0,1,1-1.8,3.2,1.854,1.854,0,0,0,1.8-3.2Z" transform="translate(-263.091 -60.063)" fill="#ffc700" fill-rule="evenodd"/>
          <path id="Trazado_1178968" data-name="Trazado 1178968" d="M259.6,145.872a4.7,4.7,0,0,1-9.4,0,.16.16,0,0,1,.16-.166h9.084a.16.16,0,0,1,.16.166Z" transform="translate(-231.098 -136.029)" fill="#64b5f6" fill-rule="evenodd"/>
          <path id="Trazado_1178969" data-name="Trazado 1178969" d="M279.023,145.871a4.705,4.705,0,0,1-7.242,3.795,4.707,4.707,0,0,0,6.552-3.961h.53a.16.16,0,0,1,.16.166Z" transform="translate(-250.525 -136.028)" fill="#42a5f5" fill-rule="evenodd"/>
          <path id="Trazado_1178970" data-name="Trazado 1178970" d="M155.817,211.952h6.263a1.644,1.644,0,0,1,1.639,1.639v.763a.2.2,0,0,1-.2.2h-9.14a.2.2,0,0,1-.2-.2v-.763A1.644,1.644,0,0,1,155.817,211.952Z" transform="translate(-144.699 -195.641)" fill="#ffda2d" fill-rule="evenodd"/>
          <path id="Trazado_1178971" data-name="Trazado 1178971" d="M157.985,211.952h6.263a1.644,1.644,0,0,1,1.639,1.639v.763a.2.2,0,0,1-.2.2h-.475v-.347a1.644,1.644,0,0,0-1.639-1.639H157.31a1.624,1.624,0,0,0-.723.169A1.642,1.642,0,0,1,157.985,211.952Z" transform="translate(-146.867 -195.641)" fill="#ffc700" fill-rule="evenodd"/>
        </g>
      </g>
      <path id="Trazado_1178972" data-name="Trazado 1178972" d="M74.6,40.745a.8.8,0,0,0-1.115-.2l-.161.109a11.569,11.569,0,0,0-5.045-11.076.8.8,0,0,0-.888,1.332,9.975,9.975,0,0,1,4.4,9.04.8.8,0,0,0-1.333.86l.946,1.99a.8.8,0,0,0,.515.43.8.8,0,0,0,.208.027.792.792,0,0,0,.453-.142l1.814-1.252a.8.8,0,0,0,.208-1.113ZM63.415,26.452a.8.8,0,0,0-.2,1.113l.108.157A11.58,11.58,0,0,0,52.243,32.77a.8.8,0,1,0,1.332.888,9.98,9.98,0,0,1,9.041-4.4.8.8,0,0,0,.858,1.335l1.99-.946a.8.8,0,0,0,.316-1.177l-1.252-1.814a.8.8,0,0,0-1.112-.2ZM56.328,47.471a9.98,9.98,0,0,1-4.4-9.042.8.8,0,0,0,.612.286.789.789,0,0,0,.342-.078.8.8,0,0,0,.381-1.067l-.946-1.99a.8.8,0,0,0-1.178-.316l-1.814,1.252a.8.8,0,1,0,.909,1.318l.157-.108A11.577,11.577,0,0,0,55.439,48.8a.8.8,0,0,0,.888-1.332ZM71.252,44.5a.8.8,0,0,0-1.112.222,9.98,9.98,0,0,1-9.041,4.4.8.8,0,0,0-.858-1.335l-1.99.945a.8.8,0,0,0-.316,1.177l1.252,1.814a.8.8,0,0,0,1.318-.909l-.108-.157a11.578,11.578,0,0,0,11.076-5.047.8.8,0,0,0-.222-1.11Zm-12.224-5.31a2.829,2.829,0,1,0,2.828-2.827A2.833,2.833,0,0,0,59.028,39.187Zm-1.6,0a4.43,4.43,0,1,1,4.428,4.431A4.433,4.433,0,0,1,57.428,39.187Zm.418,4.607-.3.3-.595-.6.3-.3a.8.8,0,0,0,.1-1.011,5.392,5.392,0,0,1-.8-1.936.8.8,0,0,0-.784-.644h-.427v-.843h.427a.8.8,0,0,0,.784-.644,5.339,5.339,0,0,1,.8-1.934.8.8,0,0,0-.1-1.012l-.3-.3.595-.595.3.3a.8.8,0,0,0,1.013.1,5.343,5.343,0,0,1,1.935-.8.8.8,0,0,0,.643-.785v-.426h.843v.426a.8.8,0,0,0,.643.785,5.387,5.387,0,0,1,1.936.8.8.8,0,0,0,1.01-.1l.3-.3.594.595-.3.3a.8.8,0,0,0-.1,1.012,5.337,5.337,0,0,1,.8,1.934.8.8,0,0,0,.785.644h.422v.843h-.422a.8.8,0,0,0-.785.644,5.355,5.355,0,0,1-.8,1.936.8.8,0,0,0,.1,1.011l.3.3-.594.6-.3-.3a.8.8,0,0,0-1.01-.1,5.387,5.387,0,0,1-1.936.8.8.8,0,0,0-.643.785V45.7h-.843v-.423a.8.8,0,0,0-.643-.785,5.345,5.345,0,0,1-1.935-.8A.8.8,0,0,0,57.846,43.794Zm.268,2a.8.8,0,0,1-1.133,0l-1.729-1.729a.8.8,0,0,1,0-1.133l.426-.424a6.932,6.932,0,0,1-.539-1.3h-.6a.8.8,0,0,1-.8-.8V37.966a.8.8,0,0,1,.8-.8h.6a6.938,6.938,0,0,1,.538-1.3l-.425-.424a.8.8,0,0,1,0-1.133l1.729-1.729a.8.8,0,0,1,1.133,0l.424.425a6.944,6.944,0,0,1,1.3-.538v-.6a.8.8,0,0,1,.8-.8h2.443a.8.8,0,0,1,.8.8v.6a6.943,6.943,0,0,1,1.3.538l.423-.426a.8.8,0,0,1,.567-.235h0a.8.8,0,0,1,.566.234l1.729,1.729a.8.8,0,0,1,0,1.133l-.425.424a6.876,6.876,0,0,1,.537,1.3h.6a.8.8,0,0,1,.8.8V40.41a.8.8,0,0,1-.8.8h-.6a6.873,6.873,0,0,1-.538,1.3l.426.424a.8.8,0,0,1,0,1.133l-1.729,1.729a.8.8,0,0,1-.566.235h0a.8.8,0,0,1-.567-.236l-.423-.426a6.938,6.938,0,0,1-1.3.538v.6a.8.8,0,0,1-.8.8H60.636a.8.8,0,0,1-.8-.8v-.6a6.947,6.947,0,0,1-1.3-.538Zm-17.02-6.072h6a.8.8,0,0,0,0-1.6h-6a.8.8,0,0,0,0,1.6Zm0,3.227h6.413a.8.8,0,0,0,0-1.6H41.094a.8.8,0,0,0,0,1.6Zm-5.32,1.468a.8.8,0,0,0,.8-.8v-.249a1.881,1.881,0,0,0-.681-3.634h-.241a.278.278,0,0,1,0-.556h.34a.281.281,0,0,1,.227.119.8.8,0,1,0,1.3-.941,1.894,1.894,0,0,0-.94-.685v-.215a.8.8,0,1,0-1.6,0V37.7a1.88,1.88,0,0,0,.678,3.632h.241a.28.28,0,1,1,0,.559h-.337a.3.3,0,0,1-.233-.123.8.8,0,1,0-1.289.949,1.913,1.913,0,0,0,.94.681v.216a.8.8,0,0,0,.8.8ZM52.636,30.27a.8.8,0,0,1-.8.8H41.094a.8.8,0,0,1,0-1.6H51.835A.8.8,0,0,1,52.636,30.27ZM49.67,33.5a.8.8,0,0,0-.8-.8H41.094a.8.8,0,0,0,0,1.6h7.775a.8.8,0,0,0,.8-.8ZM35.893,31.082h-.241a.278.278,0,0,1,0-.556h.34a.275.275,0,0,1,.224.115.8.8,0,1,0,1.3-.934,1.878,1.878,0,0,0-.942-.689V28.8a.8.8,0,1,0-1.6,0v.249a1.879,1.879,0,0,0,.678,3.632h.241a.278.278,0,1,1,0,.556h-.337a.281.281,0,0,1-.231-.119.8.8,0,0,0-1.294.943,1.892,1.892,0,0,0,.942.684v.215a.8.8,0,1,0,1.6,0v-.249a1.879,1.879,0,0,0-.681-3.631Zm4.987-14.8H33.239a3.9,3.9,0,0,0,7.641,0Zm-6.07-1.6h4.5l-2-3.582a2.081,2.081,0,0,1-.249.017,2.189,2.189,0,0,1-.249-.016Zm23.594,0-2-3.581a1.948,1.948,0,0,1-.5,0l-2,3.581Zm1.572,1.6H52.333a3.905,3.905,0,0,0,7.644,0ZM56.153,8.512a.5.5,0,1,0,.5.5A.5.5,0,0,0,56.153,8.512Zm-9.547-1.3a.5.5,0,1,0,.5.5A.5.5,0,0,0,46.607,7.209Zm-9.547,1.3a.5.5,0,1,0,.5.5A.5.5,0,0,0,37.06,8.512ZM49.738,22.918H43.475a.849.849,0,0,0-.837.837v.164h7.941v-.164a.84.84,0,0,0-.84-.837ZM37.06,20.988a5.51,5.51,0,0,1-5.5-5.5.8.8,0,0,1,.8-.8h.62l2.438-4.363a2.1,2.1,0,0,1,1.564-3.4c.027,0,7.684,0,7.684,0a2.117,2.117,0,0,1,1.144-1.144V4.327a.8.8,0,0,1,1.6,0v1.44a2.118,2.118,0,0,1,1.144,1.144s7.657,0,7.684,0A2.1,2.1,0,0,1,57.8,10.321l2.439,4.362h.621a.8.8,0,0,1,.8.8,5.506,5.506,0,0,1-11.012,0,.8.8,0,0,1,.8-.8h.62l2.437-4.363a2.067,2.067,0,0,1-.393-1.808H48.551a2.117,2.117,0,0,1-1.144,1.144V21.317h2.331a2.442,2.442,0,0,1,2.44,2.439v.965a.8.8,0,0,1-.8.8H41.838a.8.8,0,0,1-.8-.8v-.965a2.442,2.442,0,0,1,2.439-2.439h2.331V9.656a2.117,2.117,0,0,1-1.144-1.144H39.1a2.128,2.128,0,0,1,.063.5,2.093,2.093,0,0,1-.458,1.305l2.439,4.363h.618a.8.8,0,0,1,.8.8,5.511,5.511,0,0,1-5.5,5.5ZM52.191,47.166a.8.8,0,0,1-.8.8H31.761a2.423,2.423,0,0,1-2.422-2.418V3.413A2.425,2.425,0,0,1,31.761.992h29.7a2.422,2.422,0,0,1,2.418,2.422V24.741a.8.8,0,0,1-1.6,0V3.413a.82.82,0,0,0-.817-.82h-29.7a.821.821,0,0,0-.82.82V45.548a.82.82,0,0,0,.82.818H51.39a.8.8,0,0,1,.8.8Z" fill-rule="evenodd"/>
    </g>
  </g>
</svg>
