<svg xmlns="http://www.w3.org/2000/svg" xmlns:xlink="http://www.w3.org/1999/xlink" width="103" height="103" viewBox="0 0 103 103">
  <defs>
    <filter id="Trazado_904820" x="0" y="0" width="103" height="103" filterUnits="userSpaceOnUse">
      <feOffset dy="3" input="SourceAlpha"/>
      <feGaussianBlur stdDeviation="3" result="blur"/>
      <feFlood flood-opacity="0.161"/>
      <feComposite operator="in" in2="blur"/>
      <feComposite in="SourceGraphic"/>
    </filter>
  </defs>
  <g id="Grupo_1226527" data-name="Grupo 1226527" transform="translate(-170 -3436)">
    <g id="Grupo_1225830" data-name="Grupo 1225830" transform="translate(0 -7642.586)">
      <g id="Grupo_1223185" data-name="Grupo 1223185" transform="translate(-1 6410.586)">
        <g id="Grupo_1220650" data-name="Grupo 1220650" transform="translate(5 -5673)">
          <g id="Grupo_1219296" data-name="Grupo 1219296" transform="translate(175 10347)">
            <g id="Grupo_1218002" data-name="Grupo 1218002" transform="translate(0 0)">
              <g id="Grupo_1211578" data-name="Grupo 1211578">
                <g id="Grupo_1207774" data-name="Grupo 1207774" transform="translate(0)">
                  <g id="Grupo_1206630" data-name="Grupo 1206630" transform="translate(0)">
                    <g id="Grupo_1185091" data-name="Grupo 1185091">
                      <g id="Grupo_1179560" data-name="Grupo 1179560">
                        <g id="Grupo_1173787" data-name="Grupo 1173787">
                          <g id="Grupo_1171910" data-name="Grupo 1171910">
                            <g id="Grupo_1167341" data-name="Grupo 1167341">
                              <g id="Grupo_1166792" data-name="Grupo 1166792">
                                <g transform="matrix(1, 0, 0, 1, -9, -6)" filter="url(#Trazado_904820)">
                                  <g id="Trazado_904820-2" data-name="Trazado 904820" transform="translate(9 6)" fill="#e5f0f6">
                                    <path d="M 42.49999618530273 83.50018310546875 C 36.96437454223633 83.50018310546875 31.59512519836426 82.41635894775391 26.54140853881836 80.27880859375 C 21.65933799743652 78.2138671875 17.27447891235352 75.25739288330078 13.50861930847168 71.49153137207031 C 9.742773056030273 67.72567749023438 6.786314010620117 63.34079360961914 4.721360683441162 58.45870971679688 C 2.583819627761841 53.40498352050781 1.499996185302734 48.03572463989258 1.499996185302734 42.50008773803711 C 1.499996185302734 36.96445083618164 2.583819627761841 31.59519386291504 4.721360683441162 26.54146385192871 C 6.786314010620117 21.65938186645508 9.742773056030273 17.27451133728027 13.50861930847168 13.50865268707275 C 17.27447891235352 9.742794036865234 21.65933799743652 6.786323070526123 26.54140853881836 4.721381664276123 C 31.59512519836426 2.583828926086426 36.96437454223633 1.50000536441803 42.49999618530273 1.50000536441803 C 48.03561782836914 1.50000536441803 53.40486526489258 2.583828926086426 58.45858383178711 4.721381664276123 C 63.34065628051758 6.786323070526123 67.72551727294922 9.742794036865234 71.49137115478516 13.50865268707275 C 75.25721740722656 17.27451133728027 78.21367645263672 21.65938186645508 80.27863311767578 26.54146385192871 C 82.41617584228516 31.59519386291504 83.5 36.96445083618164 83.5 42.50008773803711 C 83.5 48.03572463989258 82.41617584228516 53.40498352050781 80.27863311767578 58.45870971679688 C 78.21367645263672 63.34079360961914 75.25721740722656 67.72567749023438 71.49137115478516 71.49153137207031 C 67.72551727294922 75.25739288330078 63.34065628051758 78.2138671875 58.45858383178711 80.27880859375 C 53.40486526489258 82.41635894775391 48.03561782836914 83.50018310546875 42.49999618530273 83.50018310546875 Z" stroke="none"/>
                                    <path d="M 42.49999618530273 2.999992370605469 C 37.16621017456055 2.999992370605469 31.99356842041016 4.043952941894531 27.1257438659668 6.102874755859375 C 22.42246246337891 8.092193603515625 18.19786071777344 10.94071197509766 14.56929016113281 14.56929779052734 C 10.94070434570312 18.19789123535156 8.092193603515625 22.42250061035156 6.102874755859375 27.12579345703125 C 4.043952941894531 31.99362182617188 2.999992370605469 37.16628646850586 2.999992370605469 42.50008773803711 C 2.999992370605469 47.83388900756836 4.043952941894531 53.00653839111328 6.102874755859375 57.87438201904297 C 8.092193603515625 62.57765960693359 10.94070434570312 66.80227661132812 14.56929016113281 70.43086242675781 C 18.19786071777344 74.0594482421875 22.42246246337891 76.90796661376953 27.1257438659668 78.89728546142578 C 31.99356842041016 80.95620727539062 37.16621017456055 82.00016784667969 42.49999618530273 82.00016784667969 C 47.83378219604492 82.00016784667969 53.00642395019531 80.95620727539062 57.87425231933594 78.89728546142578 C 62.57752990722656 76.90796661376953 66.80213165283203 74.0594482421875 70.43070220947266 70.43086242675781 C 74.05928802490234 66.80227661132812 76.90779876708984 62.57765960693359 78.89711761474609 57.87438201904297 C 80.95603942871094 53.00653839111328 82 47.83388900756836 82 42.50008773803711 C 82 37.16628646850586 80.95603942871094 31.99362182617188 78.89711761474609 27.12579345703125 C 76.90779876708984 22.42250061035156 74.05928802490234 18.19789123535156 70.43070220947266 14.56929779052734 C 66.80213165283203 10.94071197509766 62.57752990722656 8.092193603515625 57.87425231933594 6.102874755859375 C 53.00642395019531 4.043952941894531 47.83378219604492 2.999992370605469 42.49999618530273 2.999992370605469 M 42.49999618530273 -7.62939453125e-06 C 65.97209167480469 -7.62939453125e-06 85 19.02793884277344 85 42.50008773803711 C 85 65.97223663330078 65.97209167480469 85.00016784667969 42.49999618530273 85.00016784667969 C 19.02790069580078 85.00016784667969 -7.62939453125e-06 65.97223663330078 -7.62939453125e-06 42.50008773803711 C -7.62939453125e-06 19.02793884277344 19.02790069580078 -7.62939453125e-06 42.49999618530273 -7.62939453125e-06 Z" stroke="none" fill="#1172b3"/>
                                  </g>
                                </g>
                              </g>
                            </g>
                          </g>
                        </g>
                      </g>
                    </g>
                  </g>
                </g>
              </g>
            </g>
          </g>
        </g>
      </g>
    </g>
    <g id="archivo_1_" data-name="archivo (1)" transform="translate(193.151 3457.027)">
      <path id="Trazado_1179142" data-name="Trazado 1179142" d="M12,29.327V2H39.327l6.832,7.686V29.327Z" transform="translate(-0.73 -0.146)" fill="#c7e2fb"/>
      <path id="Trazado_1179143" data-name="Trazado 1179143" d="M14,2V20.787a1.708,1.708,0,0,0,1.708,1.708h5.271a1.708,1.708,0,0,1,1.207.5l4.55,4.55a1.708,1.708,0,0,0,1.207.5H46.45V9.686L39.619,2Z" transform="translate(-1.022 -0.146)" fill="#ebf7fe"/>
      <path id="Trazado_1179144" data-name="Trazado 1179144" d="M8,29.708V55.327a1.708,1.708,0,0,0,1.708,1.708H47.282a1.708,1.708,0,0,0,1.708-1.708V34.832a1.708,1.708,0,0,0-1.708-1.708h-22.2L19.955,28H9.708A1.708,1.708,0,0,0,8,29.708Z" transform="translate(-0.146 -3.943)" fill="#f5b95b"/>
      <path id="Trazado_1179145" data-name="Trazado 1179145" d="M47.866,33.124h-22.2L20.54,28H12v9A16.621,16.621,0,0,0,28.621,53.619H49.574V34.832A1.708,1.708,0,0,0,47.866,33.124Z" transform="translate(-0.73 -3.943)" fill="#f9d18f"/>
      <path id="Trazado_1179146" data-name="Trazado 1179146" d="M44,2V9.686h6.832Z" transform="translate(-5.404 -0.146)" fill="#87a5cd"/>
      <path id="Trazado_1179147" data-name="Trazado 1179147" d="M16,6H36.495v5.124H16Z" transform="translate(-1.314 -0.73)" fill="#698ec0"/>
      <path id="Trazado_1179148" data-name="Trazado 1179148" d="M44.54,51A4.27,4.27,0,0,1,36,51Z" transform="translate(-4.235 -7.302)" fill="#976949"/>
      <path id="Trazado_1179149" data-name="Trazado 1179149" d="M40.843,55.227A4.256,4.256,0,0,0,44.686,51H37A4.256,4.256,0,0,0,40.843,55.227Z" transform="translate(-4.381 -7.302)" fill="#c18e5c"/>
      <circle id="Elipse_14688" data-name="Elipse 14688" cx="1.5" cy="1.5" r="1.5" transform="translate(26.698 32.945)" fill="#976949"/>
      <ellipse id="Elipse_14689" data-name="Elipse 14689" cx="1.281" cy="1.647" rx="1.281" ry="1.647" transform="translate(27.495 32.657)" fill="#c18e5c"/>
      <path id="Trazado_1179150" data-name="Trazado 1179150" d="M18,6.911a2.5,2.5,0,0,0,2.5,2.5H36.787V6H18Z" transform="translate(-1.606 -0.73)" fill="#87a5cd"/>
      <path id="Trazado_1179151" data-name="Trazado 1179151" d="M26.54,51A4.27,4.27,0,0,1,18,51Z" transform="translate(-1.606 -7.302)" fill="#976949"/>
      <path id="Trazado_1179152" data-name="Trazado 1179152" d="M22.843,55.227A4.256,4.256,0,0,0,26.686,51H19A4.256,4.256,0,0,0,22.843,55.227Z" transform="translate(-1.753 -7.302)" fill="#c18e5c"/>
      <path id="Trazado_1179153" data-name="Trazado 1179153" d="M47.136,28.327h-.854V9.54a.859.859,0,0,0-.215-.568L39.235,1.286A.854.854,0,0,0,38.6,1H11.27a.854.854,0,0,0-.854.854V23.2H9.562A2.562,2.562,0,0,0,7,25.765V51.383a2.562,2.562,0,0,0,2.562,2.562H47.136A2.562,2.562,0,0,0,49.7,51.383V30.888A2.562,2.562,0,0,0,47.136,28.327ZM39.45,4.1l4.076,4.586H39.45ZM12.124,2.708H37.742V9.54a.854.854,0,0,0,.854.854h5.978V28.327H25.287l-4.874-4.874a.854.854,0,0,0-.6-.25H12.124ZM47.99,51.383a.854.854,0,0,1-.854.854H9.562a.854.854,0,0,1-.854-.854V25.765a.854.854,0,0,1,.854-.854h9.894l4.874,4.874a.854.854,0,0,0,.6.25h22.2a.854.854,0,0,1,.854.854Z"/>
      <path id="Trazado_1179154" data-name="Trazado 1179154" d="M15.854,11.832H36.349a.854.854,0,0,0,.854-.854V5.854A.854.854,0,0,0,36.349,5H15.854A.854.854,0,0,0,15,5.854v5.124A.854.854,0,0,0,15.854,11.832Zm.854-5.124H35.495v3.416H16.708Z" transform="translate(-1.168 -0.584)"/>
      <path id="Trazado_1179155" data-name="Trazado 1179155" d="M15,15H44.034v1.708H15Z" transform="translate(-1.168 -2.045)"/>
      <path id="Trazado_1179156" data-name="Trazado 1179156" d="M15,19H40.619v1.708H15Z" transform="translate(-1.168 -2.629)"/>
      <path id="Trazado_1179157" data-name="Trazado 1179157" d="M15,23H44.034v1.708H15Z" transform="translate(-1.168 -3.213)"/>
      <path id="Trazado_1179158" data-name="Trazado 1179158" d="M27,27H42.371v1.708H27Z" transform="translate(-2.921 -3.797)"/>
      <path id="Trazado_1179159" data-name="Trazado 1179159" d="M47,19h1.708v1.708H47Z" transform="translate(-5.842 -2.629)"/>
      <path id="Trazado_1179160" data-name="Trazado 1179160" d="M47,27h1.708v1.708H47Z" transform="translate(-5.842 -3.797)"/>
      <path id="Trazado_1179161" data-name="Trazado 1179161" d="M42.511,48.54l-4.27-7.686a.854.854,0,0,0-.746-.439H32.214a2.533,2.533,0,0,0,.157-.854,2.562,2.562,0,1,0-5.124,0,2.533,2.533,0,0,0,.157.854H22.124a.854.854,0,0,0-.746.439l-4.27,7.686a.854.854,0,0,0-.108.415,5.124,5.124,0,1,0,10.247,0,.854.854,0,0,0-.108-.415l-3.564-6.417h5.38V54.079H25.54v1.708h8.54V54.079H30.663V42.124h5.38L32.479,48.54a.854.854,0,0,0-.108.415,5.124,5.124,0,1,0,10.247,0,.854.854,0,0,0-.108-.415ZM22.124,52.371a3.423,3.423,0,0,1-3.307-2.562h6.615A3.423,3.423,0,0,1,22.124,52.371Zm2.818-4.27H19.306l2.818-5.073Zm4.014-8.54a.854.854,0,1,1,.854.854A.854.854,0,0,1,28.955,39.562Zm8.54,3.466L40.313,48.1H34.677Zm0,9.343a3.423,3.423,0,0,1-3.307-2.562H40.8a3.423,3.423,0,0,1-3.307,2.562Z" transform="translate(-1.46 -5.258)"/>
    </g>
  </g>
</svg>
