<svg xmlns="http://www.w3.org/2000/svg" xmlns:xlink="http://www.w3.org/1999/xlink" width="108" height="108" viewBox="0 0 108 108">
  <defs>
    <filter id="Trazado_904820" x="0" y="0" width="108" height="108" filterUnits="userSpaceOnUse">
      <feOffset dy="3" input="SourceAlpha"/>
      <feGaussianBlur stdDeviation="3" result="blur"/>
      <feFlood flood-opacity="0.161"/>
      <feComposite operator="in" in2="blur"/>
      <feComposite in="SourceGraphic"/>
    </filter>
  </defs>
  <g id="Grupo_1226486" data-name="Grupo 1226486" transform="translate(-619 -2171)">
    <g id="Grupo_1225989" data-name="Grupo 1225989" transform="translate(628 2177)">
      <g id="Grupo_1223182" data-name="Grupo 1223182" transform="translate(0 0)">
        <g id="Grupo_1221443" data-name="Grupo 1221443">
          <g id="Grupo_1220569" data-name="Grupo 1220569">
            <g id="Grupo_1219977" data-name="Grupo 1219977">
              <g id="Grupo_1219603" data-name="Grupo 1219603">
                <g id="Grupo_1202655" data-name="Grupo 1202655">
                  <g id="Grupo_1173585" data-name="Grupo 1173585">
                    <g id="Grupo_1173428" data-name="Grupo 1173428">
                      <g id="Grupo_1171958" data-name="Grupo 1171958">
                        <g id="Grupo_1167341" data-name="Grupo 1167341">
                          <g id="Grupo_1166792" data-name="Grupo 1166792">
                            <g transform="matrix(1, 0, 0, 1, -9, -6)" filter="url(#Trazado_904820)">
                              <g id="Trazado_904820-2" data-name="Trazado 904820" transform="translate(9 6)" fill="#fdfaeb">
                                <path d="M 44.99999618530273 88.49990081787109 C 39.12687301635742 88.49990081787109 33.43022155761719 87.3499755859375 28.06829643249512 85.08207702636719 C 22.88852119445801 82.89122009277344 18.23629570007324 79.75450134277344 14.24084663391113 75.75906372070312 C 10.24540901184082 71.76361846923828 7.108683586120605 67.11140441894531 4.917821407318115 61.931640625 C 2.649921178817749 56.56971740722656 1.499996185302734 50.87306594848633 1.499996185302734 44.99995422363281 C 1.499996185302734 39.1268424987793 2.649921178817749 33.43019104003906 4.917821407318115 28.06826591491699 C 7.108683586120605 22.88850402832031 10.24540901184082 18.23629188537598 14.24084663391113 14.24084186553955 C 18.23629570007324 10.24540424346924 22.88852119445801 7.108691692352295 28.06829643249512 4.917829036712646 C 33.43022155761719 2.649929285049438 39.12687301635742 1.500004172325134 44.99999618530273 1.500004172325134 C 50.87311935424805 1.500004172325134 56.56977081298828 2.649929285049438 61.93169784545898 4.917829036712646 C 67.11147308349609 7.108691692352295 71.76369476318359 10.24540424346924 75.75914764404297 14.24084186553955 C 79.75458526611328 18.23629188537598 82.89131164550781 22.88850402832031 85.08216857910156 28.06826591491699 C 87.35007476806641 33.43019104003906 88.5 39.1268424987793 88.5 44.99995422363281 C 88.5 50.87306594848633 87.35007476806641 56.56971740722656 85.08216857910156 61.931640625 C 82.89131164550781 67.11140441894531 79.75458526611328 71.76361846923828 75.75914764404297 75.75906372070312 C 71.76369476318359 79.75450134277344 67.11147308349609 82.89122009277344 61.93169784545898 85.08207702636719 C 56.56977081298828 87.3499755859375 50.87311935424805 88.49990081787109 44.99999618530273 88.49990081787109 Z" stroke="none"/>
                                <path d="M 44.99999618530273 3 C 39.32870864868164 3 33.82865142822266 4.110054016113281 28.65262603759766 6.299324035644531 C 23.65165710449219 8.414566040039062 19.15968322753906 11.44332885742188 15.301513671875 15.30149841308594 C 11.44333648681641 19.15966796875 8.414566040039062 23.65162658691406 6.299339294433594 28.65259552001953 C 4.110054016113281 33.8286247253418 2.999992370605469 39.32866668701172 2.999992370605469 44.99995422363281 C 2.999992370605469 50.67124176025391 4.110054016113281 56.17128372192383 6.299339294433594 61.34731292724609 C 8.414566040039062 66.34828186035156 11.44333648681641 70.84024047851562 15.301513671875 74.69841003417969 C 19.15968322753906 78.55657958984375 23.65165710449219 81.58534240722656 28.65262603759766 83.70058441162109 C 33.82865142822266 85.88985443115234 39.32870864868164 86.99990844726562 44.99999618530273 86.99990844726562 C 50.67128372192383 86.99990844726562 56.17134094238281 85.88985443115234 61.34736633300781 83.70058441162109 C 66.34834289550781 81.58534240722656 70.84030914306641 78.55657958984375 74.69847869873047 74.69841003417969 C 78.55665588378906 70.84024047851562 81.58542633056641 66.34828186035156 83.70065307617188 61.34731292724609 C 85.88993835449219 56.17128372192383 87 50.67124176025391 87 44.99995422363281 C 87 39.32866668701172 85.88993835449219 33.8286247253418 83.70065307617188 28.65259552001953 C 81.58542633056641 23.65162658691406 78.55665588378906 19.15966796875 74.69847869873047 15.30149841308594 C 70.84030914306641 11.44332885742188 66.34834289550781 8.414566040039062 61.34736633300781 6.299324035644531 C 56.17134094238281 4.110054016113281 50.67128372192383 3 44.99999618530273 3 M 44.99999618530273 0 C 69.85281372070312 0 90 20.14717102050781 90 44.99995422363281 C 90 69.85273742675781 69.85281372070312 89.99990844726562 44.99999618530273 89.99990844726562 C 20.14717864990234 89.99990844726562 -7.62939453125e-06 69.85273742675781 -7.62939453125e-06 44.99995422363281 C -7.62939453125e-06 20.14717102050781 20.14717864990234 0 44.99999618530273 0 Z" stroke="none" fill="#847625"/>
                              </g>
                            </g>
                          </g>
                        </g>
                      </g>
                    </g>
                  </g>
                </g>
              </g>
            </g>
          </g>
        </g>
      </g>
    </g>
    <g id="abogado_4_" data-name="abogado (4)" transform="translate(640.474 2192.26)">
      <g id="Grupo_1226484" data-name="Grupo 1226484" transform="translate(7.573 0.871)">
        <path id="Trazado_1180071" data-name="Trazado 1180071" d="M142.359,11.046H138.65L133.422,16.1l-2.188,4.24v25.21H148.14l.407-3.3,3.811-6.165V23.928a13.3,13.3,0,0,0-10-12.882Z" transform="translate(-117.638 -10.634)" fill="#e79380"/>
        <path id="Trazado_1180072" data-name="Trazado 1180072" d="M90.769,20.961A13.469,13.469,0,0,1,100.793,7.913,13.3,13.3,0,0,0,84.2,20.961V41.744l.429.669H91.2l-.429-.669Z" transform="translate(-76.073 -7.501)" fill="#df7e66"/>
        <path id="Trazado_1180073" data-name="Trazado 1180073" d="M57.7,309.31c.089-.3-2.854-15.372-2.854-15.372l.09-4.909-5.189,2.012-2.544,2.5-.6,2.256v17.019l.5.958.247.288H57.7l.428-.462v-4.21C57.842,309.37,57.687,309.344,57.7,309.31Z" transform="translate(-42.834 -256.323)" fill="#7b6c79"/>
        <path id="Trazado_1180074" data-name="Trazado 1180074" d="M18.307,326.28V310.8a7.984,7.984,0,0,1,3.422-6.517l-2.992,1.16a7.766,7.766,0,0,0-4.535,7.035v13.554a1.511,1.511,0,0,0,1.511,1.511h3.248A1.543,1.543,0,0,1,18.307,326.28Z" transform="translate(-14.202 -269.804)" fill="#665e68"/>
        <path id="Trazado_1180075" data-name="Trazado 1180075" d="M262.535,317.965a1.084,1.084,0,0,1-1.084-1.084v-1.839a1.084,1.084,0,0,1,1.084-1.084h1.052a3.345,3.345,0,0,1,1.7-3.528,7.188,7.188,0,0,0-2.975-2.383l-1.07-.415a2.534,2.534,0,0,1-.986.2h-4.118a2.531,2.531,0,0,1-1.641-.6v.092l1.645,3.6L251.981,325.4l-.414.009v3.96l.414.781h13.351a1.511,1.511,0,0,0,1.511-1.511V317.965Z" transform="translate(-223.992 -272.41)" fill="#7b6c79"/>
        <path id="Trazado_1180076" data-name="Trazado 1180076" d="M199.849,320.69h-4.783v21.354h6.978V323.228Z" transform="translate(-174.055 -284.306)" fill="#b5dcff"/>
        <path id="Trazado_1180077" data-name="Trazado 1180077" d="M148.7,320.69H144.16l-2.025,2.538v18.816H148.7Z" transform="translate(-127.273 -284.306)" fill="#8bcaff"/>
        <path id="Trazado_1180078" data-name="Trazado 1180078" d="M201.615,245.514l-.961-.372a.839.839,0,0,1-.536-.78l0-2.809-.569-.362h-4.48v10.068h1.989l.954-.387,3.872-4.466Z" transform="translate(-174.055 -214.042)" fill="#ffcebe"/>
        <path id="Trazado_1180079" data-name="Trazado 1180079" d="M151.956,241.19h-4.065l-.576.379v2.788c0,.642-.572.8-.816.891l-.677.263.125,1.528,3.621,4.008.815.213h1.573V241.19Z" transform="translate(-130.53 -214.042)" fill="#ffb1a0"/>
        <path id="Trazado_1180080" data-name="Trazado 1180080" d="M103.907,279.8l-2.764,1.072-1.8,3.74a4.615,4.615,0,0,0-.176,3.591l4.743,12.951V279.8Z" transform="translate(-89.045 -248.17)" fill="#938493"/>
        <path id="Trazado_1180081" data-name="Trazado 1180081" d="M259.7,284.647l-.495-1.026-2.461-3.157-1.612-.624v21.349l4.743-12.951A4.614,4.614,0,0,0,259.7,284.647Z" transform="translate(-227.144 -248.201)" fill="#938493"/>
        <path id="Trazado_1180082" data-name="Trazado 1180082" d="M97.375,136.576v.564l1.416,1.355h2.517v-2.833l-.416-.529h0a4.023,4.023,0,0,0-3.116.914h0A3.193,3.193,0,0,0,97.375,136.576Z" transform="translate(-87.713 -120.273)" fill="#ffcebe"/>
        <path id="Trazado_1180083" data-name="Trazado 1180083" d="M268.48,138.465l1.048-.766.175-1.153a3.209,3.209,0,0,0-.4-.53,3.814,3.814,0,0,0-3.115-.912h0v.006l-.451.581v2.775h2.745Z" transform="translate(-236.514 -120.243)" fill="#ffcebe"/>
        <path id="Trazado_1180084" data-name="Trazado 1180084" d="M94.083,147.836a3,3,0,0,0-.433,1.55,3.326,3.326,0,0,0,3.955,3.128l.411-.3v-3.1l-.411.3A3.458,3.458,0,0,1,94.083,147.836Z" transform="translate(-84.42 -131.533)" fill="#ffb1a0"/>
        <path id="Trazado_1180085" data-name="Trazado 1180085" d="M266.178,149.413l-.444-.332v3.1l.444.332a3.326,3.326,0,0,0,3.957-3.128,3,3,0,0,0-.433-1.55A3.458,3.458,0,0,1,266.178,149.413Z" transform="translate(-236.513 -131.532)" fill="#ffb1a0"/>
        <path id="Trazado_1180086" data-name="Trazado 1180086" d="M357.935,331.285a3.345,3.345,0,0,0-3.3,3.934l.439.262h5.576l.575-.262a3.345,3.345,0,0,0-3.3-3.934Z" transform="translate(-315.044 -293.67)" fill="#eab900"/>
        <path id="Trazado_1180087" data-name="Trazado 1180087" d="M378.689,365.146h-4.68l-.306.092-.445.378-.107.281v2.482l.29.519.588.254h4.66a1.084,1.084,0,0,0,1.084-1.084V366.23A1.083,1.083,0,0,0,378.689,365.146Z" transform="translate(-331.451 -323.597)" fill="#ffe02f"/>
        <path id="Trazado_1180088" data-name="Trazado 1180088" d="M341.025,368.068V366.23a1.084,1.084,0,0,1,1.084-1.084h-4.371a1.084,1.084,0,0,0-1.084,1.084v1.839a1.084,1.084,0,0,0,1.084,1.084h4.371A1.084,1.084,0,0,1,341.025,368.068Z" transform="translate(-299.194 -323.597)" fill="#fbc700"/>
        <path id="Trazado_1180089" data-name="Trazado 1180089" d="M461.22,279.6h-4.165c-.118.105-.238.214-.238.214v2.023l.576.891.692.455.79.229h.16a2.542,2.542,0,0,0,2.542-2.542v-.912A.358.358,0,0,0,461.22,279.6Z" transform="translate(-405.398 -247.988)" fill="#ffe02f"/>
        <path id="Trazado_1180090" data-name="Trazado 1180090" d="M423.139,280.869v-.912a.358.358,0,0,1,.358-.358h-4.539a.358.358,0,0,0-.358.358v.912a2.542,2.542,0,0,0,2.542,2.542h4.118c.071,0,.141,0,.211-.009A2.541,2.541,0,0,1,423.139,280.869Z" transform="translate(-371.62 -247.988)" fill="#fbc700"/>
        <g id="Grupo_1226483" data-name="Grupo 1226483" transform="translate(29.602 31.61)">
          <path id="Trazado_1180091" data-name="Trazado 1180091" d="M311.626,279.6h-4.165c-.118.105-.238.214-.238.214v2.023l.576.891.692.455.79.229h.16a2.542,2.542,0,0,0,2.542-2.542v-.912A.358.358,0,0,0,311.626,279.6Z" transform="translate(-302.784 -279.598)" fill="#ffe02f"/>
          <path id="Trazado_1180092" data-name="Trazado 1180092" d="M273.546,280.869v-.912a.358.358,0,0,1,.358-.358h-4.539a.358.358,0,0,0-.358.358v.912a2.542,2.542,0,0,0,2.542,2.542h4.118c.071,0,.141,0,.211-.009A2.541,2.541,0,0,1,273.546,280.869Z" transform="translate(-269.007 -279.599)" fill="#fbc700"/>
        </g>
        <path id="Trazado_1180093" data-name="Trazado 1180093" d="M383.771,188.823h-.329l-.958,1.3-.29.981a8.39,8.39,0,0,0,.14,1.342,5.659,5.659,0,0,1,.469.61l.968.33a2.7,2.7,0,0,0,0-4.564Z" transform="translate(-339.442 -167.758)" fill="#ffe02f"/>
        <path id="Trazado_1180094" data-name="Trazado 1180094" d="M363.056,187.945a2.7,2.7,0,0,1,1.26-2.282,2.7,2.7,0,1,0,0,4.564A2.7,2.7,0,0,1,363.056,187.945Z" transform="translate(-319.987 -164.598)" fill="#fbc700"/>
        <path id="Trazado_1180095" data-name="Trazado 1180095" d="M142.134,285.829a6.01,6.01,0,0,0,4.693-1.112.95.95,0,0,0-.058-1.441,16.536,16.536,0,0,1-4.207-4.9l-.428.166v7.288Z" transform="translate(-127.272 -246.907)" fill="#dbedff"/>
        <path id="Trazado_1180096" data-name="Trazado 1180096" d="M217.124,278.572l-.43-.167a16.538,16.538,0,0,1-4.2,4.9.95.95,0,0,0-.058,1.441,6.009,6.009,0,0,0,4.693,1.112v-7.284Z" transform="translate(-189.134 -246.933)" fill="#dbedff"/>
        <path id="Trazado_1180097" data-name="Trazado 1180097" d="M177.463,106.077c-.258,0-.278-.007-1.71-.128a4.786,4.786,0,0,1-4.163-3.622.138.138,0,0,0-.27,0,4.837,4.837,0,0,1-2.934,3.339l-.5.636v7.706l1.551,3.253,1.549,1.7,2.694.88a8.256,8.256,0,0,0,6.025-7.923v-5.845Z" transform="translate(-150.029 -91.216)" fill="#ffdecf"/>
        <path id="Trazado_1180098" data-name="Trazado 1180098" d="M132.83,138.219v-6.336a4.482,4.482,0,0,1-1.275.291c.116-.009-1.465.12-1.747.12h-2.156v5.925a8.136,8.136,0,0,0,8.331,8.129,7.951,7.951,0,0,0,2.521-.4A8.076,8.076,0,0,1,132.83,138.219Z" transform="translate(-114.472 -117.433)" fill="#ffcebe"/>
      </g>
      <g id="Grupo_1226485" data-name="Grupo 1226485" transform="translate(6.702)">
        <path id="Trazado_1180099" data-name="Trazado 1180099" d="M192,352.021a.871.871,0,0,0-.871.871v12.624a.871.871,0,1,0,1.743,0V352.892A.871.871,0,0,0,192,352.021Z" transform="translate(-169.701 -311.126)"/>
        <path id="Trazado_1180100" data-name="Trazado 1180100" d="M63.4,31.61h-.018l-2.446-4.338a.871.871,0,0,0-.529-1.629,11.592,11.592,0,0,1-1.5.1A12.24,12.24,0,0,1,54,24.689a3.569,3.569,0,1,0-7.074,0,12.482,12.482,0,0,1-3.763,1V14.165A14.156,14.156,0,0,0,29,0h-.107A14.286,14.286,0,0,0,14.835,14.332V34.518L11.794,35.7l-.017.007A8.588,8.588,0,0,0,6.7,43.544V57.1a2.385,2.385,0,0,0,2.383,2.383H26.967a.871.871,0,1,0,0-1.743h-3.66V40.761c2.091.055,4.153-.921,4.712-1.8H29.98c.543.855,2.58,1.859,4.712,1.8V57.738H31.033a.871.871,0,1,0,0,1.743H48.914A2.385,2.385,0,0,0,51.3,57.1V53.859a.871.871,0,0,0-1.743,0V57.1a.641.641,0,0,1-.64.64h-4.4V48.854a.871.871,0,0,0-1.743,0v8.884H36.434V54.014l4.69-12.806a5.518,5.518,0,0,0-.108-4.043h2.817a3.527,3.527,0,0,0,.973-.141A6.517,6.517,0,0,1,47.6,38.739a4.222,4.222,0,0,0-1.342,2.81A1.964,1.964,0,0,0,44.162,43.5v1.839A1.957,1.957,0,0,0,46.117,47.3h3.437v2.5a.871.871,0,1,0,1.743,0V47.3h3.515a1.957,1.957,0,0,0,1.955-1.955V43.5a1.957,1.957,0,0,0-1.955-1.955h-.139a4.226,4.226,0,0,0-3.337-3.843V27.679a3.579,3.579,0,0,0,2.02-1.372,14.254,14.254,0,0,0,3.956,1.079L54.929,31.61h-.018a1.231,1.231,0,0,0-1.229,1.229v.912a3.417,3.417,0,0,0,3.413,3.413h4.118a3.417,3.417,0,0,0,3.413-3.413V32.84A1.23,1.23,0,0,0,63.4,31.61Zm-19.4,0H39.551l2.224-3.943ZM16.577,14.332A12.539,12.539,0,0,1,28.906,1.743H29A12.415,12.415,0,0,1,41.422,14.165v2.42a4.42,4.42,0,0,0-4.231-1.724,25.123,25.123,0,0,1-3.82-.125,3.9,3.9,0,0,1-3.39-2.958,1.01,1.01,0,0,0-1.963,0,3.9,3.9,0,0,1-3.451,2.968,34.268,34.268,0,0,1-3.855.106,4.515,4.515,0,0,0-4.135,1.733Zm23.747,4.393a2.388,2.388,0,0,1-2.208,2.285V16.576A2.212,2.212,0,0,1,40.325,18.725ZM28.711,28.9a7.294,7.294,0,0,1-7.087-7.247V16.6c2.9,0,5.615.046,7.376-2.741a5.644,5.644,0,0,0,3.9,2.573,23.439,23.439,0,0,0,3.473.169v4.973A7.339,7.339,0,0,1,28.711,28.9ZM19.882,16.583V21.01C17.076,20.659,16.8,16.941,19.882,16.583Zm1.682,41.155H15.224V44.626a.871.871,0,0,0-1.743,0V57.738h-4.4a.641.641,0,0,1-.64-.64V43.544a6.91,6.91,0,0,1,3.988-6.225l5.5-2.131-.844,1.751a5.516,5.516,0,0,0-.21,4.269l4.69,12.806v3.725Zm0-8.792-3.054-8.338a3.764,3.764,0,0,1,.143-2.913l1.653-3.43,1.257-.487Zm-4.987-15.1V20.864a4.3,4.3,0,0,0,3.374,1.9,8.912,8.912,0,0,0,3.535,6.088V31.16C23.446,31.182,16.62,33.826,16.577,33.843Zm9.959,4.2a5.152,5.152,0,0,1-3.229.976v-4.4a18,18,0,0,0,3.213,3.3.08.08,0,0,1,.016.128Zm3.851-1.485a1.906,1.906,0,0,0-.521.659H28.133a1.886,1.886,0,0,0-.521-.659,15.971,15.971,0,0,1-3.47-3.784,1.676,1.676,0,0,0,1.086-1.587V29.862a9.342,9.342,0,0,0,7.535.006v1.326a1.7,1.7,0,0,0,1.086,1.587,16.04,16.04,0,0,1-3.465,3.776Zm4.305,2.462a5.157,5.157,0,0,1-3.229-.976.08.08,0,0,1,.007-.12,18.014,18.014,0,0,0,3.222-3.3Zm-.184-7.853,0-2.339a9.123,9.123,0,0,0,3.532-6.064,4.294,4.294,0,0,0,3.384-1.9v4.861c-.3-.016-.6-.042-.9-.081A.871.871,0,0,0,40,27.273L37.551,31.61a1.231,1.231,0,0,0-.908.383l-2.135-.827Zm4.981,9.442-3.054,8.338V34.7a3.4,3.4,0,0,0,2.624,2.4l.286.594A3.763,3.763,0,0,1,39.488,40.609ZM45.5,33.752a1.672,1.672,0,0,1-1.67,1.67H39.716a1.673,1.673,0,0,1-1.67-1.67v-.4H45.5ZM46.53,35.84a3.4,3.4,0,0,0,.717-2.088V32.84a1.231,1.231,0,0,0-1.229-1.229H46l-2.382-4.223a14.261,14.261,0,0,0,3.956-1.079,3.579,3.579,0,0,0,2.02,1.372V37.706a4.179,4.179,0,0,0-.463.127,7.922,7.922,0,0,0-2.6-1.993Zm8.282,7.451a.212.212,0,0,1,.212.212v1.839a.212.212,0,0,1-.212.212H46.117a.212.212,0,0,1-.212-.212V43.5a.212.212,0,0,1,.212-.212Zm-1.887-1.743H48.006a2.476,2.476,0,0,1,4.918,0Zm-2.46-15.5a1.826,1.826,0,1,1,1.826-1.826A1.829,1.829,0,0,1,50.464,26.045Zm8.689,1.623,2.224,3.943H56.93Zm3.729,6.084a1.672,1.672,0,0,1-1.67,1.67H57.1a1.672,1.672,0,0,1-1.67-1.67v-.4h7.458Z" transform="translate(-6.702)"/>
      </g>
    </g>
  </g>
</svg>
