<svg xmlns="http://www.w3.org/2000/svg" xmlns:xlink="http://www.w3.org/1999/xlink" width="108" height="108" viewBox="0 0 108 108">
  <defs>
    <filter id="Trazado_904820" x="0" y="0" width="108" height="108" filterUnits="userSpaceOnUse">
      <feOffset dy="3" input="SourceAlpha"/>
      <feGaussianBlur stdDeviation="3" result="blur"/>
      <feFlood flood-opacity="0.161"/>
      <feComposite operator="in" in2="blur"/>
      <feComposite in="SourceGraphic"/>
    </filter>
  </defs>
  <g id="Grupo_1226041" data-name="Grupo 1226041" transform="translate(-626.5 -544.092)">
    <g id="Grupo_1224687" data-name="Grupo 1224687" transform="translate(635.5 550.092)">
      <g id="Grupo_1222710" data-name="Grupo 1222710" transform="translate(0 0)">
        <g id="Grupo_1220471" data-name="Grupo 1220471">
          <g id="Grupo_1219977" data-name="Grupo 1219977">
            <g id="Grupo_1219603" data-name="Grupo 1219603">
              <g id="Grupo_1202655" data-name="Grupo 1202655">
                <g id="Grupo_1173585" data-name="Grupo 1173585">
                  <g id="Grupo_1173428" data-name="Grupo 1173428">
                    <g id="Grupo_1171958" data-name="Grupo 1171958">
                      <g id="Grupo_1167341" data-name="Grupo 1167341">
                        <g id="Grupo_1166792" data-name="Grupo 1166792">
                          <g transform="matrix(1, 0, 0, 1, -9, -6)" filter="url(#Trazado_904820)">
                            <g id="Trazado_904820-2" data-name="Trazado 904820" transform="translate(9 6)" fill="#fdfaeb">
                              <path d="M 44.99999618530273 88.49999237060547 C 39.12687301635742 88.49999237060547 33.43022155761719 87.35006713867188 28.06829643249512 85.08216857910156 C 22.88852119445801 82.89130401611328 18.23629570007324 79.75457763671875 14.24084663391113 75.75914001464844 C 10.24540901184082 71.76369476318359 7.108683586120605 67.11146545410156 4.917821407318115 61.93169403076172 C 2.649921178817749 56.56976699829102 1.499996185302734 50.87311553955078 1.499996185302734 44.99999237060547 C 1.499996185302734 39.12686920166016 2.649921178817749 33.43021774291992 4.917821407318115 28.06829261779785 C 7.108683586120605 22.88851737976074 10.24540901184082 18.23630523681641 14.24084663391113 14.24085521697998 C 18.23629570007324 10.24540519714355 22.88852119445801 7.108692169189453 28.06829643249512 4.917829990386963 C 33.43022155761719 2.649929761886597 39.12687301635742 1.500004887580872 44.99999618530273 1.500004887580872 C 50.87311935424805 1.500004887580872 56.56977081298828 2.649929761886597 61.93169784545898 4.917829990386963 C 67.11147308349609 7.108692169189453 71.76369476318359 10.24540519714355 75.75914764404297 14.24085521697998 C 79.75458526611328 18.23630523681641 82.89131164550781 22.88851737976074 85.08216857910156 28.06829261779785 C 87.35007476806641 33.43021774291992 88.5 39.12686920166016 88.5 44.99999237060547 C 88.5 50.87311553955078 87.35007476806641 56.56976699829102 85.08216857910156 61.93169403076172 C 82.89131164550781 67.11146545410156 79.75458526611328 71.76369476318359 75.75914764404297 75.75914001464844 C 71.76369476318359 79.75457763671875 67.11147308349609 82.89130401611328 61.93169784545898 85.08216857910156 C 56.56977081298828 87.35006713867188 50.87311935424805 88.49999237060547 44.99999618530273 88.49999237060547 Z" stroke="none"/>
                              <path d="M 44.99999618530273 2.999992370605469 C 39.32870864868164 2.999992370605469 33.82865142822266 4.11004638671875 28.65262603759766 6.299331665039062 C 23.65165710449219 8.414566040039062 19.15968322753906 11.44333648681641 15.301513671875 15.30150604248047 C 11.44333648681641 19.15967559814453 8.414566040039062 23.65164947509766 6.299339294433594 28.65262222290039 C 4.110054016113281 33.82864761352539 2.999992370605469 39.32870483398438 2.999992370605469 44.99999237060547 C 2.999992370605469 50.67127990722656 4.110054016113281 56.17132186889648 6.299339294433594 61.34736633300781 C 8.414566040039062 66.34833526611328 11.44333648681641 70.84029388427734 15.301513671875 74.69846343994141 C 19.15968322753906 78.55663299560547 23.65165710449219 81.58540344238281 28.65262603759766 83.70063781738281 C 33.82865142822266 85.88992309570312 39.32870864868164 86.99997711181641 44.99999618530273 86.99997711181641 C 50.67128372192383 86.99997711181641 56.17134094238281 85.88992309570312 61.34736633300781 83.70063781738281 C 66.34834289550781 81.58540344238281 70.84030914306641 78.55663299560547 74.69847869873047 74.69846343994141 C 78.55665588378906 70.84029388427734 81.58542633056641 66.34833526611328 83.70065307617188 61.34736633300781 C 85.88993835449219 56.17132186889648 87 50.67127990722656 87 44.99999237060547 C 87 39.32870483398438 85.88993835449219 33.82864761352539 83.70065307617188 28.65262222290039 C 81.58542633056641 23.65164947509766 78.55665588378906 19.15967559814453 74.69847869873047 15.30150604248047 C 70.84030914306641 11.44333648681641 66.34834289550781 8.414566040039062 61.34736633300781 6.299331665039062 C 56.17134094238281 4.11004638671875 50.67128372192383 2.999992370605469 44.99999618530273 2.999992370605469 M 44.99999618530273 -7.62939453125e-06 C 69.85281372070312 -7.62939453125e-06 90 20.14717864990234 90 44.99999237060547 C 90 69.85279083251953 69.85281372070312 89.99997711181641 44.99999618530273 89.99997711181641 C 20.14717864990234 89.99997711181641 -7.62939453125e-06 69.85279083251953 -7.62939453125e-06 44.99999237060547 C -7.62939453125e-06 20.14717864990234 20.14717864990234 -7.62939453125e-06 44.99999618530273 -7.62939453125e-06 Z" stroke="none" fill="#847625"/>
                            </g>
                          </g>
                        </g>
                      </g>
                    </g>
                  </g>
                </g>
              </g>
            </g>
          </g>
        </g>
      </g>
    </g>
    <g id="decision_1_" data-name="decision (1)" transform="translate(632.119 566.659)">
      <g id="Grupo_1226039" data-name="Grupo 1226039" transform="translate(23.274 0.833)">
        <path id="Trazado_1178928" data-name="Trazado 1178928" d="M211.936,7.5h-30.21a1.671,1.671,0,0,0-1.666,1.666V49.372l32.431,1.111L213.6,9.166A1.671,1.671,0,0,0,211.936,7.5Z" transform="translate(-163.387 -7.5)" fill="#e1dee2"/>
        <path id="Trazado_1178929" data-name="Trazado 1178929" d="M211.381,24.166v1.666H180.06v39.1h31.876a1.671,1.671,0,0,0,1.666-1.666V22.5h-.555A1.671,1.671,0,0,0,211.381,24.166Z" transform="translate(-163.387 -20.834)" fill="#c5bec6"/>
        <path id="Trazado_1178930" data-name="Trazado 1178930" d="M181.936,37.5h-30.21a1.671,1.671,0,0,0-1.666,1.666V79.372l32.431,1.111L183.6,39.166A1.671,1.671,0,0,0,181.936,37.5Z" transform="translate(-136.719 -34.168)" fill="#faf8f8"/>
        <path id="Trazado_1178931" data-name="Trazado 1178931" d="M181.381,54.166V91.873a.833.833,0,0,1-.833.833H150.06v.555a1.671,1.671,0,0,0,1.666,1.666h30.21a1.671,1.671,0,0,0,1.666-1.666V52.5h-.555A1.671,1.671,0,0,0,181.381,54.166Z" transform="translate(-136.719 -47.502)" fill="#e1dee2"/>
        <path id="Trazado_1178932" data-name="Trazado 1178932" d="M61.089,462.3a5.329,5.329,0,0,0-.727-.049H41.678a4.657,4.657,0,0,0-4.182,2.472l25.666,1.111a5.5,5.5,0,0,0-2.073-3.533Z" transform="translate(-36.657 -411.74)" fill="#d09180"/>
        <path id="Trazado_1178933" data-name="Trazado 1178933" d="M58.666,467.331s-.675-4.148-4.294-4.644a7.021,7.021,0,0,1,.644,1.3.832.832,0,0,1-.783,1.119H30.779a7.2,7.2,0,0,0-.839,2.221Z" transform="translate(-29.94 -412.131)" fill="#b46e5a"/>
        <path id="Trazado_1178934" data-name="Trazado 1178934" d="M296.471,421.352c.28-.484.688-2.312-.261-2.814-2.576-1.318-8.926-4.414-8.926-4.414l-1.666.787v2.1s5.856,3.951,8.286,5.523C294.813,423.1,296.191,421.836,296.471,421.352Z" transform="translate(-257.221 -368.962)" fill="#d09180"/>
        <path id="Trazado_1178935" data-name="Trazado 1178935" d="M363.474,454.369c-.166-.1-.5-.272-.95-.5a4.171,4.171,0,0,1-2.306,3.994c.423.274.743.476.909.572a2.346,2.346,0,1,0,2.346-4.064Z" transform="translate(-323.536 -404.292)" fill="#b46e5a"/>
        <path id="Trazado_1178936" data-name="Trazado 1178936" d="M234.893,383.876l-6.546-3.779-1.666.841v2.045l6.546,3.779Z" transform="translate(-204.83 -338.714)" fill="#b46e5a"/>
        <path id="Trazado_1178937" data-name="Trazado 1178937" d="M0,0H3.332V3.684H0Z" transform="matrix(0.5, -0.866, 0.866, 0.5, 18.659, 42.427)" fill="#a65d4e"/>
        <path id="Trazado_1178938" data-name="Trazado 1178938" d="M167.988,345.6s2.346,1.3,1.574,2.634l-1.666,2.886c-.772,1.337-3.068-.047-3.068-.047l-1.942-4.77Z" transform="translate(-148.121 -308.045)" fill="#d09180"/>
        <path id="Trazado_1178939" data-name="Trazado 1178939" d="M100.977,277.871,99.6,274.9l-6.75.619c-.835,1.447-.835,3.791-1.671,5.238s-2.865,2.619-3.7,4.066l2.839,6.155,3.262-.3Z" transform="translate(-81.092 -245.198)" fill="#d09180"/>
        <path id="Trazado_1178940" data-name="Trazado 1178940" d="M149.809,301.676c-1.217,1.973-3.971,3.592-5.119,5.581s-1.173,5.184-2.274,7.224l3.488-.32c.835-1.447.835-3.791,1.671-5.238s2.865-2.619,3.7-4.066Z" transform="translate(-129.924 -269.003)" fill="#b46e5a"/>
        <path id="Trazado_1178941" data-name="Trazado 1178941" d="M66.535,397.025c1.513,0,4.495-1.976,4.495-1.976L59.571,390.12a4.709,4.709,0,0,0-.2,2.436c.223.833,1.344,1.917,2.767,2.906a10.12,10.12,0,0,0,4.4,1.563Z" transform="translate(-56.023 -347.624)" fill="#d09180"/>
        <path id="Trazado_1178942" data-name="Trazado 1178942" d="M88.886,435.58c-.833.223-2.332-.206-3.9-.943,2.315,1.61,5.43,2.973,6.786,2.609a4.727,4.727,0,0,0,2.012-1.391v-1.666H90.9A4.726,4.726,0,0,1,88.886,435.58Z" transform="translate(-78.871 -386.798)" fill="#b46e5a"/>
        <path id="Trazado_1178943" data-name="Trazado 1178943" d="M64.729,362.938a1.152,1.152,0,0,0-1.6.429l-.782,1.355a5.679,5.679,0,0,0-.458,1.09l8.478,4.895,3.422-1.185c.324-.561-.7-1.756-2.24-2.648Z" transform="translate(-58.338 -323.317)" fill="#ebae9d"/>
        <path id="Trazado_1178944" data-name="Trazado 1178944" d="M139.4,399.676a1.069,1.069,0,0,1,.316,1.537l-.782,1.355a5.647,5.647,0,0,1-.716.941l2.886,1.666a5.644,5.644,0,0,0,.716-.941l.782-1.355a1.173,1.173,0,0,0-.429-1.6Z" transform="translate(-126.191 -356.119)" fill="#d09180"/>
        <path id="Trazado_1178945" data-name="Trazado 1178945" d="M154.926,236.318c.757,1.311.536,4.881.536,4.881l-10-7.459a4.71,4.71,0,0,1,2.009-1.393c.833-.223,2.332.206,3.9.943a10.119,10.119,0,0,1,3.553,3.028Z" transform="translate(-132.633 -207.321)" fill="#d09180"/>
        <path id="Trazado_1178946" data-name="Trazado 1178946" d="M201.435,244.22c-.223-.833-1.344-1.917-2.767-2.906,2.552,1.2,5.29,3.216,5.653,4.572a4.725,4.725,0,0,1-.2,2.438l-1.443.833-1.443-2.5A4.726,4.726,0,0,0,201.435,244.22Z" transform="translate(-179.928 -215.345)" fill="#b46e5a"/>
        <path id="Trazado_1178947" data-name="Trazado 1178947" d="M131.069,249.257a1.152,1.152,0,0,1-.429-1.6l.782-1.355a5.689,5.689,0,0,1,.715-.942l8.478,4.895.685,3.556c-.324.561-1.869.276-3.413-.616Z" transform="translate(-119.306 -218.94)" fill="#ebae9d"/>
        <path id="Trazado_1178948" data-name="Trazado 1178948" d="M197.227,292.368a1.069,1.069,0,0,0,1.49-.495l.782-1.355a5.641,5.641,0,0,0,.457-1.091l2.886,1.666a5.652,5.652,0,0,1-.457,1.091l-.782,1.355a1.173,1.173,0,0,1-1.6.429Z" transform="translate(-178.647 -258.115)" fill="#d09180"/>
      </g>
      <g id="Grupo_1226040" data-name="Grupo 1226040" transform="translate(22.441)">
        <path id="Trazado_1178949" data-name="Trazado 1178949" d="M402.534,85.5a.833.833,0,0,0-.833.833v32.376a.834.834,0,0,1-.833.833h-.833v-4.576a.833.833,0,1,0-1.666,0v7.63a.834.834,0,0,1-.833.833h-4.105a.833.833,0,1,0,0,1.666h4.105a2.5,2.5,0,0,0,2.5-2.5v-1.388h.833a2.5,2.5,0,0,0,2.5-2.5V86.331A.833.833,0,0,0,402.534,85.5Z" transform="translate(-351.486 -76.002)"/>
        <path id="Trazado_1178950" data-name="Trazado 1178950" d="M178.6,0h-30.21a2.5,2.5,0,0,0-2.5,2.5v.833h-.833a2.5,2.5,0,0,0-2.5,2.5v8.523a.833.833,0,1,0,1.666,0V5.831A.834.834,0,0,1,145.059,5h30.21a.834.834,0,0,1,.833.833v29.8a.833.833,0,1,0,1.666,0V5.831a2.5,2.5,0,0,0-2.5-2.5H147.558V2.5a.834.834,0,0,1,.833-.833H178.6a.834.834,0,0,1,.833.833V7A.833.833,0,1,0,181.1,7V2.5A2.5,2.5,0,0,0,178.6,0Z" transform="translate(-129.219)"/>
        <path id="Trazado_1178951" data-name="Trazado 1178951" d="M193.073,171.966H212.46a.833.833,0,0,0,0-1.666H193.073a.833.833,0,0,0,0,1.666Z" transform="translate(-173.381 -151.385)"/>
        <path id="Trazado_1178952" data-name="Trazado 1178952" d="M193.073,131.966h16.055a.833.833,0,1,0,0-1.666H193.073a.833.833,0,1,0,0,1.666Z" transform="translate(-173.381 -115.828)"/>
        <path id="Trazado_1178953" data-name="Trazado 1178953" d="M193.073,91.966h22.471a.833.833,0,1,0,0-1.666H193.073a.833.833,0,0,0,0,1.666Z" transform="translate(-173.381 -80.271)"/>
        <path id="Trazado_1178954" data-name="Trazado 1178954" d="M63.628,185.072c-1.05-.606-8.353-4.175-9.718-4.841h3.548a.833.833,0,1,0,0-1.666H51l-4.809-2.777H64.6a.833.833,0,0,0,0-1.666H45.317a4.367,4.367,0,0,0-.877-.962,7.833,7.833,0,0,0,.53-.616,2.005,2.005,0,0,0,1.98-.988l.122-.211H64.6a.833.833,0,1,0,0-1.666H47.99a7.1,7.1,0,0,0,.593-2.777H64.6a.833.833,0,1,0,0-1.666H48.1a10.986,10.986,0,0,0-3.033-2.777H64.6a.833.833,0,0,0,0-1.666H42.066c-1.337-.6-3.025-1.164-4.168-.858a3.337,3.337,0,0,0-.45.158v-7.526a.833.833,0,1,0-1.666,0v8.7a6.982,6.982,0,0,0-1.114,1.394l-.778,1.347a1.946,1.946,0,0,0-.223,1.5,2.006,2.006,0,0,0,.352.723,13.593,13.593,0,0,0-.632,2.247,8.845,8.845,0,0,1-.743,2.382.833.833,0,1,0,1.443.833,10.1,10.1,0,0,0,.928-2.856,16.431,16.431,0,0,1,.41-1.612l7.98,4.607a16.432,16.432,0,0,1-1.191,1.161,10.1,10.1,0,0,0-2.01,2.231,10.1,10.1,0,0,0-.928,2.856,16.429,16.429,0,0,1-.41,1.612l-7.979-4.606c.235-.266.5-.525.769-.775a.833.833,0,0,0-1.137-1.218,10.7,10.7,0,0,0-1.2,1.271,2,2,0,0,0-.8.057,1.946,1.946,0,0,0-1.185.942l-.778,1.347a6.334,6.334,0,0,0-.743,4.158c.491,1.833,3.617,3.758,4.564,4.3.105.061.238.136.395.222H28.3c-3.928,0-5.54,3.527-5.844,5.392a.833.833,0,0,0,.822.967H52a.833.833,0,0,0,.822-.967c-.3-1.865-1.915-5.392-5.844-5.392H38.748a6.493,6.493,0,0,0,.875-1.142l.782-1.355a2.007,2.007,0,0,0-.135-2.21,7.852,7.852,0,0,0,.269-.765,4.2,4.2,0,0,0,1.411.282,2.413,2.413,0,0,0,.6-.073,1.972,1.972,0,0,0,.642-.295l4.288,2.476H43.049a.833.833,0,0,0,0,1.666h7.32l.86.5c.577.389,8.105,5.465,9.22,6.109a3.179,3.179,0,1,0,3.179-5.507Zm-12.263-2.447-7.179-4.145.833-1.443,7.179,4.145Zm-13.037-21.08a1.191,1.191,0,0,1,.3-.033,10.873,10.873,0,0,1,4.442,1.667c2.256,1.3,3.613,2.643,3.788,3.293a2.608,2.608,0,0,1,.036.931l-9.392-5.422A2.6,2.6,0,0,1,38.329,161.545Zm-3.011,3.319.011-.018.782-1.355c.051-.089.115-.185.187-.285l10.145,5.857a3.36,3.36,0,0,1-.153.3l-.782,1.355a.341.341,0,0,1-.465.125l-9.59-5.537a.361.361,0,0,1-.171-.219A.287.287,0,0,1,35.317,164.865Zm-4.105,18.86c-2.256-1.3-3.613-2.643-3.788-3.293a2.593,2.593,0,0,1-.034-.93l9.392,5.422a2.607,2.607,0,0,1-.824.435,1.039,1.039,0,0,1-.212.031h-.185A11.357,11.357,0,0,1,31.212,183.725Zm19.693,6.357H24.375a6.226,6.226,0,0,1,.522-1.076,3.8,3.8,0,0,1,3.4-1.951H46.979a4.172,4.172,0,0,1,3.927,3.027ZM38.962,182.06l-.782,1.355a3.4,3.4,0,0,1-.187.285l-10.145-5.857c.051-.112.1-.215.153-.3l.782-1.355.01-.019a.286.286,0,0,1,.179-.145.332.332,0,0,1,.09-.012.374.374,0,0,1,.186.051l9.59,5.537a.34.34,0,0,1,.125.465Zm1.974-3.776a8.252,8.252,0,0,1,.71-2.232,8.244,8.244,0,0,1,1.578-1.731,2.266,2.266,0,0,1,.8.927.27.27,0,0,1-.03.236l-1.666,2.885a.27.27,0,0,1-.189.144A2.264,2.264,0,0,1,40.936,178.284Zm22.413,10.3a1.515,1.515,0,0,1-2.067.554c-.805-.465-5.591-3.669-8.5-5.629l.889-1.54c3.153,1.54,8.321,4.083,9.126,4.548A1.515,1.515,0,0,1,63.349,188.582Z" transform="translate(-22.441 -134.882)"/>
      </g>
    </g>
  </g>
</svg>
