<svg xmlns="http://www.w3.org/2000/svg" xmlns:xlink="http://www.w3.org/1999/xlink" width="97.533" height="97.533" viewBox="0 0 97.533 97.533">
  <defs>
    <filter id="Trazado_982547" x="0" y="0" width="97.533" height="97.533" filterUnits="userSpaceOnUse">
      <feOffset dy="3" input="SourceAlpha"/>
      <feGaussianBlur stdDeviation="3" result="blur"/>
      <feFlood flood-opacity="0.161"/>
      <feComposite operator="in" in2="blur"/>
      <feComposite in="SourceGraphic"/>
    </filter>
  </defs>
  <g id="Grupo_1226092" data-name="Grupo 1226092" transform="translate(-820.967 -1732)">
    <g id="Grupo_1225668" data-name="Grupo 1225668" transform="translate(211.5 -91)">
      <g id="Grupo_1206295" data-name="Grupo 1206295" transform="translate(618.467 1829)">
        <g id="Grupo_1206294" data-name="Grupo 1206294" transform="translate(0)">
          <g id="Grupo_1204176" data-name="Grupo 1204176" transform="translate(0)">
            <g id="Grupo_1203355" data-name="Grupo 1203355" transform="translate(0)">
              <g id="Grupo_1202156" data-name="Grupo 1202156">
                <g id="Grupo_1177900" data-name="Grupo 1177900">
                  <g id="Grupo_1172010" data-name="Grupo 1172010">
                    <g id="Grupo_1171046" data-name="Grupo 1171046">
                      <g id="Grupo_1148525" data-name="Grupo 1148525">
                        <g transform="matrix(1, 0, 0, 1, -9, -6)" filter="url(#Trazado_982547)">
                          <g id="Trazado_982547-2" data-name="Trazado 982547" transform="translate(9 6)" fill="#f7f4ed">
                            <path d="M 39.7666015625 78.033203125 C 34.59997940063477 78.033203125 29.58870124816895 77.02164459228516 24.87196731567383 75.02663421630859 C 20.31538963317871 73.099365234375 16.22284507751465 70.34000396728516 12.70802402496338 66.82518005371094 C 9.193202018737793 63.31035614013672 6.433835029602051 59.21781158447266 4.506568431854248 54.66123580932617 C 2.511557102203369 49.94449996948242 1.500001549720764 44.93322372436523 1.500001549720764 39.7666015625 C 1.500001549720764 34.59997940063477 2.511557102203369 29.58870124816895 4.506568431854248 24.87196731567383 C 6.433835029602051 20.31538963317871 9.193202018737793 16.22284507751465 12.70802402496338 12.70802402496338 C 16.22284507751465 9.193202018737793 20.31538963317871 6.433835029602051 24.87196731567383 4.506568431854248 C 29.58870124816895 2.511557102203369 34.59997940063477 1.500001549720764 39.7666015625 1.500001549720764 C 44.93322372436523 1.500001549720764 49.94449996948242 2.511557102203369 54.66123580932617 4.506568431854248 C 59.21781158447266 6.433835029602051 63.31035614013672 9.193202018737793 66.82518005371094 12.70802402496338 C 70.34000396728516 16.22284507751465 73.099365234375 20.31538963317871 75.02663421630859 24.87196731567383 C 77.02164459228516 29.58870124816895 78.033203125 34.59997940063477 78.033203125 39.7666015625 C 78.033203125 44.93322372436523 77.02164459228516 49.94449996948242 75.02663421630859 54.66123580932617 C 73.099365234375 59.21781158447266 70.34000396728516 63.31035614013672 66.82518005371094 66.82518005371094 C 63.31035614013672 70.34000396728516 59.21781158447266 73.099365234375 54.66123580932617 75.02663421630859 C 49.94449996948242 77.02164459228516 44.93322372436523 78.033203125 39.7666015625 78.033203125 Z" stroke="none"/>
                            <path d="M 39.7666015625 3 C 34.80181503295898 3 29.98714065551758 3.971687316894531 25.45630264282227 5.888076782226562 C 21.07851409912109 7.739715576171875 17.146240234375 10.39113616943359 13.76869201660156 13.76869201660156 C 10.39113616943359 17.146240234375 7.739715576171875 21.07851409912109 5.888076782226562 25.45630264282227 C 3.971687316894531 29.98714065551758 3 34.80181503295898 3 39.7666015625 C 3 44.73138809204102 3.971687316894531 49.54606628417969 5.888076782226562 54.076904296875 C 7.739715576171875 58.45468902587891 10.39113616943359 62.386962890625 13.76869201660156 65.76451110839844 C 17.146240234375 69.14206695556641 21.07851409912109 71.79348754882812 25.45630264282227 73.64512634277344 C 29.98714065551758 75.56151580810547 34.80181503295898 76.533203125 39.7666015625 76.533203125 C 44.73138809204102 76.533203125 49.54606628417969 75.56151580810547 54.076904296875 73.64512634277344 C 58.45468902587891 71.79348754882812 62.386962890625 69.14206695556641 65.76451110839844 65.76451110839844 C 69.14206695556641 62.386962890625 71.79348754882812 58.45468902587891 73.64512634277344 54.076904296875 C 75.56151580810547 49.54606628417969 76.533203125 44.73138809204102 76.533203125 39.7666015625 C 76.533203125 34.80181503295898 75.56151580810547 29.98714065551758 73.64512634277344 25.45630264282227 C 71.79348754882812 21.07851409912109 69.14206695556641 17.146240234375 65.76451110839844 13.76869201660156 C 62.386962890625 10.39113616943359 58.45468902587891 7.739715576171875 54.076904296875 5.888076782226562 C 49.54606628417969 3.971687316894531 44.73138809204102 3 39.7666015625 3 M 39.7666015625 0 C 61.72908782958984 0 79.533203125 17.80411529541016 79.533203125 39.7666015625 C 79.533203125 61.72908782958984 61.72908782958984 79.533203125 39.7666015625 79.533203125 C 17.80411529541016 79.533203125 0 61.72908782958984 0 39.7666015625 C 0 17.80411529541016 17.80411529541016 0 39.7666015625 0 Z" stroke="none" fill="#655531"/>
                          </g>
                        </g>
                      </g>
                    </g>
                  </g>
                </g>
              </g>
            </g>
          </g>
        </g>
      </g>
    </g>
    <g id="juez_4_" data-name="juez (4)" transform="translate(818.819 1750.239)">
      <g id="Grupo_1226090" data-name="Grupo 1226090" transform="translate(28.937 0.742)">
        <path id="Trazado_1179092" data-name="Trazado 1179092" d="M218.826,23.906a1.024,1.024,0,0,1-.349-1.178,3.464,3.464,0,0,0-.52-3.333,1.022,1.022,0,0,1,0-1.265,3.458,3.458,0,0,0-.686-4.925,7.5,7.5,0,0,1-1.924-2.142c-1.39-2.324-4.069-4.823-8.816-2.993a1.973,1.973,0,0,1-1.418,0l-.035-.013h-.631L201.6,10.332l-1.921,2.519-1.746,2.12,1.484,4.424v3.732l-2.656,1.8-.524,3.018.449,1.945,1.6.856a4.666,4.666,0,0,0,1.324-1.873l12.372-.134a4.616,4.616,0,0,0,4.022,3.1,4.407,4.407,0,0,0,2.82-7.927Z" transform="translate(-180.219 -7.439)" fill="#ccc6ce"/>
        <path id="Trazado_1179093" data-name="Trazado 1179093" d="M192.322,293.083l-6-2.323-1.3.425-4.244,2.779h-6.136l-4.03-3.222H169.3l-.935.365-1.2.652-1.679,2.377-.166.816v6.8l-.139.008.4,2.954,4.666,7.348h19.812l.673-1V299.242l3.394-3.854v-1.114A5.865,5.865,0,0,0,192.322,293.083Z" transform="translate(-152.263 -262.477)" fill="#7b6c79"/>
        <path id="Trazado_1179094" data-name="Trazado 1179094" d="M135.309,294.4l-5.058,1.975a5.991,5.991,0,0,0-1.792,1.2v.892l3.32,4.016.279,2.088.369-.109v-5.55C132.427,296.977,134.029,295.375,135.309,294.4Z" transform="translate(-119.203 -265.774)" fill="#665e68"/>
        <g id="Grupo_1226089" data-name="Grupo 1226089" transform="translate(11.093 0)">
          <path id="Trazado_1179095" data-name="Trazado 1179095" d="M152.35,27.433a4.4,4.4,0,0,1,1.761-3.524,1.024,1.024,0,0,0,.349-1.178,3.464,3.464,0,0,1,.52-3.333,1.022,1.022,0,0,0,0-1.265,3.458,3.458,0,0,1,.686-4.925,7.5,7.5,0,0,0,1.924-2.142,7.7,7.7,0,0,1,3.051-3.006c-4.725-1.8-7.393.688-8.78,3.006a7.5,7.5,0,0,1-1.924,2.142,3.458,3.458,0,0,0-.686,4.925,1.022,1.022,0,0,1,0,1.265,3.464,3.464,0,0,0-.519,3.335,1.022,1.022,0,0,1-.349,1.176,4.415,4.415,0,0,0-1.507,2.052l.411.437h2.17v4.614l.633.726a4.435,4.435,0,0,0,1.113.1,4.365,4.365,0,0,0,2.65-1.091,4.4,4.4,0,0,1-1.5-3.312Z" transform="translate(-146.874 -7.443)" fill="#b7aeb8"/>
        </g>
        <path id="Trazado_1179096" data-name="Trazado 1179096" d="M293.712,242.474a.72.72,0,0,1-.46-.67l0-2.951a7.058,7.058,0,0,1-3.877,1.156c-.13,0-.258,0-.385-.01v5.812h2.935l1.8-2.128.084-1.175Z" transform="translate(-263.717 -215.766)" fill="#ffcebe"/>
        <path id="Trazado_1179097" data-name="Trazado 1179097" d="M250.784,239.913a7.432,7.432,0,0,1-3.979-1.165V241.7a.663.663,0,0,1-.307.583l-.253.1v.654l1.629,2.677h2.91v-5.8Z" transform="translate(-225.238 -215.671)" fill="#ffb1a0"/>
        <path id="Trazado_1179098" data-name="Trazado 1179098" d="M112.043,328.844l-2.554-2.61c-.139.132-.275.273-.408.422l-.346.342v4.694l-1.349,1.411v3.562l.617.5h4.44l1.1-.5v-4.129A5.279,5.279,0,0,0,112.043,328.844Z" transform="translate(-100.234 -294.428)" fill="#544e55"/>
        <path id="Trazado_1179099" data-name="Trazado 1179099" d="M419.352,343.931a1.3,1.3,0,0,0,1.3-1.3v-11.64a6.775,6.775,0,0,0-2.094-4.85l-2.563,2.619a5.278,5.278,0,0,0-1.505,3.691v11.478Z" transform="translate(-376.696 -294.346)" fill="#665e68"/>
        <path id="Trazado_1179100" data-name="Trazado 1179100" d="M93.789,266.774V254.437H90.4v12.337a1.695,1.695,0,0,0,3.39,0Z" transform="translate(-84.941 -229.794)" fill="#bd7b62"/>
        <path id="Trazado_1179101" data-name="Trazado 1179101" d="M123.662,430.784h-5.629l-.425.1-.812.64-.391,1.023v2.77h9.325v-2.463a2.068,2.068,0,0,0-2.068-2.068Z" transform="translate(-108.352 -388.547)" fill="#bd7b62"/>
        <path id="Trazado_1179102" data-name="Trazado 1179102" d="M63.653,430.784H57.436a2.068,2.068,0,0,0-2.068,2.068v2.463h6.217v-2.463A2.068,2.068,0,0,1,63.653,430.784Z" transform="translate(-53.405 -388.547)" fill="#ad6a50"/>
        <path id="Trazado_1179103" data-name="Trazado 1179103" d="M281.434,349.62,277.8,337.7l-2.236-.225-1.724,13.782a17.252,17.252,0,0,0,1.988.117,14.619,14.619,0,0,0,5.227-.957A.642.642,0,0,0,281.434,349.62Z" transform="translate(-250.081 -304.549)" fill="#dbedff"/>
        <path id="Trazado_1179104" data-name="Trazado 1179104" d="M237.078,337.7l-3.629,11.9a.646.646,0,0,0,.4.8,15.664,15.664,0,0,0,2.7.719l1.478-1.284,1.292-11.714-.441-.653Z" transform="translate(-213.69 -304.555)" fill="#b5dcff"/>
        <path id="Trazado_1179105" data-name="Trazado 1179105" d="M294.667,302.7l-1.182-.654a6.957,6.957,0,0,1-2.845.6l-.1,0-.134.178v3.292l.134.116h.078a5.422,5.422,0,0,0,4.547-2.5Z" transform="translate(-264.993 -272.653)" fill="#b5dcff"/>
        <path id="Trazado_1179106" data-name="Trazado 1179106" d="M250.017,302.666a7.641,7.641,0,0,1-2.918-.6l-1.1.486-.608,1.218a5.469,5.469,0,0,0,4.625,2.481Z" transform="translate(-224.47 -272.672)" fill="#8bcaff"/>
        <path id="Trazado_1179107" data-name="Trazado 1179107" d="M206.5,276.768l2.683,2.683a.984.984,0,0,0,1.392,0l1.365-1.365a.984.984,0,0,0,0-1.392l-1.475-1.475Z" transform="translate(-189.457 -248.503)" fill="#938493"/>
        <path id="Trazado_1179108" data-name="Trazado 1179108" d="M321.5,279.7a.984.984,0,0,0,1.392,0l2.665-2.665-3.975-1.539-1.448,1.448a.984.984,0,0,0,0,1.392Z" transform="translate(-291.5 -248.75)" fill="#938493"/>
        <path id="Trazado_1179109" data-name="Trazado 1179109" d="M54.006,470.46H36.712a1.023,1.023,0,0,0-1.023,1.023v1.344a1.023,1.023,0,0,0,1.023,1.023H54.006a1.023,1.023,0,0,0,1.023-1.023v-1.344A1.023,1.023,0,0,0,54.006,470.46Z" transform="translate(-35.689 -424.265)" fill="#ffe559"/>
        <path id="Trazado_1179110" data-name="Trazado 1179110" d="M35.906,196.489l.449.287H39.51v-3.255l-.581-.462H36.705a1.016,1.016,0,0,0-1.016,1.016v1.931Z" transform="translate(-35.689 -174.54)" fill="#fbc700"/>
        <path id="Trazado_1179111" data-name="Trazado 1179111" d="M36.705,220.11a1.016,1.016,0,0,1-1.016-1.016v3.614a1.016,1.016,0,0,0,1.016,1.016h2.224l.581-.281v-3.614l-.581.281Z" transform="translate(-35.689 -197.977)" fill="#eab900"/>
        <path id="Trazado_1179112" data-name="Trazado 1179112" d="M144.78,196.775h2.739l.474-.328.209-.406v-1.966a1.016,1.016,0,0,0-1.016-1.016h-2.223l-.182.171v3.546Z" transform="translate(-133.896 -174.539)" fill="#fbc700"/>
        <path id="Trazado_1179113" data-name="Trazado 1179113" d="M147.187,220.11h-2.224l-.182-.256v3.614l.182.256h2.224a1.016,1.016,0,0,0,1.016-1.016v-3.614A1.016,1.016,0,0,1,147.187,220.11Z" transform="translate(-133.897 -197.977)" fill="#eab900"/>
        <path id="Trazado_1179114" data-name="Trazado 1179114" d="M68.163,193.058H75.99v3.717H68.163Z" transform="translate(-64.923 -174.539)" fill="#ffe559"/>
        <path id="Trazado_1179115" data-name="Trazado 1179115" d="M68.163,229.281H75.99v3.614H68.163Z" transform="translate(-64.923 -207.148)" fill="#ffd500"/>
        <path id="Trazado_1179116" data-name="Trazado 1179116" d="M274.77,102.333a10.5,10.5,0,0,1-5.284-1.4,3.16,3.16,0,0,0-3.086,0c-.266.149-.562.3-.883.446l-.278.54v9.428l1.721,2.769,2.588,1.416.374.11.4.028a7.2,7.2,0,0,0,4.773-6.752v-6.269A.316.316,0,0,0,274.77,102.333Z" transform="translate(-242.336 -91.241)" fill="#ffdecf"/>
        <path id="Trazado_1179117" data-name="Trazado 1179117" d="M224.43,116.61v-7.591a10.121,10.121,0,0,1-4.5.954.317.317,0,0,0-.328.312v6.325a7.109,7.109,0,0,0,7.3,7.1,6.957,6.957,0,0,0,2.339-.4,7.054,7.054,0,0,1-4.805-6.7Z" transform="translate(-201.25 -98.884)" fill="#ffcebe"/>
        <path id="Trazado_1179118" data-name="Trazado 1179118" d="M109.1,470.46H97.727l-.248.054-.412.387-.178.387v1.8l.309.518.352.19.266.059H109.1a1.023,1.023,0,0,0,1.023-1.023v-1.344A1.023,1.023,0,0,0,109.1,470.46Z" transform="translate(-90.783 -424.265)" fill="#ffe559"/>
        <path id="Trazado_1179119" data-name="Trazado 1179119" d="M41.906,472.827v-1.344a1.023,1.023,0,0,1,1.023-1.023H36.712a1.023,1.023,0,0,0-1.023,1.023v1.344a1.023,1.023,0,0,0,1.023,1.023h6.217A1.023,1.023,0,0,1,41.906,472.827Z" transform="translate(-35.689 -424.265)" fill="#ffd500"/>
      </g>
      <path id="Trazado_1179120" data-name="Trazado 1179120" d="M29.96,51.075H52.921a.748.748,0,0,0,0-1.5H49c0-.021,0-.042.007-.063s0-.032.006-.048c0-.054.008-.108.008-.164V47.961a1.764,1.764,0,0,0-.08-.526c-.011-.036-.025-.07-.038-.1a17.044,17.044,0,0,0,5.777.987H54.7a15.342,15.342,0,0,0,5.476-1.006A1.388,1.388,0,0,0,61,45.59l-3.446-11.3a6.225,6.225,0,0,0,1.836-1.578,1.717,1.717,0,0,0,1.468-.489L63.183,29.9l5.535,2.144a4.771,4.771,0,0,1,.976.554L67.7,34.636a5.993,5.993,0,0,0-1.719,4.214v2.383a.748.748,0,1,0,1.5,0V38.85a4.5,4.5,0,0,1,1.292-3.168l2.009-2.054a5.952,5.952,0,0,1,1.364,3.761V49.03a.55.55,0,0,1-.55.55H67.478V44.725a.748.748,0,0,0-1.5,0v4.854H56.413a.748.748,0,1,0,0,1.5h15.18a2.048,2.048,0,0,0,2.046-2.046V37.389a7.38,7.38,0,0,0-4.358-6.733l-.015-.006L59.221,26.76l0-1.975a8.016,8.016,0,0,0,1.373-1.3,5.343,5.343,0,0,0,4.1,2.4,5.155,5.155,0,0,0,3.3-9.272h0a.275.275,0,0,1-.1-.32,4.212,4.212,0,0,0-.632-4.054.273.273,0,0,1,0-.342A4.166,4.166,0,0,0,68.158,9.3a4.223,4.223,0,0,0-1.727-3.4,6.736,6.736,0,0,1-1.723-1.922C62.495.285,59.041-.889,54.981.676a1.22,1.22,0,0,1-.88,0c-4.06-1.566-7.514-.391-9.727,3.307A6.739,6.739,0,0,1,42.65,5.9a4.223,4.223,0,0,0-1.727,3.4,4.166,4.166,0,0,0,.894,2.593.273.273,0,0,1,0,.342,4.212,4.212,0,0,0-.631,4.057.273.273,0,0,1-.1.317,5.144,5.144,0,0,0-1.556,1.9H29.954a1.767,1.767,0,0,0-1.765,1.765v5.2a1.767,1.767,0,0,0,1.765,1.765h3.694V37.722a2.447,2.447,0,0,0,1.695,2.325v2.183H32.968a2.819,2.819,0,0,0-2.816,2.816v1.142H29.96a1.773,1.773,0,0,0-1.771,1.771V49.3a1.773,1.773,0,0,0,1.771,1.771Zm18.021-5.5a1.385,1.385,0,0,0-.023.763,1.759,1.759,0,0,0-.7-.147h-.192V45.047a2.819,2.819,0,0,0-2.816-2.816H43V38.85a5.993,5.993,0,0,0-1.719-4.214L39.293,32.6a4.715,4.715,0,0,1,.971-.561l5.531-2.16,2.337,2.337a1.723,1.723,0,0,0,1.43.493,6.03,6.03,0,0,0,1.858,1.578ZM41.5,38.85v3.381H36.839V40.048a2.45,2.45,0,0,0,1.695-2.326h0V33.967l1.678,1.716A4.5,4.5,0,0,1,41.5,38.85Zm5.814-9.562,2.443-.954,1.129,1.129a.236.236,0,0,1,0,.334l-1.365,1.365a.238.238,0,0,1-.333,0ZM59.55,45.949a13.853,13.853,0,0,1-2.442.663l-.4-3.226a.748.748,0,0,0-1.485.184l.4,3.221q-.458.03-.919.03h-.016q-.667,0-1.319-.054l.4-3.2a.748.748,0,1,0-1.485-.184l-.4,3.192a14.92,14.92,0,0,1-2.446-.646l3.379-11.084a6.871,6.871,0,0,0,1.745.225h.012a6.1,6.1,0,0,0,1.6-.214ZM54.568,33.575h-.005a4.8,4.8,0,0,1-3.7-1.636l.917-.917a8.5,8.5,0,0,0,2.8.464h.009a7.662,7.662,0,0,0,2.627-.461l.891.891a4.649,4.649,0,0,1-3.542,1.658Zm-3.511-6.062a1.439,1.439,0,0,0,.2-.736v-1.13a8.255,8.255,0,0,0,6.471.019v1.117a1.47,1.47,0,0,0,.2.742l-.879.879a1.726,1.726,0,0,0-.5,1.272,6.1,6.1,0,0,1-1.958.314,7.064,7.064,0,0,1-2.131-.322,1.726,1.726,0,0,0-.5-1.264Zm10.6,1.8L59.8,31.161a.236.236,0,0,1-.334,0h0L58.105,29.8h0a.236.236,0,0,1,0-.334l1.1-1.1Zm-.71-10.893a6.457,6.457,0,0,1-12.913.053V12.583a11.351,11.351,0,0,0,5.332-1.5,2.393,2.393,0,0,1,2.257-.048,11.664,11.664,0,0,0,5.325,1.546Zm-18.961-.608a1.763,1.763,0,0,0,.6-2.035,2.716,2.716,0,0,1,.407-2.613,1.77,1.77,0,0,0,0-2.188,2.683,2.683,0,0,1-.575-1.67,2.721,2.721,0,0,1,1.113-2.19,8.29,8.29,0,0,0,2.125-2.362c1.848-3.088,4.507-3.989,7.9-2.679a2.714,2.714,0,0,0,1.957,0c3.4-1.31,6.057-.409,7.9,2.679a8.287,8.287,0,0,0,2.125,2.362A2.721,2.721,0,0,1,66.662,9.3a2.682,2.682,0,0,1-.575,1.67,1.77,1.77,0,0,0,0,2.188,2.715,2.715,0,0,1,.407,2.611,1.765,1.765,0,0,0,.6,2.036,3.658,3.658,0,0,1-2.341,6.581A3.838,3.838,0,0,1,61.529,22.1a7.89,7.89,0,0,0,.915-3.686c0-6.917,0-6.222,0-6.3a1.058,1.058,0,0,0-1.082-1.026A9.77,9.77,0,0,1,56.451,9.78a3.882,3.882,0,0,0-3.816,0c-.12.067-.249.136-.383.2a9.562,9.562,0,0,1-4.62,1.1,1.062,1.062,0,0,0-1.1,1.065h0v6.319a7.852,7.852,0,0,0,.956,3.757,3.865,3.865,0,0,1-3.165,2.163q-.168.006-.336,0V20.278a1.767,1.767,0,0,0-1.765-1.765h-.952a3.675,3.675,0,0,1,.711-.705Zm-1.235,2.2h1.475a.268.268,0,0,1,.268.268v5.2a.268.268,0,0,1-.268.268H40.752Zm1.475,7.228a1.766,1.766,0,0,0,1.715-1.358c.148.007.3.01.443,0a5.294,5.294,0,0,0,4.044-2.307A7.516,7.516,0,0,0,49.756,24.8v1.932L39.713,30.651l-.013,0a6.086,6.086,0,0,0-1.167.648V27.237Zm-10.8-1.5H29.953a.268.268,0,0,1-.268-.268v-5.2a.268.268,0,0,1,.268-.268h1.475Zm1.5,0V20.01h6.33v5.731Zm2.219,11.981V27.237h1.893V32.97h0v4.751a.947.947,0,0,1-1.893,0Zm-3.5,7.325a1.321,1.321,0,0,1,1.32-1.32H44.247a1.321,1.321,0,0,1,1.32,1.32v1.142H31.649Zm-1.963,2.914a.275.275,0,0,1,.275-.275H47.255a.275.275,0,0,1,.275.275V49.3a.275.275,0,0,1-.275.275H29.96a.275.275,0,0,1-.275-.275V47.961Z" transform="translate(0 0)"/>
    </g>
  </g>
</svg>
