<svg xmlns="http://www.w3.org/2000/svg" xmlns:xlink="http://www.w3.org/1999/xlink" width="108" height="108" viewBox="0 0 108 108">
  <defs>
    <filter id="Trazado_904820" x="0" y="0" width="108" height="108" filterUnits="userSpaceOnUse">
      <feOffset dy="3" input="SourceAlpha"/>
      <feGaussianBlur stdDeviation="3" result="blur"/>
      <feFlood flood-opacity="0.161"/>
      <feComposite operator="in" in2="blur"/>
      <feComposite in="SourceGraphic"/>
    </filter>
  </defs>
  <g id="Grupo_1226115" data-name="Grupo 1226115" transform="translate(-196.827 -2360.999)">
    <g id="Grupo_1225669" data-name="Grupo 1225669" transform="translate(205.827 2366.999)">
      <g id="Grupo_1223178" data-name="Grupo 1223178" transform="translate(0 0)">
        <g id="Grupo_1220964" data-name="Grupo 1220964" transform="translate(0)">
          <g id="Grupo_1219977" data-name="Grupo 1219977">
            <g id="Grupo_1219603" data-name="Grupo 1219603">
              <g id="Grupo_1202655" data-name="Grupo 1202655">
                <g id="Grupo_1173585" data-name="Grupo 1173585">
                  <g id="Grupo_1173428" data-name="Grupo 1173428">
                    <g id="Grupo_1171958" data-name="Grupo 1171958">
                      <g id="Grupo_1167341" data-name="Grupo 1167341">
                        <g id="Grupo_1166792" data-name="Grupo 1166792">
                          <g transform="matrix(1, 0, 0, 1, -9, -6)" filter="url(#Trazado_904820)">
                            <g id="Trazado_904820-2" data-name="Trazado 904820" transform="translate(9 6)" fill="#f7f4ed">
                              <path d="M 44.99999618530273 88.49999237060547 C 39.12687301635742 88.49999237060547 33.43022155761719 87.35006713867188 28.06829643249512 85.08216857910156 C 22.88852119445801 82.89130401611328 18.23629570007324 79.75457763671875 14.24084663391113 75.75914001464844 C 10.24540901184082 71.76369476318359 7.108683586120605 67.11146545410156 4.917821407318115 61.93169403076172 C 2.649921178817749 56.56976699829102 1.499996185302734 50.87311553955078 1.499996185302734 44.99999237060547 C 1.499996185302734 39.12686920166016 2.649921178817749 33.43021774291992 4.917821407318115 28.06829261779785 C 7.108683586120605 22.88851737976074 10.24540901184082 18.23630523681641 14.24084663391113 14.24085521697998 C 18.23629570007324 10.24540519714355 22.88852119445801 7.108692169189453 28.06829643249512 4.917829990386963 C 33.43022155761719 2.649929761886597 39.12687301635742 1.500004887580872 44.99999618530273 1.500004887580872 C 50.87311935424805 1.500004887580872 56.56977081298828 2.649929761886597 61.93169784545898 4.917829990386963 C 67.11147308349609 7.108692169189453 71.76369476318359 10.24540519714355 75.75914764404297 14.24085521697998 C 79.75458526611328 18.23630523681641 82.89131164550781 22.88851737976074 85.08216857910156 28.06829261779785 C 87.35007476806641 33.43021774291992 88.5 39.12686920166016 88.5 44.99999237060547 C 88.5 50.87311553955078 87.35007476806641 56.56976699829102 85.08216857910156 61.93169403076172 C 82.89131164550781 67.11146545410156 79.75458526611328 71.76369476318359 75.75914764404297 75.75914001464844 C 71.76369476318359 79.75457763671875 67.11147308349609 82.89130401611328 61.93169784545898 85.08216857910156 C 56.56977081298828 87.35006713867188 50.87311935424805 88.49999237060547 44.99999618530273 88.49999237060547 Z" stroke="none"/>
                              <path d="M 44.99999618530273 2.999992370605469 C 39.32870864868164 2.999992370605469 33.82865142822266 4.11004638671875 28.65262603759766 6.299331665039062 C 23.65165710449219 8.414566040039062 19.15968322753906 11.44333648681641 15.301513671875 15.30150604248047 C 11.44333648681641 19.15967559814453 8.414566040039062 23.65164947509766 6.299339294433594 28.65262222290039 C 4.110054016113281 33.82864761352539 2.999992370605469 39.32870483398438 2.999992370605469 44.99999237060547 C 2.999992370605469 50.67127990722656 4.110054016113281 56.17132186889648 6.299339294433594 61.34736633300781 C 8.414566040039062 66.34833526611328 11.44333648681641 70.84029388427734 15.301513671875 74.69846343994141 C 19.15968322753906 78.55663299560547 23.65165710449219 81.58540344238281 28.65262603759766 83.70063781738281 C 33.82865142822266 85.88992309570312 39.32870864868164 86.99997711181641 44.99999618530273 86.99997711181641 C 50.67128372192383 86.99997711181641 56.17134094238281 85.88992309570312 61.34736633300781 83.70063781738281 C 66.34834289550781 81.58540344238281 70.84030914306641 78.55663299560547 74.69847869873047 74.69846343994141 C 78.55665588378906 70.84029388427734 81.58542633056641 66.34833526611328 83.70065307617188 61.34736633300781 C 85.88993835449219 56.17132186889648 87 50.67127990722656 87 44.99999237060547 C 87 39.32870483398438 85.88993835449219 33.82864761352539 83.70065307617188 28.65262222290039 C 81.58542633056641 23.65164947509766 78.55665588378906 19.15967559814453 74.69847869873047 15.30150604248047 C 70.84030914306641 11.44333648681641 66.34834289550781 8.414566040039062 61.34736633300781 6.299331665039062 C 56.17134094238281 4.11004638671875 50.67128372192383 2.999992370605469 44.99999618530273 2.999992370605469 M 44.99999618530273 -7.62939453125e-06 C 69.85281372070312 -7.62939453125e-06 90 20.14717864990234 90 44.99999237060547 C 90 69.85279083251953 69.85281372070312 89.99997711181641 44.99999618530273 89.99997711181641 C 20.14717864990234 89.99997711181641 -7.62939453125e-06 69.85279083251953 -7.62939453125e-06 44.99999237060547 C -7.62939453125e-06 20.14717864990234 20.14717864990234 -7.62939453125e-06 44.99999618530273 -7.62939453125e-06 Z" stroke="none" fill="#ba9c5a"/>
                            </g>
                          </g>
                        </g>
                      </g>
                    </g>
                  </g>
                </g>
              </g>
            </g>
          </g>
        </g>
      </g>
    </g>
    <g id="obediente_7_" data-name="obediente (7)" transform="translate(215.576 2383.029)">
      <g id="Grupo_1226105" data-name="Grupo 1226105" transform="translate(9.838 0.849)">
        <g id="Grupo_1226103" data-name="Grupo 1226103" transform="translate(0)">
          <g id="Grupo_1226100" data-name="Grupo 1226100" transform="translate(0 22.173)">
            <g id="Grupo_1226093" data-name="Grupo 1226093" transform="translate(0 0)">
              <path id="Trazado_1179121" data-name="Trazado 1179121" d="M39.206,203.949l2.038,3.531a.34.34,0,0,0,.294.17H55.506a.34.34,0,0,0,.294-.17l2.038-3.531a.339.339,0,0,0-.294-.509H39.5A.339.339,0,0,0,39.206,203.949Z" transform="translate(-39.16 -203.44)" fill="#fed402"/>
            </g>
            <g id="Grupo_1226099" data-name="Grupo 1226099">
              <g id="Grupo_1226094" data-name="Grupo 1226094" transform="translate(30.353 0)">
                <path id="Trazado_1179122" data-name="Trazado 1179122" d="M307.428,203.949l2.038,3.531a.34.34,0,0,0,.294.17h13.967a.339.339,0,0,0,.294-.17l2.038-3.531a.339.339,0,0,0-.294-.509H307.722A.34.34,0,0,0,307.428,203.949Z" transform="translate(-307.382 -203.44)" fill="#fed402"/>
              </g>
              <g id="Grupo_1226095" data-name="Grupo 1226095" transform="translate(0 0)">
                <path id="Trazado_1179123" data-name="Trazado 1179123" d="M39.206,203.949l2.038,3.531a.34.34,0,0,0,.294.17H55.506a.34.34,0,0,0,.294-.17l2.038-3.531a.339.339,0,0,0-.294-.509H39.5A.339.339,0,0,0,39.206,203.949Z" transform="translate(-39.16 -203.44)" fill="#ca6e59"/>
              </g>
              <g id="Grupo_1226096" data-name="Grupo 1226096" transform="translate(0)">
                <path id="Trazado_1179124" data-name="Trazado 1179124" d="M46.041,207.479,44,203.948a.339.339,0,0,1,.294-.509H39.5a.339.339,0,0,0-.294.509l2.038,3.531a.339.339,0,0,0,.294.17h4.8A.339.339,0,0,1,46.041,207.479Z" transform="translate(-39.161 -203.439)" fill="#bb5d4c"/>
              </g>
              <g id="Grupo_1226097" data-name="Grupo 1226097" transform="translate(30.353 0)">
                <path id="Trazado_1179125" data-name="Trazado 1179125" d="M307.428,203.949l2.038,3.531a.34.34,0,0,0,.294.17h13.967a.339.339,0,0,0,.294-.17l2.038-3.531a.339.339,0,0,0-.294-.509H307.722A.34.34,0,0,0,307.428,203.949Z" transform="translate(-307.382 -203.44)" fill="#ca6e59"/>
              </g>
              <g id="Grupo_1226098" data-name="Grupo 1226098" transform="translate(30.353)">
                <path id="Trazado_1179126" data-name="Trazado 1179126" d="M314.856,207.479l-2.038-3.531a.339.339,0,0,1,.294-.509h-5.389a.339.339,0,0,0-.294.509l2.038,3.531a.339.339,0,0,0,.294.17h5.389A.339.339,0,0,1,314.856,207.479Z" transform="translate(-307.383 -203.439)" fill="#bb5d4c"/>
              </g>
            </g>
          </g>
          <path id="Trazado_1179127" data-name="Trazado 1179127" d="M240.5,124.438v-20.75a.566.566,0,0,0-.566-.566h-3.4a.566.566,0,0,0-.566.566v20.75H240.5Z" transform="translate(-213.695 -92.302)" fill="#bb5d4c"/>
          <path id="Trazado_1179128" data-name="Trazado 1179128" d="M237.886,124.438v-20.75a.566.566,0,0,1,.566-.566h-1.92a.566.566,0,0,0-.566.566v20.75h1.92Z" transform="translate(-213.695 -92.302)" fill="#a44f3e"/>
          <g id="Grupo_1226101" data-name="Grupo 1226101" transform="translate(21.37 0)">
            <circle id="Elipse_14687" data-name="Elipse 14687" cx="3.168" cy="3.168" r="3.168" fill="#883f2e"/>
          </g>
          <g id="Grupo_1226102" data-name="Grupo 1226102" transform="translate(21.37)">
            <path id="Trazado_1179129" data-name="Trazado 1179129" d="M230.835,10.668a3.167,3.167,0,0,1,1.753-2.834,3.168,3.168,0,1,0,0,5.669A3.167,3.167,0,0,1,230.835,10.668Z" transform="translate(-228.005 -7.5)" fill="#6d3326"/>
          </g>
        </g>
        <g id="Grupo_1226104" data-name="Grupo 1226104" transform="translate(4.362 32.136)">
          <path id="Trazado_1179130" data-name="Trazado 1179130" d="M219.835,296.348v-2.6a2.263,2.263,0,0,0-2.263-2.263h-6.053a2.263,2.263,0,0,0-2.263,2.263v2.6Z" transform="translate(-194.369 -291.485)" fill="#883f2e"/>
          <path id="Trazado_1179131" data-name="Trazado 1179131" d="M213.074,296.348v-2.6a2.263,2.263,0,0,1,2.263-2.263h-3.819a2.263,2.263,0,0,0-2.263,2.263v2.6Z" transform="translate(-194.368 -291.485)" fill="#6d3326"/>
          <path id="Trazado_1179132" data-name="Trazado 1179132" d="M190.371,339.611V336.4a1.94,1.94,0,0,0-1.94-1.94h-15.32a1.94,1.94,0,0,0-1.94,1.94v3.215Z" transform="translate(-160.595 -329.594)" fill="#bb5d4c"/>
          <path id="Trazado_1179133" data-name="Trazado 1179133" d="M175.945,339.611V336.4a1.94,1.94,0,0,1,1.94-1.94h-4.772a1.94,1.94,0,0,0-1.94,1.94v3.215Z" transform="translate(-160.596 -329.594)" fill="#a44f3e"/>
          <path id="Trazado_1179134" data-name="Trazado 1179134" d="M80.726,379.006a3.023,3.023,0,0,0-3.023,3.023v5.743a3.023,3.023,0,0,0,3.023,3.023h1.225v-8.01h6.181v8.01h34.61V379.006Z" transform="translate(-77.703 -369.102)" fill="#fff3de"/>
        </g>
      </g>
      <g id="Grupo_1226114" data-name="Grupo 1226114" transform="translate(6.945 42.889)">
        <g id="Grupo_1226109" data-name="Grupo 1226109">
          <g id="Grupo_1226106" data-name="Grupo 1226106">
            <path id="Trazado_1179135" data-name="Trazado 1179135" d="M23.873,390.794a3.023,3.023,0,0,1-3.023-3.023v-5.743a3.023,3.023,0,0,1,3.023-3.023H19.49a5.894,5.894,0,0,0,0,11.789h4.383Z" transform="translate(-13.596 -379.006)" fill="#3675bb"/>
          </g>
          <g id="Grupo_1226107" data-name="Grupo 1226107">
            <path id="Trazado_1179136" data-name="Trazado 1179136" d="M16.459,384.9a5.894,5.894,0,0,1,5.894-5.894H19.49a5.894,5.894,0,0,0,0,11.789h2.863A5.894,5.894,0,0,1,16.459,384.9Z" transform="translate(-13.596 -379.006)" fill="#2b68b6"/>
          </g>
          <g id="Grupo_1226108" data-name="Grupo 1226108" transform="translate(7.255 0.004)">
            <path id="Trazado_1179137" data-name="Trazado 1179137" d="M81.951,387.513a3.019,3.019,0,0,1-1.385-2.54V379.23c0-.064,0-.127.006-.189A3.023,3.023,0,0,0,77.7,382.06V387.8a3.023,3.023,0,0,0,3.023,3.023h1.225Z" transform="translate(-77.703 -379.041)" fill="#ffe5c2"/>
            <path id="Trazado_1179138" data-name="Trazado 1179138" d="M169.857,458.174h34.61V461h-34.61Z" transform="translate(-159.429 -449.219)" fill="#ffe5c2"/>
          </g>
        </g>
        <g id="Grupo_1226113" data-name="Grupo 1226113" transform="translate(11.502 3.778)">
          <g id="Grupo_1226110" data-name="Grupo 1226110">
            <path id="Trazado_1179139" data-name="Trazado 1179139" d="M121.421,422.478V412.395H115.24v10.083a.339.339,0,0,0,.533.279l2.558-1.77,2.558,1.77A.34.34,0,0,0,121.421,422.478Z" transform="translate(-115.24 -412.395)" fill="#fb2b3a"/>
          </g>
          <g id="Grupo_1226112" data-name="Grupo 1226112" transform="translate(0)">
            <g id="Grupo_1226111" data-name="Grupo 1226111">
              <path id="Trazado_1179140" data-name="Trazado 1179140" d="M118.085,412.395H115.24v10.083a.339.339,0,0,0,.533.279l2.313-1.6Z" transform="translate(-115.24 -412.395)" fill="#e41f2d"/>
            </g>
          </g>
        </g>
      </g>
      <path id="Trazado_1179141" data-name="Trazado 1179141" d="M61.807,53.829H60.086V43.738h1.721a.849.849,0,0,0,0-1.7H44.824V39.788A2.791,2.791,0,0,0,42.036,37H40.514V35.248a3.115,3.115,0,0,0-3.023-3.11V18.445a.849.849,0,0,0-1.7,0V32.136H32.958V12.518h2.837v1.966a.849.849,0,0,0,1.7,0V12.235a1.416,1.416,0,0,0-1.415-1.415h-.853V7.942A4.028,4.028,0,0,0,38.3,4.866H48.7V6.413L40.4,22.181a1.186,1.186,0,0,0-.9,1.774l2.038,3.53a1.191,1.191,0,0,0,1.029.594h7.989a.849.849,0,0,0,0-1.7h-7.7l-1.45-2.512h16.28l-1.45,2.512H54.519a.849.849,0,0,0,0,1.7h2.017a1.191,1.191,0,0,0,1.029-.594L59.6,23.955a1.186,1.186,0,0,0-.9-1.774L50.4,6.413V4.865h3.177a.849.849,0,1,0,0-1.7H38.3a4.016,4.016,0,0,0-7.851,0H15.174a.849.849,0,1,0,0,1.7h3.177V6.413l-8.3,15.768a1.186,1.186,0,0,0-.9,1.774h0l2.039,3.531a1.192,1.192,0,0,0,1.029.594H26.183a1.191,1.191,0,0,0,1.029-.594l2.038-3.531a1.186,1.186,0,0,0-.9-1.774l-8.3-15.768V4.865h10.4a4.028,4.028,0,0,0,3.077,3.077v2.879h-.852a1.416,1.416,0,0,0-1.415,1.415v19.9a3.115,3.115,0,0,0-3.023,3.11V37H26.716a2.792,2.792,0,0,0-2.788,2.788V42.04H12.839a6.743,6.743,0,1,0,0,13.486H17.6V56.75a1.188,1.188,0,0,0,1.864.977l2.075-1.436,2.075,1.436a1.188,1.188,0,0,0,1.864-.977V55.526H61.807a.849.849,0,1,0,0-1.7ZM48.7,22.173H42.327L48.7,10.058Zm1.7-12.115,6.376,12.115H50.4Zm-32.05,0V22.173H11.975Zm7.538,16.325H12.51L11.06,23.87h16.28Zm.535-4.21H20.048V10.058ZM32.057,4.017a2.319,2.319,0,1,1,2.319,2.319A2.322,2.322,0,0,1,32.057,4.017ZM29.935,35.248a1.416,1.416,0,0,1,1.415-1.415H37.4a1.416,1.416,0,0,1,1.415,1.415V37H29.935Zm-17.1,18.581a5.046,5.046,0,1,1,0-10.091H14.02a3.849,3.849,0,0,0-.67,2.174v5.743a3.848,3.848,0,0,0,.67,2.174Zm10.94,1.95L22.02,54.562a.849.849,0,0,0-.966,0L19.3,55.779V47.516h4.483Zm34.61-9.96H40.043a.849.849,0,1,0,0,1.7H58.389v2.534H40.043a.849.849,0,1,0,0,1.7H58.389v2.081H25.476V47.516h7.161a.849.849,0,1,0,0-1.7H17.222a.849.849,0,1,0,0,1.7H17.6v6.313h-.376a2.176,2.176,0,0,1-2.174-2.174V45.912a2.176,2.176,0,0,1,2.174-2.174H30.868a.849.849,0,1,0,0-1.7H25.625V39.788A1.092,1.092,0,0,1,26.716,38.7h15.32a1.092,1.092,0,0,1,1.091,1.091v2.253h-8.3a.849.849,0,0,0,0,1.7h23.56Z" transform="translate(0 0)"/>
    </g>
  </g>
</svg>
