<svg xmlns="http://www.w3.org/2000/svg" xmlns:xlink="http://www.w3.org/1999/xlink" width="108" height="108" viewBox="0 0 108 108">
  <defs>
    <filter id="Trazado_904820" x="0" y="0" width="108" height="108" filterUnits="userSpaceOnUse">
      <feOffset dy="3" input="SourceAlpha"/>
      <feGaussianBlur stdDeviation="3" result="blur"/>
      <feFlood flood-opacity="0.161"/>
      <feComposite operator="in" in2="blur"/>
      <feComposite in="SourceGraphic"/>
    </filter>
  </defs>
  <g id="Grupo_1226118" data-name="Grupo 1226118" transform="translate(-206.673 -4744.092)">
    <g id="Grupo_1225831" data-name="Grupo 1225831" transform="translate(215.673 4750.092)">
      <g id="Grupo_1222710" data-name="Grupo 1222710" transform="translate(0 0)">
        <g id="Grupo_1220471" data-name="Grupo 1220471">
          <g id="Grupo_1219977" data-name="Grupo 1219977">
            <g id="Grupo_1219603" data-name="Grupo 1219603">
              <g id="Grupo_1202655" data-name="Grupo 1202655">
                <g id="Grupo_1173585" data-name="Grupo 1173585">
                  <g id="Grupo_1173428" data-name="Grupo 1173428">
                    <g id="Grupo_1171958" data-name="Grupo 1171958">
                      <g id="Grupo_1167341" data-name="Grupo 1167341">
                        <g id="Grupo_1166792" data-name="Grupo 1166792">
                          <g transform="matrix(1, 0, 0, 1, -9, -6)" filter="url(#Trazado_904820)">
                            <g id="Trazado_904820-2" data-name="Trazado 904820" transform="translate(9 6)" fill="#edeef2">
                              <path d="M 44.99999618530273 88.49999237060547 C 39.12687301635742 88.49999237060547 33.43022155761719 87.35006713867188 28.06829643249512 85.08216857910156 C 22.88852119445801 82.89130401611328 18.23629570007324 79.75457763671875 14.24084663391113 75.75914001464844 C 10.24540901184082 71.76369476318359 7.108683586120605 67.11146545410156 4.917821407318115 61.93169403076172 C 2.649921178817749 56.56976699829102 1.499996185302734 50.87311553955078 1.499996185302734 44.99999237060547 C 1.499996185302734 39.12686920166016 2.649921178817749 33.43021774291992 4.917821407318115 28.06829261779785 C 7.108683586120605 22.88851737976074 10.24540901184082 18.23630523681641 14.24084663391113 14.24085521697998 C 18.23629570007324 10.24540519714355 22.88852119445801 7.108692169189453 28.06829643249512 4.917829990386963 C 33.43022155761719 2.649929761886597 39.12687301635742 1.500004887580872 44.99999618530273 1.500004887580872 C 50.87311935424805 1.500004887580872 56.56977081298828 2.649929761886597 61.93169784545898 4.917829990386963 C 67.11147308349609 7.108692169189453 71.76369476318359 10.24540519714355 75.75914764404297 14.24085521697998 C 79.75458526611328 18.23630523681641 82.89131164550781 22.88851737976074 85.08216857910156 28.06829261779785 C 87.35007476806641 33.43021774291992 88.5 39.12686920166016 88.5 44.99999237060547 C 88.5 50.87311553955078 87.35007476806641 56.56976699829102 85.08216857910156 61.93169403076172 C 82.89131164550781 67.11146545410156 79.75458526611328 71.76369476318359 75.75914764404297 75.75914001464844 C 71.76369476318359 79.75457763671875 67.11147308349609 82.89130401611328 61.93169784545898 85.08216857910156 C 56.56977081298828 87.35006713867188 50.87311935424805 88.49999237060547 44.99999618530273 88.49999237060547 Z" stroke="none"/>
                              <path d="M 44.99999618530273 2.999992370605469 C 39.32870864868164 2.999992370605469 33.82865142822266 4.11004638671875 28.65262603759766 6.299331665039062 C 23.65165710449219 8.414566040039062 19.15968322753906 11.44333648681641 15.301513671875 15.30150604248047 C 11.44333648681641 19.15967559814453 8.414566040039062 23.65164947509766 6.299339294433594 28.65262222290039 C 4.110054016113281 33.82864761352539 2.999992370605469 39.32870483398438 2.999992370605469 44.99999237060547 C 2.999992370605469 50.67127990722656 4.110054016113281 56.17132186889648 6.299339294433594 61.34736633300781 C 8.414566040039062 66.34833526611328 11.44333648681641 70.84029388427734 15.301513671875 74.69846343994141 C 19.15968322753906 78.55663299560547 23.65165710449219 81.58540344238281 28.65262603759766 83.70063781738281 C 33.82865142822266 85.88992309570312 39.32870864868164 86.99997711181641 44.99999618530273 86.99997711181641 C 50.67128372192383 86.99997711181641 56.17134094238281 85.88992309570312 61.34736633300781 83.70063781738281 C 66.34834289550781 81.58540344238281 70.84030914306641 78.55663299560547 74.69847869873047 74.69846343994141 C 78.55665588378906 70.84029388427734 81.58542633056641 66.34833526611328 83.70065307617188 61.34736633300781 C 85.88993835449219 56.17132186889648 87 50.67127990722656 87 44.99999237060547 C 87 39.32870483398438 85.88993835449219 33.82864761352539 83.70065307617188 28.65262222290039 C 81.58542633056641 23.65164947509766 78.55665588378906 19.15967559814453 74.69847869873047 15.30150604248047 C 70.84030914306641 11.44333648681641 66.34834289550781 8.414566040039062 61.34736633300781 6.299331665039062 C 56.17134094238281 4.11004638671875 50.67128372192383 2.999992370605469 44.99999618530273 2.999992370605469 M 44.99999618530273 -7.62939453125e-06 C 69.85281372070312 -7.62939453125e-06 90 20.14717864990234 90 44.99999237060547 C 90 69.85279083251953 69.85281372070312 89.99997711181641 44.99999618530273 89.99997711181641 C 20.14717864990234 89.99997711181641 -7.62939453125e-06 69.85279083251953 -7.62939453125e-06 44.99999237060547 C -7.62939453125e-06 20.14717864990234 20.14717864990234 -7.62939453125e-06 44.99999618530273 -7.62939453125e-06 Z" stroke="none" fill="#56678d"/>
                            </g>
                          </g>
                        </g>
                      </g>
                    </g>
                  </g>
                </g>
              </g>
            </g>
          </g>
        </g>
      </g>
    </g>
    <g id="Page-1" transform="translate(226.349 4759.351)">
      <g id="_040---Implement-Laws" data-name="040---Implement-Laws" transform="translate(-0.001 0)">
        <g id="Icons" transform="translate(1.147 1.115)">
          <path id="Shape" d="M61.227,42.868l-7.471,7.666a4.614,4.614,0,0,1-2.46,1.3l-10.2,1.855a1.144,1.144,0,0,0-.939,1.126v5.92a1.144,1.144,0,0,1-1.144,1.144H32.144A1.144,1.144,0,0,1,31,60.739V47.731a6.142,6.142,0,0,1,3.867-5.709,6.45,6.45,0,0,1,3.787-.263l1.716.435a4.663,4.663,0,0,0,1.865.069l3.215-.526a3.422,3.422,0,0,1,3.741,2.105l.446,1.11a4.6,4.6,0,0,0,1.109-.435l7.522-5.089a2.331,2.331,0,0,1,2.839.114,2.279,2.279,0,0,1,.12,3.327Z" transform="translate(4.467 4.507)" fill="#ffe0b2"/>
          <path id="Shape-2" data-name="Shape" d="M60.531,39.539a2.331,2.331,0,0,0-2.839-.114l-.43.291a2.267,2.267,0,0,1-.043,3.151l-7.471,7.666a4.616,4.616,0,0,1-2.459,1.3l-10.2,1.855a1.144,1.144,0,0,0-.939,1.126v5.922A1.144,1.144,0,0,1,35,61.883h3.432a1.144,1.144,0,0,0,1.144-1.144v-5.92a1.144,1.144,0,0,1,.939-1.126l10.2-1.855a4.616,4.616,0,0,0,2.459-1.3l7.471-7.666a2.279,2.279,0,0,0-.12-3.329Z" transform="translate(5.044 4.507)" fill="#dfc49c"/>
          <path id="Shape-3" data-name="Shape" d="M.665,42.868l7.471,7.666a4.614,4.614,0,0,0,2.46,1.3l10.2,1.855a1.144,1.144,0,0,1,.939,1.126v5.92a1.144,1.144,0,0,0,1.144,1.144h6.865a1.144,1.144,0,0,0,1.144-1.144V47.731a6.142,6.142,0,0,0-3.867-5.709,6.45,6.45,0,0,0-3.787-.263l-1.716.435a4.663,4.663,0,0,1-1.865.069l-3.215-.526A3.422,3.422,0,0,0,12.7,43.841l-.445,1.11a4.6,4.6,0,0,1-1.11-.435L3.623,39.427a2.331,2.331,0,0,0-2.839.114,2.279,2.279,0,0,0-.12,3.327Z" transform="translate(-0.001 4.507)" fill="#ffe0b2"/>
          <path id="Shape-4" data-name="Shape" d="M24.132,41.7a6.45,6.45,0,0,0-3.787-.263l-.276.07a5.907,5.907,0,0,1,.63.193A6.142,6.142,0,0,1,24.567,47.4V60.413a1.144,1.144,0,0,1-1.144,1.144h3.432A1.144,1.144,0,0,0,28,60.413V47.4A6.142,6.142,0,0,0,24.132,41.7Z" transform="translate(2.892 4.833)" fill="#dfc49c"/>
          <path id="Shape-5" data-name="Shape" d="M52.732,25.741a4.382,4.382,0,0,0,.749-3,4.382,4.382,0,0,0-.749-3l-1.85-.37a19.321,19.321,0,0,0-3.221-7.788L48.7,10.021s0-1.059-1.59-2.65-2.65-1.59-2.65-1.59L42.9,6.824A19.321,19.321,0,0,0,35.111,3.6l-.37-1.85a4.382,4.382,0,0,0-3-.749,4.382,4.382,0,0,0-3,.749l-.37,1.85a19.321,19.321,0,0,0-7.788,3.221L19.021,5.781s-1.059,0-2.65,1.59-1.59,2.65-1.59,2.65l1.043,1.565A19.321,19.321,0,0,0,12.6,19.374l-1.85.37a4.382,4.382,0,0,0-.749,3,4.382,4.382,0,0,0,.749,3l1.85.37A19.321,19.321,0,0,0,15.824,33.9l-1.043,1.565s0,1.059,1.59,2.65,2.65,1.59,2.65,1.59l1.565-1.043a19.321,19.321,0,0,0,7.788,3.221l.37,1.85a4.382,4.382,0,0,0,3,.749,4.382,4.382,0,0,0,3-.749l.37-1.85A19.321,19.321,0,0,0,42.9,38.661L44.464,39.7s1.059,0,2.65-1.59,1.59-2.65,1.59-2.65L47.661,33.9a19.321,19.321,0,0,0,3.221-7.788Z" transform="translate(1.436 -0.974)" fill="#7f8e94"/>
          <g id="Grupo_1226117" data-name="Grupo 1226117" transform="translate(31.463)">
            <path id="Shape-6" data-name="Shape" d="M28.783,1.753l.37,1.85A19.321,19.321,0,0,1,36.94,6.824l1.565-1.043a1.728,1.728,0,0,1,.265.045A19.31,19.31,0,0,0,32.585,3.6l-.37-1.85a4.382,4.382,0,0,0-3-.749A7.252,7.252,0,0,0,27.5,1.19a2.975,2.975,0,0,1,1.283.563Z" transform="translate(-27.5 -0.974)" fill="#545c60"/>
            <path id="Shape-7" data-name="Shape" d="M38.506,34.956,36.94,33.913a19.321,19.321,0,0,1-7.788,3.221l-.37,1.85a2.975,2.975,0,0,1-1.283.563,7.251,7.251,0,0,0,1.716.186,4.382,4.382,0,0,0,3-.749l.37-1.85a19.336,19.336,0,0,0,6.186-2.222,1.727,1.727,0,0,1-.265.045Z" transform="translate(-27.5 3.774)" fill="#545c60"/>
            <path id="Shape-8" data-name="Shape" d="M48.572,19.138l-1.85-.37A19.321,19.321,0,0,0,43.5,10.98l1.043-1.565s0-1.059-1.59-2.65-2.65-1.59-2.65-1.59l-1.467.978a8.339,8.339,0,0,1,.686.612c1.59,1.59,1.59,2.65,1.59,2.65L40.071,10.98a19.321,19.321,0,0,1,3.221,7.788l1.85.37a4.382,4.382,0,0,1,.747,3,4.382,4.382,0,0,1-.749,3l-1.85.37a19.321,19.321,0,0,1-3.221,7.788l1.043,1.565s0,1.059-1.59,2.65a8.339,8.339,0,0,1-.686.612L40.3,39.1s1.059,0,2.65-1.59,1.59-2.65,1.59-2.65L43.5,33.294a19.321,19.321,0,0,0,3.221-7.788l1.85-.37a4.382,4.382,0,0,0,.752-3,4.382,4.382,0,0,0-.749-3Z" transform="translate(-25.866 -0.369)" fill="#545c60"/>
          </g>
          <circle id="Oval" cx="2.194" cy="2.194" r="2.194" transform="translate(31.303 14.881)" fill="#ffdc00"/>
          <path id="Shape-9" data-name="Shape" d="M22.144,22h2.288a1.144,1.144,0,0,1,1.144,1.144v1.144a2.288,2.288,0,0,1-4.577,0V23.144A1.144,1.144,0,0,1,22.144,22Z" transform="translate(3.026 2.056)" fill="#ffdc00"/>
          <path id="Shape-10" data-name="Shape" d="M34.144,22h2.288a1.144,1.144,0,0,1,1.144,1.144v1.144a2.288,2.288,0,1,1-4.577,0V23.144A1.144,1.144,0,0,1,34.144,22Z" transform="translate(4.756 2.056)" fill="#ffdc00"/>
        </g>
        <g id="Icons_copy">
          <path id="Shape-11" data-name="Shape" d="M52.4,43.564a4.577,4.577,0,0,0-4.989-2.812l-3.22.527a3.515,3.515,0,0,1-1.4-.049l-1.738-.441a7.551,7.551,0,0,0-4.462.315A7.244,7.244,0,0,0,32,47.876V60.884a2.288,2.288,0,0,0,2.288,2.288h6.865a2.288,2.288,0,0,0,2.288-2.288v-5.92l10.2-1.855a5.729,5.729,0,0,0,3.073-1.632l7.464-7.658a3.423,3.423,0,0,0-.172-4.99,3.459,3.459,0,0,0-4.241-.207l-7.356,4.984Zm8.656-3.046a1.188,1.188,0,0,1,1.435.019,1.17,1.17,0,0,1,.4.847,1.092,1.092,0,0,1-.324.813l-.016.017L55.086,49.88a3.454,3.454,0,0,1-1.849.981l-10.2,1.855a2.288,2.288,0,0,0-1.88,2.248v5.92H34.288V47.876a4.97,4.97,0,0,1,3.145-4.646,5.2,5.2,0,0,1,1.9-.35,5.3,5.3,0,0,1,1.184.133l1.73.438a5.731,5.731,0,0,0,2.316.086l3.22-.527a2.281,2.281,0,0,1,2.458,1.335L45.819,45.6a7.5,7.5,0,0,0-3.186,1.88A1.144,1.144,0,1,0,44.25,49.1a5.18,5.18,0,0,1,2.2-1.3l5.641-1.6a5.224,5.224,0,0,0,1.437-.587Z" transform="translate(3.47 5.477)"/>
          <path id="Shape-12" data-name="Shape" d="M2.168,38.829A3.432,3.432,0,0,0,1,41.328,3.4,3.4,0,0,0,2,43.82l7.467,7.666a5.731,5.731,0,0,0,3.072,1.628l10.2,1.85v5.92a2.288,2.288,0,0,0,2.288,2.288h6.865a2.288,2.288,0,0,0,2.288-2.288V47.876A7.244,7.244,0,0,0,29.591,41.1a7.573,7.573,0,0,0-4.49-.309l-1.7.431a3.547,3.547,0,0,1-1.413.051l-3.213-.525a4.589,4.589,0,0,0-4.99,2.807c-.006.015-.013.029-.018.043L6.41,38.623a3.455,3.455,0,0,0-4.241.206ZM14.085,46.2l5.63,1.6a5.184,5.184,0,0,1,2.215,1.3,1.144,1.144,0,0,0,1.618-1.618,7.508,7.508,0,0,0-3.2-1.882l-4.412-1.259A2.288,2.288,0,0,1,18.4,43.007l3.213.525a5.805,5.805,0,0,0,2.333-.088l1.694-.429a5.323,5.323,0,0,1,3.105.212,4.97,4.97,0,0,1,3.145,4.65V60.884H25.027v-5.92a2.288,2.288,0,0,0-1.88-2.252l-10.2-1.855a3.448,3.448,0,0,1-1.847-.977L3.632,42.216,3.616,42.2a1.092,1.092,0,0,1-.327-.813,1.17,1.17,0,0,1,.4-.847,1.037,1.037,0,0,1,.7-.249,1.32,1.32,0,0,1,.738.229l7.53,5.095a5.229,5.229,0,0,0,1.429.582Z" transform="translate(-0.999 5.477)"/>
          <path id="Shape-13" data-name="Shape" d="M33.018,38.036A16.018,16.018,0,1,0,17,22.018,16.018,16.018,0,0,0,33.018,38.036Zm0-19.451a1.144,1.144,0,1,1,1.144-1.144A1.144,1.144,0,0,1,33.018,18.586Zm0-10.3a13.73,13.73,0,0,1,1.144,27.4V20.664a3.432,3.432,0,0,0,2.078-2.078h2.5v4.577a2.288,2.288,0,0,0-2.288,2.288v1.144a3.432,3.432,0,1,0,6.865,0V25.451a2.288,2.288,0,0,0-2.288-2.288V18.586h1.144a1.144,1.144,0,0,0,0-2.288H36.24a3.412,3.412,0,0,0-6.444,0H23.865a1.144,1.144,0,1,0,0,2.288h1.144v4.577a2.288,2.288,0,0,0-2.288,2.288v1.144a3.432,3.432,0,1,0,6.865,0V25.451A2.288,2.288,0,0,0,27.3,23.162V18.586h2.5a3.432,3.432,0,0,0,2.078,2.078V35.69a13.73,13.73,0,0,1,1.144-27.4Zm8.009,17.162v1.144a1.144,1.144,0,1,1-2.288,0V25.451Zm-13.73,0v1.144a1.144,1.144,0,0,1-2.288,0V25.451Z" transform="translate(1.308 0.865)"/>
          <path id="Shape-14" data-name="Shape" d="M12.669,18.764a1.156,1.156,0,0,0-.585.312C11.9,19.257,11,20.292,11,22.883s.9,3.626,1.085,3.808a1.144,1.144,0,0,0,.585.312l1.1.22a20.3,20.3,0,0,0,2.82,6.819l-.618.928a1.144,1.144,0,0,0-.192.635c0,.255.093,1.626,1.924,3.46s3.2,1.924,3.46,1.924A1.153,1.153,0,0,0,21.8,40.8l.927-.618A20.334,20.334,0,0,0,29.542,43l.22,1.1a1.157,1.157,0,0,0,.313.585c.181.181,1.215,1.085,3.808,1.085s3.627-.9,3.808-1.085A1.144,1.144,0,0,0,38,44.1l.22-1.1a20.334,20.334,0,0,0,6.819-2.82l.927.618a1.153,1.153,0,0,0,.635.192c.256,0,1.626-.093,3.46-1.926s1.924-3.2,1.924-3.459a1.144,1.144,0,0,0-.192-.635l-.618-.928A20.3,20.3,0,0,0,54,27.223L55.1,27a1.144,1.144,0,0,0,.585-.312c.181-.182,1.085-1.216,1.085-3.808s-.9-3.626-1.085-3.808a1.156,1.156,0,0,0-.585-.312l-1.1-.22a20.3,20.3,0,0,0-2.82-6.819L51.8,10.8a1.144,1.144,0,0,0,.192-.635c0-.256-.093-1.627-1.924-3.46s-3.2-1.924-3.46-1.924a1.153,1.153,0,0,0-.635.192l-.927.618a20.334,20.334,0,0,0-6.819-2.82L38,1.669a1.144,1.144,0,0,0-.313-.585C37.51.9,36.476,0,33.883,0s-3.627.9-3.808,1.085a1.157,1.157,0,0,0-.313.585l-.22,1.1a20.334,20.334,0,0,0-6.819,2.82L21.8,4.969a1.153,1.153,0,0,0-.635-.192c-.256,0-1.626.093-3.46,1.926s-1.924,3.2-1.924,3.459a1.144,1.144,0,0,0,.192.635l.618.928a20.3,20.3,0,0,0-2.82,6.819Zm3.2.95a18.078,18.078,0,0,1,3.03-7.323,1.144,1.144,0,0,0,.014-1.293l-.768-1.152a5.027,5.027,0,0,1,1.17-1.62,5.223,5.223,0,0,1,1.616-1.175l1.157.771a1.144,1.144,0,0,0,1.292-.016,18.1,18.1,0,0,1,7.328-3.03,1.144,1.144,0,0,0,.924-.9l.272-1.363a5.073,5.073,0,0,1,1.975-.323,5.217,5.217,0,0,1,1.974.31l.273,1.373a1.144,1.144,0,0,0,.924.9A18.1,18.1,0,0,1,44.383,7.9a1.144,1.144,0,0,0,1.292.016l1.152-.767a5.051,5.051,0,0,1,1.62,1.17,5.231,5.231,0,0,1,1.175,1.614L48.85,11.1a1.144,1.144,0,0,0,.016,1.292,18.078,18.078,0,0,1,3.03,7.323,1.144,1.144,0,0,0,.9.924l1.363.272a5.061,5.061,0,0,1,.317,1.974,5.061,5.061,0,0,1-.317,1.974l-1.363.272a1.144,1.144,0,0,0-.9.924,18.078,18.078,0,0,1-3.03,7.323,1.144,1.144,0,0,0-.016,1.292l.768,1.152a5.058,5.058,0,0,1-1.17,1.62,5.223,5.223,0,0,1-1.616,1.175l-1.157-.771a1.144,1.144,0,0,0-1.292.016,18.1,18.1,0,0,1-7.328,3.03,1.144,1.144,0,0,0-.924.9l-.272,1.363a5.073,5.073,0,0,1-1.975.323,5.217,5.217,0,0,1-1.974-.31l-.273-1.373a1.144,1.144,0,0,0-.924-.9,18.1,18.1,0,0,1-7.328-3.021,1.144,1.144,0,0,0-1.292-.016l-1.151.767a5.04,5.04,0,0,1-1.621-1.17,5.231,5.231,0,0,1-1.175-1.614l.772-1.158a1.144,1.144,0,0,0-.016-1.292,18.078,18.078,0,0,1-3.03-7.323,1.144,1.144,0,0,0-.9-.924l-1.363-.272a5.061,5.061,0,0,1-.317-1.985,5.2,5.2,0,0,1,.31-1.973l1.373-.273a1.144,1.144,0,0,0,.9-.924Z" transform="translate(0.443 0)"/>
        </g>
      </g>
    </g>
  </g>
</svg>
