<svg xmlns="http://www.w3.org/2000/svg" xmlns:xlink="http://www.w3.org/1999/xlink" width="113" height="113" viewBox="0 0 113 113">
  <defs>
    <filter id="Trazado_982547" x="0" y="0" width="113" height="113" filterUnits="userSpaceOnUse">
      <feOffset dy="3" input="SourceAlpha"/>
      <feGaussianBlur stdDeviation="3" result="blur"/>
      <feFlood flood-opacity="0.161"/>
      <feComposite operator="in" in2="blur"/>
      <feComposite in="SourceGraphic"/>
    </filter>
  </defs>
  <g id="Grupo_1226119" data-name="Grupo 1226119" transform="translate(-323.119 -6384.543)">
    <g id="Grupo_1221176" data-name="Grupo 1221176" transform="translate(52.119 5251.052)">
      <g id="Grupo_1220488" data-name="Grupo 1220488" transform="translate(-0.425 190.509)">
        <g id="Grupo_1219621" data-name="Grupo 1219621" transform="translate(0 -5515.518)">
          <g id="Grupo_1203672" data-name="Grupo 1203672" transform="translate(-0.575 557.5)">
            <g id="Grupo_1202432" data-name="Grupo 1202432" transform="translate(0 1255.486)">
              <g id="Grupo_1202055" data-name="Grupo 1202055" transform="translate(0 3240.511)">
                <g id="Grupo_1177900" data-name="Grupo 1177900" transform="translate(281 1411.003)">
                  <g id="Grupo_1172010" data-name="Grupo 1172010" transform="translate(0)">
                    <g id="Grupo_1171046" data-name="Grupo 1171046">
                      <g id="Grupo_1148525" data-name="Grupo 1148525">
                        <g transform="matrix(1, 0, 0, 1, -9, -6)" filter="url(#Trazado_982547)">
                          <g id="Trazado_982547-2" data-name="Trazado 982547" transform="translate(9 6)" fill="#f2d944">
                            <path d="M 47.5 93.5 C 41.28937149047852 93.5 35.26533508300781 92.28397369384766 29.59518623352051 89.88570404052734 C 24.11771965026855 87.56893157958984 19.19813346862793 84.25196075439453 14.97309303283691 80.02691650390625 C 10.74804019927979 75.80186462402344 7.431066513061523 70.88229370117188 5.114293098449707 65.40481567382812 C 2.716026782989502 59.73468017578125 1.5 53.71062850952148 1.5 47.5 C 1.5 41.28937149047852 2.716026782989502 35.26533508300781 5.114293098449707 29.59518623352051 C 7.431066513061523 24.11771965026855 10.74804019927979 19.19813346862793 14.97309303283691 14.97309303283691 C 19.19813346862793 10.74804019927979 24.11771965026855 7.431066513061523 29.59518623352051 5.114293098449707 C 35.26533508300781 2.716026782989502 41.28937149047852 1.5 47.5 1.5 C 53.71062850952148 1.5 59.73468017578125 2.716026782989502 65.40481567382812 5.114293098449707 C 70.88229370117188 7.431066513061523 75.80186462402344 10.74804019927979 80.02691650390625 14.97309303283691 C 84.25196075439453 19.19813346862793 87.56893157958984 24.11771965026855 89.88570404052734 29.59518623352051 C 92.28397369384766 35.26533508300781 93.5 41.28937149047852 93.5 47.5 C 93.5 53.71062850952148 92.28397369384766 59.73468017578125 89.88570404052734 65.40481567382812 C 87.56893157958984 70.88229370117188 84.25196075439453 75.80186462402344 80.02691650390625 80.02691650390625 C 75.80186462402344 84.25196075439453 70.88229370117188 87.56893157958984 65.40481567382812 89.88570404052734 C 59.73468017578125 92.28397369384766 53.71062850952148 93.5 47.5 93.5 Z" stroke="none"/>
                            <path d="M 47.5 3 C 41.49121475219727 3 35.66376876831055 4.176155090332031 30.17950439453125 6.495796203613281 C 24.88084411621094 8.736953735351562 20.12152099609375 11.94598388671875 16.03375244140625 16.03375244140625 C 11.94598388671875 20.12152099609375 8.736953735351562 24.88084411621094 6.495796203613281 30.17950439453125 C 4.176155090332031 35.66376876831055 3 41.49121475219727 3 47.5 C 3 53.50878524780273 4.176155090332031 59.33623123168945 6.495796203613281 64.82049560546875 C 8.736953735351562 70.11915588378906 11.94598388671875 74.87847900390625 16.03375244140625 78.96624755859375 C 20.12152099609375 83.05401611328125 24.88084411621094 86.26304626464844 30.17950439453125 88.50419616699219 C 35.66376876831055 90.82384490966797 41.49121475219727 92 47.5 92 C 53.50878524780273 92 59.33623123168945 90.82384490966797 64.82049560546875 88.50419616699219 C 70.11915588378906 86.26304626464844 74.87847900390625 83.05401611328125 78.96624755859375 78.96624755859375 C 83.05401611328125 74.87847900390625 86.26304626464844 70.11915588378906 88.50419616699219 64.82049560546875 C 90.82384490966797 59.33623123168945 92 53.50878524780273 92 47.5 C 92 41.49121475219727 90.82384490966797 35.66376876831055 88.50419616699219 30.17950439453125 C 86.26304626464844 24.88084411621094 83.05401611328125 20.12152099609375 78.96624755859375 16.03375244140625 C 74.87847900390625 11.94598388671875 70.11915588378906 8.736953735351562 64.82049560546875 6.495796203613281 C 59.33623123168945 4.176155090332031 53.50878524780273 3 47.5 3 M 47.5 0 C 73.7335205078125 0 95 21.2664794921875 95 47.5 C 95 73.7335205078125 73.7335205078125 95 47.5 95 C 21.2664794921875 95 0 73.7335205078125 0 47.5 C 0 21.2664794921875 21.2664794921875 0 47.5 0 Z" stroke="none" fill="#ba9c5a"/>
                          </g>
                        </g>
                      </g>
                    </g>
                  </g>
                </g>
              </g>
            </g>
          </g>
        </g>
      </g>
    </g>
    <g id="rueda-de-prensa" transform="translate(313.284 6405.572)">
      <path id="XMLID_2058_" d="M151.609,301.424l-1.727-15.6a6.554,6.554,0,0,0-6.514-5.833h-19a6.554,6.554,0,0,0-6.514,5.833l-1.727,15.6Z" transform="translate(-67.532 -244.472)" fill="#5592d7"/>
      <path id="XMLID_2061_" d="M222.2,304.706l-1.934,10.575H212.64l-1.934-10.575Z" transform="translate(-150.116 -266.057)" fill="#cac1c8"/>
      <path id="XMLID_2065_" d="M286.041,315.281l1.934-10.575,3.9,4.493a1.268,1.268,0,0,1-.2,1.845Z" transform="translate(-215.896 -266.057)" fill="#0057a1"/>
      <path id="XMLID_3184_" d="M183.668,315.281l-1.934-10.575-3.9,4.493a1.268,1.268,0,0,0,.2,1.845Z" transform="translate(-121.144 -266.057)" fill="#0057a1"/>
      <path id="XMLID_2067_" d="M319.633,285.821l1.727,15.605h2.255l-1.727-15.605a6.555,6.555,0,0,0-6.515-5.832h-2.255A6.554,6.554,0,0,1,319.633,285.821Z" transform="translate(-239.538 -244.475)" fill="#1475cc"/>
      <path id="XMLID_2070_" d="M233.577,361.85l-3.811,2.888-3.811-2.888,2.351-3.811h2.919Z" transform="translate(-163.432 -312.625)" fill="#35bdc7"/>
      <path id="XMLID_2071_" d="M239.252,306.162l1.185-3.153-2.645-4.384-2.645,4.384,1.185,3.153Z" transform="translate(-171.458 -260.748)" fill="#79ced5"/>
      <path id="XMLID_2072_" d="M235.96,251.812l-3.406,2.364-3.406-2.364v-4.093h6.811Z" transform="translate(-166.22 -216.298)" fill="#ffb2a1"/>
      <circle id="XMLID_3177_" cx="3.846" cy="3.846" r="3.846" transform="translate(73.404 14.379)" fill="#f69583"/>
      <circle id="XMLID_3175_" cx="3.846" cy="3.846" r="3.846" transform="translate(51.573 14.379)" fill="#f69583"/>
      <path id="XMLID_3172_" d="M182.249,110.592a10.713,10.713,0,0,1-10.713-10.713V89.165h21.427V99.878A10.713,10.713,0,0,1,182.249,110.592Z" transform="translate(-115.915 -77.855)" fill="#ffcec0"/>
      <path id="XMLID_2084_" d="M156.711,15.907v5.608a1.314,1.314,0,0,0,1.314,1.314h3.314a2.181,2.181,0,0,0,2.181-2.181V18.874l1.075,1.662a5.018,5.018,0,0,0,4.213,2.293h11.777a1.314,1.314,0,0,0,1.314-1.314V15.907a8.4,8.4,0,0,0-8.4-8.4h-8.378A8.4,8.4,0,0,0,156.711,15.907Z" transform="translate(-102.97 -6.551)" fill="#ff9a1b"/>
      <path id="XMLID_2090_" d="M279.344,15.9v5.608a1.314,1.314,0,0,1-1.314,1.314H275.4a1.314,1.314,0,0,0,1.314-1.314V15.9A8.406,8.406,0,0,0,268.312,7.5h2.627A8.406,8.406,0,0,1,279.344,15.9Z" transform="translate(-200.415 -6.547)" fill="#f47e14"/>
      <path id="XMLID_2095_" d="M202.72,279.985l-3.839,3.839,4.6,2.909,2.645-4.384Z" transform="translate(-139.791 -244.471)" fill="#e6e2e6"/>
      <path id="XMLID_3149_" d="M259.4,279.985l3.839,3.839-4.6,2.909L256,282.349Z" transform="translate(-189.663 -244.471)" fill="#e6e2e6"/>
      <circle id="XMLID_3146_" cx="2.473" cy="2.473" r="2.473" transform="translate(62.022 23.529)" fill="#e43c53"/>
      <path id="XMLID_3141_" d="M84.333,402.765h43.549v12.9H84.333Z" transform="translate(-39.773 -351.678)" fill="#ff9a1b"/>
      <path id="XMLID_3140_" d="M406.032,402.765h2.744v12.9h-2.744Z" transform="translate(-320.667 -351.678)" fill="#f47e14"/>
      <path id="XMLID_3137_" d="M101.735,390.931H52.267A1.268,1.268,0,0,1,51,389.663v-1.4A1.268,1.268,0,0,1,52.267,387h49.468A1.268,1.268,0,0,1,103,388.267v1.4A1.268,1.268,0,0,1,101.735,390.931Z" transform="translate(-10.667 -337.912)" fill="#ffb54e"/>
      <path id="XMLID_2102_" d="M434.062,388.267v1.4a1.269,1.269,0,0,1-1.268,1.268h-2.645a1.269,1.269,0,0,0,1.268-1.268v-1.4A1.269,1.269,0,0,0,430.149,387h2.645A1.269,1.269,0,0,1,434.062,388.267Z" transform="translate(-341.725 -337.912)" fill="#ff9a1b"/>
      <path id="XMLID_3130_" d="M399.833,241.715l-2.194,2.194-7.376-6.3,3.27-3.27Z" transform="translate(-306.898 -204.615)" fill="#e6e2e6"/>
      <circle id="XMLID_3129_" cx="3.192" cy="3.192" r="3.192" transform="translate(80.935 27.293)" fill="#7a7179"/>
      <path id="XMLID_2106_" d="M390.728,220.625a3.191,3.191,0,0,1-3.389.728,3.192,3.192,0,0,0,0-5.969,3.192,3.192,0,0,1,3.389,5.241Z" transform="translate(-304.345 -187.883)" fill="#686068"/>
      <path id="XMLID_3123_" d="M46.286,241.715l2.194,2.194,7.376-6.3-3.27-3.27Z" transform="translate(-6.551 -204.615)" fill="#e6e2e6"/>
      <circle id="XMLID_3122_" cx="3.192" cy="3.192" r="3.192" transform="translate(45.352 27.293)" fill="#7a7179"/>
      <path id="XMLID_2110_" d="M110.2,220.627a3.188,3.188,0,0,1-3.389.727,3.19,3.19,0,0,0,0-5.967,3.191,3.191,0,0,1,3.389,5.24Z" transform="translate(-59.398 -187.886)" fill="#686068"/>
      <path id="XMLID_2113_" d="M216.4,153.01v-.657a.951.951,0,1,0-1.9,0v.657a.951.951,0,1,0,1.9,0Z" transform="translate(-153.425 -132.198)"/>
      <path id="XMLID_2114_" d="M282.5,152.353v.657a.951.951,0,0,0,1.9,0v-.657a.951.951,0,1,0-1.9,0Z" transform="translate(-212.804 -132.198)"/>
      <path id="XMLID_2115_" d="M217.921,184.848a3.425,3.425,0,1,0-3.425-3.425A3.429,3.429,0,0,0,217.921,184.848Zm0-4.947a1.522,1.522,0,1,1-1.522,1.522A1.524,1.524,0,0,1,217.921,179.9Z" transform="translate(-153.425 -155.422)"/>
      <path id="XMLID_2118_" d="M87.628,37.886l2.5,2.131a.951.951,0,0,0,1.291-.051l2.194-2.194a.951.951,0,0,0,.051-1.29l-2.131-2.5.021-.021a.951.951,0,0,0-1.255-1.424l-2.04-2.389a4.143,4.143,0,1,0-4.459,4.458l2.383,2.035-.66.66a.951.951,0,0,0-.279.673V48.136h-1.18l-.763-6.894a7.461,7.461,0,0,0-.888-2.8.951.951,0,1,0-1.666.92,5.569,5.569,0,0,1,.663,2.088l.74,6.685H73.177l3.177-2.388a2.22,2.22,0,0,0,.343-3.229l-2.31-2.663a.951.951,0,0,0-.134-1.176l-2.215-2.215h3.8a5.575,5.575,0,0,1,2.01.373.951.951,0,1,0,.683-1.776,7.47,7.47,0,0,0-2.694-.5H70.691v-1.72a11.644,11.644,0,0,0,1.948-1.008.951.951,0,1,0-1.03-1.6,9.759,9.759,0,0,1-15.037-8.212V17.23h1.8a3.138,3.138,0,0,0,2.948-2.072,5.944,5.944,0,0,0,4.522,2.072H76.1v4.794a9.72,9.72,0,0,1-1.584,5.327.951.951,0,1,0,1.593,1.04,11.61,11.61,0,0,0,1.853-5.42,4.8,4.8,0,0,0,1.92-8.756V9.356A9.3,9.3,0,0,0,78.15,3.947a14.8,14.8,0,0,1,1.685-.359.951.951,0,0,0-.282-1.882c-.5.076-.97.172-1.373.269.09-.214.182-.452.272-.719a.951.951,0,0,0-1.8-.609,7.007,7.007,0,0,1-.528,1.217A9.307,9.307,0,0,0,70.523,0H62.146a9.367,9.367,0,0,0-9.356,9.356v4.859a4.8,4.8,0,0,0,1.919,8.755,11.691,11.691,0,0,0,7.269,9.872v1.719H56.835a7.5,7.5,0,0,0-7.46,6.68l-.763,6.894h-1.18V37.979a.951.951,0,0,0-.279-.673l-.66-.66,2.383-2.035a4.143,4.143,0,1,0-4.459-4.458l-2.04,2.389a.951.951,0,0,0-1.255,1.424l.021.021-2.131,2.5a.951.951,0,0,0,.051,1.29l2.194,2.194a.951.951,0,0,0,1.291.051l2.5-2.131.487.487v9.762H41.6a2.222,2.222,0,0,0-2.22,2.22v1.4a2.222,2.222,0,0,0,2.22,2.22h2.008v10.02a.951.951,0,1,0,1.9,0V53.971H87.158v10.02a.951.951,0,1,0,1.9,0V53.971h2.008a2.222,2.222,0,0,0,2.22-2.22v-1.4a2.222,2.222,0,0,0-2.22-2.22H87.141V38.373Zm4.012-.837-.95.95-1.713-1.463,1.2-1.2Zm-9.1-8.148a2.24,2.24,0,1,1,0,3.168A2.233,2.233,0,0,1,82.542,28.9Zm3.592,5.207a4.123,4.123,0,0,0,1.615-1.615l1.189,1.392L87.527,35.3ZM78,21.022V17.194a2.264,2.264,0,0,0,1.427-.876A2.894,2.894,0,0,1,78,21.022ZM54.692,9.356A7.462,7.462,0,0,1,62.146,1.9h8.378a7.462,7.462,0,0,1,7.454,7.454v5.608a.363.363,0,0,1-.362.362H74.906a4.051,4.051,0,0,1-3.414-1.858.951.951,0,0,0-1.6,1.033,6.019,6.019,0,0,0,.644.825h-4.7a4.051,4.051,0,0,1-3.414-1.858l-1.075-1.662a.951.951,0,0,0-1.75.517V14.1a1.231,1.231,0,0,1-1.23,1.23H55.055a.363.363,0,0,1-.362-.362V9.356Zm-2.168,8.87a2.873,2.873,0,0,1,.717-1.91,2.264,2.264,0,0,0,1.428.878v3.828a2.9,2.9,0,0,1-2.146-2.8Zm-6.91,15.189a4.125,4.125,0,0,0,.922.693L45.143,35.3l-1.412-1.412,1.189-1.392a4.129,4.129,0,0,0,.693.922ZM46.959,28.9a2.24,2.24,0,1,1,0,3.168A2.243,2.243,0,0,1,46.959,28.9ZM41.979,38l-.95-.95,1.463-1.713,1.2,1.2Zm26.87,7.313.909-2.417.654-.414-.757,4.137Zm-1.713-.849h-1.6l-.791-2.1,1.592-2.639,1.592,2.639Zm-4.224-1.568.909,2.417-.806,1.306-.757-4.137Zm2.147-4.744-1.682,2.788L60.6,39.184l2.436-2.436Zm-5.212,2.806.224.141,1.08,5.9-3.691-2.775a.317.317,0,0,1-.049-.461Zm5.559,5.408h1.857l1.092,1.771H64.314Zm9.929-2.358a.315.315,0,0,1-.125.22L71.519,47l1.08-5.9.224-.141,2.437,2.809a.315.315,0,0,1,.076.241Zm-6.043-3.069L67.61,38.151l2.02-1.4,2.436,2.436Zm-2.957-7.25a11.671,11.671,0,0,0,2.454-.261v1.589l-2.454,1.7-2.454-1.7V33.427A11.665,11.665,0,0,0,66.335,33.688ZM91.386,50.356v1.4a.318.318,0,0,1-.317.317H41.6a.318.318,0,0,1-.317-.317v-1.4a.318.318,0,0,1,.317-.317H52.294a.951.951,0,1,0,0-1.9H50.526l.74-6.685a5.6,5.6,0,0,1,5.569-4.987h3.8L58.417,38.68a.951.951,0,0,0-.134,1.176l-2.31,2.663a2.22,2.22,0,0,0,.343,3.229l3.177,2.388H56.783a.951.951,0,0,0,0,1.9H91.069A.318.318,0,0,1,91.386,50.356Z" transform="translate(0 0)"/>
    </g>
  </g>
</svg>
