<svg xmlns="http://www.w3.org/2000/svg" xmlns:xlink="http://www.w3.org/1999/xlink" width="93.934" height="93.934" viewBox="0 0 93.934 93.934">
  <defs>
    <filter id="Trazado_982547" x="0" y="0" width="93.934" height="93.934" filterUnits="userSpaceOnUse">
      <feOffset dy="3" input="SourceAlpha"/>
      <feGaussianBlur stdDeviation="3" result="blur"/>
      <feFlood flood-opacity="0.161"/>
      <feComposite operator="in" in2="blur"/>
      <feComposite in="SourceGraphic"/>
    </filter>
  </defs>
  <g id="Grupo_1226053" data-name="Grupo 1226053" transform="translate(-1031.067 -968.5)">
    <g id="Grupo_1224716" data-name="Grupo 1224716" transform="translate(1040.067 974.5)">
      <g id="Grupo_1220445" data-name="Grupo 1220445">
        <g id="Grupo_1219556" data-name="Grupo 1219556">
          <g id="Grupo_1214713" data-name="Grupo 1214713">
            <g id="Grupo_1214434" data-name="Grupo 1214434">
              <g id="Grupo_1183184" data-name="Grupo 1183184">
                <g id="Grupo_1179612" data-name="Grupo 1179612">
                  <g id="Grupo_1175227" data-name="Grupo 1175227">
                    <g id="Grupo_1167337" data-name="Grupo 1167337">
                      <g id="Grupo_1166720" data-name="Grupo 1166720">
                        <g id="Grupo_1164305" data-name="Grupo 1164305">
                          <g id="Grupo_1163948" data-name="Grupo 1163948">
                            <g id="Grupo_1158168" data-name="Grupo 1158168">
                              <g id="Grupo_1152576" data-name="Grupo 1152576">
                                <g id="Grupo_1148633" data-name="Grupo 1148633">
                                  <g id="Grupo_1148525" data-name="Grupo 1148525">
                                    <g transform="matrix(1, 0, 0, 1, -9, -6)" filter="url(#Trazado_982547)">
                                      <g id="Trazado_982547-2" data-name="Trazado 982547" transform="translate(9 6)" fill="#f7f4ed">
                                        <path d="M 37.966796875 74.43359375 C 33.04315185546875 74.43359375 28.26757431030273 73.46962738037109 23.77274131774902 71.56847381591797 C 19.43047523498535 69.73184967041016 15.53040790557861 67.10224914550781 12.18087482452393 63.75271987915039 C 8.831341743469238 60.4031867980957 6.201741218566895 56.50312042236328 4.365118980407715 52.16086196899414 C 2.463963508605957 47.66601943969727 1.499996900558472 42.89044189453125 1.499996900558472 37.966796875 C 1.499996900558472 33.04315185546875 2.463963508605957 28.26757431030273 4.365118980407715 23.77274131774902 C 6.201741218566895 19.43047523498535 8.831341743469238 15.53040790557861 12.18087482452393 12.18087482452393 C 15.53040790557861 8.831341743469238 19.43047523498535 6.201741218566895 23.77274131774902 4.365118980407715 C 28.26757431030273 2.463963508605957 33.04315185546875 1.499996900558472 37.966796875 1.499996900558472 C 42.89044189453125 1.499996900558472 47.66601943969727 2.463963508605957 52.16086196899414 4.365118980407715 C 56.50312042236328 6.201741218566895 60.4031867980957 8.831341743469238 63.75271987915039 12.18087482452393 C 67.10224914550781 15.53040790557861 69.73184967041016 19.43047523498535 71.56847381591797 23.77274131774902 C 73.46962738037109 28.26757431030273 74.43359375 33.04315185546875 74.43359375 37.966796875 C 74.43359375 42.89044189453125 73.46962738037109 47.66601943969727 71.56847381591797 52.16086196899414 C 69.73184967041016 56.50313186645508 67.10224914550781 60.4031867980957 63.75271987915039 63.75271987915039 C 60.4031867980957 67.10224914550781 56.50313186645508 69.73184967041016 52.16086196899414 71.56847381591797 C 47.66601943969727 73.46962738037109 42.89044189453125 74.43359375 37.966796875 74.43359375 Z" stroke="none"/>
                                        <path d="M 37.966796875 3 C 33.2449836730957 3 28.66600799560547 3.924095153808594 24.35705947875977 5.746635437011719 C 20.19359588623047 7.507637023925781 16.45379638671875 10.02928161621094 13.24153518676758 13.24153518676758 C 10.02927398681641 16.45379638671875 7.507621765136719 20.19359588623047 5.746635437011719 24.35705947875977 C 3.924095153808594 28.66600799560547 3 33.2449836730957 3 37.966796875 C 3 42.6886100769043 3.924095153808594 47.26758575439453 5.746635437011719 51.57653427124023 C 7.507621765136719 55.73999786376953 10.02927398681641 59.47979736328125 13.24153518676758 62.69205856323242 C 16.45379638671875 65.90431976318359 20.19359588623047 68.42597198486328 24.35705947875977 70.18695831298828 C 28.66600799560547 72.00949859619141 33.2449836730957 72.93359375 37.966796875 72.93359375 C 42.6886100769043 72.93359375 47.26758575439453 72.00949859619141 51.57653427124023 70.18695831298828 C 55.73999786376953 68.42597198486328 59.47979736328125 65.90431976318359 62.69205856323242 62.69205856323242 C 65.90431976318359 59.47979736328125 68.42597198486328 55.73999786376953 70.18695831298828 51.57653427124023 C 72.00949859619141 47.26758575439453 72.93359375 42.6886100769043 72.93359375 37.966796875 C 72.93359375 33.2449836730957 72.00949859619141 28.66600799560547 70.18695831298828 24.35705947875977 C 68.42597198486328 20.19359588623047 65.90431976318359 16.45379638671875 62.69205856323242 13.24153518676758 C 59.47979736328125 10.02928161621094 55.73999786376953 7.507637023925781 51.57653427124023 5.746635437011719 C 47.26758575439453 3.924095153808594 42.6886100769043 3 37.966796875 3 M 37.966796875 0 C 58.93528366088867 0 75.93359375 16.99832153320312 75.93359375 37.966796875 C 75.93359375 58.93528366088867 58.93528366088867 75.93359375 37.966796875 75.93359375 C 16.99831008911133 75.93359375 0 58.93528366088867 0 37.966796875 C 0 16.99832153320312 16.99831008911133 0 37.966796875 0 Z" stroke="none" fill="#655531"/>
                                      </g>
                                    </g>
                                  </g>
                                </g>
                              </g>
                            </g>
                          </g>
                        </g>
                      </g>
                    </g>
                  </g>
                </g>
              </g>
            </g>
          </g>
        </g>
      </g>
    </g>
    <g id="lista-de-quehaceres" transform="translate(1052.27 986.646)">
      <g id="Grupo_1226051" data-name="Grupo 1226051" transform="translate(0.713 3.938)">
        <path id="Trazado_1178988" data-name="Trazado 1178988" d="M271.149,22.062v-8.2a3.134,3.134,0,0,1,3.134-3.134H290.2a3.134,3.134,0,0,1,3.134,3.134V29.23a3.134,3.134,0,0,1-3.134,3.134h-8.745a3.917,3.917,0,0,1-2.77-1.148L272.3,24.833A3.917,3.917,0,0,1,271.149,22.062Z" transform="translate(-246.075 -10.727)" fill="#ffe07d"/>
        <path id="Trazado_1178989" data-name="Trazado 1178989" d="M271.148,123.548v-.669a2.292,2.292,0,0,0,2.292,2.292h3.253a3.134,3.134,0,0,1,3.134,3.134v3.253a2.292,2.292,0,0,0,2.292,2.292h-.669a3.921,3.921,0,0,1-2.771-1.147l-6.384-6.384A3.921,3.921,0,0,1,271.148,123.548Z" transform="translate(-246.075 -112.213)" fill="#f1cb86"/>
        <path id="Trazado_1178990" data-name="Trazado 1178990" d="M271.149,284.98v-8.2a3.134,3.134,0,0,1,3.134-3.134H290.2a3.134,3.134,0,0,1,3.134,3.134v15.369a3.134,3.134,0,0,1-3.134,3.134h-8.745a3.917,3.917,0,0,1-2.77-1.147l-6.384-6.384A3.918,3.918,0,0,1,271.149,284.98Z" transform="translate(-246.075 -248.641)" fill="#e28086"/>
        <path id="Trazado_1178991" data-name="Trazado 1178991" d="M271.148,386.466V385.8a2.292,2.292,0,0,0,2.292,2.292h3.253a3.134,3.134,0,0,1,3.134,3.134v3.253a2.292,2.292,0,0,0,2.292,2.292h-.669a3.921,3.921,0,0,1-2.771-1.148l-6.384-6.384A3.921,3.921,0,0,1,271.148,386.466Z" transform="translate(-246.075 -350.127)" fill="#dd636e"/>
        <path id="Trazado_1178992" data-name="Trazado 1178992" d="M7.5,22.062v-8.2a3.134,3.134,0,0,1,3.134-3.134H26.548a3.134,3.134,0,0,1,3.134,3.134V29.23a3.134,3.134,0,0,1-3.134,3.134H17.8a3.918,3.918,0,0,1-2.77-1.148L8.648,24.833A3.918,3.918,0,0,1,7.5,22.062Z" transform="translate(-7.501 -10.727)" fill="#f9f6f9"/>
        <path id="Trazado_1178993" data-name="Trazado 1178993" d="M7.5,123.548v-.669a2.292,2.292,0,0,0,2.292,2.292h3.253a3.134,3.134,0,0,1,3.134,3.134v3.253a2.292,2.292,0,0,0,2.292,2.292H17.8a3.921,3.921,0,0,1-2.771-1.147l-6.384-6.384A3.921,3.921,0,0,1,7.5,123.548Z" transform="translate(-7.5 -112.213)" fill="#dddaec"/>
        <g id="Grupo_1226049" data-name="Grupo 1226049" transform="translate(8.937 3.611)">
          <path id="Trazado_1178994" data-name="Trazado 1178994" d="M105.808,58.284a1.624,1.624,0,0,1-1.283-.629l-2.715-3.5a1.624,1.624,0,0,1,2.566-1.99l1.219,1.572,2.378-4.211a1.624,1.624,0,0,1,2.827,1.6l-3.579,6.337a1.623,1.623,0,0,1-1.3.821C105.886,58.283,105.847,58.284,105.808,58.284Z" transform="translate(-101.469 -48.699)" fill="#a2e19f"/>
        </g>
        <g id="Grupo_1226050" data-name="Grupo 1226050" transform="translate(35.574 4.572)">
          <path id="Trazado_1178995" data-name="Trazado 1178995" d="M388.258,63.1l1.42-1.42a1.691,1.691,0,1,0-2.391-2.391l-1.42,1.42-1.42-1.42a1.691,1.691,0,1,0-2.391,2.391l1.42,1.42-1.42,1.42a1.691,1.691,0,0,0,2.391,2.391l1.42-1.42,1.42,1.42a1.691,1.691,0,0,0,2.391-2.391Z" transform="translate(-381.56 -58.799)" fill="#e28086"/>
        </g>
      </g>
      <g id="Grupo_1226052" data-name="Grupo 1226052" transform="translate(0 3.225)">
        <path id="Trazado_1178996" data-name="Trazado 1178996" d="M271.385,24.933a4.724,4.724,0,0,0,.447.392,4.6,4.6,0,0,0,2.828.965h8.746a3.852,3.852,0,0,0,3.847-3.848V7.073a3.852,3.852,0,0,0-3.847-3.848h-1.978a.713.713,0,0,0,0,1.427h1.978a2.424,2.424,0,0,1,2.42,2.421V22.441a2.424,2.424,0,0,1-2.42,2.421h-8.076a1.581,1.581,0,0,1-1.579-1.579V20.031a3.852,3.852,0,0,0-3.847-3.847H266.65a1.581,1.581,0,0,1-1.579-1.579s0,0,0-.006V7.073a2.424,2.424,0,0,1,2.421-2.421h11.1a.713.713,0,0,0,0-1.427h-11.1a3.852,3.852,0,0,0-3.848,3.848v8.2a4.6,4.6,0,0,0,1.27,3.184C264.943,18.488,271.385,24.933,271.385,24.933ZM269.9,17.61a2.424,2.424,0,0,1,2.421,2.421v3.253a3.008,3.008,0,0,0,.068.638l-6.38-6.38a3.009,3.009,0,0,0,.638.068H269.9Z" transform="translate(-238.571 -3.225)"/>
        <path id="Trazado_1178997" data-name="Trazado 1178997" d="M283.408,266.145H267.495a3.852,3.852,0,0,0-3.848,3.848v8.2a4.663,4.663,0,0,0,.115,1.026,4.59,4.59,0,0,0,1.1,2.1c.047.051.094.1.143.15l6.384,6.384c.036.036.074.071.111.105a4.6,4.6,0,0,0,3.164,1.251h8.745a3.852,3.852,0,0,0,3.848-3.848V269.993A3.852,3.852,0,0,0,283.408,266.145Zm-11.013,20.7-6.38-6.38a3,3,0,0,0,.638.068h3.253a2.424,2.424,0,0,1,2.421,2.421V286.2A3,3,0,0,0,272.395,286.842Zm13.434-1.48a2.424,2.424,0,0,1-2.421,2.421h-8.076a1.581,1.581,0,0,1-1.579-1.579V282.95a3.852,3.852,0,0,0-3.847-3.847h-3.253a1.581,1.581,0,0,1-1.579-1.575v-7.535a2.424,2.424,0,0,1,2.421-2.421h15.913a2.424,2.424,0,0,1,2.421,2.421v15.369Z" transform="translate(-238.574 -241.141)"/>
        <path id="Trazado_1178998" data-name="Trazado 1178998" d="M19.761,3.225H3.848A3.852,3.852,0,0,0,0,7.073v8.2A4.6,4.6,0,0,0,1.311,18.5l.045.047,6.384,6.384a4.6,4.6,0,0,0,3.1,1.352c.058,0,1.376,0,1.376,0a.713.713,0,1,0,0-1.427h-.531a1.581,1.581,0,0,1-1.579-1.579V20.03a3.852,3.852,0,0,0-3.847-3.847H3.005a1.581,1.581,0,0,1-1.579-1.572V7.073A2.424,2.424,0,0,1,3.848,4.652H19.761a2.424,2.424,0,0,1,2.421,2.421V22.441a2.424,2.424,0,0,1-2.421,2.421H15.066a.713.713,0,1,0,0,1.427h4.694a3.852,3.852,0,0,0,3.848-3.848V7.073a3.852,3.852,0,0,0-3.848-3.848ZM6.258,17.61A2.424,2.424,0,0,1,8.679,20.03v3.253a3.007,3.007,0,0,0,.068.637l-6.38-6.379a3.005,3.005,0,0,0,.638.068Z" transform="translate(0 -3.225)"/>
        <path id="Trazado_1178999" data-name="Trazado 1178999" d="M101.063,51.031l3.579-6.337a2.337,2.337,0,0,0-4.07-2.3l-1.851,3.277-.561-.724a2.337,2.337,0,0,0-3.694,2.864l2.715,3.5a2.353,2.353,0,0,0,1.847.9c.056,0,.113,0,.17-.006a2.332,2.332,0,0,0,1.865-1.182ZM99.1,50.789a.917.917,0,0,1-.786-.35l-2.715-3.5a.91.91,0,0,1,1.439-1.116l1.219,1.572a.713.713,0,0,0,1.185-.086l2.378-4.211a.91.91,0,1,1,1.585.9l-3.579,6.337a.908.908,0,0,1-.726.46Z" transform="translate(-85.04 -37.596)"/>
        <path id="Trazado_1179000" data-name="Trazado 1179000" d="M383.407,52.014a2.407,2.407,0,0,0-3.4,0l-.916.916-.916-.916a2.4,2.4,0,0,0-3.4,3.4l.916.916-.916.916a2.4,2.4,0,0,0,3.4,3.4l.916-.916.916.916a2.4,2.4,0,1,0,3.4-3.4l-.916-.916.916-.916A2.407,2.407,0,0,0,383.407,52.014ZM382.4,54.4l-1.42,1.42a.713.713,0,0,0,0,1.009l1.42,1.42a.977.977,0,0,1-1.382,1.382l-1.42-1.42a.713.713,0,0,0-1.009,0l-1.421,1.42a.977.977,0,1,1-1.382-1.382l1.42-1.42a.713.713,0,0,0,0-1.009l-1.42-1.42a.977.977,0,0,1,1.382-1.382l1.42,1.42a.713.713,0,0,0,1.009,0l1.42-1.42A.977.977,0,1,1,382.4,54.4Z" transform="translate(-338.498 -46.738)"/>
        <path id="Trazado_1179001" data-name="Trazado 1179001" d="M355.318,312.608H344.339a.713.713,0,1,0,0,1.427h10.979a.713.713,0,0,0,0-1.427Z" transform="translate(-310.947 -283.185)"/>
        <path id="Trazado_1179002" data-name="Trazado 1179002" d="M351.665,350.155h-7.326a.713.713,0,1,0,0,1.427h7.326a.713.713,0,0,0,0-1.427Z" transform="translate(-310.947 -317.161)"/>
      </g>
    </g>
  </g>
</svg>
