<svg xmlns="http://www.w3.org/2000/svg" xmlns:xlink="http://www.w3.org/1999/xlink" width="113" height="113" viewBox="0 0 113 113">
  <defs>
    <filter id="Trazado_982547" x="0" y="0" width="113" height="113" filterUnits="userSpaceOnUse">
      <feOffset dy="3" input="SourceAlpha"/>
      <feGaussianBlur stdDeviation="3" result="blur"/>
      <feFlood flood-opacity="0.161"/>
      <feComposite operator="in" in2="blur"/>
      <feComposite in="SourceGraphic"/>
    </filter>
  </defs>
  <g id="Grupo_1226140" data-name="Grupo 1226140" transform="translate(-743.119 -6384.543)">
    <g id="Grupo_1225832" data-name="Grupo 1225832" transform="translate(0.119 1123.187)">
      <g id="Grupo_1223773" data-name="Grupo 1223773" transform="translate(0 -642.718)">
        <g id="Grupo_1206282" data-name="Grupo 1206282" transform="translate(0 -3448.335)">
          <g id="Grupo_1203803" data-name="Grupo 1203803" transform="translate(0 6552.41)">
            <g id="Grupo_1202425" data-name="Grupo 1202425" transform="translate(-0.25 1464)">
              <g id="Grupo_1178324" data-name="Grupo 1178324" transform="translate(0 424)">
                <g id="Grupo_1177680" data-name="Grupo 1177680" transform="translate(752.25 918)">
                  <g id="Grupo_1172010" data-name="Grupo 1172010">
                    <g id="Grupo_1171046" data-name="Grupo 1171046">
                      <g id="Grupo_1148525" data-name="Grupo 1148525">
                        <g transform="matrix(1, 0, 0, 1, -9, -6)" filter="url(#Trazado_982547)">
                          <g id="Trazado_982547-2" data-name="Trazado 982547" transform="translate(9 6)" fill="#f2d944">
                            <path d="M 47.5 93.5 C 41.28937149047852 93.5 35.26533508300781 92.28397369384766 29.59518623352051 89.88570404052734 C 24.11771965026855 87.56893157958984 19.19813346862793 84.25196075439453 14.97309303283691 80.02691650390625 C 10.74804019927979 75.80186462402344 7.431066513061523 70.88229370117188 5.114293098449707 65.40481567382812 C 2.716026782989502 59.73468017578125 1.5 53.71062850952148 1.5 47.5 C 1.5 41.28937149047852 2.716026782989502 35.26533508300781 5.114293098449707 29.59518623352051 C 7.431066513061523 24.11771965026855 10.74804019927979 19.19813346862793 14.97309303283691 14.97309303283691 C 19.19813346862793 10.74804019927979 24.11771965026855 7.431066513061523 29.59518623352051 5.114293098449707 C 35.26533508300781 2.716026782989502 41.28937149047852 1.5 47.5 1.5 C 53.71062850952148 1.5 59.73468017578125 2.716026782989502 65.40481567382812 5.114293098449707 C 70.88229370117188 7.431066513061523 75.80186462402344 10.74804019927979 80.02691650390625 14.97309303283691 C 84.25196075439453 19.19813346862793 87.56893157958984 24.11771965026855 89.88570404052734 29.59518623352051 C 92.28397369384766 35.26533508300781 93.5 41.28937149047852 93.5 47.5 C 93.5 53.71062850952148 92.28397369384766 59.73468017578125 89.88570404052734 65.40481567382812 C 87.56893157958984 70.88229370117188 84.25196075439453 75.80186462402344 80.02691650390625 80.02691650390625 C 75.80186462402344 84.25196075439453 70.88229370117188 87.56893157958984 65.40481567382812 89.88570404052734 C 59.73468017578125 92.28397369384766 53.71062850952148 93.5 47.5 93.5 Z" stroke="none"/>
                            <path d="M 47.5 3 C 41.49121475219727 3 35.66376876831055 4.176155090332031 30.17950439453125 6.495796203613281 C 24.88084411621094 8.736953735351562 20.12152099609375 11.94598388671875 16.03375244140625 16.03375244140625 C 11.94598388671875 20.12152099609375 8.736953735351562 24.88084411621094 6.495796203613281 30.17950439453125 C 4.176155090332031 35.66376876831055 3 41.49121475219727 3 47.5 C 3 53.50878524780273 4.176155090332031 59.33623123168945 6.495796203613281 64.82049560546875 C 8.736953735351562 70.11915588378906 11.94598388671875 74.87847900390625 16.03375244140625 78.96624755859375 C 20.12152099609375 83.05401611328125 24.88084411621094 86.26304626464844 30.17950439453125 88.50419616699219 C 35.66376876831055 90.82384490966797 41.49121475219727 92 47.5 92 C 53.50878524780273 92 59.33623123168945 90.82384490966797 64.82049560546875 88.50419616699219 C 70.11915588378906 86.26304626464844 74.87847900390625 83.05401611328125 78.96624755859375 78.96624755859375 C 83.05401611328125 74.87847900390625 86.26304626464844 70.11915588378906 88.50419616699219 64.82049560546875 C 90.82384490966797 59.33623123168945 92 53.50878524780273 92 47.5 C 92 41.49121475219727 90.82384490966797 35.66376876831055 88.50419616699219 30.17950439453125 C 86.26304626464844 24.88084411621094 83.05401611328125 20.12152099609375 78.96624755859375 16.03375244140625 C 74.87847900390625 11.94598388671875 70.11915588378906 8.736953735351562 64.82049560546875 6.495796203613281 C 59.33623123168945 4.176155090332031 53.50878524780273 3 47.5 3 M 47.5 0 C 73.7335205078125 0 95 21.2664794921875 95 47.5 C 95 73.7335205078125 73.7335205078125 95 47.5 95 C 21.2664794921875 95 0 73.7335205078125 0 47.5 C 0 21.2664794921875 21.2664794921875 0 47.5 0 Z" stroke="none" fill="#ba9c5a"/>
                          </g>
                        </g>
                      </g>
                    </g>
                  </g>
                </g>
              </g>
            </g>
          </g>
        </g>
      </g>
    </g>
    <g id="concentracion" transform="translate(766.671 6407.158)">
      <g id="Grupo_1226127" data-name="Grupo 1226127" transform="translate(11.045 13.666)">
        <path id="Trazado_1179162" data-name="Trazado 1179162" d="M115.627,374.185a.355.355,0,0,1-.5,0l-4.1-4.1a.355.355,0,0,0-.5,0l-1.093,1.093a.355.355,0,0,1-.6-.209l-.124-1.044H79.853l-.124,1.044a.355.355,0,0,1-.6.209l-1.093-1.093a.355.355,0,0,0-.5,0l-4.1,4.1a.355.355,0,0,1-.5,0l-.239-.239a5.257,5.257,0,0,0-.145,1.223v9.514a1.185,1.185,0,0,0,1.185,1.185h41.1a1.185,1.185,0,0,0,1.185-1.185V375.17a5.251,5.251,0,0,0-.145-1.223Z" transform="translate(-72.543 -339.767)" fill="#eaf9fa"/>
        <path id="Trazado_1179163" data-name="Trazado 1179163" d="M79.729,370.969a.355.355,0,0,1-.6.209l-1.093-1.093a.355.355,0,0,0-.5,0l-4.1,4.1a.355.355,0,0,1-.5,0l-.239-.239a5.257,5.257,0,0,0-.145,1.223v9.514a1.185,1.185,0,0,0,1.185,1.185h7.044a1.185,1.185,0,0,1-1.185-1.185v-9.514a5.244,5.244,0,0,1,5.244-5.244H79.853Z" transform="translate(-72.543 -339.766)" fill="#d4f2f6"/>
        <g id="Grupo_1226120" data-name="Grupo 1226120" transform="translate(18.441 37.075)">
          <path id="Trazado_1179164" data-name="Trazado 1179164" d="M231.94,429.558a.592.592,0,0,1-.889,0l-1.107-1.258-1.741,9.027h6.586l-1.741-9.027Z" transform="translate(-228.202 -428.3)" fill="#fe646f"/>
        </g>
        <path id="Trazado_1179165" data-name="Trazado 1179165" d="M229.966,383.308l-3.5,3.118,3.054,3.47a.592.592,0,0,0,.889,0l3.054-3.47Z" transform="translate(-208.232 -351.563)" fill="#fb2b3a"/>
        <path id="Trazado_1179166" data-name="Trazado 1179166" d="M216.357,333.484l-2.013-1.532c-.17.016-.342.025-.516.025H208c-.174,0-.346-.009-.516-.025l-2.013,1.532a1.563,1.563,0,0,0-.617,1.244v7.388a.592.592,0,0,0,.986.442l5.073-4.521,5.073,4.521a.592.592,0,0,0,.986-.442v-7.388A1.563,1.563,0,0,0,216.357,333.484Z" transform="translate(-189.18 -306.291)" fill="#d4f2f6"/>
        <g id="Grupo_1226121" data-name="Grupo 1226121" transform="translate(15.675 25.66)">
          <path id="Trazado_1179167" data-name="Trazado 1179167" d="M207.621,334.745v-2.783l-.136-.01-2.013,1.532a1.563,1.563,0,0,0-.617,1.244v7.388a.592.592,0,0,0,.986.442l1.992-1.776v-5.823Z" transform="translate(-204.855 -331.951)" fill="#a6e7f0"/>
        </g>
        <path id="Trazado_1179168" data-name="Trazado 1179168" d="M234.41,332.054h-5.827c-.128,0-.254-.006-.38-.015v2.783l3.293,3.29,3.293-3.29v-2.783C234.664,332.048,234.538,332.054,234.41,332.054Z" transform="translate(-209.763 -306.368)" fill="#ffa78f"/>
        <path id="Trazado_1179169" data-name="Trazado 1179169" d="M231.19,332.054h-2.606c-.128,0-.254-.006-.38-.015v2.783l3.293,3.29,1.985-1.984-2.293-2.291Z" transform="translate(-209.763 -306.368)" fill="#f89580"/>
        <path id="Trazado_1179170" data-name="Trazado 1179170" d="M306.229,135.647v4.032h.2a1.844,1.844,0,0,1,1.844,1.844v2.939h1.242a3.351,3.351,0,0,1,1.588.4v-7.025a4.018,4.018,0,0,0-4.018-4.018h-1.3A4,4,0,0,1,306.229,135.647Z" transform="translate(-278.156 -131.629)" fill="#704444"/>
        <path id="Trazado_1179171" data-name="Trazado 1179171" d="M164.184,163.837V160.9a1.844,1.844,0,0,1,1.844-1.844h-.384a4.454,4.454,0,0,1-4.29-3.259v8.439a3.349,3.349,0,0,1,1.588-.4Z" transform="translate(-150.833 -151.005)" fill="#855151"/>
        <g id="Grupo_1226122" data-name="Grupo 1226122" transform="translate(10.234)">
          <path id="Trazado_1179172" data-name="Trazado 1179172" d="M176.766,123.4H163.5a4.454,4.454,0,0,1-4.407-3.814l-.14-.963a2.863,2.863,0,0,1,2.833-3.274h10.959a4.018,4.018,0,0,1,4.018,4.018V123.4Z" transform="translate(-158.925 -115.351)" fill="#855151"/>
        </g>
        <g id="Grupo_1226123" data-name="Grupo 1226123" transform="translate(10.234)">
          <path id="Trazado_1179173" data-name="Trazado 1179173" d="M164.08,119.588l-.14-.963a2.863,2.863,0,0,1,2.833-3.274h-4.984a2.863,2.863,0,0,0-2.833,3.274l.14.963A4.454,4.454,0,0,0,163.5,123.4h4.984A4.454,4.454,0,0,1,164.08,119.588Z" transform="translate(-158.926 -115.351)" fill="#704444"/>
        </g>
        <g id="Grupo_1226124" data-name="Grupo 1226124" transform="translate(8.744 12.833)">
          <path id="Trazado_1179174" data-name="Trazado 1179174" d="M150.956,231.055v-7.383h-1.242a3.365,3.365,0,0,0-3.365,3.365v.653a3.365,3.365,0,0,0,3.365,3.365h1.242Z" transform="translate(-146.349 -223.672)" fill="#ffa78f"/>
          <path id="Trazado_1179175" data-name="Trazado 1179175" d="M328,223.672H326.76v7.383H328a3.365,3.365,0,0,0,3.365-3.365v-.653A3.365,3.365,0,0,0,328,223.672Z" transform="translate(-305.387 -223.672)" fill="#ffa78f"/>
        </g>
        <g id="Grupo_1226125" data-name="Grupo 1226125" transform="translate(13.351 8.05)">
          <path id="Trazado_1179176" data-name="Trazado 1179176" d="M196.536,200.939H190.71a5.47,5.47,0,0,1-5.47-5.47V185.148a1.844,1.844,0,0,1,1.844-1.844h13.078a1.844,1.844,0,0,1,1.844,1.844v10.322A5.47,5.47,0,0,1,196.536,200.939Z" transform="translate(-185.24 -183.304)" fill="#ffcebf"/>
        </g>
        <g id="Grupo_1226126" data-name="Grupo 1226126" transform="translate(13.351 8.05)">
          <path id="Trazado_1179177" data-name="Trazado 1179177" d="M189.24,195.469V185.148a1.844,1.844,0,0,1,1.844-1.844h-4a1.844,1.844,0,0,0-1.844,1.844v10.322a5.47,5.47,0,0,0,5.47,5.47h4A5.47,5.47,0,0,1,189.24,195.469Z" transform="translate(-185.24 -183.304)" fill="#ffb09e"/>
        </g>
      </g>
      <g id="Grupo_1226136" data-name="Grupo 1226136" transform="translate(3.668 4.331)">
        <g id="Grupo_1226128" data-name="Grupo 1226128" transform="translate(43.95 17.251)">
          <path id="Trazado_1179178" data-name="Trazado 1179178" d="M386.329,182.255l-4.932,3.887a.355.355,0,0,0,0,.558l4.932,3.887a.355.355,0,0,0,.575-.279v-1.546a.355.355,0,0,1,.355-.355h7.917a.355.355,0,0,0,.355-.355v-3.26a.355.355,0,0,0-.355-.355H387.26a.355.355,0,0,1-.355-.355v-1.546A.355.355,0,0,0,386.329,182.255Z" transform="translate(-381.262 -182.179)" fill="#05e39c"/>
        </g>
        <g id="Grupo_1226131" data-name="Grupo 1226131" transform="translate(5.351)">
          <g id="Grupo_1226129" data-name="Grupo 1226129" transform="translate(37.566)">
            <path id="Trazado_1179179" data-name="Trazado 1179179" d="M373.282,39.881l-.739,6.236a.355.355,0,0,0,.395.395l6.236-.739a.355.355,0,0,0,.209-.6l-1.094-1.093a.355.355,0,0,1,0-.5l4.1-4.1a.355.355,0,0,0,0-.5l-2.3-2.3a.355.355,0,0,0-.5,0l-4.1,4.1a.355.355,0,0,1-.5,0l-1.093-1.093A.355.355,0,0,0,373.282,39.881Z" transform="translate(-372.541 -36.561)" fill="#6cf5c2"/>
          </g>
          <g id="Grupo_1226130" data-name="Grupo 1226130">
            <path id="Trazado_1179180" data-name="Trazado 1179180" d="M64.659,39.881l.739,6.236a.355.355,0,0,1-.395.395l-6.236-.739a.355.355,0,0,1-.209-.6l1.093-1.093a.355.355,0,0,0,0-.5l-4.1-4.1a.355.355,0,0,1,0-.5l2.3-2.3a.355.355,0,0,1,.5,0l4.1,4.1a.355.355,0,0,0,.5,0l1.093-1.093A.355.355,0,0,1,64.659,39.881Z" transform="translate(-55.447 -36.561)" fill="#6cf5c2"/>
          </g>
        </g>
        <g id="Grupo_1226134" data-name="Grupo 1226134" transform="translate(5.351 33.904)">
          <g id="Grupo_1226132" data-name="Grupo 1226132">
            <path id="Trazado_1179181" data-name="Trazado 1179181" d="M64.659,329.38l.739-6.236a.355.355,0,0,0-.395-.395l-6.236.739a.355.355,0,0,0-.209.6l1.093,1.094a.355.355,0,0,1,0,.5l-4.1,4.1a.355.355,0,0,0,0,.5l2.3,2.3a.355.355,0,0,0,.5,0l4.1-4.1a.355.355,0,0,1,.5,0l1.093,1.093A.355.355,0,0,0,64.659,329.38Z" transform="translate(-55.448 -322.747)" fill="#6cf5c2"/>
          </g>
          <g id="Grupo_1226133" data-name="Grupo 1226133" transform="translate(37.566)">
            <path id="Trazado_1179182" data-name="Trazado 1179182" d="M373.282,329.38l-.739-6.236a.355.355,0,0,1,.395-.395l6.236.739a.355.355,0,0,1,.209.6l-1.094,1.094a.355.355,0,0,0,0,.5l4.1,4.1a.355.355,0,0,1,0,.5l-2.3,2.3a.355.355,0,0,1-.5,0l-4.1-4.1a.355.355,0,0,0-.5,0l-1.093,1.093A.355.355,0,0,1,373.282,329.38Z" transform="translate(-372.541 -322.747)" fill="#6cf5c2"/>
          </g>
        </g>
        <g id="Grupo_1226135" data-name="Grupo 1226135" transform="translate(0 17.251)">
          <path id="Trazado_1179183" data-name="Trazado 1179183" d="M19.483,190.588l4.932-3.887a.355.355,0,0,0,0-.558l-4.932-3.887a.355.355,0,0,0-.575.279v1.546a.355.355,0,0,1-.355.355H10.634a.355.355,0,0,0-.355.355v3.26a.355.355,0,0,0,.355.355h7.917a.355.355,0,0,1,.355.355v1.546a.355.355,0,0,0,.575.279Z" transform="translate(-10.279 -182.179)" fill="#05e39c"/>
        </g>
      </g>
      <g id="Grupo_1226138" data-name="Grupo 1226138" transform="translate(28.536 0.889)">
        <g id="Grupo_1226137" data-name="Grupo 1226137">
          <path id="Trazado_1179184" data-name="Trazado 1179184" d="M220.261,16.7l3.887,4.932a.355.355,0,0,0,.558,0l3.887-4.932a.355.355,0,0,0-.279-.575h-1.546a.355.355,0,0,1-.355-.355V7.855a.355.355,0,0,0-.355-.355H222.8a.355.355,0,0,0-.355.355v7.917a.355.355,0,0,1-.355.355H220.54A.355.355,0,0,0,220.261,16.7Z" transform="translate(-220.184 -7.5)" fill="#05e39c"/>
        </g>
      </g>
      <g id="Grupo_1226139" data-name="Grupo 1226139" transform="translate(2.78 0)">
        <path id="Trazado_1179185" data-name="Trazado 1179185" d="M270.555,224.61a3.567,3.567,0,0,0,4.2,0,.889.889,0,0,0-1.045-1.438,1.794,1.794,0,0,1-2.115,0,.888.888,0,1,0-1.044,1.438Z" transform="translate(-238.508 -196.583)"/>
        <path id="Trazado_1179186" data-name="Trazado 1179186" d="M204.713,224.61a.889.889,0,1,0-1.044-1.438,1.8,1.8,0,0,1-2.115,0,.889.889,0,1,0-1.044,1.438,3.567,3.567,0,0,0,4.2,0Z" transform="translate(-176.761 -196.584)"/>
        <path id="Trazado_1179187" data-name="Trazado 1179187" d="M231.195,237.817a.888.888,0,0,0,.415.637l2.051,1.261a.889.889,0,1,0,.931-1.514l-1.128-.694,1.313-1.414a.889.889,0,0,0-1.3-1.21l-2.051,2.208a.889.889,0,0,0-.229.725Z" transform="translate(-204.127 -206.808)"/>
        <path id="Trazado_1179188" data-name="Trazado 1179188" d="M227.269,287.332a1.55,1.55,0,0,0,1.343-.78l.337-.59a.889.889,0,1,0-1.543-.882l-.271.474h-4.5l-.271-.474a.888.888,0,1,0-1.543.882l.337.59a1.55,1.55,0,0,0,1.343.78h4.768Z" transform="translate(-194.886 -250.912)"/>
        <path id="Trazado_1179189" data-name="Trazado 1179189" d="M366.282,40.793a1.257,1.257,0,0,0,.149-.009l6.236-.739a1.244,1.244,0,0,0,.733-2.115l-.717-.716,3.723-3.723a1.244,1.244,0,0,0,0-1.759l-2.3-2.3a1.244,1.244,0,0,0-1.759,0l-3.723,3.723-.716-.716a1.244,1.244,0,0,0-2.115.733l-.739,6.236a1.244,1.244,0,0,0,1.233,1.39Zm1.141-6.326.316.316a1.244,1.244,0,0,0,1.759,0l3.723-3.723,1.551,1.551-3.723,3.723a1.246,1.246,0,0,0,0,1.759l.316.316-4.473.53Z" transform="translate(-322.124 -25.62)"/>
        <path id="Trazado_1179190" data-name="Trazado 1179190" d="M52.039,37.218l-.716.716a1.244,1.244,0,0,0,.733,2.115l6.236.739a1.282,1.282,0,0,0,.149.009,1.244,1.244,0,0,0,1.233-1.39l-.739-6.236a1.244,1.244,0,0,0-2.115-.733l-.716.716L52.38,29.432a1.245,1.245,0,0,0-1.759,0l-2.3,2.3a1.245,1.245,0,0,0,0,1.759ZM57.17,33.38h0ZM51.5,31.065l3.723,3.723a1.244,1.244,0,0,0,1.759,0l.316-.316.53,4.473-4.473-.53.316-.316a1.244,1.244,0,0,0,0-1.759L49.95,32.616Z" transform="translate(-42.601 -25.624)"/>
        <path id="Trazado_1179191" data-name="Trazado 1179191" d="M388.566,176.93h-7.384v-1.013a1.244,1.244,0,0,0-2.014-.977l-4.932,3.887a1.244,1.244,0,0,0,0,1.954l4.932,3.887a1.244,1.244,0,0,0,2.014-.977v-1.013h7.384a1.245,1.245,0,0,0,1.244-1.244v-3.26A1.245,1.245,0,0,0,388.566,176.93Zm-.533,3.97h-7.384a1.245,1.245,0,0,0-1.244,1.244v.447l-3.537-2.788,3.537-2.788v.447a1.245,1.245,0,0,0,1.244,1.244h7.384Z" transform="translate(-329.812 -153.979)"/>
        <path id="Trazado_1179192" data-name="Trazado 1179192" d="M5.531,180.9H4.557v-2.193h7.384a1.245,1.245,0,0,0,1.244-1.244v-.447l3.537,2.788-3.537,2.788v-.447a1.245,1.245,0,0,0-1.244-1.244H9.677a.889.889,0,1,0,0,1.777h1.731v1.013a1.235,1.235,0,0,0,.7,1.119,1.236,1.236,0,0,0,1.313-.142l4.932-3.887a1.244,1.244,0,0,0,0-1.954l-4.932-3.887a1.244,1.244,0,0,0-2.014.977v1.013H4.024a1.245,1.245,0,0,0-1.244,1.244v3.26a1.245,1.245,0,0,0,1.244,1.244H5.531a.889.889,0,1,0,0-1.777Z" transform="translate(-2.78 -153.978)"/>
        <path id="Trazado_1179193" data-name="Trazado 1179193" d="M93.159,40.926l.717-.716a1.244,1.244,0,0,0-.733-2.115l-6.236-.739a1.244,1.244,0,0,0-1.382,1.382l.5,4.2H79.546V42.1a2.466,2.466,0,0,0-.967-1.951l-.561-.427a6.376,6.376,0,0,0,3.789-4.953h.417a4.259,4.259,0,0,0,4.254-4.254v-.653A4.25,4.25,0,0,0,84.7,26.408V24.286a.889.889,0,1,0-1.777,0v1.382a4.263,4.263,0,0,0-.7-.058H81.87V23.56a2.737,2.737,0,0,0-2.043-2.644V17.684a4.907,4.907,0,0,0-.092-.942h.058a3.133,3.133,0,0,1,3.13,3.13v.268a.889.889,0,1,0,1.777,0v-.268a4.912,4.912,0,0,0-4.907-4.907H79a4.915,4.915,0,0,0-3.277-2.119l1.737-2.2a1.244,1.244,0,0,0-.977-2.014H75.472V1.244A1.245,1.245,0,0,0,74.228,0h-3.26a1.245,1.245,0,0,0-1.244,1.244V8.628H68.711a1.244,1.244,0,0,0-.977,2.014l1.683,2.135H63.961a3.751,3.751,0,0,0-3.712,4.291l.14.963a5.257,5.257,0,0,0,.108.54v7.838a4.25,4.25,0,0,0-1.778,3.456v.653a4.259,4.259,0,0,0,4.254,4.254h.417a6.376,6.376,0,0,0,3.789,4.953l-.561.427A2.466,2.466,0,0,0,65.65,42.1v.835H59.174l.5-4.2a1.244,1.244,0,0,0-1.382-1.382l-6.236.739a1.244,1.244,0,0,0-.733,2.115l.716.717-3.723,3.723a1.245,1.245,0,0,0,0,1.759l1.733,1.733a6.091,6.091,0,0,0-.072.928v9.514a2.076,2.076,0,0,0,2.073,2.073h41.1a2.076,2.076,0,0,0,2.073-2.073V55.562a.889.889,0,1,0-1.777,0v3.021a.3.3,0,0,1-.3.3H76.625L75.1,51l1.068-1.214.907.808a1.466,1.466,0,0,0,.98.378,1.491,1.491,0,0,0,.611-.132,1.464,1.464,0,0,0,.875-1.351V44.713h6.687l.031.26a1.244,1.244,0,0,0,2.115.733l.716-.716,3.723,3.723a1.236,1.236,0,0,0,.625.338c0,.006,0,.012,0,.018v2.347a.889.889,0,1,0,1.777,0V49.069a6.106,6.106,0,0,0-.072-.928l1.733-1.733a1.244,1.244,0,0,0,0-1.759ZM81.87,27.387h.354A2.48,2.48,0,0,1,84.7,29.864v.653a2.48,2.48,0,0,1-2.477,2.477H81.87ZM70.257,10.405A1.245,1.245,0,0,0,71.5,9.161V1.777h2.193V9.161a1.245,1.245,0,0,0,1.244,1.244h.447L72.6,13.942,69.81,10.405Zm-7.789,4.831a1.973,1.973,0,0,1,1.493-.683h6.856l.8,1.02a1.244,1.244,0,0,0,1.954,0l.8-1.02h.541a3.133,3.133,0,0,1,3.13,3.13v3.144H65.675a3.584,3.584,0,0,1-3.528-3.053l-.14-.963a1.973,1.973,0,0,1,.461-1.576Zm.859,17.757h-.354A2.479,2.479,0,0,1,60.5,30.517v-.653a2.48,2.48,0,0,1,2.477-2.477h.354Zm0-9.434v2.05h-.354a4.264,4.264,0,0,0-.7.058v-4.3a5.4,5.4,0,0,0,1.41.844,2.715,2.715,0,0,0-.357,1.348ZM65.1,33.881V23.56a.956.956,0,0,1,.955-.955H79.137a.956.956,0,0,1,.955.955V33.881a4.586,4.586,0,0,1-4.581,4.581H69.685A4.586,4.586,0,0,1,65.1,33.881Zm3.573,8.867L71.3,45.373l-3.877,3.455V42.1a.678.678,0,0,1,.266-.537l.723-.55V42.12a.888.888,0,0,0,.26.629Zm1.517-1V40.24H75v1.512l-2.4,2.4ZM49.948,45.528l3.723-3.723a1.244,1.244,0,0,0,0-1.759l-.316-.316,4.473-.53-.53,4.473-.316-.316a1.245,1.245,0,0,0-1.759,0L51.5,47.079ZM68.572,58.879H52.049a.3.3,0,0,1-.3-.3V49.069c0-.006,0-.012,0-.018a1.234,1.234,0,0,0,.625-.338L56.1,44.99l.716.716a1.244,1.244,0,0,0,2.115-.733l.031-.26H65.65v4.776a1.481,1.481,0,0,0,2.466,1.106l.907-.808L70.092,51Zm1.81,0,1.2-6.2a1.476,1.476,0,0,0,2.041,0l1.2,6.2ZM72.6,51.159,70.35,48.6l2.248-2,2.248,2Zm5.171-2.33-3.877-3.455,2.627-2.625a.889.889,0,0,0,.261-.629V41.015l.723.55a.679.679,0,0,1,.266.537ZM93.7,47.079l-3.723-3.723a1.244,1.244,0,0,0-1.759,0l-.316.316-.53-4.473,4.473.53-.317.316a1.245,1.245,0,0,0,0,1.759l3.723,3.723Z" transform="translate(-42.599 0)"/>
      </g>
    </g>
  </g>
</svg>
