<svg xmlns="http://www.w3.org/2000/svg" xmlns:xlink="http://www.w3.org/1999/xlink" width="113" height="113" viewBox="0 0 113 113">
  <defs>
    <filter id="Trazado_982547" x="0" y="0" width="113" height="113" filterUnits="userSpaceOnUse">
      <feOffset dy="3" input="SourceAlpha"/>
      <feGaussianBlur stdDeviation="3" result="blur"/>
      <feFlood flood-opacity="0.161"/>
      <feComposite operator="in" in2="blur"/>
      <feComposite in="SourceGraphic"/>
    </filter>
  </defs>
  <g id="Grupo_1226148" data-name="Grupo 1226148" transform="translate(-1163.119 -6384.133)">
    <g id="Grupo_1225833" data-name="Grupo 1225833" transform="translate(0.119 1123.187)">
      <g id="Grupo_1223779" data-name="Grupo 1223779" transform="translate(0 -642.718)">
        <g id="Grupo_1206283" data-name="Grupo 1206283" transform="translate(0 -3448.335)">
          <g id="Grupo_1203804" data-name="Grupo 1203804" transform="translate(-1 6552)">
            <g id="Grupo_1202426" data-name="Grupo 1202426" transform="translate(0.5 1464)">
              <g id="Grupo_1178323" data-name="Grupo 1178323" transform="translate(0 424)">
                <g id="Grupo_1177681" data-name="Grupo 1177681" transform="translate(1172.5 918)">
                  <g id="Grupo_1172010" data-name="Grupo 1172010">
                    <g id="Grupo_1171046" data-name="Grupo 1171046">
                      <g id="Grupo_1148525" data-name="Grupo 1148525">
                        <g transform="matrix(1, 0, 0, 1, -9, -6)" filter="url(#Trazado_982547)">
                          <g id="Trazado_982547-2" data-name="Trazado 982547" transform="translate(9 6)" fill="#f2d944">
                            <path d="M 47.5 93.5 C 41.28937149047852 93.5 35.26533508300781 92.28397369384766 29.59518623352051 89.88570404052734 C 24.11771965026855 87.56893157958984 19.19813346862793 84.25196075439453 14.97309303283691 80.02691650390625 C 10.74804019927979 75.80186462402344 7.431066513061523 70.88229370117188 5.114293098449707 65.40481567382812 C 2.716026782989502 59.73468017578125 1.5 53.71062850952148 1.5 47.5 C 1.5 41.28937149047852 2.716026782989502 35.26533508300781 5.114293098449707 29.59518623352051 C 7.431066513061523 24.11771965026855 10.74804019927979 19.19813346862793 14.97309303283691 14.97309303283691 C 19.19813346862793 10.74804019927979 24.11771965026855 7.431066513061523 29.59518623352051 5.114293098449707 C 35.26533508300781 2.716026782989502 41.28937149047852 1.5 47.5 1.5 C 53.71062850952148 1.5 59.73468017578125 2.716026782989502 65.40481567382812 5.114293098449707 C 70.88229370117188 7.431066513061523 75.80186462402344 10.74804019927979 80.02691650390625 14.97309303283691 C 84.25196075439453 19.19813346862793 87.56893157958984 24.11771965026855 89.88570404052734 29.59518623352051 C 92.28397369384766 35.26533508300781 93.5 41.28937149047852 93.5 47.5 C 93.5 53.71062850952148 92.28397369384766 59.73468017578125 89.88570404052734 65.40481567382812 C 87.56893157958984 70.88229370117188 84.25196075439453 75.80186462402344 80.02691650390625 80.02691650390625 C 75.80186462402344 84.25196075439453 70.88229370117188 87.56893157958984 65.40481567382812 89.88570404052734 C 59.73468017578125 92.28397369384766 53.71062850952148 93.5 47.5 93.5 Z" stroke="none"/>
                            <path d="M 47.5 3 C 41.49121475219727 3 35.66376876831055 4.176155090332031 30.17950439453125 6.495796203613281 C 24.88084411621094 8.736953735351562 20.12152099609375 11.94598388671875 16.03375244140625 16.03375244140625 C 11.94598388671875 20.12152099609375 8.736953735351562 24.88084411621094 6.495796203613281 30.17950439453125 C 4.176155090332031 35.66376876831055 3 41.49121475219727 3 47.5 C 3 53.50878524780273 4.176155090332031 59.33623123168945 6.495796203613281 64.82049560546875 C 8.736953735351562 70.11915588378906 11.94598388671875 74.87847900390625 16.03375244140625 78.96624755859375 C 20.12152099609375 83.05401611328125 24.88084411621094 86.26304626464844 30.17950439453125 88.50419616699219 C 35.66376876831055 90.82384490966797 41.49121475219727 92 47.5 92 C 53.50878524780273 92 59.33623123168945 90.82384490966797 64.82049560546875 88.50419616699219 C 70.11915588378906 86.26304626464844 74.87847900390625 83.05401611328125 78.96624755859375 78.96624755859375 C 83.05401611328125 74.87847900390625 86.26304626464844 70.11915588378906 88.50419616699219 64.82049560546875 C 90.82384490966797 59.33623123168945 92 53.50878524780273 92 47.5 C 92 41.49121475219727 90.82384490966797 35.66376876831055 88.50419616699219 30.17950439453125 C 86.26304626464844 24.88084411621094 83.05401611328125 20.12152099609375 78.96624755859375 16.03375244140625 C 74.87847900390625 11.94598388671875 70.11915588378906 8.736953735351562 64.82049560546875 6.495796203613281 C 59.33623123168945 4.176155090332031 53.50878524780273 3 47.5 3 M 47.5 0 C 73.7335205078125 0 95 21.2664794921875 95 47.5 C 95 73.7335205078125 73.7335205078125 95 47.5 95 C 21.2664794921875 95 0 73.7335205078125 0 47.5 C 0 21.2664794921875 21.2664794921875 0 47.5 0 Z" stroke="none" fill="#ba9c5a"/>
                          </g>
                        </g>
                      </g>
                    </g>
                  </g>
                </g>
              </g>
            </g>
          </g>
        </g>
      </g>
    </g>
    <g id="pruebas" transform="translate(1190.693 6405.864)">
      <g id="Grupo_1226146" data-name="Grupo 1226146" transform="translate(0.855 0.848)">
        <g id="Grupo_1226141" data-name="Grupo 1226141" transform="translate(0 14.091)">
          <path id="Trazado_1179194" data-name="Trazado 1179194" d="M92.871,136.709v29.055l-23.8,1.878-23.8-1.878V136.709a4.462,4.462,0,0,1,4.463-4.463H88.408A4.462,4.462,0,0,1,92.871,136.709Z" transform="translate(-40.996 -132.246)" fill="#f9f6f9"/>
          <path id="Trazado_1179195" data-name="Trazado 1179195" d="M92.87,412.011v1.916l-23.8,1.878-23.8-1.878v-1.916Z" transform="translate(-40.995 -380.409)" fill="#dddaec"/>
          <path id="Trazado_1179196" data-name="Trazado 1179196" d="M46.741,166.429l-1.477-.661V136.713a4.461,4.461,0,0,1,4.462-4.463H51.98a4.462,4.462,0,0,0-4.463,4.463v29.055Z" transform="translate(-40.998 -132.25)" fill="#dddaec"/>
          <path id="Trazado_1179197" data-name="Trazado 1179197" d="M59.376,428.975H11.768a4.266,4.266,0,1,0,0,8.531H59.376a4.266,4.266,0,1,0,0-8.531Z" transform="translate(-7.501 -395.457)" fill="#f9f6f9"/>
          <path id="Trazado_1179198" data-name="Trazado 1179198" d="M62.953,435.55a4.261,4.261,0,0,1-3.584,1.953H11.761a4.266,4.266,0,1,1,0-8.532h1.374a4.266,4.266,0,0,0,3.584,6.579H62.953Z" transform="translate(-7.495 -395.454)" fill="#dddaec"/>
          <path id="Trazado_1179199" data-name="Trazado 1179199" d="M83.262,193.082V172.511a2.266,2.266,0,0,1,2.266-2.266H120.02a2.266,2.266,0,0,1,2.266,2.266v20.571a2.1,2.1,0,0,1-2.1,2.1H85.358A2.1,2.1,0,0,1,83.262,193.082Z" transform="translate(-74.704 -165.953)" fill="#9dc6fb"/>
          <path id="Trazado_1179200" data-name="Trazado 1179200" d="M88.654,195.18h-3.3a2.1,2.1,0,0,1-2.1-2.1V172.514a2.266,2.266,0,0,1,2.266-2.266h3.3a2.266,2.266,0,0,0-2.266,2.266v20.571A2.1,2.1,0,0,0,88.654,195.18Z" transform="translate(-74.704 -165.955)" fill="#80b4fb"/>
          <path id="Trazado_1179201" data-name="Trazado 1179201" d="M192.142,432.73H182.114a3.756,3.756,0,0,1-3.756-3.756H195.9A3.756,3.756,0,0,1,192.142,432.73Z" transform="translate(-159.058 -395.456)" fill="#cacaca"/>
        </g>
        <g id="Grupo_1226143" data-name="Grupo 1226143" transform="translate(15.363)">
          <path id="Trazado_1179202" data-name="Trazado 1179202" d="M167.246,21.857,165.9,21.3a9.675,9.675,0,0,0,0-2.182l1.349-.558a2.7,2.7,0,1,0-2.067-4.989l-1.348.558a9.677,9.677,0,0,0-1.544-1.542l.559-1.35a2.7,2.7,0,1,0-4.989-2.067l-.559,1.35a9.667,9.667,0,0,0-2.182,0l-.559-1.349a2.7,2.7,0,1,0-4.989,2.067l.559,1.348a9.677,9.677,0,0,0-1.542,1.544l-1.35-.559a2.7,2.7,0,1,0-2.066,4.989l1.35.559a9.7,9.7,0,0,0,0,2.182l-1.348.559a2.7,2.7,0,1,0,2.067,4.989l1.349-.559.019.023,0,0a9.627,9.627,0,0,0,1.522,1.515l-.559,1.35a2.7,2.7,0,0,0,3.614,3.49h0a2.686,2.686,0,0,0,1.375-1.424l.559-1.35a9.7,9.7,0,0,0,2.182,0l.558,1.348a2.7,2.7,0,1,0,4.989-2.066l-.558-1.349a9.694,9.694,0,0,0,1.542-1.543l1.35.559a2.7,2.7,0,1,0,2.067-4.989Zm-11.04,2.885a4.535,4.535,0,1,1,4.535-4.535A4.535,4.535,0,0,1,156.207,24.742Z" transform="translate(-143.499 -7.499)" fill="#4a80aa"/>
          <g id="Grupo_1226142" data-name="Grupo 1226142" transform="translate(0 0)">
            <path id="Trazado_1179203" data-name="Trazado 1179203" d="M265.932,10.517a9.674,9.674,0,0,1,2.182,0l.559-1.35a2.69,2.69,0,0,1,1.376-1.424l-.085-.038a2.7,2.7,0,0,0-3.528,1.462l-.531,1.282Z" transform="translate(-252.078 -7.5)" fill="#407093"/>
            <path id="Trazado_1179204" data-name="Trazado 1179204" d="M145.946,71.417a2.7,2.7,0,0,1,1.461-3.528l1.348-.559a9.7,9.7,0,0,1,0-2.182l-1.35-.559a2.7,2.7,0,0,1-.083-4.953l-.089-.037a2.7,2.7,0,1,0-2.066,4.989l1.35.559a9.7,9.7,0,0,0,0,2.182l-1.348.559a2.7,2.7,0,1,0,2.067,4.989l.089-.037A2.691,2.691,0,0,1,145.946,71.417Z" transform="translate(-143.501 -53.532)" fill="#407093"/>
            <path id="Trazado_1179205" data-name="Trazado 1179205" d="M268.673,207.128l-.558-1.348a9.7,9.7,0,0,1-2.182,0l-.028.068.53,1.281a2.7,2.7,0,0,0,3.528,1.461l.086-.038a2.689,2.689,0,0,1-1.376-1.424Z" transform="translate(-252.078 -183.381)" fill="#407093"/>
            <path id="Trazado_1179206" data-name="Trazado 1179206" d="M193.1,180.209a2.7,2.7,0,0,1-3.614-3.49l.559-1.35a9.627,9.627,0,0,1-1.522-1.515l0,0a.215.215,0,0,0-.019-.023h2.238a9.653,9.653,0,0,0,1.544,1.542l-.559,1.35A2.7,2.7,0,0,0,193.1,180.209Z" transform="translate(-183.419 -155.039)" fill="#407093"/>
            <path id="Trazado_1179207" data-name="Trazado 1179207" d="M193.1,7.749a2.7,2.7,0,0,0-3.614,3.49l.559,1.35a9.627,9.627,0,0,0-1.522,1.515l0,0a.213.213,0,0,1-.019.023h2.238a9.654,9.654,0,0,1,1.544-1.542l-.559-1.35a2.7,2.7,0,0,1,1.376-3.49Z" transform="translate(-183.419 -7.504)" fill="#407093"/>
          </g>
        </g>
        <g id="Grupo_1226144" data-name="Grupo 1226144" transform="translate(32.022 27.908)">
          <path id="Trazado_1179208" data-name="Trazado 1179208" d="M296.129,265.945a1.929,1.929,0,0,1-1.524-.747l-3.225-4.159a1.928,1.928,0,1,1,3.048-2.363l1.448,1.867,2.825-5a1.928,1.928,0,0,1,3.358,1.9l-4.251,7.527a1.928,1.928,0,0,1-1.539.975C296.223,265.943,296.176,265.945,296.129,265.945Z" transform="translate(-290.977 -254.56)" fill="#a2e19f"/>
        </g>
        <g id="Grupo_1226145" data-name="Grupo 1226145" transform="translate(14.641 29.048)">
          <path id="Trazado_1179209" data-name="Trazado 1179209" d="M145.062,269.775l1.687-1.687a2.008,2.008,0,0,0-2.84-2.84l-1.687,1.687-1.687-1.687a2.008,2.008,0,0,0-2.84,2.84l1.687,1.687-1.687,1.687a2.008,2.008,0,0,0,2.84,2.84l1.687-1.687,1.687,1.687a2.008,2.008,0,0,0,2.84-2.84Z" transform="translate(-137.108 -264.659)" fill="#e28086"/>
        </g>
      </g>
      <g id="Grupo_1226147" data-name="Grupo 1226147" transform="translate(0.01 0.001)">
        <path id="Trazado_1179210" data-name="Trazado 1179210" d="M56.344,49.106a5.081,5.081,0,0,0-2.767-1.426V19.4a5.315,5.315,0,0,0-5.31-5.309H39.51a10.57,10.57,0,0,0,0-1.082l.779-.322a3.552,3.552,0,0,0,1.92-4.635c-.007-.017-.015-.034-.023-.05a.847.847,0,0,0-1.534.718,1.856,1.856,0,0,1-1.011,2.4l-1.349.558a.847.847,0,0,0-.518.877,8.9,8.9,0,0,1,0,1.992.847.847,0,0,0,.518.878l1.35.559a1.853,1.853,0,1,1-1.418,3.424l-1.35-.559a.847.847,0,0,0-.987.255,8.907,8.907,0,0,1-1.409,1.41.847.847,0,0,0-.254.987l.559,1.349a1.853,1.853,0,0,1-3.424,1.418L30.8,22.923a.846.846,0,0,0-.877-.517,8.887,8.887,0,0,1-1.992,0,.847.847,0,0,0-.878.518l-.559,1.35a1.853,1.853,0,0,1-3.424-1.419l.559-1.35a.847.847,0,0,0-.255-.987,8.839,8.839,0,0,1-1.408-1.407.847.847,0,0,0-.986-.255l-1.351.558a1.853,1.853,0,0,1-1.418-3.424l1.349-.558a.847.847,0,0,0,.518-.877,8.9,8.9,0,0,1,0-1.992.847.847,0,0,0-.518-.878l-1.35-.559A1.853,1.853,0,1,1,19.628,7.7l1.35.559A.847.847,0,0,0,21.965,8a8.867,8.867,0,0,1,1.408-1.409.847.847,0,0,0,.255-.987l-.559-1.349a1.853,1.853,0,0,1,3.424-1.418l.559,1.349a.846.846,0,0,0,.877.517,8.893,8.893,0,0,1,1.992,0A.849.849,0,0,0,30.8,4.19l.559-1.35a1.853,1.853,0,0,1,3.424,1.419l-.559,1.35a.847.847,0,0,0,.255.987A8.845,8.845,0,0,1,35.886,8a.847.847,0,0,0,.986.255L38.225,7.7a1.852,1.852,0,0,1,.471-.126.847.847,0,0,0-.221-1.68,3.54,3.54,0,0,0-.9.241l-.78.322a10.538,10.538,0,0,0-.77-.77l.323-.779a3.547,3.547,0,1,0-6.555-2.715l-.323.779a10.56,10.56,0,0,0-1.09,0l-.323-.779A3.547,3.547,0,1,0,21.5,4.908l.323.778a10.579,10.579,0,0,0-.77.771l-.779-.323a3.547,3.547,0,1,0-2.715,6.555l.779.323a10.657,10.657,0,0,0,0,1.081H9.585A5.316,5.316,0,0,0,4.275,19.4V47.681a5.112,5.112,0,0,0,.847,10.154H52.73a5.113,5.113,0,0,0,3.614-8.729ZM18.92,21.249a3.523,3.523,0,0,0,1.356-.271l.78-.322a10.537,10.537,0,0,0,.77.77L21.5,22.2a3.547,3.547,0,1,0,6.555,2.715l.323-.779a10.591,10.591,0,0,0,1.09,0l.323.779A3.547,3.547,0,1,0,36.347,22.2l-.323-.779a10.62,10.62,0,0,0,.77-.771l.779.323a3.553,3.553,0,0,0,3.991-.9h4.606A1.42,1.42,0,0,1,47.59,21.5v20.57a1.25,1.25,0,0,1-1.248,1.248H11.51a1.25,1.25,0,0,1-1.248-1.248V21.5A1.42,1.42,0,0,1,11.68,20.08h4.608a3.536,3.536,0,0,0,2.632,1.169ZM52.73,56.141H5.122a3.419,3.419,0,0,1,0-6.837h5.8a.847.847,0,1,0,0-1.694H5.969V19.4a3.619,3.619,0,0,1,3.616-3.615h6.349a3.556,3.556,0,0,0-.5,2.6H11.68A3.117,3.117,0,0,0,8.567,21.5v20.57a2.946,2.946,0,0,0,2.943,2.943H46.342a2.946,2.946,0,0,0,2.942-2.943V21.5a3.117,3.117,0,0,0-3.113-3.113H42.412a3.556,3.556,0,0,0-.5-2.6h6.351A3.619,3.619,0,0,1,51.883,19.4V47.609H14.293a.847.847,0,1,0,0,1.694h5.095a4.61,4.61,0,0,0,4.524,3.757H33.94A4.61,4.61,0,0,0,38.464,49.3H52.73a3.419,3.419,0,0,1,0,6.837ZM36.723,49.3a2.915,2.915,0,0,1-2.783,2.062H23.912A2.915,2.915,0,0,1,21.129,49.3Z" transform="translate(-0.01 -0.001)"/>
        <path id="Trazado_1179211" data-name="Trazado 1179211" d="M213.728,72.353a5.382,5.382,0,1,0,5.382,5.382A5.388,5.388,0,0,0,213.728,72.353Zm0,1.694a3.687,3.687,0,0,1,3.649,4.225h-7.3a3.687,3.687,0,0,1,3.648-4.225Zm0,7.376a3.684,3.684,0,0,1-2.934-1.457h5.868A3.684,3.684,0,0,1,213.728,81.423Z" transform="translate(-184.813 -64.18)"/>
        <path id="Trazado_1179212" data-name="Trazado 1179212" d="M287.279,259.075a2.794,2.794,0,0,0,2.193,1.075q.1,0,.2-.007a2.769,2.769,0,0,0,2.215-1.4l4.251-7.527a2.776,2.776,0,0,0-4.834-2.73l-2.2,3.892-.667-.86a2.776,2.776,0,1,0-4.387,3.4Zm-2.1-6a1.082,1.082,0,0,1,1.071-.946,1.113,1.113,0,0,1,.138.009,1.074,1.074,0,0,1,.719.41l1.447,1.867a.847.847,0,0,0,1.407-.1l2.825-5a1.081,1.081,0,1,1,1.883,1.063l-4.251,7.527a1.078,1.078,0,0,1-.862.547,1.09,1.09,0,0,1-.934-.416l-3.224-4.159A1.074,1.074,0,0,1,285.175,253.079Z" transform="translate(-251.452 -219.163)"/>
        <path id="Trazado_1179213" data-name="Trazado 1179213" d="M130.457,262.039l1.088,1.088-1.088,1.088a2.855,2.855,0,0,0,4.038,4.038l1.088-1.088,1.088,1.088a2.855,2.855,0,1,0,4.038-4.038l-1.088-1.088,1.088-1.088A2.855,2.855,0,0,0,136.671,258l-1.088,1.088L134.495,258a2.855,2.855,0,0,0-4.038,4.038Zm1.2-2.84a1.161,1.161,0,0,1,1.642,0l1.687,1.687a.847.847,0,0,0,1.2,0l1.687-1.687a1.161,1.161,0,0,1,1.642,1.642l-1.687,1.687a.847.847,0,0,0,0,1.2l1.687,1.687a1.161,1.161,0,1,1-1.641,1.642l-1.687-1.687a.847.847,0,0,0-1.2,0l-1.687,1.687a1.161,1.161,0,0,1-1.641-1.642l1.687-1.687a.847.847,0,0,0,0-1.2l-1.687-1.687A1.162,1.162,0,0,1,131.655,259.2Z" transform="translate(-114.981 -228.116)"/>
      </g>
    </g>
  </g>
</svg>
