<svg xmlns="http://www.w3.org/2000/svg" xmlns:xlink="http://www.w3.org/1999/xlink" width="108" height="108" viewBox="0 0 108 108">
  <defs>
    <filter id="Trazado_904820" x="0" y="0" width="108" height="108" filterUnits="userSpaceOnUse">
      <feOffset dy="3" input="SourceAlpha"/>
      <feGaussianBlur stdDeviation="3" result="blur"/>
      <feFlood flood-opacity="0.161"/>
      <feComposite operator="in" in2="blur"/>
      <feComposite in="SourceGraphic"/>
    </filter>
  </defs>
  <g id="Grupo_1226165" data-name="Grupo 1226165" transform="translate(-614.117 -325)">
    <g id="Grupo_1225835" data-name="Grupo 1225835" transform="translate(0 -666.051)">
      <g id="Grupo_1223021" data-name="Grupo 1223021" transform="translate(0 -4511.949)">
        <g id="Grupo_1221054" data-name="Grupo 1221054" transform="translate(623.117 5509)">
          <g id="Grupo_1203639" data-name="Grupo 1203639" transform="translate(0 0)">
            <g id="Grupo_1202437" data-name="Grupo 1202437" transform="translate(0 0)">
              <g id="Grupo_1177315" data-name="Grupo 1177315" transform="translate(0 0)">
                <g id="Grupo_1173585" data-name="Grupo 1173585" transform="translate(0 0)">
                  <g id="Grupo_1173428" data-name="Grupo 1173428">
                    <g id="Grupo_1171958" data-name="Grupo 1171958">
                      <g id="Grupo_1167341" data-name="Grupo 1167341">
                        <g id="Grupo_1166792" data-name="Grupo 1166792">
                          <g transform="matrix(1, 0, 0, 1, -9, -6)" filter="url(#Trazado_904820)">
                            <g id="Trazado_904820-2" data-name="Trazado 904820" transform="translate(9 6)" fill="#edeef2">
                              <path d="M 44.99999618530273 88.49994659423828 C 39.12687301635742 88.49994659423828 33.43022155761719 87.35002136230469 28.06829643249512 85.08212280273438 C 22.88852119445801 82.89125823974609 18.23629570007324 79.75454711914062 14.24084663391113 75.75910186767578 C 10.24540901184082 71.76364898681641 7.108683586120605 67.11143493652344 4.917821407318115 61.93165969848633 C 2.649921178817749 56.56973648071289 1.499996185302734 50.87309646606445 1.499996185302734 44.99997329711914 C 1.499996185302734 39.12685012817383 2.649921178817749 33.43021011352539 4.917821407318115 28.06828498840332 C 7.108683586120605 22.88851165771484 10.24540901184082 18.23629760742188 14.24084663391113 14.24084854125977 C 18.23629570007324 10.24539852142334 22.88852119445801 7.108685970306396 28.06829643249512 4.917823314666748 C 33.43022155761719 2.649923324584961 39.12687301635742 1.499998331069946 44.99999618530273 1.499998331069946 C 50.87311935424805 1.499998331069946 56.56977081298828 2.649923324584961 61.93169784545898 4.917823314666748 C 67.11147308349609 7.108685970306396 71.76369476318359 10.24539852142334 75.75914764404297 14.24084854125977 C 79.75458526611328 18.23629760742188 82.89131164550781 22.88851165771484 85.08216857910156 28.06828498840332 C 87.35007476806641 33.43021011352539 88.5 39.12685012817383 88.5 44.99997329711914 C 88.5 50.87309646606445 87.35007476806641 56.56973648071289 85.08216857910156 61.93165969848633 C 82.89131164550781 67.11143493652344 79.75458526611328 71.76364898681641 75.75914764404297 75.75910186767578 C 71.76369476318359 79.75454711914062 67.11147308349609 82.89125823974609 61.93169784545898 85.08212280273438 C 56.56977081298828 87.35002136230469 50.87311935424805 88.49994659423828 44.99999618530273 88.49994659423828 Z" stroke="none"/>
                              <path d="M 44.99999618530273 3 C 39.32870864868164 3 33.82865142822266 4.110061645507812 28.65262603759766 6.299331665039062 C 23.65165710449219 8.414573669433594 19.15968322753906 11.44332885742188 15.301513671875 15.30149841308594 C 11.44333648681641 19.15969085693359 8.414566040039062 23.65164184570312 6.299339294433594 28.65261459350586 C 4.110054016113281 33.82864379882812 2.999992370605469 39.32868576049805 2.999992370605469 44.99997329711914 C 2.999992370605469 50.67126083374023 4.110054016113281 56.17130279541016 6.299339294433594 61.34732818603516 C 8.414566040039062 66.34829711914062 11.44333648681641 70.84025573730469 15.301513671875 74.69844055175781 C 19.15968322753906 78.55661773681641 23.65165710449219 81.58537292480469 28.65262603759766 83.70061492919922 C 33.82865142822266 85.88988494873047 39.32870864868164 86.99994659423828 44.99999618530273 86.99994659423828 C 50.67128372192383 86.99994659423828 56.17134094238281 85.88988494873047 61.34736633300781 83.70061492919922 C 66.34834289550781 81.58537292480469 70.84030914306641 78.55661773681641 74.69847869873047 74.69844055175781 C 78.55665588378906 70.84025573730469 81.58542633056641 66.34829711914062 83.70065307617188 61.34732818603516 C 85.88993835449219 56.17130279541016 87 50.67126083374023 87 44.99997329711914 C 87 39.32868576049805 85.88993835449219 33.82864379882812 83.70065307617188 28.65261459350586 C 81.58542633056641 23.65164184570312 78.55665588378906 19.15969085693359 74.69847869873047 15.30149841308594 C 70.84030914306641 11.44332885742188 66.34834289550781 8.414573669433594 61.34736633300781 6.299331665039062 C 56.17134094238281 4.110061645507812 50.67128372192383 3 44.99999618530273 3 M 44.99999618530273 0 C 69.85281372070312 0 90 20.14717102050781 90 44.99997329711914 C 90 69.85277557373047 69.85281372070312 89.99994659423828 44.99999618530273 89.99994659423828 C 20.14717864990234 89.99994659423828 -7.62939453125e-06 69.85277557373047 -7.62939453125e-06 44.99997329711914 C -7.62939453125e-06 20.14717102050781 20.14717864990234 0 44.99999618530273 0 Z" stroke="none" fill="#56678d"/>
                            </g>
                          </g>
                        </g>
                      </g>
                    </g>
                  </g>
                </g>
              </g>
            </g>
          </g>
        </g>
      </g>
    </g>
    <g id="guia" transform="translate(639.331 348.354)">
      <g id="Grupo_1226150" data-name="Grupo 1226150" transform="translate(4.479 45.094)">
        <path id="Trazado_1179214" data-name="Trazado 1179214" d="M20.3,423.35H15.058a3.786,3.786,0,0,1-3.782-3.782h-.108v3.64a3.89,3.89,0,0,0,3.89,3.89H20.3V423.35Z" transform="translate(-11.168 -419.352)" fill="#bb5d4c"/>
        <path id="Trazado_1179215" data-name="Trazado 1179215" d="M171.047,417.566v3.782a.216.216,0,0,1-.216.216H147.316v3.748H174.04a.54.54,0,0,0,.54-.54v-7.207Z" transform="translate(-132.613 -417.565)" fill="#bb5d4c"/>
      </g>
      <g id="Grupo_1226151" data-name="Grupo 1226151" transform="translate(4.479 45.311)">
        <path id="Trazado_1179216" data-name="Trazado 1179216" d="M14.831,423.457a3.89,3.89,0,0,1-3.662-3.883v3.64a3.89,3.89,0,0,0,3.89,3.89h3.654A3.889,3.889,0,0,1,14.831,423.457Z" transform="translate(-11.169 -419.574)" fill="#a44f3e"/>
      </g>
      <g id="Grupo_1226153" data-name="Grupo 1226153" transform="translate(4.479 7.219)">
        <path id="Trazado_1179217" data-name="Trazado 1179217" d="M381.857,66.848H371.484V100.51a.54.54,0,0,1-.54.54h-2.886v3.673h13.8a.54.54,0,0,0,.54-.54v-36.8A.54.54,0,0,0,381.857,66.848Z" transform="translate(-329.517 -66.848)" fill="#dff6fd"/>
        <g id="Grupo_1226152" data-name="Grupo 1226152" transform="translate(38.541 0)">
          <path id="Trazado_1179218" data-name="Trazado 1179218" d="M399.781,66.848v.071a.534.534,0,0,1,.263-.071Z" transform="translate(-396.355 -66.848)" fill="#c8effe"/>
          <path id="Trazado_1179219" data-name="Trazado 1179219" d="M371.207,386.1v-3.2a.534.534,0,0,1-.263.071h-2.886v3.673h3.689A.54.54,0,0,1,371.207,386.1Z" transform="translate(-368.058 -348.764)" fill="#c8effe"/>
        </g>
        <path id="Trazado_1179220" data-name="Trazado 1179220" d="M15.059,383.554a3.89,3.89,0,0,0,0,7.78H20.3v-4.107h5.567v4.107H49.386a.324.324,0,0,0,.324-.324v-7.456H15.059Z" transform="translate(-11.169 -349.352)" fill="#fff"/>
      </g>
      <path id="Trazado_1179221" data-name="Trazado 1179221" d="M20.3,387.228h1a3.89,3.89,0,0,1,3.884-3.673H15.059a3.89,3.89,0,0,0,0,7.78H20.3Z" transform="translate(-6.69 -342.134)" fill="#f2fbff"/>
      <path id="Trazado_1179222" data-name="Trazado 1179222" d="M20.306,391.33a3.89,3.89,0,0,1,.178-7.775H15.06a3.89,3.89,0,0,0,0,7.78h5.246v0Z" transform="translate(-6.691 -342.134)" fill="#01d0fb"/>
      <g id="Grupo_1226154" data-name="Grupo 1226154" transform="translate(13.615 45.094)">
        <path id="Trazado_1179223" data-name="Trazado 1179223" d="M101.332,426.648v-9.082H95.765v9.082a.306.306,0,0,0,.48.251l2.3-1.594,2.3,1.594A.306.306,0,0,0,101.332,426.648Z" transform="translate(-95.765 -417.566)" fill="#fb2b3a"/>
      </g>
      <g id="Grupo_1226156" data-name="Grupo 1226156" transform="translate(13.615 45.094)">
        <g id="Grupo_1226155" data-name="Grupo 1226155">
          <path id="Trazado_1179224" data-name="Trazado 1179224" d="M98.166,417.566h-2.4v9.082a.306.306,0,0,0,.48.251l1.921-1.33Z" transform="translate(-95.765 -417.566)" fill="#e41f2d"/>
        </g>
      </g>
      <g id="Grupo_1226157" data-name="Grupo 1226157" transform="translate(4.479 0.81)">
        <path id="Trazado_1179225" data-name="Trazado 1179225" d="M15.06,7.5a3.89,3.89,0,0,0-3.89,3.89V52a3.89,3.89,0,0,1,3.89-3.89H52.6a.54.54,0,0,0,.54-.54V8.04a.54.54,0,0,0-.54-.54Z" transform="translate(-11.17 -7.5)" fill="#883f2e"/>
      </g>
      <g id="Grupo_1226158" data-name="Grupo 1226158" transform="translate(4.479 0.81)">
        <path id="Trazado_1179226" data-name="Trazado 1179226" d="M15.06,48.111h4.1V7.5h-4.1a3.89,3.89,0,0,0-3.89,3.89V52A3.89,3.89,0,0,1,15.06,48.111Z" transform="translate(-11.17 -7.5)" fill="#a44f3e"/>
      </g>
      <g id="Grupo_1226159" data-name="Grupo 1226159" transform="translate(4.479 0.81)">
        <path id="Trazado_1179227" data-name="Trazado 1179227" d="M13.956,11.39a3.89,3.89,0,0,1,3.89-3.89H15.059a3.89,3.89,0,0,0-3.89,3.89V52a3.891,3.891,0,0,1,2.787-3.73Z" transform="translate(-11.169 -7.5)" fill="#883f2e"/>
      </g>
      <g id="Grupo_1226160" data-name="Grupo 1226160" transform="translate(16.041 4.379)">
        <path id="Trazado_1179228" data-name="Trazado 1179228" d="M118.236,73.695V40.869a.324.324,0,0,1,.324-.324h26.188a.324.324,0,0,1,.324.324V73.695a.324.324,0,0,1-.324.324H118.56A.324.324,0,0,1,118.236,73.695Z" transform="translate(-118.236 -40.545)" fill="#ca6e59"/>
      </g>
      <g id="Grupo_1226161" data-name="Grupo 1226161" transform="translate(16.041 4.379)">
        <path id="Trazado_1179229" data-name="Trazado 1179229" d="M121.882,73.695V40.869a.324.324,0,0,1,.324-.324H118.56a.324.324,0,0,0-.324.324V73.695a.324.324,0,0,0,.324.324h3.646A.324.324,0,0,1,121.882,73.695Z" transform="translate(-118.236 -40.545)" fill="#bb5d4c"/>
      </g>
      <g id="Grupo_1226162" data-name="Grupo 1226162" transform="translate(23.464 10.755)">
        <path id="Trazado_1179230" data-name="Trazado 1179230" d="M186.97,105.069V99.912a.324.324,0,0,1,.324-.324h11.343a.324.324,0,0,1,.324.324v5.157a.324.324,0,0,1-.324.324H187.294A.324.324,0,0,1,186.97,105.069Z" transform="translate(-186.97 -99.588)" fill="#fac600"/>
      </g>
      <g id="Grupo_1226163" data-name="Grupo 1226163" transform="translate(23.464 10.755)">
        <path id="Trazado_1179231" data-name="Trazado 1179231" d="M190.642,105.069V99.912a.324.324,0,0,1,.324-.324h-3.672a.324.324,0,0,0-.324.324v5.157a.324.324,0,0,0,.324.324h3.672A.324.324,0,0,1,190.642,105.069Z" transform="translate(-186.97 -99.588)" fill="#e8b800"/>
      </g>
      <g id="Grupo_1226164" data-name="Grupo 1226164" transform="translate(3.669 0)">
        <path id="Trazado_1179232" data-name="Trazado 1179232" d="M57.359,34.9a.81.81,0,0,0,.81-.81V7.759a1.351,1.351,0,0,0-1.35-1.35H47.256V1.35A1.351,1.351,0,0,0,45.906,0H8.369a4.7,4.7,0,0,0-4.7,4.7V48.951a4.705,4.705,0,0,0,4.7,4.7H12.8v.525a1.115,1.115,0,0,0,1.751.917L16.4,53.818l1.843,1.275a1.116,1.116,0,0,0,1.751-.917v-.525H45.906a1.351,1.351,0,0,0,1.35-1.35V45.9h9.563a1.351,1.351,0,0,0,1.35-1.35V37.868a.81.81,0,0,0-1.62,0v6.416H43.83V42.231h2.076a1.351,1.351,0,0,0,1.35-1.35V38.743h5.185a.81.81,0,0,0,0-1.62H47.256V34.032h5.185a.81.81,0,0,0,0-1.62H47.256V29.322h5.185a.81.81,0,0,0,0-1.62H47.256V24.611h5.185a.81.81,0,0,0,0-1.62H47.256V19.9h5.185a.81.81,0,0,0,0-1.62H47.256V15.19h5.185a.81.81,0,0,0,0-1.62H47.256V8.029h9.293V34.088a.81.81,0,0,0,.81.81ZM5.289,4.7a3.083,3.083,0,0,1,3.08-3.08h3.294V40.611H8.369a4.68,4.68,0,0,0-3.08,1.153V4.7Zm3.08,37.531h1.877a4.691,4.691,0,0,0,0,6.16H8.369a3.08,3.08,0,1,1,0-6.16Zm4.436,9.8H8.369a3.083,3.083,0,0,1-3.08-3.08v-.095a4.679,4.679,0,0,0,3.08,1.154H12.8v2.02Zm5.567,1.183-1.513-1.047a.81.81,0,0,0-.922,0l-1.513,1.047V45.9h3.947ZM45.636,45.9v6.127H19.992v-2.02h2.936a.81.81,0,1,0,0-1.62H19.992v-3.3a.81.81,0,0,0-.81-.81H13.615a.81.81,0,0,0-.81.81v3.133a3.079,3.079,0,0,1,.988-6H42.211v2.053H35.6a.81.81,0,0,0,0,1.62h6.613v2.487h-15.5a.81.81,0,1,0,0,1.62H42.7a1.135,1.135,0,0,0,1.134-1.134V45.9Zm0-5.293H13.283V1.62H45.636Z" transform="translate(-3.669 0)"/>
        <path id="Trazado_1179233" data-name="Trazado 1179233" d="M111.87,68.139h26.188A1.135,1.135,0,0,0,139.192,67V43.3a.81.81,0,0,0-1.62,0V66.519H112.356V34.665h25.216V39.52a.81.81,0,0,0,1.62,0V34.179a1.135,1.135,0,0,0-1.134-1.134H111.87a1.135,1.135,0,0,0-1.134,1.134V67A1.135,1.135,0,0,0,111.87,68.139Z" transform="translate(-99.174 -29.476)"/>
        <path id="Trazado_1179234" data-name="Trazado 1179234" d="M193.081,93.222a1.135,1.135,0,0,0-1.134-1.134H180.6a1.135,1.135,0,0,0-1.134,1.134v5.157a1.135,1.135,0,0,0,1.134,1.134h11.343a1.135,1.135,0,0,0,1.134-1.134Zm-1.62,4.671H181.09V93.708h10.371Z" transform="translate(-160.485 -82.143)"/>
        <path id="Trazado_1179235" data-name="Trazado 1179235" d="M192.271,270.532H180.28a.81.81,0,1,0,0,1.62h11.991a.81.81,0,0,0,0-1.62Z" transform="translate(-160.485 -241.316)"/>
        <path id="Trazado_1179236" data-name="Trazado 1179236" d="M192.271,237.925H180.28a.81.81,0,1,0,0,1.62h11.991a.81.81,0,0,0,0-1.62Z" transform="translate(-160.485 -212.231)"/>
      </g>
    </g>
  </g>
</svg>
