<svg xmlns="http://www.w3.org/2000/svg" xmlns:xlink="http://www.w3.org/1999/xlink" width="103" height="103" viewBox="0 0 103 103">
  <defs>
    <filter id="Trazado_904820" x="0" y="0" width="103" height="103" filterUnits="userSpaceOnUse">
      <feOffset dy="3" input="SourceAlpha"/>
      <feGaussianBlur stdDeviation="3" result="blur"/>
      <feFlood flood-opacity="0.161"/>
      <feComposite operator="in" in2="blur"/>
      <feComposite in="SourceGraphic"/>
    </filter>
  </defs>
  <g id="Grupo_1226482" data-name="Grupo 1226482" transform="translate(-171 -1298)">
    <g id="Grupo_1225836" data-name="Grupo 1225836" transform="translate(180 1304)">
      <g id="Grupo_1223019" data-name="Grupo 1223019">
        <g id="Grupo_1221049" data-name="Grupo 1221049">
          <g id="Grupo_1219296" data-name="Grupo 1219296" transform="translate(0)">
            <g id="Grupo_1218002" data-name="Grupo 1218002">
              <g id="Grupo_1211578" data-name="Grupo 1211578">
                <g id="Grupo_1207774" data-name="Grupo 1207774">
                  <g id="Grupo_1206630" data-name="Grupo 1206630">
                    <g id="Grupo_1185091" data-name="Grupo 1185091">
                      <g id="Grupo_1179560" data-name="Grupo 1179560">
                        <g id="Grupo_1173787" data-name="Grupo 1173787">
                          <g id="Grupo_1171910" data-name="Grupo 1171910">
                            <g id="Grupo_1167341" data-name="Grupo 1167341">
                              <g id="Grupo_1166792" data-name="Grupo 1166792">
                                <g transform="matrix(1, 0, 0, 1, -9, -6)" filter="url(#Trazado_904820)">
                                  <g id="Trazado_904820-2" data-name="Trazado 904820" transform="translate(9 6)" fill="#e5f0f6">
                                    <path d="M 42.49999618530273 83.50018310546875 C 36.96437454223633 83.50018310546875 31.59512519836426 82.41635894775391 26.54140853881836 80.27880859375 C 21.65933799743652 78.2138671875 17.27447891235352 75.25739288330078 13.50861930847168 71.49153137207031 C 9.742773056030273 67.72567749023438 6.786314010620117 63.34079360961914 4.721360683441162 58.45870971679688 C 2.583819627761841 53.40498352050781 1.499996185302734 48.03572463989258 1.499996185302734 42.50008773803711 C 1.499996185302734 36.96445083618164 2.583819627761841 31.59519386291504 4.721360683441162 26.54146385192871 C 6.786314010620117 21.65938186645508 9.742773056030273 17.27451133728027 13.50861930847168 13.50865268707275 C 17.27447891235352 9.742794036865234 21.65933799743652 6.786323070526123 26.54140853881836 4.721381664276123 C 31.59512519836426 2.583828926086426 36.96437454223633 1.50000536441803 42.49999618530273 1.50000536441803 C 48.03561782836914 1.50000536441803 53.40486526489258 2.583828926086426 58.45858383178711 4.721381664276123 C 63.34065628051758 6.786323070526123 67.72551727294922 9.742794036865234 71.49137115478516 13.50865268707275 C 75.25721740722656 17.27451133728027 78.21367645263672 21.65938186645508 80.27863311767578 26.54146385192871 C 82.41617584228516 31.59519386291504 83.5 36.96445083618164 83.5 42.50008773803711 C 83.5 48.03572463989258 82.41617584228516 53.40498352050781 80.27863311767578 58.45870971679688 C 78.21367645263672 63.34079360961914 75.25721740722656 67.72567749023438 71.49137115478516 71.49153137207031 C 67.72551727294922 75.25739288330078 63.34065628051758 78.2138671875 58.45858383178711 80.27880859375 C 53.40486526489258 82.41635894775391 48.03561782836914 83.50018310546875 42.49999618530273 83.50018310546875 Z" stroke="none"/>
                                    <path d="M 42.49999618530273 2.999992370605469 C 37.16621017456055 2.999992370605469 31.99356842041016 4.043952941894531 27.1257438659668 6.102874755859375 C 22.42246246337891 8.092193603515625 18.19786071777344 10.94071197509766 14.56929016113281 14.56929779052734 C 10.94070434570312 18.19789123535156 8.092193603515625 22.42250061035156 6.102874755859375 27.12579345703125 C 4.043952941894531 31.99362182617188 2.999992370605469 37.16628646850586 2.999992370605469 42.50008773803711 C 2.999992370605469 47.83388900756836 4.043952941894531 53.00653839111328 6.102874755859375 57.87438201904297 C 8.092193603515625 62.57765960693359 10.94070434570312 66.80227661132812 14.56929016113281 70.43086242675781 C 18.19786071777344 74.0594482421875 22.42246246337891 76.90796661376953 27.1257438659668 78.89728546142578 C 31.99356842041016 80.95620727539062 37.16621017456055 82.00016784667969 42.49999618530273 82.00016784667969 C 47.83378219604492 82.00016784667969 53.00642395019531 80.95620727539062 57.87425231933594 78.89728546142578 C 62.57752990722656 76.90796661376953 66.80213165283203 74.0594482421875 70.43070220947266 70.43086242675781 C 74.05928802490234 66.80227661132812 76.90779876708984 62.57765960693359 78.89711761474609 57.87438201904297 C 80.95603942871094 53.00653839111328 82 47.83388900756836 82 42.50008773803711 C 82 37.16628646850586 80.95603942871094 31.99362182617188 78.89711761474609 27.12579345703125 C 76.90779876708984 22.42250061035156 74.05928802490234 18.19789123535156 70.43070220947266 14.56929779052734 C 66.80213165283203 10.94071197509766 62.57752990722656 8.092193603515625 57.87425231933594 6.102874755859375 C 53.00642395019531 4.043952941894531 47.83378219604492 2.999992370605469 42.49999618530273 2.999992370605469 M 42.49999618530273 -7.62939453125e-06 C 65.97209167480469 -7.62939453125e-06 85 19.02793884277344 85 42.50008773803711 C 85 65.97223663330078 65.97209167480469 85.00016784667969 42.49999618530273 85.00016784667969 C 19.02790069580078 85.00016784667969 -7.62939453125e-06 65.97223663330078 -7.62939453125e-06 42.50008773803711 C -7.62939453125e-06 19.02793884277344 19.02790069580078 -7.62939453125e-06 42.49999618530273 -7.62939453125e-06 Z" stroke="none" fill="#cbd0dc"/>
                                  </g>
                                </g>
                              </g>
                            </g>
                          </g>
                        </g>
                      </g>
                    </g>
                  </g>
                </g>
              </g>
            </g>
          </g>
        </g>
      </g>
    </g>
    <g id="sistema-legal" transform="translate(169.509 1319.035)">
      <g id="Grupo_1226481" data-name="Grupo 1226481" transform="translate(29.932 0.843)">
        <g id="Grupo_1226479" data-name="Grupo 1226479">
          <path id="Trazado_1180054" data-name="Trazado 1180054" d="M90.36,8l33.044.173A1.03,1.03,0,0,1,124.426,9.2V52.459a1.03,1.03,0,0,1-1.028,1.028H90.354a1.03,1.03,0,0,1-1.028-1.028V9.028A1.028,1.028,0,0,1,90.36,8Z" transform="translate(-83.823 -8)" fill="#d1d1d6" fill-rule="evenodd"/>
          <path id="Trazado_1180055" data-name="Trazado 1180055" d="M90.359,8l1.976.01V53.487H90.354a1.03,1.03,0,0,1-1.028-1.028V9.028A1.028,1.028,0,0,1,90.359,8Z" transform="translate(-83.823 -8)" fill="#a0a0a3" fill-rule="evenodd"/>
          <path id="Trazado_1180056" data-name="Trazado 1180056" d="M38.111,60.249l33.044.173a1.03,1.03,0,0,1,1.023,1.028v43.259a1.03,1.03,0,0,1-1.028,1.028H38.105a1.03,1.03,0,0,1-1.028-1.028V61.277a1.028,1.028,0,0,1,1.034-1.028Z" transform="translate(-37.077 -54.745)" fill="#eceff1" fill-rule="evenodd"/>
          <path id="Trazado_1180057" data-name="Trazado 1180057" d="M38.111,60.249l1.976.01v45.477H38.105a1.03,1.03,0,0,1-1.028-1.028V61.277a1.028,1.028,0,0,1,1.034-1.028Z" transform="translate(-37.077 -54.745)" fill="#d1d1d6" fill-rule="evenodd"/>
          <path id="Trazado_1180058" data-name="Trazado 1180058" d="M262.778,60.2h6.636v7.546a.308.308,0,0,1-.481.256l-2.528-1.7a.3.3,0,0,0-.337,0l-2.817,1.78a.308.308,0,0,1-.473-.261V60.2Z" transform="translate(-239.005 -54.7)" fill="#ffd064" fill-rule="evenodd"/>
          <path id="Trazado_1180059" data-name="Trazado 1180059" d="M316.021,60.351v7.279l.547.369a.308.308,0,0,0,.481-.256V60.2h-1.028Z" transform="translate(-286.64 -54.699)" fill="#ffc338" fill-rule="evenodd"/>
        </g>
        <g id="Grupo_1226480" data-name="Grupo 1226480" transform="translate(15.476 24.429)">
          <path id="Trazado_1180060" data-name="Trazado 1180060" d="M196.652,461.37l-.671-2.98a.85.85,0,0,0-.853-.638h-9.595a.85.85,0,0,0-.853.638l-.671,2.98Z" transform="translate(-184.009 -434.807)" fill="#837683" fill-rule="evenodd"/>
          <path id="Trazado_1180061" data-name="Trazado 1180061" d="M282.361,461.37l-.671-2.98a.85.85,0,0,0-.853-.638h-1.028a.85.85,0,0,1,.853.638l.671,2.98Z" transform="translate(-269.718 -434.807)" fill="#685e68" fill-rule="evenodd"/>
          <path id="Trazado_1180062" data-name="Trazado 1180062" d="M304.662,331.281,302.2,333.74l14.6,15.321a1.269,1.269,0,0,0,.87.41,1.067,1.067,0,0,0,.849-.314l1.553-1.553a1.068,1.068,0,0,0,.314-.849,1.269,1.269,0,0,0-.41-.87Z" transform="translate(-289.754 -321.659)" fill="#e3a76f" fill-rule="evenodd"/>
          <path id="Trazado_1180063" data-name="Trazado 1180063" d="M319.373,331.28l-.727.727,15.321,14.6a1.269,1.269,0,0,1,.41.87,1.068,1.068,0,0,1-.314.849l.727-.727a1.068,1.068,0,0,0,.314-.849,1.269,1.269,0,0,0-.41-.87Z" transform="translate(-304.465 -321.658)" fill="#c48958" fill-rule="evenodd"/>
          <path id="Trazado_1180064" data-name="Trazado 1180064" d="M245.192,271.78c.888-.754,1.965-1.572,3.465-2.688l-5.244-5.244c-3.425,4.6-4.038,5.217-8.642,8.642l5.244,5.244c1.116-1.5,1.934-2.577,2.688-3.465A20.475,20.475,0,0,1,245.192,271.78Z" transform="translate(-229.424 -261.328)" fill="#c48958" fill-rule="evenodd"/>
          <path id="Trazado_1180065" data-name="Trazado 1180065" d="M244.141,264.575l-.727-.727c-3.425,4.6-4.038,5.217-8.642,8.642l.727.727C240.1,269.792,240.715,269.179,244.141,264.575Z" transform="translate(-229.424 -261.328)" fill="#ab7448" fill-rule="evenodd"/>
          <path id="Trazado_1180066" data-name="Trazado 1180066" d="M306.391,240.183l-1.243,1.243a.881.881,0,0,0,0,1.243l6.022,6.022a.881.881,0,0,0,1.243,0l1.243-1.243a.881.881,0,0,0,0-1.243l-6.022-6.022A.881.881,0,0,0,306.391,240.183Z" transform="translate(-292.159 -239.926)" fill="#e3a76f" fill-rule="evenodd"/>
          <path id="Trazado_1180067" data-name="Trazado 1180067" d="M312.949,240.183l-.727.727a.881.881,0,0,1,1.242,0l6.022,6.022a.881.881,0,0,1,0,1.243l.727-.727a.881.881,0,0,0,0-1.243l-6.022-6.022A.881.881,0,0,0,312.949,240.183Z" transform="translate(-298.717 -239.926)" fill="#c48958" fill-rule="evenodd"/>
          <path id="Trazado_1180068" data-name="Trazado 1180068" d="M212.349,334.224l-1.243,1.243a.881.881,0,0,0,0,1.242l6.022,6.022a.881.881,0,0,0,1.243,0l1.243-1.243a.881.881,0,0,0,0-1.243l-6.022-6.022A.881.881,0,0,0,212.349,334.224Z" transform="translate(-208.023 -324.063)" fill="#e3a76f" fill-rule="evenodd"/>
          <path id="Trazado_1180069" data-name="Trazado 1180069" d="M218.371,349.289l.727-.727a.881.881,0,0,1-1.242,0l-6.022-6.022a.881.881,0,0,1,0-1.243l-.727.727a.881.881,0,0,0,0,1.243l6.022,6.022A.881.881,0,0,0,218.371,349.289Z" transform="translate(-208.023 -330.62)" fill="#c48958" fill-rule="evenodd"/>
        </g>
      </g>
      <path id="Trazado_1180070" data-name="Trazado 1180070" d="M75.2,50.415a.457.457,0,0,0-.149-.307L61.185,36.9c-.464.43-.9.866-1.331,1.33L73.068,52.093a.427.427,0,0,0,.308.149.223.223,0,0,0,.2-.069l1.555-1.553A.231.231,0,0,0,75.2,50.415Zm-11.018-5.2v5.773H58.723L58.2,48.669a1.685,1.685,0,0,0-1.674-1.3H46.932a1.687,1.687,0,0,0-1.675,1.3l-.522,2.323H30.776V7.193l22.086.115v7.208a.843.843,0,0,0,1.292.713l3-1.893,2.718,1.833a.843.843,0,0,0,1.315-.7V7.351l3,.016V27.645l-2.71-2.71a1.723,1.723,0,0,0-2.434,0L57.8,26.178a1.723,1.723,0,0,0-.038,2.392A25.23,25.23,0,0,1,51.53,34.8a1.722,1.722,0,0,0-2.392.038L47.9,36.082a1.723,1.723,0,0,0,0,2.434l6.021,6.022a1.723,1.723,0,0,0,2.435,0l1.243-1.243a1.722,1.722,0,0,0,.039-2.391c.386-.507.752-.969,1.109-1.4ZM57,50.992l-.434-1.928a.1.1,0,0,0-.035-.005H46.932a.1.1,0,0,0-.036.005l-.434,1.928ZM54.547,12.986l2.167-1.369a.846.846,0,0,1,.922.014L59.5,12.886V7.343l-4.951-.026Zm7.912,22.8c.433-.358.9-.725,1.405-1.113a1.741,1.741,0,0,0,.322.237v2.522Zm-2.175-9.66a.034.034,0,0,0-.026-.009.035.035,0,0,0-.025.009l-1.242,1.243a.039.039,0,0,0,0,.051l6.022,6.022a.038.038,0,0,0,.051,0L66.306,32.2a.038.038,0,0,0,0-.05Zm-9.9,9.905a.039.039,0,0,0-.051,0l-1.243,1.242a.04.04,0,0,0,0,.05l6.021,6.022a.039.039,0,0,0,.051,0L56.4,42.1a.04.04,0,0,0,0-.052Zm12.28-2.559A29.889,29.889,0,0,0,56.432,39.7l-3.7-3.7a26.236,26.236,0,0,0,6.227-6.227ZM36.278,5.536V1.685H69.69V42.673l-3.818-3.636V34.92a1.679,1.679,0,0,0,.384-.288L67.5,33.391a1.724,1.724,0,0,0,0-2.434L65.872,29.33V6.529a.842.842,0,0,0-.837-.843ZM76.327,51.813l-1.555,1.552a1.885,1.885,0,0,1-1.366.564c-.04,0-.084,0-.124,0a2.112,2.112,0,0,1-1.433-.671l-5.976-6.269v4.848a.843.843,0,0,1-.843.843h-35.1a.843.843,0,0,1-.842-.843V6.345a.843.843,0,0,1,.842-.843h0l4.656.024V.843A.842.842,0,0,1,35.436,0h35.1a.842.842,0,0,1,.842.843V44.278l4.838,4.609a2.122,2.122,0,0,1,.676,1.434A1.917,1.917,0,0,1,76.327,51.813ZM37.1,15.143h8.512a.843.843,0,0,0,0-1.685H37.1a.843.843,0,0,0,0,1.685Zm8.512,28.923H37.1a.843.843,0,1,0,0,1.685h8.512a.843.843,0,1,0,0-1.685Zm0-6.121H37.1a.843.843,0,0,0,0,1.686h8.512a.843.843,0,0,0,0-1.686Zm0-6.122H37.1a.843.843,0,0,0,0,1.685h8.512a.843.843,0,0,0,0-1.685Zm7.974-5.279a.843.843,0,0,0-.843-.843H37.1a.843.843,0,0,0,0,1.685H52.739a.843.843,0,0,0,.843-.843ZM36.253,20.423a.843.843,0,0,0,.843.843H57.868a.843.843,0,0,0,0-1.685H37.1a.842.842,0,0,0-.843.843Z" fill-rule="evenodd"/>
    </g>
  </g>
</svg>
