<svg xmlns="http://www.w3.org/2000/svg" xmlns:xlink="http://www.w3.org/1999/xlink" width="93.934" height="93.934" viewBox="0 0 93.934 93.934">
  <defs>
    <filter id="Trazado_982547" x="0" y="0" width="93.934" height="93.934" filterUnits="userSpaceOnUse">
      <feOffset dy="3" input="SourceAlpha"/>
      <feGaussianBlur stdDeviation="3" result="blur"/>
      <feFlood flood-opacity="0.161"/>
      <feComposite operator="in" in2="blur"/>
      <feComposite in="SourceGraphic"/>
    </filter>
  </defs>
  <g id="Grupo_1226069" data-name="Grupo 1226069" transform="translate(-191.067 -1114.501)">
    <g id="Grupo_1224717" data-name="Grupo 1224717" transform="translate(200.067 1120.501)">
      <g id="Grupo_1220442" data-name="Grupo 1220442">
        <g id="Grupo_1219557" data-name="Grupo 1219557">
          <g id="Grupo_1214714" data-name="Grupo 1214714">
            <g id="Grupo_1214432" data-name="Grupo 1214432">
              <g id="Grupo_1183196" data-name="Grupo 1183196">
                <g id="Grupo_1179610" data-name="Grupo 1179610">
                  <g id="Grupo_1175227" data-name="Grupo 1175227">
                    <g id="Grupo_1167337" data-name="Grupo 1167337">
                      <g id="Grupo_1166720" data-name="Grupo 1166720">
                        <g id="Grupo_1164305" data-name="Grupo 1164305">
                          <g id="Grupo_1163948" data-name="Grupo 1163948">
                            <g id="Grupo_1158168" data-name="Grupo 1158168">
                              <g id="Grupo_1152576" data-name="Grupo 1152576">
                                <g id="Grupo_1148633" data-name="Grupo 1148633">
                                  <g id="Grupo_1148525" data-name="Grupo 1148525">
                                    <g transform="matrix(1, 0, 0, 1, -9, -6)" filter="url(#Trazado_982547)">
                                      <g id="Trazado_982547-2" data-name="Trazado 982547" transform="translate(9 6)" fill="#f7f4ed">
                                        <path d="M 37.966796875 74.43359375 C 33.04315185546875 74.43359375 28.26757431030273 73.46962738037109 23.77274131774902 71.56847381591797 C 19.43047523498535 69.73184967041016 15.53040790557861 67.10224914550781 12.18087482452393 63.75271987915039 C 8.831341743469238 60.4031867980957 6.201741218566895 56.50312042236328 4.365118980407715 52.16086196899414 C 2.463963508605957 47.66601943969727 1.499996900558472 42.89044189453125 1.499996900558472 37.966796875 C 1.499996900558472 33.04315185546875 2.463963508605957 28.26757431030273 4.365118980407715 23.77274131774902 C 6.201741218566895 19.43047523498535 8.831341743469238 15.53040790557861 12.18087482452393 12.18087482452393 C 15.53040790557861 8.831341743469238 19.43047523498535 6.201741218566895 23.77274131774902 4.365118980407715 C 28.26757431030273 2.463963508605957 33.04315185546875 1.499996900558472 37.966796875 1.499996900558472 C 42.89044189453125 1.499996900558472 47.66601943969727 2.463963508605957 52.16086196899414 4.365118980407715 C 56.50312042236328 6.201741218566895 60.4031867980957 8.831341743469238 63.75271987915039 12.18087482452393 C 67.10224914550781 15.53040790557861 69.73184967041016 19.43047523498535 71.56847381591797 23.77274131774902 C 73.46962738037109 28.26757431030273 74.43359375 33.04315185546875 74.43359375 37.966796875 C 74.43359375 42.89044189453125 73.46962738037109 47.66601943969727 71.56847381591797 52.16086196899414 C 69.73184967041016 56.50313186645508 67.10224914550781 60.4031867980957 63.75271987915039 63.75271987915039 C 60.4031867980957 67.10224914550781 56.50313186645508 69.73184967041016 52.16086196899414 71.56847381591797 C 47.66601943969727 73.46962738037109 42.89044189453125 74.43359375 37.966796875 74.43359375 Z" stroke="none"/>
                                        <path d="M 37.966796875 3 C 33.2449836730957 3 28.66600799560547 3.924095153808594 24.35705947875977 5.746635437011719 C 20.19359588623047 7.507637023925781 16.45379638671875 10.02928161621094 13.24153518676758 13.24153518676758 C 10.02927398681641 16.45379638671875 7.507621765136719 20.19359588623047 5.746635437011719 24.35705947875977 C 3.924095153808594 28.66600799560547 3 33.2449836730957 3 37.966796875 C 3 42.6886100769043 3.924095153808594 47.26758575439453 5.746635437011719 51.57653427124023 C 7.507621765136719 55.73999786376953 10.02927398681641 59.47979736328125 13.24153518676758 62.69205856323242 C 16.45379638671875 65.90431976318359 20.19359588623047 68.42597198486328 24.35705947875977 70.18695831298828 C 28.66600799560547 72.00949859619141 33.2449836730957 72.93359375 37.966796875 72.93359375 C 42.6886100769043 72.93359375 47.26758575439453 72.00949859619141 51.57653427124023 70.18695831298828 C 55.73999786376953 68.42597198486328 59.47979736328125 65.90431976318359 62.69205856323242 62.69205856323242 C 65.90431976318359 59.47979736328125 68.42597198486328 55.73999786376953 70.18695831298828 51.57653427124023 C 72.00949859619141 47.26758575439453 72.93359375 42.6886100769043 72.93359375 37.966796875 C 72.93359375 33.2449836730957 72.00949859619141 28.66600799560547 70.18695831298828 24.35705947875977 C 68.42597198486328 20.19359588623047 65.90431976318359 16.45379638671875 62.69205856323242 13.24153518676758 C 59.47979736328125 10.02928161621094 55.73999786376953 7.507637023925781 51.57653427124023 5.746635437011719 C 47.26758575439453 3.924095153808594 42.6886100769043 3 37.966796875 3 M 37.966796875 0 C 58.93528366088867 0 75.93359375 16.99832153320312 75.93359375 37.966796875 C 75.93359375 58.93528366088867 58.93528366088867 75.93359375 37.966796875 75.93359375 C 16.99831008911133 75.93359375 0 58.93528366088867 0 37.966796875 C 0 16.99832153320312 16.99831008911133 0 37.966796875 0 Z" stroke="none" fill="#655531"/>
                                      </g>
                                    </g>
                                  </g>
                                </g>
                              </g>
                            </g>
                          </g>
                        </g>
                      </g>
                    </g>
                  </g>
                </g>
              </g>
            </g>
          </g>
        </g>
      </g>
    </g>
    <g id="ley_5_" data-name="ley (5)" transform="translate(210 1117.807)">
      <g id="Grupo_1226060" data-name="Grupo 1226060" transform="translate(11.31 43.832)">
        <g id="Grupo_1226055" data-name="Grupo 1226055" transform="translate(0 2.773)">
          <path id="Trazado_1179003" data-name="Trazado 1179003" d="M143.4,356.4a8.828,8.828,0,0,0,2.119,5.814H113.576a1.011,1.011,0,0,1-.825-.422,10.291,10.291,0,0,1,0-10.783,1.011,1.011,0,0,1,.825-.422H145.52A8.828,8.828,0,0,0,143.4,356.4Z" transform="translate(-111.226 -350.585)" fill="#fb3a82"/>
          <path id="Trazado_1179004" data-name="Trazado 1179004" d="M120.975,350.587l-9.008,9.758a10.208,10.208,0,0,1-.737-3.944,9.226,9.226,0,0,1,1.525-5.392,1.009,1.009,0,0,1,.825-.422Z" transform="translate(-111.23 -350.587)" fill="#fb1466"/>
          <path id="Trazado_1179005" data-name="Trazado 1179005" d="M177.966,356.4a8.828,8.828,0,0,0,2.119,5.814h-32.43a10,10,0,0,1,0-11.627h32.43A8.828,8.828,0,0,0,177.966,356.4Z" transform="translate(-142.276 -350.585)" fill="#e0d3ce"/>
          <g id="Grupo_1226054" data-name="Grupo 1226054" transform="translate(3.515 0)">
            <path id="Trazado_1179006" data-name="Trazado 1179006" d="M152.021,350.587l-6.2,6.713c-.021-.287-.034-.587-.034-.9a8.519,8.519,0,0,1,1.864-5.814Z" transform="translate(-145.79 -350.587)" fill="#cdbfbb"/>
            <path id="Trazado_1179007" data-name="Trazado 1179007" d="M428.242,356.405a8.826,8.826,0,0,0,2.119,5.813h-3.843a9.032,9.032,0,0,1,0-11.626h3.843A8.824,8.824,0,0,0,428.242,356.405Z" transform="translate(-396.066 -350.591)" fill="#cdbfbb"/>
          </g>
        </g>
        <g id="Grupo_1226059" data-name="Grupo 1226059" transform="translate(4.376)">
          <g id="Grupo_1226057" data-name="Grupo 1226057" transform="translate(0)">
            <path id="Trazado_1179008" data-name="Trazado 1179008" d="M189.876,325.005a1.687,1.687,0,0,1-1.687,1.687H155.947a1.688,1.688,0,0,1,0-3.375h32.242a1.688,1.688,0,0,1,1.687,1.688Z" transform="translate(-154.26 -323.317)" fill="#fb3a82"/>
            <g id="Grupo_1226056" data-name="Grupo 1226056">
              <path id="Trazado_1179009" data-name="Trazado 1179009" d="M162.189,323.317l-3.115,3.375h-3.127a1.688,1.688,0,0,1,0-3.375Z" transform="translate(-154.26 -323.317)" fill="#fb1466"/>
              <path id="Trazado_1179010" data-name="Trazado 1179010" d="M460.674,325.008a1.689,1.689,0,0,1-1.688,1.688h-3.273a1.688,1.688,0,0,0,0-3.375h3.273A1.688,1.688,0,0,1,460.674,325.008Z" transform="translate(-425.057 -323.321)" fill="#fb1466"/>
            </g>
          </g>
          <g id="Grupo_1226058" data-name="Grupo 1226058" transform="translate(0 13.798)">
            <path id="Trazado_1179011" data-name="Trazado 1179011" d="M188.186,462.371H155.944a1.688,1.688,0,1,1,0-3.375h32.242a1.687,1.687,0,0,1,0,3.375Z" transform="translate(-154.257 -458.996)" fill="#fb3a82"/>
            <path id="Trazado_1179012" data-name="Trazado 1179012" d="M460.674,460.687a1.687,1.687,0,0,1-1.688,1.687h-3.273a1.687,1.687,0,0,0,0-3.374h3.273A1.688,1.688,0,0,1,460.674,460.687Z" transform="translate(-425.057 -459)" fill="#fb1466"/>
          </g>
        </g>
      </g>
      <g id="Grupo_1226068" data-name="Grupo 1226068" transform="translate(-0.001 12.193)">
        <g id="Grupo_1226063" data-name="Grupo 1226063" transform="translate(0.763 20.155)">
          <g id="Grupo_1226061" data-name="Grupo 1226061" transform="translate(0 6.455)">
            <path id="Trazado_1179013" data-name="Trazado 1179013" d="M29.714,276.581l-2.724-2.724L8.445,290.977a2.937,2.937,0,1,0,4.15,4.15Z" transform="translate(-7.5 -273.857)" fill="#873f30"/>
            <path id="Trazado_1179014" data-name="Trazado 1179014" d="M13.786,302.613a2.938,2.938,0,0,1-4.152,0,2.908,2.908,0,0,1-.716-1.17,2.932,2.932,0,0,0,2.98-.714c.028-.028.056-.058.084-.087L29.1,282.1l1.886,1.886-17.12,18.545C13.841,302.557,13.814,302.586,13.786,302.613Z" transform="translate(-8.774 -281.258)" fill="#6c3328"/>
          </g>
          <path id="Trazado_1179015" data-name="Trazado 1179015" d="M196.909,210.382l-6.273,7.483,2.563,2.563,7.483-6.273Z" transform="translate(-172.012 -210.382)" fill="#873f30"/>
          <path id="Trazado_1179016" data-name="Trazado 1179016" d="M205.826,210.382,203.8,212.8l.608.608a1.146,1.146,0,0,1,0,1.621l-3.845,3.845,1.553,1.553,7.483-6.273Z" transform="translate(-180.929 -210.382)" fill="#6c3328"/>
          <g id="Grupo_1226062" data-name="Grupo 1226062" transform="translate(16.548 5.951)">
            <path id="Trazado_1179017" data-name="Trazado 1179017" d="M173.249,274.53l-2.488-2.488a1.842,1.842,0,0,1,2.6-2.6l2.488,2.488a1.842,1.842,0,1,1-2.6,2.6Z" transform="translate(-170.222 -268.899)" fill="#ba5d4f"/>
            <path id="Trazado_1179018" data-name="Trazado 1179018" d="M185.931,284.613a1.841,1.841,0,0,1-2.6,0l-1.885-1.885a1.842,1.842,0,0,0,2.6-2.6l1.886,1.885A1.841,1.841,0,0,1,185.931,284.613Z" transform="translate(-180.3 -278.982)" fill="#a34f41"/>
          </g>
        </g>
        <g id="Grupo_1226064" data-name="Grupo 1226064" transform="translate(20.238 3.052)">
          <path id="Trazado_1179019" data-name="Trazado 1179019" d="M0,0H7.813V12.265H0Z" transform="translate(8.672 0) rotate(45)" fill="#ba5d4f"/>
          <path id="Trazado_1179020" data-name="Trazado 1179020" d="M0,0H7.813V12.265H0Z" transform="translate(17.623 26.302) rotate(-135)" fill="#a34f41"/>
        </g>
        <g id="Grupo_1226067" data-name="Grupo 1226067" transform="translate(0 0)">
          <path id="Trazado_1179021" data-name="Trazado 1179021" d="M177.217,32.558l-.192-.192a1.863,1.863,0,0,1,0-2.635l9.492-9.492a1.863,1.863,0,0,1,2.635,0l.192.192a1.863,1.863,0,0,1,0,2.635l-9.492,9.492A1.863,1.863,0,0,1,177.217,32.558Z" transform="translate(-158.533 -18.931)" fill="#873f30"/>
          <path id="Trazado_1179022" data-name="Trazado 1179022" d="M348.789,204.129l.192.192a1.863,1.863,0,0,0,2.635,0l9.492-9.492a1.863,1.863,0,0,0,0-2.635l-.192-.192a1.863,1.863,0,0,0-2.635,0l-9.492,9.492A1.863,1.863,0,0,0,348.789,204.129Z" transform="translate(-312.829 -173.227)" fill="#6c3328"/>
          <g id="Grupo_1226066" data-name="Grupo 1226066">
            <path id="Trazado_1179023" data-name="Trazado 1179023" d="M0,0H8.774V18.525H0Z" transform="translate(36.831 6.546) rotate(45)" fill="#fcc16d"/>
            <path id="Trazado_1179024" data-name="Trazado 1179024" d="M0,0H18.525V4.441H0Z" transform="translate(26.793 22.714) rotate(-45)" fill="#fca62f"/>
            <path id="Trazado_1179025" data-name="Trazado 1179025" d="M237.769,67.591l-1.52-.621a1.4,1.4,0,0,0-1.517.305L224.061,77.946a1.4,1.4,0,0,0-.305,1.517l.621,1.52a.931.931,0,0,0,1.521.306l12.177-12.177A.932.932,0,0,0,237.769,67.591Z" transform="translate(-200.908 -61.306)" fill="#873f30"/>
            <path id="Trazado_1179026" data-name="Trazado 1179026" d="M302.391,132.214l.621,1.52a1.4,1.4,0,0,1-.305,1.517l-10.671,10.671a1.4,1.4,0,0,1-1.517.305l-1.52-.621a.931.931,0,0,1-.306-1.521l12.177-12.177A.932.932,0,0,1,302.391,132.214Z" transform="translate(-259.09 -119.489)" fill="#6c3328"/>
            <g id="Grupo_1226065" data-name="Grupo 1226065">
              <path id="Trazado_1179027" data-name="Trazado 1179027" d="M49.616,56.867h-.567a7.888,7.888,0,0,1-.657-1.252.763.763,0,0,0-1.409.584c.094.228.2.45.311.669H17.374a2.44,2.44,0,0,0-.665.092,8.866,8.866,0,0,1-1.121-4.541c0-.333.015-.66.043-.982H30.245a.763.763,0,0,0,0-1.525H16.274l1.792-1.941H47.289a9.521,9.521,0,0,0-.734,1.941H36.529a.763.763,0,0,0,0,1.525h9.758c-.03.31-.047.623-.049.939a.763.763,0,0,0,.76.766h0a.763.763,0,0,0,.763-.759,8.161,8.161,0,0,1,1.283-4.412h.569a2.45,2.45,0,1,0,0-4.9H40.082l8.735-8.735a2.626,2.626,0,0,0,0-3.713l-.192-.192a2.624,2.624,0,0,0-3.578-.125l-1.35-1.35.46-.46a2.155,2.155,0,0,0,.472-2.345l-.621-1.52a1.69,1.69,0,0,0-1.227-1.018l-1.061-1.061a.763.763,0,0,0-1.079,1.079l.522.522-12.02,12.02-3.535-3.535,12.02-12.02.468.468a.763.763,0,1,0,1.079-1.079L38.167,19a1.691,1.691,0,0,0-1.018-1.227h0l-1.52-.621a2.156,2.156,0,0,0-2.345.472l-.46.46-1.35-1.35a2.624,2.624,0,0,0-.125-3.578l-.192-.192a2.626,2.626,0,0,0-3.713,0l-9.492,9.492a2.626,2.626,0,0,0,0,3.713l.192.192a2.625,2.625,0,0,0,3.579.125l1.35,1.35-.46.46a2.155,2.155,0,0,0-.472,2.345l.621,1.52a1.69,1.69,0,0,0,1.21,1.014l-3.824,4.562a2.606,2.606,0,0,0-3.442,3.3l-1.734,1.6a.763.763,0,0,0,1.035,1.121l1.6-1.479L19.5,44.17,5.3,59.555a2.174,2.174,0,1,1-3.072-3.072L13.365,46.2a.763.763,0,0,0-1.035-1.121L1.189,55.362A3.7,3.7,0,0,0,3.7,61.779h.076a3.668,3.668,0,0,0,2.644-1.189l4.571-4.952a8.79,8.79,0,0,0,1.226,2.615A1.776,1.776,0,0,0,13.661,59h1.285a2.446,2.446,0,0,0,2.428,2.773H49.616a2.45,2.45,0,0,0,0-4.9Zm.925-11.347a.926.926,0,0,1-.925.925H19.474l1.268-1.373a2.607,2.607,0,0,0,2.6-.476H49.616a.926.926,0,0,1,.925.925Zm-23.009-8.8-4.416,3.7-1.756-1.756,3.7-4.416ZM24.2,43.07a2.619,2.619,0,0,0-.159-1.439l4.562-3.824a1.69,1.69,0,0,0,1.014,1.21l1.52.621a2.156,2.156,0,0,0,2.345-.472l.46-.46,1.35,1.35a2.631,2.631,0,0,0-.3,3.014H24.2ZM46.768,31.186a1.093,1.093,0,0,1,.778.322l.192.192a1.1,1.1,0,0,1,0,1.556l-9.492,9.492a1.1,1.1,0,0,1-1.556,0l-.192-.192A1.1,1.1,0,0,1,36.5,41l9.492-9.492a1.092,1.092,0,0,1,.778-.322Zm-2.805.192-7.594,7.594-1.345-1.345,7.594-7.594Zm-13.82,5.951L42.319,25.152a.16.16,0,0,1,.117-.05.186.186,0,0,1,.036,0,.162.162,0,0,1,.123.1l.621,1.52a.633.633,0,0,1-.139.689L32.407,38.087a.633.633,0,0,1-.689.139L30.2,37.6a.169.169,0,0,1-.056-.276ZM20,25.6a1.093,1.093,0,0,1-.778-.322l-.192-.192a1.1,1.1,0,0,1,0-1.556l9.492-9.492a1.1,1.1,0,0,1,1.556,0l.192.192a1.1,1.1,0,0,1,0,1.556l-9.492,9.492A1.094,1.094,0,0,1,20,25.6Zm2.805-.192L30.4,17.816l1.345,1.345-7.594,7.594Zm.885,3.962L34.363,18.7a.633.633,0,0,1,.689-.139l1.52.621a.169.169,0,0,1,.055.276L24.45,31.637a.169.169,0,0,1-.276-.056l-.621-1.52a.633.633,0,0,1,.139-.689ZM18.073,40.14a1.079,1.079,0,0,1,1.842-.763L22.4,41.865a1.079,1.079,0,1,1-1.526,1.526L18.389,40.9a1.072,1.072,0,0,1-.316-.763ZM13.457,57.368a7.7,7.7,0,0,1-1.222-3.082l1.828-1.98c0,.038,0,.075,0,.113a10.582,10.582,0,0,0,1.183,5.051H13.661A.248.248,0,0,1,13.457,57.368Zm36.158,2.874H17.374a.925.925,0,1,1,0-1.85H49.616a.925.925,0,0,1,0,1.85Z" transform="translate(0.001 -12.193)"/>
              <path id="Trazado_1179028" data-name="Trazado 1179028" d="M203.09,417.166a.763.763,0,0,0,0,1.525h17.769a.763.763,0,0,0,0-1.525Z" transform="translate(-181.752 -375.983)"/>
            </g>
          </g>
        </g>
      </g>
    </g>
  </g>
</svg>
