<svg xmlns="http://www.w3.org/2000/svg" xmlns:xlink="http://www.w3.org/1999/xlink" width="108" height="108" viewBox="0 0 108 108">
  <defs>
    <filter id="Trazado_904820" x="0" y="0" width="108" height="108" filterUnits="userSpaceOnUse">
      <feOffset dy="3" input="SourceAlpha"/>
      <feGaussianBlur stdDeviation="3" result="blur"/>
      <feFlood flood-opacity="0.161"/>
      <feComposite operator="in" in2="blur"/>
      <feComposite in="SourceGraphic"/>
    </filter>
  </defs>
  <g id="Grupo_1226488" data-name="Grupo 1226488" transform="translate(-619 -4156.513)">
    <g id="Grupo_1225990" data-name="Grupo 1225990" transform="translate(628 4162.513)">
      <g id="Grupo_1223182" data-name="Grupo 1223182" transform="translate(0 0)">
        <g id="Grupo_1221443" data-name="Grupo 1221443">
          <g id="Grupo_1220569" data-name="Grupo 1220569">
            <g id="Grupo_1219977" data-name="Grupo 1219977">
              <g id="Grupo_1219603" data-name="Grupo 1219603">
                <g id="Grupo_1202655" data-name="Grupo 1202655">
                  <g id="Grupo_1173585" data-name="Grupo 1173585">
                    <g id="Grupo_1173428" data-name="Grupo 1173428">
                      <g id="Grupo_1171958" data-name="Grupo 1171958">
                        <g id="Grupo_1167341" data-name="Grupo 1167341">
                          <g id="Grupo_1166792" data-name="Grupo 1166792">
                            <g transform="matrix(1, 0, 0, 1, -9, -6)" filter="url(#Trazado_904820)">
                              <g id="Trazado_904820-2" data-name="Trazado 904820" transform="translate(9 6)" fill="#f7f4ed">
                                <path d="M 44.99999618530273 88.49990081787109 C 39.12687301635742 88.49990081787109 33.43022155761719 87.3499755859375 28.06829643249512 85.08207702636719 C 22.88852119445801 82.89122009277344 18.23629570007324 79.75450134277344 14.24084663391113 75.75906372070312 C 10.24540901184082 71.76361846923828 7.108683586120605 67.11140441894531 4.917821407318115 61.931640625 C 2.649921178817749 56.56971740722656 1.499996185302734 50.87306594848633 1.499996185302734 44.99995422363281 C 1.499996185302734 39.1268424987793 2.649921178817749 33.43019104003906 4.917821407318115 28.06826591491699 C 7.108683586120605 22.88850402832031 10.24540901184082 18.23629188537598 14.24084663391113 14.24084186553955 C 18.23629570007324 10.24540424346924 22.88852119445801 7.108691692352295 28.06829643249512 4.917829036712646 C 33.43022155761719 2.649929285049438 39.12687301635742 1.500004172325134 44.99999618530273 1.500004172325134 C 50.87311935424805 1.500004172325134 56.56977081298828 2.649929285049438 61.93169784545898 4.917829036712646 C 67.11147308349609 7.108691692352295 71.76369476318359 10.24540424346924 75.75914764404297 14.24084186553955 C 79.75458526611328 18.23629188537598 82.89131164550781 22.88850402832031 85.08216857910156 28.06826591491699 C 87.35007476806641 33.43019104003906 88.5 39.1268424987793 88.5 44.99995422363281 C 88.5 50.87306594848633 87.35007476806641 56.56971740722656 85.08216857910156 61.931640625 C 82.89131164550781 67.11140441894531 79.75458526611328 71.76361846923828 75.75914764404297 75.75906372070312 C 71.76369476318359 79.75450134277344 67.11147308349609 82.89122009277344 61.93169784545898 85.08207702636719 C 56.56977081298828 87.3499755859375 50.87311935424805 88.49990081787109 44.99999618530273 88.49990081787109 Z" stroke="none"/>
                                <path d="M 44.99999618530273 3 C 39.32870864868164 3 33.82865142822266 4.110054016113281 28.65262603759766 6.299324035644531 C 23.65165710449219 8.414566040039062 19.15968322753906 11.44332885742188 15.301513671875 15.30149841308594 C 11.44333648681641 19.15966796875 8.414566040039062 23.65162658691406 6.299339294433594 28.65259552001953 C 4.110054016113281 33.8286247253418 2.999992370605469 39.32866668701172 2.999992370605469 44.99995422363281 C 2.999992370605469 50.67124176025391 4.110054016113281 56.17128372192383 6.299339294433594 61.34731292724609 C 8.414566040039062 66.34828186035156 11.44333648681641 70.84024047851562 15.301513671875 74.69841003417969 C 19.15968322753906 78.55657958984375 23.65165710449219 81.58534240722656 28.65262603759766 83.70058441162109 C 33.82865142822266 85.88985443115234 39.32870864868164 86.99990844726562 44.99999618530273 86.99990844726562 C 50.67128372192383 86.99990844726562 56.17134094238281 85.88985443115234 61.34736633300781 83.70058441162109 C 66.34834289550781 81.58534240722656 70.84030914306641 78.55657958984375 74.69847869873047 74.69841003417969 C 78.55665588378906 70.84024047851562 81.58542633056641 66.34828186035156 83.70065307617188 61.34731292724609 C 85.88993835449219 56.17128372192383 87 50.67124176025391 87 44.99995422363281 C 87 39.32866668701172 85.88993835449219 33.8286247253418 83.70065307617188 28.65259552001953 C 81.58542633056641 23.65162658691406 78.55665588378906 19.15966796875 74.69847869873047 15.30149841308594 C 70.84030914306641 11.44332885742188 66.34834289550781 8.414566040039062 61.34736633300781 6.299324035644531 C 56.17134094238281 4.110054016113281 50.67128372192383 3 44.99999618530273 3 M 44.99999618530273 0 C 69.85281372070312 0 90 20.14717102050781 90 44.99995422363281 C 90 69.85273742675781 69.85281372070312 89.99990844726562 44.99999618530273 89.99990844726562 C 20.14717864990234 89.99990844726562 -7.62939453125e-06 69.85273742675781 -7.62939453125e-06 44.99995422363281 C -7.62939453125e-06 20.14717102050781 20.14717864990234 0 44.99999618530273 0 Z" stroke="none" fill="#ba9c5a"/>
                              </g>
                            </g>
                          </g>
                        </g>
                      </g>
                    </g>
                  </g>
                </g>
              </g>
            </g>
          </g>
        </g>
      </g>
    </g>
    <g id="escala-de-justicia" transform="translate(644.51 4167.886)">
      <path id="Trazado_1180101" data-name="Trazado 1180101" d="M16.624,327.676a3.051,3.051,0,0,1-3.048,3.048H9.968a3.05,3.05,0,0,1-3.047-3.048V310.617a3.05,3.05,0,0,1,3.047-3.048h3.608a3.051,3.051,0,0,1,3.048,3.048v17.059Z" transform="translate(-6.07 -261.599)" fill="#929ba0" fill-rule="evenodd"/>
      <path id="Trazado_1180102" data-name="Trazado 1180102" d="M91.254,248.823l3.472-3.656c1.894-1.993,4.172-3.664,7.045-3.511.931.05,1.833.165,2.755.3s1.806.246,2.728.3a29.712,29.712,0,0,0,4.011-.092l.064-.005.064,0a3.645,3.645,0,0,1,3.516,3.579,3.589,3.589,0,0,1-2.794,3.5l-.048.011,1.038-.107a8.492,8.492,0,0,0,5.2-2.414l9.118-8.762c1.818-1.747,5.176-4.349,7.867-3.07a3.393,3.393,0,0,1,.947.672,3.969,3.969,0,0,1,.261,5.254L119.159,258.8a8.551,8.551,0,0,1-6.35,2.7H85.8v-12.68Z" transform="translate(-75.242 -197.56)" fill="#f2c07e" fill-rule="evenodd"/>
      <path id="Trazado_1180103" data-name="Trazado 1180103" d="M157.321,214.435a10.935,10.935,0,0,1,18.427,0l.818,1.3H156.5Z" transform="translate(-137.252 -175.496)" fill="#b77a4b" fill-rule="evenodd"/>
      <path id="Trazado_1180104" data-name="Trazado 1180104" d="M58.462,158.879a7.031,7.031,0,0,1-6.051-3.979l-.673-1.254H65.186l-.673,1.254A7.03,7.03,0,0,1,58.462,158.879Z" transform="translate(-45.374 -126.609)" fill="#ffb954" fill-rule="evenodd"/>
      <path id="Trazado_1180105" data-name="Trazado 1180105" d="M315.125,153.645h13.448L327.9,154.9a6.591,6.591,0,0,1-12.1,0Z" transform="translate(-276.362 -126.609)" fill="#ffb954" fill-rule="evenodd"/>
      <path id="Trazado_1180106" data-name="Trazado 1180106" d="M215.609,22.493a3.148,3.148,0,1,1,3.149-3.148A3.151,3.151,0,0,1,215.609,22.493Z" transform="translate(-186.326 -6.067)" fill="#b77a4b" fill-rule="evenodd"/>
      <path id="Trazado_1180107" data-name="Trazado 1180107" d="M13.088,15.243l5.259,10.943H7.829ZM60.644,42.665,43.3,60.653a7.7,7.7,0,0,1-5.738,2.439H11.4V52.114h4.606a.852.852,0,0,0,.617-.265L20.1,48.194c2.241-2.359,4.209-3.364,6.382-3.247,1.023.053,1.828.168,2.68.29a26.713,26.713,0,0,0,6.928.21,2.793,2.793,0,0,1,2.722,2.73,2.737,2.737,0,0,1-2.13,2.665l-.646.067H27.515a.851.851,0,1,0,0,1.7h8.566a4.456,4.456,0,0,0,.867-.085l1-.1a9.337,9.337,0,0,0,5.707-2.647l9.118-8.762c3.2-3.08,6.053-3.98,7.621-2.41a3.128,3.128,0,0,1,.251,4.062ZM9.7,66.077a2.2,2.2,0,0,1-2.2,2.2H3.9a2.2,2.2,0,0,1-2.2-2.2V49.018a2.2,2.2,0,0,1,2.2-2.2H7.507a2.2,2.2,0,0,1,2.2,2.2V66.077ZM61.6,37.4c-.865-.866-4.141-3.252-10.006,2.385l-9.118,8.762a7.784,7.784,0,0,1-2.434,1.625,4.41,4.41,0,0,0,.475-2,4.531,4.531,0,0,0-4.39-4.433.816.816,0,0,0-.115,0,25,25,0,0,1-6.607-.194c-.852-.122-1.732-.247-2.832-.3-3.482-.175-5.945,1.923-7.7,3.775l-3.221,3.391H11.4V49.018a3.9,3.9,0,0,0-3.9-3.9H3.9a3.9,3.9,0,0,0-3.9,3.9V66.077a3.9,3.9,0,0,0,3.9,3.9H7.507a3.9,3.9,0,0,0,3.9-3.9V64.794H37.567a9.343,9.343,0,0,0,6.963-2.959L61.87,43.846A4.816,4.816,0,0,0,61.6,37.4Zm-48.51-5.983a6.17,6.17,0,0,1-5.3-3.53h10.6a6.169,6.169,0,0,1-5.3,3.53ZM29.283,10.98a2.3,2.3,0,1,1-2.3,2.3,2.3,2.3,0,0,1,2.3-2.3Zm8.492,28.411a10.084,10.084,0,0,0-16.985,0ZM50.746,26.185H40.228l5.259-10.943Zm-5.259,5.232a6.17,6.17,0,0,1-5.3-3.53h10.6A6.17,6.17,0,0,1,45.487,31.418Zm-32.4,1.7c3.231,0,6.141-2.274,7.413-5.794a.853.853,0,0,0-.033-.658L14.765,14.8a6.048,6.048,0,0,0,.981.082,12.54,12.54,0,0,0,3.936-.852c2-.669,3.746-1.251,5.637-.243a4.005,4.005,0,0,0,3.112,3.4v15.89A11.658,11.658,0,0,0,18.6,39.9a.851.851,0,0,0,.777,1.2H39.191a.851.851,0,0,0,.777-1.2,11.658,11.658,0,0,0-9.835-6.822V17.184a4.006,4.006,0,0,0,3.111-3.39c1.894-1.016,3.642-.433,5.648.237a12.534,12.534,0,0,0,3.936.852,6.047,6.047,0,0,0,.981-.082l-5.7,11.868a.853.853,0,0,0-.033.658c1.272,3.52,4.182,5.794,7.413,5.794s6.141-2.274,7.413-5.794a.852.852,0,0,0-.033-.658L46.254,12.909a.864.864,0,0,0-.8-.475,2,2,0,0,0-.743.3,4.864,4.864,0,0,1-2.633.376,13.258,13.258,0,0,1-2.647-.694c-1.921-.641-4.063-1.353-6.364-.416A3.994,3.994,0,0,0,25.5,12c-2.3-.932-4.437-.22-6.355.42a13.561,13.561,0,0,1-2.739.717,4.506,4.506,0,0,1-2.773-.522.98.98,0,0,0-.73-.161.86.86,0,0,0-.58.46L5.709,26.668a.853.853,0,0,0-.033.658c1.272,3.52,4.182,5.794,7.413,5.794Z" fill-rule="evenodd"/>
    </g>
  </g>
</svg>
