<svg xmlns="http://www.w3.org/2000/svg" xmlns:xlink="http://www.w3.org/1999/xlink" width="103" height="103" viewBox="0 0 103 103">
  <defs>
    <filter id="Trazado_904820" x="0" y="0" width="103" height="103" filterUnits="userSpaceOnUse">
      <feOffset dy="3" input="SourceAlpha"/>
      <feGaussianBlur stdDeviation="3" result="blur"/>
      <feFlood flood-opacity="0.161"/>
      <feComposite operator="in" in2="blur"/>
      <feComposite in="SourceGraphic"/>
    </filter>
  </defs>
  <g id="Grupo_1226526" data-name="Grupo 1226526" transform="translate(-170 -5695)">
    <g id="Grupo_1225993" data-name="Grupo 1225993" transform="translate(0 -5383.586)">
      <g id="Grupo_1223185" data-name="Grupo 1223185" transform="translate(-1 6410.586)">
        <g id="Grupo_1220650" data-name="Grupo 1220650" transform="translate(5 -5673)">
          <g id="Grupo_1219296" data-name="Grupo 1219296" transform="translate(175 10347)">
            <g id="Grupo_1218002" data-name="Grupo 1218002" transform="translate(0 0)">
              <g id="Grupo_1211578" data-name="Grupo 1211578">
                <g id="Grupo_1207774" data-name="Grupo 1207774" transform="translate(0)">
                  <g id="Grupo_1206630" data-name="Grupo 1206630" transform="translate(0)">
                    <g id="Grupo_1185091" data-name="Grupo 1185091">
                      <g id="Grupo_1179560" data-name="Grupo 1179560">
                        <g id="Grupo_1173787" data-name="Grupo 1173787">
                          <g id="Grupo_1171910" data-name="Grupo 1171910">
                            <g id="Grupo_1167341" data-name="Grupo 1167341">
                              <g id="Grupo_1166792" data-name="Grupo 1166792">
                                <g transform="matrix(1, 0, 0, 1, -9, -6)" filter="url(#Trazado_904820)">
                                  <g id="Trazado_904820-2" data-name="Trazado 904820" transform="translate(9 6)" fill="#e5f0f6">
                                    <path d="M 42.49999618530273 83.50018310546875 C 36.96437454223633 83.50018310546875 31.59512519836426 82.41635894775391 26.54140853881836 80.27880859375 C 21.65933799743652 78.2138671875 17.27447891235352 75.25739288330078 13.50861930847168 71.49153137207031 C 9.742773056030273 67.72567749023438 6.786314010620117 63.34079360961914 4.721360683441162 58.45870971679688 C 2.583819627761841 53.40498352050781 1.499996185302734 48.03572463989258 1.499996185302734 42.50008773803711 C 1.499996185302734 36.96445083618164 2.583819627761841 31.59519386291504 4.721360683441162 26.54146385192871 C 6.786314010620117 21.65938186645508 9.742773056030273 17.27451133728027 13.50861930847168 13.50865268707275 C 17.27447891235352 9.742794036865234 21.65933799743652 6.786323070526123 26.54140853881836 4.721381664276123 C 31.59512519836426 2.583828926086426 36.96437454223633 1.50000536441803 42.49999618530273 1.50000536441803 C 48.03561782836914 1.50000536441803 53.40486526489258 2.583828926086426 58.45858383178711 4.721381664276123 C 63.34065628051758 6.786323070526123 67.72551727294922 9.742794036865234 71.49137115478516 13.50865268707275 C 75.25721740722656 17.27451133728027 78.21367645263672 21.65938186645508 80.27863311767578 26.54146385192871 C 82.41617584228516 31.59519386291504 83.5 36.96445083618164 83.5 42.50008773803711 C 83.5 48.03572463989258 82.41617584228516 53.40498352050781 80.27863311767578 58.45870971679688 C 78.21367645263672 63.34079360961914 75.25721740722656 67.72567749023438 71.49137115478516 71.49153137207031 C 67.72551727294922 75.25739288330078 63.34065628051758 78.2138671875 58.45858383178711 80.27880859375 C 53.40486526489258 82.41635894775391 48.03561782836914 83.50018310546875 42.49999618530273 83.50018310546875 Z" stroke="none"/>
                                    <path d="M 42.49999618530273 2.999992370605469 C 37.16621017456055 2.999992370605469 31.99356842041016 4.043952941894531 27.1257438659668 6.102874755859375 C 22.42246246337891 8.092193603515625 18.19786071777344 10.94071197509766 14.56929016113281 14.56929779052734 C 10.94070434570312 18.19789123535156 8.092193603515625 22.42250061035156 6.102874755859375 27.12579345703125 C 4.043952941894531 31.99362182617188 2.999992370605469 37.16628646850586 2.999992370605469 42.50008773803711 C 2.999992370605469 47.83388900756836 4.043952941894531 53.00653839111328 6.102874755859375 57.87438201904297 C 8.092193603515625 62.57765960693359 10.94070434570312 66.80227661132812 14.56929016113281 70.43086242675781 C 18.19786071777344 74.0594482421875 22.42246246337891 76.90796661376953 27.1257438659668 78.89728546142578 C 31.99356842041016 80.95620727539062 37.16621017456055 82.00016784667969 42.49999618530273 82.00016784667969 C 47.83378219604492 82.00016784667969 53.00642395019531 80.95620727539062 57.87425231933594 78.89728546142578 C 62.57752990722656 76.90796661376953 66.80213165283203 74.0594482421875 70.43070220947266 70.43086242675781 C 74.05928802490234 66.80227661132812 76.90779876708984 62.57765960693359 78.89711761474609 57.87438201904297 C 80.95603942871094 53.00653839111328 82 47.83388900756836 82 42.50008773803711 C 82 37.16628646850586 80.95603942871094 31.99362182617188 78.89711761474609 27.12579345703125 C 76.90779876708984 22.42250061035156 74.05928802490234 18.19789123535156 70.43070220947266 14.56929779052734 C 66.80213165283203 10.94071197509766 62.57752990722656 8.092193603515625 57.87425231933594 6.102874755859375 C 53.00642395019531 4.043952941894531 47.83378219604492 2.999992370605469 42.49999618530273 2.999992370605469 M 42.49999618530273 -7.62939453125e-06 C 65.97209167480469 -7.62939453125e-06 85 19.02793884277344 85 42.50008773803711 C 85 65.97223663330078 65.97209167480469 85.00016784667969 42.49999618530273 85.00016784667969 C 19.02790069580078 85.00016784667969 -7.62939453125e-06 65.97223663330078 -7.62939453125e-06 42.50008773803711 C -7.62939453125e-06 19.02793884277344 19.02790069580078 -7.62939453125e-06 42.49999618530273 -7.62939453125e-06 Z" stroke="none" fill="#1172b3"/>
                                  </g>
                                </g>
                              </g>
                            </g>
                          </g>
                        </g>
                      </g>
                    </g>
                  </g>
                </g>
              </g>
            </g>
          </g>
        </g>
      </g>
    </g>
    <g id="abogado_5_" data-name="abogado (5)" transform="translate(182.958 5716.38)">
      <g id="Grupo_1226524" data-name="Grupo 1226524" transform="translate(14.086 0.78)">
        <g id="Grupo_1226490" data-name="Grupo 1226490" transform="translate(11.831 7.757)">
          <g id="Grupo_1226489" data-name="Grupo 1226489">
            <path id="Trazado_1180108" data-name="Trazado 1180108" d="M143.717,100.249l-.145-.171a9.707,9.707,0,0,1-2.3-6.273V88.484a4.217,4.217,0,0,1,4.212-4.212v-.208h-3.2a4.807,4.807,0,0,1-3.88-1.97v5.034a1.05,1.05,0,0,1-.691.979,4.807,4.807,0,0,0-2.1,7.468,4.806,4.806,0,0,0-.709,4.674Z" transform="translate(-134.585 -82.093)" fill="#685e68"/>
          </g>
        </g>
        <g id="Grupo_1226491" data-name="Grupo 1226491" transform="translate(14.611)">
          <path id="Trazado_1180109" data-name="Trazado 1180109" d="M191.311,25.775a4.81,4.81,0,0,0-3.124-4.5,1.05,1.05,0,0,1-.691-.979v-1.4A11.389,11.389,0,0,0,176.107,7.5h-9.88a4.915,4.915,0,1,0,0,9.831h3.2v.1h10.982a4.217,4.217,0,0,1,4.212,4.212v5.321a9.669,9.669,0,0,1-2.653,6.66V36.51h4.53a4.807,4.807,0,0,0,3.785-7.772A4.786,4.786,0,0,0,191.311,25.775Z" transform="translate(-161.312 -7.5)" fill="#554e56"/>
        </g>
        <g id="Grupo_1226492" data-name="Grupo 1226492" transform="translate(23.966)">
          <path id="Trazado_1180110" data-name="Trazado 1180110" d="M271.924,25.775a4.81,4.81,0,0,0-3.123-4.5,1.05,1.05,0,0,1-.691-.979v-1.4A11.389,11.389,0,0,0,256.72,7.5h-5.44A11.39,11.39,0,0,1,262.6,17.628a4.317,4.317,0,0,1,2.743,4.019v5.321a9.774,9.774,0,0,1-2.753,6.812l0,2.73h4.53a4.807,4.807,0,0,0,3.785-7.772A4.786,4.786,0,0,0,271.924,25.775Z" transform="translate(-251.28 -7.5)" fill="#433f43"/>
        </g>
        <g id="Grupo_1226494" data-name="Grupo 1226494" transform="translate(32.118 30.326)">
          <g id="Grupo_1226493" data-name="Grupo 1226493">
            <path id="Trazado_1180111" data-name="Trazado 1180111" d="M342.561,302.8l-9.081-3.662,4.206,7.486a.416.416,0,0,1-.363.62h-5.465l4.6,2.872a.416.416,0,0,1,.119.593l-6.9,9.751v.033h15.236a1.56,1.56,0,0,0,1.56-1.56V308.582A6.239,6.239,0,0,0,342.561,302.8Z" transform="translate(-329.671 -299.134)" fill="#0055a3"/>
          </g>
        </g>
        <g id="Grupo_1226496" data-name="Grupo 1226496" transform="translate(35.927 30.326)">
          <g id="Grupo_1226495" data-name="Grupo 1226495">
            <path id="Trazado_1180112" data-name="Trazado 1180112" d="M375.386,302.8l-9.081-3.662,1.743,3.1,4.094,1.651a6.239,6.239,0,0,1,3.906,5.786v10.347a1.557,1.557,0,0,1-.072.468h1.756a1.56,1.56,0,0,0,1.56-1.56V308.582A6.239,6.239,0,0,0,375.386,302.8Z" transform="translate(-366.305 -299.134)" fill="#004281"/>
          </g>
        </g>
        <g id="Grupo_1226500" data-name="Grupo 1226500" transform="translate(23.987 37.334)">
          <g id="Grupo_1226497" data-name="Grupo 1226497" transform="translate(4.234)">
            <path id="Trazado_1180113" data-name="Trazado 1180113" d="M302.931,370.412l-6.21-3.881-4.453,13.782-.073.564h4l6.884-9.724A.52.52,0,0,0,302.931,370.412Z" transform="translate(-292.195 -366.531)" fill="#0573ce"/>
          </g>
          <g id="Grupo_1226498" data-name="Grupo 1226498" transform="translate(6.182)">
            <path id="Trazado_1180114" data-name="Trazado 1180114" d="M319.714,370.412l-6.21-3.881-.647,2,4.252,2.657a.52.52,0,0,1,.149.741l-6.331,8.944h2.053l6.884-9.724A.52.52,0,0,0,319.714,370.412Z" transform="translate(-310.926 -366.531)" fill="#0067c5"/>
          </g>
          <g id="Grupo_1226499" data-name="Grupo 1226499" transform="translate(0 2.199)">
            <path id="Trazado_1180115" data-name="Trazado 1180115" d="M251.895,399.3a.416.416,0,0,1-.416.416v.1h4.234l-.02-.364-3.8-11.784Z" transform="translate(-251.479 -387.676)" fill="#0067c5"/>
          </g>
        </g>
        <g id="Grupo_1226501" data-name="Grupo 1226501" transform="translate(32.358 28.761)">
          <path id="Trazado_1180116" data-name="Trazado 1180116" d="M339.852,293.084l-5.056-9v5.181a.409.409,0,0,1-.127.3.426.426,0,0,1-.29.117h0a.412.412,0,0,1-.238-.077l-.518-.366a.1.1,0,0,0-.159.053l-1.475,4.567H339.4A.52.52,0,0,0,339.852,293.084Z" transform="translate(-331.987 -284.084)" fill="#0573ce"/>
        </g>
        <g id="Grupo_1226502" data-name="Grupo 1226502" transform="translate(35.167 28.761)">
          <path id="Trazado_1180117" data-name="Trazado 1180117" d="M364.053,293.084l-5.056-9v3.884l2.874,5.115a.52.52,0,0,1-.453.775H363.6a.52.52,0,0,0,.453-.775Z" transform="translate(-358.997 -284.084)" fill="#0067c5"/>
        </g>
        <g id="Grupo_1226503" data-name="Grupo 1226503" transform="translate(24.403 31.43)">
          <path id="Trazado_1180118" data-name="Trazado 1180118" d="M261.553,309.751l-2.069,4.309a.208.208,0,0,1-.375,0l-2.069-4.309-1.561,1.1v7.329L259.3,330l5.745-17.784Z" transform="translate(-255.478 -309.751)" fill="#fff"/>
        </g>
        <g id="Grupo_1226505" data-name="Grupo 1226505" transform="translate(27.328 31.43)">
          <g id="Grupo_1226504" data-name="Grupo 1226504">
            <path id="Trazado_1180119" data-name="Trazado 1180119" d="M286.76,309.752l-.922,1.919,1.657,1.172a1.04,1.04,0,0,1,.389,1.169l-4.274,13.228L284.5,330l5.745-17.784Z" transform="translate(-283.611 -309.752)" fill="#f9f3f1"/>
          </g>
        </g>
        <g id="Grupo_1226506" data-name="Grupo 1226506" transform="translate(24.403 28.419)">
          <path id="Trazado_1180120" data-name="Trazado 1180120" d="M255.479,280.8v4.242L257,283.967Z" transform="translate(-255.479 -280.8)" fill="#f9f3f1"/>
        </g>
        <g id="Grupo_1226507" data-name="Grupo 1226507" transform="translate(30.452 26.128)">
          <path id="Trazado_1180121" data-name="Trazado 1180121" d="M315.23,261.029l-.136.092-1.44,3,.066.1L317.653,267a.52.52,0,0,0,.82-.425v-7.814A9.747,9.747,0,0,1,315.23,261.029Z" transform="translate(-313.654 -258.765)" fill="#f9f3f1"/>
        </g>
        <g id="Grupo_1226508" data-name="Grupo 1226508" transform="translate(30.452 26.128)">
          <path id="Trazado_1180122" data-name="Trazado 1180122" d="M316.783,260.185v3.637a.52.52,0,0,1-.82.425L314.194,263l-.54,1.124.066.1L317.653,267a.52.52,0,0,0,.82-.425v-7.814A9.77,9.77,0,0,1,316.783,260.185Z" transform="translate(-313.654 -258.765)" fill="#f3eae6"/>
        </g>
        <g id="Grupo_1226509" data-name="Grupo 1226509" transform="translate(24.403 28.38)">
          <path id="Trazado_1180123" data-name="Trazado 1180123" d="M259.3,281.215a9.65,9.65,0,0,1-3.818-.784v.031l3.537,7.364a.312.312,0,0,0,.562,0l3.556-7.4A9.647,9.647,0,0,1,259.3,281.215Z" transform="translate(-255.478 -280.423)" fill="#a44f3e"/>
        </g>
        <g id="Grupo_1226512" data-name="Grupo 1226512" transform="translate(14.553 14.987)">
          <g id="Grupo_1226510" data-name="Grupo 1226510">
            <path id="Trazado_1180124" data-name="Trazado 1180124" d="M164.722,156.1v-4.482h-.569a3.395,3.395,0,0,0,0,6.79H165a9.685,9.685,0,0,1-.278-2.308Z" transform="translate(-160.758 -151.622)" fill="#bb5d4c"/>
          </g>
          <g id="Grupo_1226511" data-name="Grupo 1226511" transform="translate(23.093)">
            <path id="Trazado_1180125" data-name="Trazado 1180125" d="M383.706,151.622h-.592V156.1a9.693,9.693,0,0,1-.278,2.308h.87a3.395,3.395,0,0,0,0-6.79Z" transform="translate(-382.836 -151.622)" fill="#a44f3e"/>
          </g>
        </g>
        <path id="Trazado_1180126" data-name="Trazado 1180126" d="M213.178,102.041H202.2a4.316,4.316,0,0,0-4.316,4.316v5.321a9.769,9.769,0,0,0,2.414,6.444h3.159a.416.416,0,0,1,.416.416v2.177a9.813,9.813,0,0,0,13.625-9.036v-5.321A4.316,4.316,0,0,0,213.178,102.041Z" transform="translate(-179.467 -92.21)" fill="#c96e59"/>
        <g id="Grupo_1226513" data-name="Grupo 1226513" transform="translate(27.057 9.831)">
          <path id="Trazado_1180127" data-name="Trazado 1180127" d="M287.661,102.041h-2.028a4.387,4.387,0,0,1,3.226,4.229v5.407a9.968,9.968,0,0,1-7.852,9.74,9.809,9.809,0,0,0,10.971-9.738v-5.321A4.316,4.316,0,0,0,287.661,102.041Z" transform="translate(-281.006 -102.041)" fill="#bb5d4c"/>
        </g>
        <g id="Grupo_1226521" data-name="Grupo 1226521" transform="translate(0 25.808)">
          <path id="Trazado_1180128" data-name="Trazado 1180128" d="M75.7,255.69H55.825a.52.52,0,0,0-.52.52v13.759h1.637a1.621,1.621,0,0,1,1.635,1.545,1.594,1.594,0,0,1-.832,1.45,1.595,1.595,0,0,1,0,2.8,1.595,1.595,0,0,1,0,2.8,1.594,1.594,0,0,1,.832,1.45,1.621,1.621,0,0,1-1.635,1.545H75.7a.52.52,0,0,0,.52-.52V256.21A.52.52,0,0,0,75.7,255.69Z" transform="translate(-51.718 -255.69)" fill="#f9f3f1"/>
          <g id="Grupo_1226514" data-name="Grupo 1226514" transform="translate(20.731 0)">
            <path id="Trazado_1180129" data-name="Trazado 1180129" d="M223.429,255.69h-3.255a.52.52,0,0,1,.52.52v24.833a.52.52,0,0,1-.52.52h3.255a.52.52,0,0,0,.52-.52V256.21A.52.52,0,0,0,223.429,255.69Z" transform="translate(-220.174 -255.69)" fill="#f3eae6"/>
          </g>
          <g id="Grupo_1226517" data-name="Grupo 1226517" transform="translate(0 14.279)">
            <g id="Grupo_1226516" data-name="Grupo 1226516">
              <g id="Grupo_1226515" data-name="Grupo 1226515">
                <path id="Trazado_1180130" data-name="Trazado 1180130" d="M27.665,400.2a1.636,1.636,0,0,0,0,2.851,1.621,1.621,0,0,1-1.635,1.545H23.473a2.668,2.668,0,0,1-2.668-2.668v-6.257a2.668,2.668,0,0,1,2.668-2.668h2.556a1.621,1.621,0,0,1,1.635,1.545,1.636,1.636,0,0,0,0,2.851,1.595,1.595,0,0,0,0,2.8Z" transform="translate(-20.805 -393.005)" fill="#c96e59"/>
              </g>
            </g>
          </g>
          <g id="Grupo_1226518" data-name="Grupo 1226518" transform="translate(2.892 14.279)">
            <path id="Trazado_1180131" data-name="Trazado 1180131" d="M52.584,400.2a1.595,1.595,0,0,1,0-2.8,1.636,1.636,0,0,1,0-2.851,1.621,1.621,0,0,0-1.635-1.545H48.616a2.869,2.869,0,0,1,1.341,2.43v6.735a2.869,2.869,0,0,1-1.341,2.43h2.332a1.621,1.621,0,0,0,1.635-1.545,1.636,1.636,0,0,1,0-2.851Z" transform="translate(-48.616 -393.006)" fill="#bb5d4c"/>
          </g>
          <g id="Grupo_1226519" data-name="Grupo 1226519" transform="translate(16.426 18.088)">
            <circle id="Elipse_14690" data-name="Elipse 14690" cx="2" cy="2" r="2" fill="#d8aa5e"/>
          </g>
          <g id="Grupo_1226520" data-name="Grupo 1226520" transform="translate(17.659 18.088)">
            <path id="Trazado_1180132" data-name="Trazado 1180132" d="M191.393,429.635a1.992,1.992,0,0,0-.768.153,2,2,0,0,1,0,3.694,2,2,0,1,0,.768-3.848Z" transform="translate(-190.625 -429.635)" fill="#c99c56"/>
          </g>
        </g>
        <g id="Grupo_1226522" data-name="Grupo 1226522" transform="translate(39.75 44.356)">
          <path id="Trazado_1180133" data-name="Trazado 1180133" d="M405.107,434.121l-1.91,1.388a.312.312,0,0,0-.113.349l.73,2.245a.312.312,0,0,0,.3.216h2.361a.312.312,0,0,0,.3-.216l.73-2.245a.312.312,0,0,0-.113-.349l-1.91-1.388A.312.312,0,0,0,405.107,434.121Z" transform="translate(-403.068 -434.062)" fill="#d8aa5e"/>
        </g>
        <g id="Grupo_1226523" data-name="Grupo 1226523" transform="translate(41.202 44.356)">
          <path id="Trazado_1180134" data-name="Trazado 1180134" d="M419.9,435.509l-1.91-1.388a.312.312,0,0,0-.367,0l-.586.426,1.324.962a.312.312,0,0,1,.113.349l-.73,2.245a.312.312,0,0,1-.3.216h1.54a.312.312,0,0,0,.3-.216l.73-2.245A.312.312,0,0,0,419.9,435.509Z" transform="translate(-417.034 -434.062)" fill="#c99c56"/>
        </g>
      </g>
      <g id="Grupo_1226525" data-name="Grupo 1226525" transform="translate(13.306 0)">
        <path id="Trazado_1180135" data-name="Trazado 1180135" d="M59.385,34.044,50.771,30.57h3.116a5.6,5.6,0,0,0,5.588-5.588,5.524,5.524,0,0,0-.851-2.964,5.525,5.525,0,0,0,.851-2.964,5.614,5.614,0,0,0-3.63-5.235.27.27,0,0,1-.185-.249v-1.4A12.183,12.183,0,0,0,43.491,0h-9.88a5.692,5.692,0,0,0-4.66,8.966v4.6a.27.27,0,0,1-.185.249,5.608,5.608,0,0,0-2.311,1.63.78.78,0,1,0,1.191,1.007,4.046,4.046,0,0,1,1.666-1.176,1.84,1.84,0,0,0,1.2-1.71v-3.1a5.66,5.66,0,0,0,2.658.9,5.076,5.076,0,0,0-1.45,3.555V15a4.174,4.174,0,0,0,.314,8.336h.148A10.622,10.622,0,0,0,33.3,25.808H26.784a4.014,4.014,0,0,1,.771-3.309.78.78,0,0,0,0-.962,4,4,0,0,1-.845-2.179.78.78,0,0,0-1.556.116,5.551,5.551,0,0,0,.834,2.543,5.561,5.561,0,0,0-.788,3.79H18.193a1.3,1.3,0,0,0-1.3,1.3v4.816a.78.78,0,0,0,1.56,0V27.368H37.813V51.681H21.576a2.29,2.29,0,0,0,.148-.742,2.369,2.369,0,0,0-.455-1.474,2.375,2.375,0,0,0,0-2.8,2.375,2.375,0,0,0,0-2.8,2.369,2.369,0,0,0,.455-1.474,2.279,2.279,0,0,0-.024-.268H35.039a.78.78,0,1,0,0-1.56H21.227a.776.776,0,0,0-.364.09,2.428,2.428,0,0,0-1.553-.565h-.857V35.563a.78.78,0,0,0-1.56,0v4.524h-.139a3.452,3.452,0,0,0-3.448,3.448v6.257a3.452,3.452,0,0,0,3.448,3.448H54.348a.78.78,0,0,0,0-1.56H47.815l6.013-8.494a1.3,1.3,0,0,0-.372-1.853l-1.982-1.239h2.383a1.3,1.3,0,0,0,1.133-1.936l-3.054-5.437,6.868,2.77a5.435,5.435,0,0,1,3.417,5.063V50.9a.781.781,0,0,1-.78.78H57.988a.78.78,0,0,0,0,1.56H61.44a2.342,2.342,0,0,0,2.34-2.34V40.554a6.988,6.988,0,0,0-4.394-6.51ZM29.419,19.161a2.619,2.619,0,0,1,2.3-2.6v3.683a10.576,10.576,0,0,0,.108,1.494c0,.009,0,.017,0,.026A2.618,2.618,0,0,1,29.419,19.161ZM19.74,47.349a.815.815,0,0,1,0,1.432.78.78,0,0,0,0,1.37.813.813,0,0,1,.426.741.842.842,0,0,1-.855.789H16.754a1.89,1.89,0,0,1-1.888-1.888V43.535a1.891,1.891,0,0,1,1.888-1.888H19.31a.842.842,0,0,1,.855.789.813.813,0,0,1-.426.742.78.78,0,0,0,0,1.37.815.815,0,0,1,0,1.432.78.78,0,0,0,0,1.37ZM29.476,5.7A4.14,4.14,0,0,1,33.612,1.56h9.88A10.621,10.621,0,0,1,54.1,12.169v1.4a1.84,1.84,0,0,0,1.2,1.71,4.047,4.047,0,0,1,2.617,3.774,3.988,3.988,0,0,1-.857,2.482.78.78,0,0,0,0,.962,3.986,3.986,0,0,1,.857,2.482,4.033,4.033,0,0,1-4.029,4.029h-3.75V27.364a10.593,10.593,0,0,0,2.3-4.028H52.6A4.174,4.174,0,0,0,52.894,15v-.071a5.1,5.1,0,0,0-5.1-5.1H44.3A4.14,4.14,0,0,1,40.164,5.7a.78.78,0,0,0-1.56,0,5.679,5.679,0,0,0,1.786,4.135H39.328A4.14,4.14,0,0,1,35.193,5.7a.78.78,0,0,0-1.56,0A5.675,5.675,0,0,0,35.42,9.831H33.612A4.14,4.14,0,0,1,29.476,5.7ZM52.784,21.769a10.622,10.622,0,0,0,.109-1.521V16.563a2.614,2.614,0,0,1-.109,5.206ZM46,23.651a.779.779,0,0,0-.855.7,1.216,1.216,0,0,1-1.2,1.083H40.662a1.216,1.216,0,0,1-1.2-1.083.78.78,0,0,0-1.552.158,2.761,2.761,0,0,0,.517,1.353,1.293,1.293,0,0,0-.356-.051H35.2a9.031,9.031,0,0,1-1.917-5.56V14.927a3.54,3.54,0,0,1,3.536-3.536H47.8a3.54,3.54,0,0,1,3.536,3.536v5.321a9.029,9.029,0,0,1-11.962,8.538V27.108a1.29,1.29,0,0,0-.1-.486,2.762,2.762,0,0,0,1.385.37h3.289A2.757,2.757,0,0,0,46.7,24.506a.78.78,0,0,0-.7-.855Zm2.572,5.122V34.22l-2.985-2.111,1.06-2.207A10.586,10.586,0,0,0,48.577,28.773Zm-3.984,1.813-2.287,4.762-2.286-4.76a10.641,10.641,0,0,0,4.573,0ZM39.372,51.681V45.915l1.863,5.765Zm0-10.839v-8l1.95,4.06a1.092,1.092,0,0,0,1.969,0l1.616-3.366L47.1,35.086,42.306,49.924ZM52.4,42.51,45.9,51.681H43.378l3.743-11.586H48.53Zm1.016-3.976H47.625l.83-2.57a1.3,1.3,0,0,0,1.682-1.243V32.706Z" transform="translate(-13.306 0)"/>
        <path id="Trazado_1180136" data-name="Trazado 1180136" d="M270.862,161.313a.78.78,0,0,0-.78.78v.606a2.476,2.476,0,0,0,.78,4.826.78.78,0,0,0,0-1.56.916.916,0,0,1-.2-1.811,1.23,1.23,0,0,0,.977-1.207v-.854A.78.78,0,0,0,270.862,161.313Z" transform="translate(-241.861 -144.539)"/>
        <path id="Trazado_1180137" data-name="Trazado 1180137" d="M244.1,151.867a.78.78,0,0,0-.78.78v1.533a.78.78,0,0,0,1.56,0v-1.533A.78.78,0,0,0,244.1,151.867Z" transform="translate(-219.401 -136.075)"/>
        <path id="Trazado_1180138" data-name="Trazado 1180138" d="M327.631,154.18v-1.533a.78.78,0,1,0-1.56,0v1.533a.78.78,0,0,0,1.56,0Z" transform="translate(-293.548 -136.075)"/>
        <path id="Trazado_1180139" data-name="Trazado 1180139" d="M228.957,130.349a.78.78,0,0,0-.341-1.049,5.376,5.376,0,0,0-4.866,0,.78.78,0,1,0,.708,1.39,3.81,3.81,0,0,1,3.45,0A.78.78,0,0,0,228.957,130.349Z" transform="translate(-201.485 -115.333)"/>
        <path id="Trazado_1180140" data-name="Trazado 1180140" d="M310.66,130.689a.78.78,0,0,0,.708-1.39,5.375,5.375,0,0,0-4.866,0,.78.78,0,0,0,.708,1.39A3.81,3.81,0,0,1,310.66,130.689Z" transform="translate(-275.632 -115.332)"/>
        <path id="Trazado_1180141" data-name="Trazado 1180141" d="M116.521,291.778a.78.78,0,0,0,0-1.56h-8.573a.78.78,0,1,0,0,1.56Z" transform="translate(-97.408 -260.04)"/>
        <path id="Trazado_1180142" data-name="Trazado 1180142" d="M81.979,324.28a.78.78,0,0,0,.78.78H96.571a.78.78,0,0,0,0-1.56H82.759A.78.78,0,0,0,81.979,324.28Z" transform="translate(-74.838 -289.861)"/>
        <path id="Trazado_1180143" data-name="Trazado 1180143" d="M82.759,358.342H96.571a.78.78,0,1,0,0-1.56H82.759a.78.78,0,1,0,0,1.56Z" transform="translate(-74.838 -319.682)"/>
        <path id="Trazado_1180144" data-name="Trazado 1180144" d="M111.966,423.347h-4.018a.78.78,0,0,0,0,1.56h4.018a.78.78,0,0,0,0-1.56Z" transform="translate(-97.408 -379.325)"/>
        <path id="Trazado_1180145" data-name="Trazado 1180145" d="M111.966,456.629h-4.018a.78.78,0,1,0,0,1.56h4.018a.78.78,0,1,0,0-1.56Z" transform="translate(-97.408 -409.146)"/>
        <path id="Trazado_1180146" data-name="Trazado 1180146" d="M174.054,422.135a2.78,2.78,0,1,0,2.78,2.78A2.784,2.784,0,0,0,174.054,422.135Zm0,4a1.221,1.221,0,1,1,1.221-1.221A1.222,1.222,0,0,1,174.054,426.136Z" transform="translate(-154.848 -378.239)"/>
        <path id="Trazado_1180147" data-name="Trazado 1180147" d="M285.475,375.874a.78.78,0,0,0-.78.78v.312a.78.78,0,0,0,1.56,0v-.312A.78.78,0,0,0,285.475,375.874Z" transform="translate(-256.475 -336.789)"/>
        <path id="Trazado_1180148" data-name="Trazado 1180148" d="M285.475,416.5a.78.78,0,0,0-.78.78v.312a.78.78,0,1,0,1.56,0v-.312A.78.78,0,0,0,285.475,416.5Z" transform="translate(-256.475 -373.19)"/>
        <path id="Trazado_1180149" data-name="Trazado 1180149" d="M400.786,431.619l.73-2.246a1.089,1.089,0,0,0-.4-1.22l-1.91-1.388a1.089,1.089,0,0,0-1.283,0h0l-1.91,1.388a1.089,1.089,0,0,0-.4,1.221l.73,2.245a1.089,1.089,0,0,0,1.038.755h2.361A1.089,1.089,0,0,0,400.786,431.619Zm-1.378-.805h-1.681l-.519-1.6,1.36-.988,1.36.988Z" transform="translate(-355.815 -382.2)"/>
      </g>
    </g>
  </g>
</svg>
