<svg xmlns="http://www.w3.org/2000/svg" xmlns:xlink="http://www.w3.org/1999/xlink" width="93.934" height="93.934" viewBox="0 0 93.934 93.934">
  <defs>
    <filter id="Trazado_982547" x="0" y="0" width="93.934" height="93.934" filterUnits="userSpaceOnUse">
      <feOffset dy="3" input="SourceAlpha"/>
      <feGaussianBlur stdDeviation="3" result="blur"/>
      <feFlood flood-opacity="0.161"/>
      <feComposite operator="in" in2="blur"/>
      <feComposite in="SourceGraphic"/>
    </filter>
  </defs>
  <g id="Grupo_1226072" data-name="Grupo 1226072" transform="translate(-611.067 -1114.968)">
    <g id="Grupo_1224719" data-name="Grupo 1224719" transform="translate(620.067 1120.968)">
      <g id="Grupo_1220444" data-name="Grupo 1220444">
        <g id="Grupo_1219554" data-name="Grupo 1219554">
          <g id="Grupo_1214715" data-name="Grupo 1214715">
            <g id="Grupo_1214433" data-name="Grupo 1214433">
              <g id="Grupo_1183190" data-name="Grupo 1183190">
                <g id="Grupo_1179611" data-name="Grupo 1179611">
                  <g id="Grupo_1175227" data-name="Grupo 1175227">
                    <g id="Grupo_1167337" data-name="Grupo 1167337">
                      <g id="Grupo_1166720" data-name="Grupo 1166720">
                        <g id="Grupo_1164305" data-name="Grupo 1164305">
                          <g id="Grupo_1163948" data-name="Grupo 1163948">
                            <g id="Grupo_1158168" data-name="Grupo 1158168">
                              <g id="Grupo_1152576" data-name="Grupo 1152576">
                                <g id="Grupo_1148633" data-name="Grupo 1148633">
                                  <g id="Grupo_1148525" data-name="Grupo 1148525">
                                    <g transform="matrix(1, 0, 0, 1, -9, -6)" filter="url(#Trazado_982547)">
                                      <g id="Trazado_982547-2" data-name="Trazado 982547" transform="translate(9 6)" fill="#f7f4ed">
                                        <path d="M 37.966796875 74.43359375 C 33.04315185546875 74.43359375 28.26757431030273 73.46962738037109 23.77274131774902 71.56847381591797 C 19.43047523498535 69.73184967041016 15.53040790557861 67.10224914550781 12.18087482452393 63.75271987915039 C 8.831341743469238 60.4031867980957 6.201741218566895 56.50312042236328 4.365118980407715 52.16086196899414 C 2.463963508605957 47.66601943969727 1.499996900558472 42.89044189453125 1.499996900558472 37.966796875 C 1.499996900558472 33.04315185546875 2.463963508605957 28.26757431030273 4.365118980407715 23.77274131774902 C 6.201741218566895 19.43047523498535 8.831341743469238 15.53040790557861 12.18087482452393 12.18087482452393 C 15.53040790557861 8.831341743469238 19.43047523498535 6.201741218566895 23.77274131774902 4.365118980407715 C 28.26757431030273 2.463963508605957 33.04315185546875 1.499996900558472 37.966796875 1.499996900558472 C 42.89044189453125 1.499996900558472 47.66601943969727 2.463963508605957 52.16086196899414 4.365118980407715 C 56.50312042236328 6.201741218566895 60.4031867980957 8.831341743469238 63.75271987915039 12.18087482452393 C 67.10224914550781 15.53040790557861 69.73184967041016 19.43047523498535 71.56847381591797 23.77274131774902 C 73.46962738037109 28.26757431030273 74.43359375 33.04315185546875 74.43359375 37.966796875 C 74.43359375 42.89044189453125 73.46962738037109 47.66601943969727 71.56847381591797 52.16086196899414 C 69.73184967041016 56.50313186645508 67.10224914550781 60.4031867980957 63.75271987915039 63.75271987915039 C 60.4031867980957 67.10224914550781 56.50313186645508 69.73184967041016 52.16086196899414 71.56847381591797 C 47.66601943969727 73.46962738037109 42.89044189453125 74.43359375 37.966796875 74.43359375 Z" stroke="none"/>
                                        <path d="M 37.966796875 3 C 33.2449836730957 3 28.66600799560547 3.924095153808594 24.35705947875977 5.746635437011719 C 20.19359588623047 7.507637023925781 16.45379638671875 10.02928161621094 13.24153518676758 13.24153518676758 C 10.02927398681641 16.45379638671875 7.507621765136719 20.19359588623047 5.746635437011719 24.35705947875977 C 3.924095153808594 28.66600799560547 3 33.2449836730957 3 37.966796875 C 3 42.6886100769043 3.924095153808594 47.26758575439453 5.746635437011719 51.57653427124023 C 7.507621765136719 55.73999786376953 10.02927398681641 59.47979736328125 13.24153518676758 62.69205856323242 C 16.45379638671875 65.90431976318359 20.19359588623047 68.42597198486328 24.35705947875977 70.18695831298828 C 28.66600799560547 72.00949859619141 33.2449836730957 72.93359375 37.966796875 72.93359375 C 42.6886100769043 72.93359375 47.26758575439453 72.00949859619141 51.57653427124023 70.18695831298828 C 55.73999786376953 68.42597198486328 59.47979736328125 65.90431976318359 62.69205856323242 62.69205856323242 C 65.90431976318359 59.47979736328125 68.42597198486328 55.73999786376953 70.18695831298828 51.57653427124023 C 72.00949859619141 47.26758575439453 72.93359375 42.6886100769043 72.93359375 37.966796875 C 72.93359375 33.2449836730957 72.00949859619141 28.66600799560547 70.18695831298828 24.35705947875977 C 68.42597198486328 20.19359588623047 65.90431976318359 16.45379638671875 62.69205856323242 13.24153518676758 C 59.47979736328125 10.02928161621094 55.73999786376953 7.507637023925781 51.57653427124023 5.746635437011719 C 47.26758575439453 3.924095153808594 42.6886100769043 3 37.966796875 3 M 37.966796875 0 C 58.93528366088867 0 75.93359375 16.99832153320312 75.93359375 37.966796875 C 75.93359375 58.93528366088867 58.93528366088867 75.93359375 37.966796875 75.93359375 C 16.99831008911133 75.93359375 0 58.93528366088867 0 37.966796875 C 0 16.99832153320312 16.99831008911133 0 37.966796875 0 Z" stroke="none" fill="#655531"/>
                                      </g>
                                    </g>
                                  </g>
                                </g>
                              </g>
                            </g>
                          </g>
                        </g>
                      </g>
                    </g>
                  </g>
                </g>
              </g>
            </g>
          </g>
        </g>
      </g>
    </g>
    <g id="criterios" transform="translate(635.966 1134.004)">
      <path id="Trazado_1179029" data-name="Trazado 1179029" d="M11.959,54.267H44.278a1.959,1.959,0,0,0,1.959-1.959V11.959A1.959,1.959,0,0,0,44.278,10H11.959A1.959,1.959,0,0,0,10,11.959v40.35A1.959,1.959,0,0,0,11.959,54.267Z" transform="translate(-9.021 -9.021)" fill="#fff"/>
      <g id="Grupo_1226070" data-name="Grupo 1226070" transform="translate(25.084 8.501)">
        <path id="Trazado_1179030" data-name="Trazado 1179030" d="M358.065,331.6h4.113v3.979h-4.113Z" transform="translate(-348.082 -307.622)" fill="#66e0f7"/>
        <path id="XMLID_1002_" d="M353.807,384.939a2.742,2.742,0,0,1-2.742-2.742v-9.045a.922.922,0,0,1,.922-.922h3.641a.922.922,0,0,1,.922.922V382.2A2.742,2.742,0,0,1,353.807,384.939Z" transform="translate(-341.767 -344.276)" fill="#ff7d97"/>
        <circle id="XMLID_1005_" cx="12.04" cy="12.04" r="12.04" fill="#00ccf2"/>
        <g id="XMLID_1006_" transform="translate(3.917 3.917)">
          <circle id="XMLID_1148_" cx="8.123" cy="8.123" r="8.123" fill="#fff"/>
          <path id="XMLID_1147_" d="M329.482,235.994a8.092,8.092,0,0,0,5.383-2.04,5.579,5.579,0,0,0-10.766,0A8.091,8.091,0,0,0,329.482,235.994Z" transform="translate(-321.36 -219.749)" fill="#ff7d97"/>
          <path id="XMLID_1145_" d="M358.147,173.863v.637a2.547,2.547,0,1,1-5.095,0v-.637a2.547,2.547,0,1,1,5.095,0Z" transform="translate(-347.477 -166.956)" fill="#ffc7af"/>
        </g>
      </g>
      <g id="XMLID_1149_" transform="translate(4.904 6.268)">
        <path id="Trazado_1179031" data-name="Trazado 1179031" d="M54.211,71.835a1.95,1.95,0,0,1-1.383-.573l-2.494-2.494a.88.88,0,0,1,0-1.245L51.855,66A.88.88,0,0,1,53.1,66l1.111,1.111,2.854-2.854a.88.88,0,0,1,1.245,0l1.522,1.522a.88.88,0,0,1,0,1.245l-4.237,4.237A1.95,1.95,0,0,1,54.211,71.835Z" transform="translate(-50.075 -64.001)" fill="#89df8f"/>
      </g>
      <g id="XMLID_1151_" transform="translate(4.904 19.196)">
        <path id="Trazado_1179032" data-name="Trazado 1179032" d="M54.211,203.835a1.95,1.95,0,0,1-1.383-.573l-2.494-2.494a.88.88,0,0,1,0-1.245L51.855,198a.88.88,0,0,1,1.245,0l1.111,1.111,2.854-2.854a.88.88,0,0,1,1.245,0l1.522,1.522a.88.88,0,0,1,0,1.245l-4.237,4.238a1.95,1.95,0,0,1-1.383.573Z" transform="translate(-50.075 -196)" fill="#89df8f"/>
      </g>
      <g id="XMLID_1167_" transform="translate(4.904 32.123)">
        <path id="Trazado_1179033" data-name="Trazado 1179033" d="M54.211,335.835a1.95,1.95,0,0,1-1.383-.573l-2.494-2.494a.88.88,0,0,1,0-1.245L51.855,330a.88.88,0,0,1,1.245,0l1.111,1.111,2.854-2.854a.88.88,0,0,1,1.245,0l1.522,1.522a.88.88,0,0,1,0,1.245l-4.237,4.237A1.95,1.95,0,0,1,54.211,335.835Z" transform="translate(-50.075 -328.001)" fill="#89df8f"/>
      </g>
      <g id="Grupo_1226071" data-name="Grupo 1226071" transform="translate(0 0)">
        <path id="Trazado_1179034" data-name="Trazado 1179034" d="M50.143,20.541A13.037,13.037,0,0,0,38.2,7.566V2.938A2.941,2.941,0,0,0,35.257,0H23.5a.979.979,0,0,0,0,1.959H35.257a.98.98,0,0,1,.979.979V7.552A13.037,13.037,0,0,0,24.118,19.979H18.886a.979.979,0,0,0,0,1.959H24.18A13.051,13.051,0,0,0,34.088,33.2v2.715a1.9,1.9,0,0,0-.685,1.46v6.891H2.938a.98.98,0,0,1-.979-.979V2.938a.98.98,0,0,1,.979-.979H14.69A.979.979,0,1,0,14.69,0H2.938A2.941,2.941,0,0,0,0,2.938v40.35a2.941,2.941,0,0,0,2.938,2.938H33.4v.2a3.722,3.722,0,1,0,7.443,0V37.377a1.9,1.9,0,0,0-.686-1.46V33.2A13.042,13.042,0,0,0,50.143,20.541ZM38.887,46.422a1.763,1.763,0,1,1-3.526,0V37.434h3.526Zm-2.84-10.946v-1.96q.533.044,1.077.045c.363,0,.722-.016,1.077-.045v1.96ZM37.124,31.6A11.061,11.061,0,1,1,48.185,20.541,11.073,11.073,0,0,1,37.124,31.6Z" transform="translate(0 0)"/>
        <path id="Trazado_1179035" data-name="Trazado 1179035" d="M295.228,116.8a9.1,9.1,0,1,0,9.1,9.1A9.112,9.112,0,0,0,295.228,116.8Zm0,16.245a7.1,7.1,0,0,1-4.234-1.395,4.6,4.6,0,0,1,8.468,0A7.1,7.1,0,0,1,295.228,133.043Zm-1.568-7.721v-.637a1.568,1.568,0,0,1,3.136,0v.637a1.568,1.568,0,0,1-3.136,0Zm7.267,4.879a6.586,6.586,0,0,0-2.932-2.7,3.508,3.508,0,0,0,.76-2.183v-.637a3.527,3.527,0,1,0-7.054,0v.637a3.508,3.508,0,0,0,.76,2.183,6.587,6.587,0,0,0-2.932,2.7,7.143,7.143,0,1,1,11.4,0Z" transform="translate(-258.104 -105.359)"/>
        <path id="Trazado_1179036" data-name="Trazado 1179036" d="M51.5,56.066l-1.522-1.522a1.86,1.86,0,0,0-2.63,0L45.19,56.706l-.418-.418a1.86,1.86,0,0,0-2.63,0L40.62,57.81a1.86,1.86,0,0,0,0,2.63l2.494,2.494a2.936,2.936,0,0,0,4.152,0L51.5,58.7a1.86,1.86,0,0,0,0-2.63Zm-5.623,5.482a.977.977,0,0,1-1.382,0l-2.424-2.424,1.382-1.381L44.5,58.784a.98.98,0,0,0,1.385,0L48.666,56l1.381,1.382Z" transform="translate(-36.15 -48.711)"/>
        <path id="Trazado_1179037" data-name="Trazado 1179037" d="M183.814,73.959h7.974a.979.979,0,0,0,0-1.959h-7.974a.979.979,0,1,0,0,1.959Z" transform="translate(-164.929 -64.949)"/>
        <path id="Trazado_1179038" data-name="Trazado 1179038" d="M183.814,117.959H187.4a.979.979,0,0,0,0-1.959h-3.583a.979.979,0,1,0,0,1.959Z" transform="translate(-164.929 -104.639)"/>
        <path id="Trazado_1179039" data-name="Trazado 1179039" d="M51.5,188.067l-1.522-1.522a1.86,1.86,0,0,0-2.63,0l-2.162,2.162-.418-.418a1.86,1.86,0,0,0-2.63,0l-1.522,1.522a1.86,1.86,0,0,0,0,2.63l2.494,2.494a2.936,2.936,0,0,0,4.152,0L51.5,190.7a1.86,1.86,0,0,0,0-2.63Zm-5.623,5.482a.977.977,0,0,1-1.382,0l-2.424-2.424,1.382-1.381,1.041,1.041a.98.98,0,0,0,1.385,0L48.666,188l1.381,1.382Z" transform="translate(-36.15 -167.785)"/>
        <path id="Trazado_1179040" data-name="Trazado 1179040" d="M183.814,249.959h2.45a.979.979,0,0,0,0-1.959h-2.45a.979.979,0,1,0,0,1.959Z" transform="translate(-164.929 -223.712)"/>
        <path id="Trazado_1179041" data-name="Trazado 1179041" d="M49.982,318.545a1.86,1.86,0,0,0-2.63,0l-2.162,2.162-.418-.418a1.86,1.86,0,0,0-2.63,0L40.62,321.81a1.86,1.86,0,0,0,0,2.63l2.494,2.494a2.936,2.936,0,0,0,4.152,0L51.5,322.7a1.86,1.86,0,0,0,0-2.63Zm-4.1,7a.977.977,0,0,1-1.382,0l-2.424-2.424,1.382-1.381,1.041,1.041a.98.98,0,0,0,1.385,0L48.666,320l1.381,1.382Z" transform="translate(-36.15 -286.856)"/>
        <path id="Trazado_1179042" data-name="Trazado 1179042" d="M183.814,337.959h7.974a.979.979,0,0,0,0-1.959h-7.974a.979.979,0,1,0,0,1.959Z" transform="translate(-164.929 -303.093)"/>
        <path id="Trazado_1179043" data-name="Trazado 1179043" d="M183.814,381.959H187.4a.979.979,0,0,0,0-1.959h-3.583a.979.979,0,1,0,0,1.959Z" transform="translate(-164.929 -342.784)"/>
        <ellipse id="Elipse_14685" data-name="Elipse 14685" cx="0.619" cy="1.238" rx="0.619" ry="1.238" transform="translate(18.571)"/>
      </g>
    </g>
  </g>
</svg>
